<?xml version="1.0" encoding="utf-8"?>
<!-- Generator: Adobe Illustrator 26.0.1, SVG Export Plug-In . SVG Version: 6.00 Build 0)  -->
<svg version="1.1" id="Layer_1" xmlns="http://www.w3.org/2000/svg" xmlns:xlink="http://www.w3.org/1999/xlink" x="0px" y="0px"
	 viewBox="0 0 586 500" style="enable-background:new 0 0 586 500;" xml:space="preserve">
<style type="text/css">
	.st0{fill:#B1B4C4;}
	.st1{fill:#E4E7F2;}
	.st2{fill:#D6D8E5;}
	.st3{fill:#FFFFFF;}
	.st4{opacity:0.5;fill:url(#SVGID_1_);enable-background:new    ;}
	.st5{opacity:0.4;fill:#D6D8E5;enable-background:new    ;}
	.st6{fill:#2B303F;}
	.st7{fill:#C3C6D1;}
	.st8{fill:#E9EAF2;}
	.st9{fill:#92278F;}
	.st10{fill:#F5F6FF;}
	.st11{fill:none;stroke:#E9EAF2;stroke-width:0.22;stroke-miterlimit:10;}
	.st12{fill:none;stroke:#E9EAF2;stroke-width:1.09;stroke-miterlimit:10;}
	.st13{fill:#F15A29;}
	.st14{fill:#FAFBFF;}
	.st15{opacity:0.3;fill:#D6D8E5;enable-background:new    ;}
	.st16{opacity:0.1;enable-background:new    ;}
	.st17{opacity:0.15;enable-background:new    ;}
	.st18{fill:#2B2A30;}
	.st19{fill:#FFCEA9;}
	.st20{fill:#F4F4F4;}
	.st21{fill:#BF4B4B;}
	.st22{fill:#EDEDED;}
	.st23{fill:#3A2C6D;}
	.st24{fill:#BFBFBF;}
	.st25{fill:#E5E5E5;}
	.st26{fill:#38226D;}
	.st27{fill:#9C73FF;}
	.st28{fill:#A1A5B5;}
	.st29{opacity:0.1;fill:#3E7EFF;enable-background:new    ;}
</style>
<g id="Слой_2">
	<g id="Слой_1-2">
		<g id="Laptop">
			<path class="st0" d="M424.6,323.5L217.9,204.2c-2.9-1.7-5.2-6.2-5.2-10V34.2c0-3.9,2.4-5.6,5.2-4l206.7,119.4
				c2.9,1.7,5.2,6.2,5.2,10v159.9C429.9,323.4,427.5,325.2,424.6,323.5z"/>
			<polygon class="st0" points="425.7,325.2 428,323.9 427,317.1 			"/>
			<path class="st0" d="M212.3,31.3l2.2-1.3l3.2,1.9c0,0-3.4,0.5-3.5,0.5S212.3,31.3,212.3,31.3z"/>
			<path class="st1" d="M422.7,324.6L216,205.3c-2.9-1.7-5.2-6.2-5.2-10V35.3c0-3.9,2.4-5.6,5.2-4l206.7,119.4
				c2.9,1.7,5.2,6.2,5.2,10v159.9C428,324.5,425.6,326.3,422.7,324.6z"/>
			<path class="st2" d="M422.4,324.9L215.6,205.5c-2.9-1.7-5.2-6.2-5.2-10V35.6c0-3.9,2.4-5.6,5.2-4l206.7,119.4
				c2.9,1.7,5.2,6.2,5.2,10v159.9C427.6,324.7,425.3,326.5,422.4,324.9z"/>
			<path class="st3" d="M424.8,315.1L213,192.9l0.1-156.7c0-1.6,1.1-2.3,2.5-1.5l206.7,119.4c1.5,1,2.4,2.6,2.5,4.4L424.8,315.1z"/>
			
				<linearGradient id="SVGID_1_" gradientUnits="userSpaceOnUse" x1="-163.1222" y1="-1594.5411" x2="-163.1222" y2="-1456.2911" gradientTransform="matrix(0.87 0.5 0 -1.15 460.8481 -1508.5835)">
				<stop  offset="0.21" style="stop-color:#FFFFFF;stop-opacity:0"/>
				<stop  offset="1" style="stop-color:#FFFFFF;stop-opacity:0.2"/>
			</linearGradient>
			<path class="st4" d="M424.8,315L213,192.8l0.1-156.7c0-1.6,1.1-2.2,2.5-1.5L422.3,154c1.5,1,2.4,2.6,2.5,4.4L424.8,315z"/>
			<path class="st5" d="M266.4,417.8L59.7,298.4c-2.9-1.7-2.5-4.6,0.8-6.5L199,211.9c3.4-1.9,8.4-2.1,11.3-0.5l206.7,119.3
				c2.9,1.7,2.5,4.6-0.8,6.5l-138.5,80C274.4,419.2,269.4,419.4,266.4,417.8z"/>
			<path class="st0" d="M271,415.1L64.2,295.7c-2.9-1.7-2.5-4.6,0.8-6.5l138.5-80c3.3-1.9,8.4-2.1,11.3-0.5l206.7,119.4
				c2.9,1.7,2.5,4.6-0.8,6.5l-138.5,80C278.9,416.5,273.9,416.7,271,415.1z"/>
			<polygon class="st0" points="62.3,293 62.3,289.1 66.7,290.9 			"/>
			<polygon class="st0" points="423.5,331 423.5,327.2 420.3,328.3 422.4,331.5 			"/>
			<path class="st1" d="M271,411.8L64.2,292.4c-2.9-1.7-2.5-4.6,0.8-6.5l138.5-80c3.3-1.9,8.4-2.1,11.3-0.5l206.7,119.4
				c2.9,1.7,2.5,4.6-0.8,6.5l-138.5,79.9C278.9,413.2,273.9,413.5,271,411.8z"/>
			<path class="st2" d="M271,411.3L64.2,291.9c-2.9-1.7-2.5-4.6,0.8-6.5l138.5-80c3.3-1.9,8.4-2.1,11.3-0.5l206.7,119.4
				c2.9,1.7,2.5,4.6-0.8,6.5l-138.5,80C278.9,412.7,273.9,412.9,271,411.3z"/>
			<path class="st6" d="M199.7,232.4l-9.6-5.6c-0.8-0.4-0.7-1.2,0.2-1.8l9.2-5.3c0.9-0.5,2.1-0.6,3.1-0.1l9.6,5.6
				c0.8,0.4,0.7,1.2-0.2,1.8l-9.2,5.3C201.8,232.8,200.7,232.8,199.7,232.4z"/>
			<path class="st6" d="M213.3,240.3l-9.6-5.6c-0.8-0.4-0.7-1.2,0.2-1.8l9.2-5.3c0.9-0.5,2.1-0.6,3.1-0.1l9.6,5.6
				c0.8,0.4,0.7,1.2-0.2,1.8l-9.2,5.3C215.5,240.7,214.3,240.7,213.3,240.3z"/>
			<path class="st6" d="M227.1,248.2l-9.7-5.6c-0.8-0.5-0.7-1.2,0.2-1.8l9.2-5.3c0.9-0.5,2.1-0.6,3.1-0.1l9.6,5.6
				c0.8,0.5,0.7,1.2-0.2,1.8l-9.2,5.3C229.2,248.6,228.1,248.7,227.1,248.2z"/>
			<path class="st6" d="M240.6,256l-9.6-5.6c-0.8-0.4-0.7-1.2,0.2-1.8l9.2-5.3c0.9-0.5,2.1-0.6,3.1-0.1l9.6,5.6
				c0.8,0.4,0.7,1.2-0.2,1.8l-9.2,5.3C242.7,256.4,241.6,256.4,240.6,256z"/>
			<path class="st6" d="M254.2,263.9l-9.6-5.6c-0.8-0.5-0.7-1.2,0.2-1.8l9.2-5.3c0.9-0.5,2.1-0.6,3.1-0.1l9.6,5.6
				c0.8,0.5,0.7,1.2-0.2,1.8l-9.2,5.3C256.3,264.3,255.2,264.3,254.2,263.9z"/>
			<path class="st6" d="M267.8,271.7l-9.6-5.5c-0.8-0.5-0.7-1.2,0.2-1.8l9.2-5.3c0.9-0.5,2.1-0.6,3.1-0.1l9.6,5.5
				c0.8,0.5,0.7,1.2-0.2,1.8l-9.2,5.3C270,272.1,268.8,272.2,267.8,271.7z"/>
			<path class="st6" d="M281.4,279.6l-9.6-5.6c-0.8-0.5-0.7-1.2,0.2-1.8l9.2-5.3c0.9-0.5,2.1-0.6,3.1-0.1l9.6,5.6
				c0.8,0.5,0.7,1.2-0.2,1.8l-9.2,5.3C283.6,280,282.4,280,281.4,279.6z"/>
			<path class="st6" d="M295.1,287.5l-9.6-5.6c-0.8-0.5-0.7-1.2,0.2-1.8l9.2-5.3c0.9-0.5,2.1-0.6,3.1-0.1l9.6,5.6
				c0.8,0.5,0.7,1.2-0.2,1.8l-9.2,5.3C297.2,287.9,296.1,287.9,295.1,287.5z"/>
			<path class="st6" d="M308.7,295.3l-9.6-5.5c-0.8-0.5-0.7-1.2,0.2-1.8l9.2-5.3c0.9-0.5,2.1-0.6,3.1-0.1l9.6,5.6
				c0.8,0.5,0.7,1.2-0.2,1.8l-9.2,5.3C310.8,295.7,309.7,295.8,308.7,295.3z"/>
			<path class="st6" d="M322.3,303.2l-9.6-5.6c-0.8-0.5-0.7-1.2,0.2-1.8l9.2-5.3c0.9-0.5,2.1-0.6,3.1-0.1l9.6,5.5
				c0.8,0.5,0.7,1.2-0.2,1.8l-9.2,5.3C324.5,303.6,323.3,303.6,322.3,303.2z"/>
			<path class="st6" d="M336,311.1l-9.6-5.6c-0.8-0.5-0.7-1.2,0.2-1.8l9.2-5.3c0.9-0.5,2.1-0.6,3.1-0.1l9.6,5.6
				c0.8,0.5,0.7,1.2-0.2,1.8l-9.2,5.3C338.1,311.5,337,311.5,336,311.1z"/>
			<path class="st6" d="M349.6,318.9l-9.6-5.5c-0.8-0.5-0.7-1.2,0.2-1.8l9.2-5.3c0.9-0.5,2.1-0.6,3.1-0.1l9.6,5.6
				c0.8,0.5,0.7,1.2-0.2,1.8l-9.2,5.3C351.7,319.3,350.6,319.4,349.6,318.9z"/>
			<path class="st6" d="M363.2,326.8l-9.6-5.6c-0.8-0.5-0.7-1.2,0.2-1.8l9.2-5.3c0.9-0.5,2.1-0.6,3.1-0.1l9.6,5.5
				c0.8,0.5,0.7,1.2-0.2,1.8l-9.2,5.3C365.3,327.2,364.2,327.3,363.2,326.8z"/>
			<path class="st6" d="M383.4,338.5l-16.2-9.4c-0.8-0.5-0.7-1.2,0.2-1.8l9.2-5.3c0.9-0.5,2.1-0.6,3.1-0.1l16.2,9.4
				c0.8,0.5,0.7,1.2-0.2,1.8l-9.2,5.3C385.6,338.9,384.4,338.9,383.4,338.5z"/>
			<path class="st6" d="M206.7,251.7l-9.6-5.6c-0.8-0.5-0.7-1.2,0.2-1.8l9.2-5.3c0.9-0.5,2.1-0.6,3.1-0.1l9.6,5.6
				c0.8,0.5,0.7,1.2-0.2,1.8l-9.2,5.3C208.8,252.1,207.7,252.1,206.7,251.7z"/>
			<path class="st6" d="M220.4,259.6l-9.6-5.6c-0.8-0.5-0.7-1.2,0.2-1.8l9.2-5.3c0.9-0.5,2.1-0.6,3.1-0.1l9.6,5.6
				c0.8,0.5,0.7,1.2-0.2,1.8l-9.2,5.3C222.5,260,221.3,260,220.4,259.6z"/>
			<path class="st6" d="M234,267.5l-9.6-5.5c-0.8-0.5-0.7-1.2,0.2-1.8l9.2-5.3c0.9-0.5,2.1-0.6,3.1-0.1l9.6,5.6
				c0.8,0.5,0.7,1.2-0.2,1.8l-9.2,5.3C236.1,267.9,235,267.9,234,267.5z"/>
			<path class="st6" d="M247.7,275.3l-9.6-5.5c-0.8-0.5-0.7-1.2,0.2-1.8l9.2-5.3c0.9-0.5,2.1-0.6,3.1-0.1l9.6,5.6
				c0.8,0.5,0.7,1.2-0.2,1.8l-9.2,5.3C249.8,275.7,248.6,275.8,247.7,275.3z"/>
			<path class="st6" d="M261.2,283.1l-9.6-5.6c-0.8-0.5-0.7-1.2,0.2-1.8l9.2-5.3c0.9-0.5,2.1-0.6,3.1-0.1l9.6,5.5
				c0.8,0.5,0.7,1.2-0.2,1.8l-9.2,5.3C263.3,283.6,262.2,283.6,261.2,283.1z"/>
			<path class="st6" d="M274.8,291l-9.6-5.5c-0.8-0.5-0.7-1.2,0.2-1.8l9.2-5.3c0.9-0.5,2.1-0.6,3.1-0.1l9.6,5.5
				c0.8,0.5,0.7,1.2-0.2,1.8l-9.2,5.3C277,291.4,275.8,291.4,274.8,291z"/>
			<path class="st6" d="M288.5,298.9l-9.6-5.5c-0.8-0.5-0.7-1.2,0.2-1.8l9.2-5.3c0.9-0.5,2.1-0.6,3.1-0.1l9.6,5.5
				c0.8,0.5,0.7,1.2-0.2,1.8l-9.2,5.3C290.6,299.3,289.5,299.4,288.5,298.9z"/>
			<path class="st6" d="M302.1,306.8l-9.6-5.5c-0.8-0.5-0.7-1.2,0.2-1.8l9.2-5.3c0.9-0.5,2.1-0.6,3.1-0.1l9.6,5.5
				c0.8,0.5,0.7,1.2-0.2,1.8l-9.2,5.3C304.3,307.2,303.1,307.2,302.1,306.8z"/>
			<path class="st6" d="M315.8,314.7l-9.6-5.5c-0.8-0.5-0.7-1.2,0.2-1.8l9.2-5.3c0.9-0.5,2.1-0.6,3.1-0.1l9.6,5.6
				c0.8,0.5,0.7,1.2-0.2,1.8l-9.2,5.3C317.9,315.1,316.8,315.1,315.8,314.7z"/>
			<path class="st6" d="M329.4,322.5l-9.6-5.5c-0.8-0.5-0.7-1.2,0.2-1.8l9.2-5.3c0.9-0.5,2.1-0.6,3.1-0.1l9.6,5.6
				c0.8,0.5,0.7,1.2-0.2,1.8l-9.2,5.3C331.6,323,330.4,323,329.4,322.5z"/>
			<path class="st6" d="M343.1,330.4l-9.6-5.5c-0.8-0.5-0.7-1.2,0.2-1.8l9.2-5.3c0.9-0.5,2.1-0.6,3.1-0.1l9.6,5.6
				c0.8,0.5,0.7,1.2-0.2,1.8l-9.2,5.3C345.2,330.8,344.1,330.9,343.1,330.4z"/>
			<path class="st6" d="M356.7,338.3l-9.6-5.6c-0.8-0.5-0.7-1.2,0.2-1.8l9.2-5.3c0.9-0.5,2.1-0.6,3.1-0.1l9.6,5.6
				c0.8,0.5,0.7,1.2-0.2,1.8l-9.2,5.3C358.9,338.7,357.7,338.8,356.7,338.3z"/>
			<path class="st6" d="M193.1,243.8l-16.2-9.3c-0.8-0.5-0.7-1.2,0.2-1.8l9.2-5.3c0.9-0.5,2.1-0.6,3.1-0.1l16.2,9.3
				c0.8,0.5,0.7,1.2-0.2,1.8l-9.2,5.3C195.2,244.2,194,244.3,193.1,243.8z"/>
			<path class="st6" d="M382.7,339l-9.6-5.5c-0.9-0.5-2-0.5-2.9,0l-9.7,5.5c-0.5,0.2-0.7,0.6-0.5,1.1c0.1,0.3,0.3,0.5,0.5,0.5
				l0.8,0.4c0.4,0.1,0.6,0.6,0.5,1c-0.1,0.2-0.3,0.4-0.5,0.5l-10.3,5.9c-0.8,0.5-0.8,1.2,0,1.6l6.1,3.5c0.9,0.5,2,0.5,2.9,0l9.6-5.5
				l2-1.1l1.4-0.8l1.4-0.8l8.3-4.8C383.5,340.1,383.5,339.4,382.7,339z"/>
			<path class="st6" d="M146.9,262.9l-9.6-5.6c-0.8-0.5-0.7-1.2,0.2-1.8l9.2-5.3c0.9-0.5,2.1-0.6,3.1-0.1l9.6,5.6
				c0.8,0.5,0.7,1.2-0.2,1.8l-9.2,5.3C149.1,263.3,147.9,263.4,146.9,262.9z"/>
			<path class="st6" d="M160.5,270.8l-9.6-5.6c-0.8-0.5-0.7-1.2,0.2-1.8l9.2-5.3c0.9-0.5,2.1-0.6,3.1-0.1l9.6,5.6
				c0.8,0.5,0.7,1.2-0.2,1.8l-9.2,5.3C162.6,271.2,161.5,271.2,160.5,270.8z"/>
			<path class="st6" d="M174.1,278.6l-9.7-5.6c-0.8-0.5-0.7-1.2,0.2-1.8l9.2-5.3c0.9-0.5,2.1-0.6,3.1-0.1l9.6,5.6
				c0.8,0.5,0.7,1.2-0.2,1.8l-9.2,5.3C176.2,279,175.1,279.1,174.1,278.6z"/>
			<path class="st6" d="M289.8,345.4l-9.6-5.5c-0.8-0.5-0.7-1.2,0.2-1.8l9.2-5.3c0.9-0.5,2.1-0.6,3.1-0.1l9.6,5.6
				c0.8,0.5,0.7,1.2-0.2,1.8l-9.2,5.3C291.9,345.8,290.8,345.9,289.8,345.4z"/>
			<path class="st6" d="M303.4,353.3l-9.6-5.6c-0.8-0.5-0.7-1.2,0.2-1.8l9.2-5.3c0.9-0.5,2.1-0.6,3.1-0.1l9.6,5.6
				c0.8,0.5,0.7,1.2-0.2,1.8l-9.2,5.3C305.6,353.7,304.4,353.7,303.4,353.3z"/>
			<path class="st6" d="M317,361.1l-9.6-5.5c-0.8-0.5-0.7-1.2,0.2-1.8l9.2-5.3c0.9-0.5,2.1-0.6,3.1-0.1l9.6,5.5
				c0.8,0.5,0.7,1.2-0.2,1.8l-9.2,5.3C319.1,361.5,318,361.6,317,361.1z"/>
			<path class="st6" d="M330.6,369l-9.6-5.6c-0.8-0.5-0.7-1.2,0.2-1.8l9.2-5.3c0.9-0.5,2.1-0.6,3.1-0.1l9.6,5.6
				c0.8,0.5,0.7,1.2-0.2,1.8l-9.2,5.3C332.7,369.4,331.6,369.4,330.6,369z"/>
			<path class="st6" d="M191.2,288.5l-13.1-7.6c-0.8-0.5-0.7-1.2,0.2-1.8l9.2-5.3c0.9-0.5,2.1-0.6,3.1-0.1l13.1,7.6
				c0.8,0.5,0.7,1.2-0.2,1.8l-9.2,5.3C193.3,288.9,192.2,288.9,191.2,288.5z"/>
			<path class="st6" d="M276.2,337.6l-13.1-7.6c-0.8-0.5-0.7-1.2,0.2-1.8l9.2-5.3c0.9-0.5,2.1-0.6,3.1-0.1l13.1,7.6
				c0.8,0.5,0.7,1.2-0.2,1.8l-9.2,5.3C278.4,338,277.2,338,276.2,337.6z"/>
			<path class="st6" d="M259.1,327.7l-64-36.9c-0.8-0.5-0.7-1.2,0.2-1.8l9.2-5.3c0.9-0.5,2.1-0.6,3.1-0.1l64,37
				c0.8,0.5,0.7,1.2-0.2,1.8l-9.2,5.3C261.3,328.1,260.1,328.2,259.1,327.7z"/>
			<path class="st6" d="M197.2,261.5l-9.6-5.6c-0.8-0.4-0.7-1.2,0.2-1.8l9.2-5.3c0.9-0.5,2.1-0.6,3.1-0.1l9.6,5.6
				c0.8,0.4,0.7,1.2-0.2,1.8l-9.2,5.3C199.3,261.9,198.2,261.9,197.2,261.5z"/>
			<path class="st6" d="M210.8,269.3l-9.6-5.6c-0.8-0.5-0.7-1.2,0.2-1.8l9.2-5.3c0.9-0.5,2.1-0.6,3.1-0.1l9.6,5.6
				c0.8,0.5,0.7,1.2-0.2,1.8l-9.2,5.3C212.9,269.7,211.8,269.8,210.8,269.3z"/>
			<path class="st6" d="M224.4,277.2l-9.6-5.5c-0.8-0.5-0.7-1.2,0.2-1.8l9.2-5.3c0.9-0.5,2.1-0.6,3.1-0.1l9.6,5.6
				c0.8,0.5,0.7,1.2-0.2,1.8l-9.2,5.3C226.6,277.6,225.4,277.6,224.4,277.2z"/>
			<path class="st6" d="M238,285l-9.6-5.5c-0.8-0.5-0.7-1.2,0.2-1.8l9.2-5.3c0.9-0.5,2.1-0.6,3.1-0.1l9.6,5.5
				c0.8,0.5,0.7,1.2-0.2,1.8l-9.2,5.3C240.2,285.4,239,285.5,238,285z"/>
			<path class="st6" d="M251.7,292.9l-9.6-5.6c-0.8-0.5-0.7-1.2,0.2-1.8l9.2-5.3c0.9-0.5,2.1-0.6,3.1-0.1l9.6,5.5
				c0.8,0.5,0.7,1.2-0.2,1.8l-9.2,5.3C253.8,293.3,252.6,293.3,251.7,292.9z"/>
			<path class="st6" d="M265.3,300.8l-9.6-5.6c-0.8-0.5-0.7-1.2,0.2-1.8l9.2-5.3c0.9-0.5,2.1-0.6,3.1-0.1l9.6,5.6
				c0.8,0.5,0.7,1.2-0.2,1.8l-9.2,5.3C267.4,301.1,266.2,301.2,265.3,300.8z"/>
			<path class="st6" d="M278.9,308.6l-9.6-5.6c-0.8-0.5-0.7-1.2,0.2-1.8l9.2-5.3c0.9-0.5,2.1-0.6,3.1-0.1l9.6,5.6
				c0.8,0.5,0.7,1.2-0.2,1.8l-9.2,5.3C281,309,279.9,309.1,278.9,308.6z"/>
			<path class="st6" d="M292.4,316.5l-9.6-5.6c-0.8-0.5-0.7-1.2,0.2-1.8l9.2-5.3c0.9-0.5,2.1-0.6,3.1-0.1l9.6,5.6
				c0.8,0.5,0.7,1.2-0.2,1.8l-9.2,5.3C294.6,316.9,293.4,316.9,292.4,316.5z"/>
			<path class="st6" d="M306.1,324.3l-9.6-5.6c-0.8-0.5-0.7-1.2,0.2-1.8l9.2-5.3c0.9-0.5,2.1-0.6,3.1-0.1l9.6,5.5
				c0.8,0.5,0.7,1.2-0.2,1.8l-9.2,5.3C308.2,324.7,307.1,324.8,306.1,324.3z"/>
			<path class="st6" d="M319.7,332.2l-9.6-5.6c-0.8-0.5-0.7-1.2,0.2-1.8l9.2-5.3c0.9-0.5,2.1-0.6,3.1-0.1l9.6,5.5
				c0.8,0.5,0.7,1.2-0.2,1.8l-9.2,5.3C321.8,332.6,320.7,332.6,319.7,332.2z"/>
			<path class="st6" d="M333.3,340l-9.6-5.6c-0.8-0.5-0.7-1.2,0.2-1.8l9.2-5.3c0.9-0.5,2.1-0.6,3.1-0.1l9.6,5.6
				c0.8,0.5,0.7,1.2-0.2,1.8l-9.2,5.3C335.4,340.4,334.3,340.4,333.3,340z"/>
			<path class="st6" d="M346.9,347.9l-9.6-5.6c-0.8-0.5-0.7-1.2,0.2-1.8l9.2-5.3c0.9-0.5,2.1-0.6,3.1-0.1l9.7,5.6
				c0.8,0.5,0.7,1.2-0.2,1.8l-9.2,5.3C349.1,348.3,347.9,348.4,346.9,347.9z"/>
			<path class="st6" d="M183.6,253.6l-19.9-11.5c-0.8-0.5-0.7-1.2,0.2-1.8l9.2-5.3c0.9-0.5,2.1-0.6,3.1-0.1l19.9,11.5
				c0.8,0.5,0.7,1.2-0.2,1.8l-9.2,5.3C185.7,254,184.6,254,183.6,253.6z"/>
			<path class="st6" d="M177.2,265.2l-9.6-5.5c-0.8-0.5-0.7-1.2,0.2-1.8l9.2-5.3c0.9-0.5,2.1-0.6,3.1-0.1l9.6,5.5
				c0.8,0.5,0.7,1.2-0.2,1.8l-9.2,5.3C179.4,265.6,178.2,265.6,177.2,265.2z"/>
			<path class="st6" d="M190.9,273l-9.6-5.6c-0.8-0.5-0.7-1.2,0.2-1.8l9.2-5.3c0.9-0.5,2.1-0.6,3.1-0.1l9.6,5.6
				c0.8,0.5,0.7,1.2-0.2,1.8l-9.2,5.3C193,273.4,191.8,273.4,190.9,273z"/>
			<path class="st6" d="M204.4,280.9l-9.6-5.6c-0.8-0.5-0.7-1.2,0.2-1.8l9.2-5.3c0.9-0.5,2.1-0.6,3.1-0.1l9.6,5.6
				c0.8,0.5,0.7,1.2-0.2,1.8l-9.2,5.3C206.6,281.3,205.4,281.3,204.4,280.9z"/>
			<path class="st6" d="M218.1,288.8l-9.6-5.5c-0.8-0.5-0.7-1.2,0.2-1.8l9.2-5.3c0.9-0.5,2.1-0.6,3.1-0.1l9.6,5.5
				c0.8,0.5,0.7,1.2-0.2,1.8l-9.2,5.3C220.2,289.2,219.1,289.2,218.1,288.8z"/>
			<path class="st6" d="M231.7,296.6l-9.6-5.6c-0.8-0.5-0.7-1.2,0.2-1.8l9.2-5.3c0.9-0.5,2.1-0.6,3.1-0.1l9.6,5.6
				c0.8,0.5,0.7,1.2-0.2,1.8l-9.2,5.3C233.8,297,232.7,297.1,231.7,296.6z"/>
			<path class="st6" d="M245.3,304.5l-9.6-5.6c-0.8-0.5-0.7-1.2,0.2-1.8l9.2-5.3c0.9-0.5,2.1-0.6,3.1-0.1l9.6,5.6
				c0.8,0.5,0.7,1.2-0.2,1.8l-9.2,5.3C247.4,304.9,246.3,304.9,245.3,304.5z"/>
			<path class="st6" d="M258.9,312.3l-9.6-5.5c-0.8-0.5-0.7-1.2,0.2-1.8l9.2-5.3c0.9-0.5,2.1-0.6,3.1-0.1l9.6,5.5
				c0.8,0.5,0.7,1.2-0.2,1.8l-9.2,5.3C261,312.7,259.9,312.8,258.9,312.3z"/>
			<path class="st6" d="M272.5,320.2l-9.6-5.6c-0.8-0.5-0.7-1.2,0.2-1.8l9.2-5.3c0.9-0.5,2.1-0.6,3.1-0.1l9.6,5.6
				c0.8,0.5,0.7,1.2-0.2,1.8l-9.2,5.3C274.6,320.6,273.5,320.6,272.5,320.2z"/>
			<path class="st6" d="M286.1,328l-9.7-5.5c-0.8-0.5-0.7-1.2,0.2-1.8l9.2-5.3c0.9-0.5,2.1-0.6,3.1-0.1l9.6,5.6
				c0.8,0.5,0.7,1.2-0.2,1.8l-9.2,5.3C288.2,328.4,287.1,328.4,286.1,328z"/>
			<path class="st6" d="M299.7,335.9l-9.6-5.5c-0.8-0.5-0.7-1.2,0.2-1.8l9.2-5.3c0.9-0.5,2.1-0.6,3.1-0.1l9.6,5.6
				c0.8,0.5,0.7,1.2-0.2,1.8l-9.2,5.3C301.8,336.3,300.7,336.3,299.7,335.9z"/>
			<path class="st6" d="M313.3,343.8l-9.6-5.6c-0.8-0.5-0.7-1.2,0.2-1.8l9.2-5.3c0.9-0.5,2.1-0.6,3.1-0.1l9.6,5.6
				c0.8,0.5,0.7,1.2-0.2,1.8l-9.2,5.3C315.5,344.1,314.3,344.2,313.3,343.8z"/>
			<path class="st6" d="M343.8,361.3L317.3,346c-0.8-0.5-0.7-1.2,0.2-1.8l9.2-5.3c0.9-0.5,2.1-0.6,3.1-0.1l26.5,15.3
				c0.8,0.5,0.7,1.2-0.2,1.8l-9.2,5.3C345.9,361.7,344.8,361.8,343.8,361.3z"/>
			<path class="st6" d="M163.6,257.3l-13.1-7.6c-0.8-0.4-0.7-1.2,0.2-1.8l9.2-5.3c0.9-0.5,2.1-0.6,3.1-0.1l13.1,7.6
				c0.8,0.4,0.7,1.2-0.2,1.8l-9.2,5.3C165.8,257.7,164.6,257.8,163.6,257.3z"/>
			<path class="st6" d="M397.1,330.6L203.8,219c-0.8-0.4-0.7-1.2,0.2-1.8l4.6-2.6c0.9-0.5,2.1-0.6,3.1-0.1L405,326
				c0.8,0.5,0.7,1.2-0.2,1.8l-4.6,2.6C399.2,331,398.1,331,397.1,330.6z"/>
			<path class="st0" d="M277.3,343.2c-0.3,0.6-0.7,1.1-1.3,1.4l-53.2,30.7c-1.8,1-4,1.1-5.9,0.2L126,323.1c-0.4-0.2-0.7-0.6-0.9-1
				c-0.3-0.8,0.1-1.7,1.3-2.4l53.2-30.7c1.8-1,4-1.1,5.9-0.2l90.9,52.5C277.2,341.6,277.6,342.4,277.3,343.2z"/>
			<path class="st7" d="M277.3,343.2c-0.3,0.6-0.7,1.1-1.3,1.4l-53.2,30.7c-1.8,1-4,1.1-5.9,0.2L126,323.1c-0.4-0.2-0.7-0.6-0.9-1
				c0.3-0.6,0.7-1.1,1.3-1.3l53.2-30.7c1.8-1,4-1.1,5.9-0.2l90.9,52.5C276.8,342.5,277.2,342.8,277.3,343.2z"/>
			<path class="st6" d="M411.8,322.1L218.5,210.5c-0.9-0.6-1.4-1.6-1.4-2.7v-2.3c0-1.1,0.6-1.5,1.4-1.1L411.8,316
				c0.9,0.6,1.4,1.6,1.4,2.7v2.3C413.2,322.1,412.6,322.5,411.8,322.1z"/>
			<path class="st8" d="M296,103.8l-67-38.7c-0.6-0.5-1-1.2-1-1.9v-4.7c0-0.8,0.5-1.1,1-0.8l67,38.7c0.6,0.5,1,1.2,1,1.9v4.7
				C297,103.7,296.6,104.1,296,103.8z"/>
			<path class="st8" d="M278.8,104.9l-49.5-28.5c-0.6-0.5-1-1.2-1-2v-2.3c0-0.8,0.4-1.1,1-0.8l49.5,28.5c0.6,0.5,1,1.2,1,2v2.3
				C279.8,104.9,279.4,105.2,278.8,104.9z"/>
			<path class="st8" d="M278.8,113.7l-49.5-28.6c-0.6-0.5-1-1.2-1-2v-2.3c0-0.8,0.4-1.1,1-0.8l49.5,28.6c0.6,0.4,1,1.2,1,1.9v2.3
				C279.8,113.7,279.4,114,278.8,113.7z"/>
			<path class="st9" d="M269.5,117.1L229.4,94c-0.6-0.4-1-1.2-1-1.9v-2.4c0-0.8,0.4-1.1,1-0.8l40.1,23.2c0.6,0.5,1,1.2,1,2v2.3
				C270.5,117.1,270.1,117.4,269.5,117.1z"/>
			<path class="st8" d="M296,196.3l-67-38.7c-0.6-0.5-1-1.2-1-2V151c0-0.8,0.5-1.1,1-0.8l67,38.7c0.6,0.5,1,1.2,1,2v4.7
				C297,196.3,296.6,196.6,296,196.3z"/>
			<path class="st8" d="M278.8,197.4l-49.4-28.6c-0.6-0.4-1-1.2-1-1.9v-2.3c0-0.8,0.4-1.1,1-0.8l49.4,28.6c0.6,0.5,1,1.2,1,1.9v2.3
				C279.8,197.4,279.4,197.7,278.8,197.4z"/>
			<path class="st8" d="M278.8,206.2l-49.4-28.6c-0.6-0.5-1-1.2-1-1.9v-2.3c0-0.8,0.4-1.1,1-0.8l49.4,28.6c0.6,0.5,1,1.2,1,2v2.3
				C279.8,206.2,279.4,206.5,278.8,206.2z"/>
			<path class="st9" d="M269.5,209.6l-40.1-23.2c-0.6-0.5-1-1.2-1-1.9v-2.3c0-0.8,0.4-1.1,1-0.8l40.1,23.2c0.6,0.5,1,1.2,1,1.9v2.3
				C270.5,209.6,270.1,210,269.5,209.6z"/>
			<path class="st10" d="M313.9,207.8c0,0,7.4,6.2,18-2.3c7.6-6.2,14.4-2.7,18.2-0.5s9.3,3.4,19.7,22.3c2.2,3.7,5.3,6.8,9,9.1
				c5.6,3.2,8.3,1.7,12.7-5s7.3-14,15.4-9.2V289l-93.8-54.1v-27.5L313.9,207.8z"/>
			<path class="st8" d="M293.6,179.4l-64.2-37.1c-0.6-0.5-1-1.2-1-1.9v-37c0-0.8,0.4-1.1,1-0.8l64.2,37.1c0.6,0.5,1,1.2,1,1.9v37
				C294.6,179.4,294.1,179.8,293.6,179.4z"/>
			<polyline class="st11" points="313.2,206.2 313.2,234.9 407,289 407,222.2 			"/>
			<line class="st11" x1="350.1" y1="205.3" x2="350.1" y2="256.1"/>
			<line class="st11" x1="378.8" y1="237.4" x2="378.8" y2="272.7"/>
			<path class="st12" d="M313.2,207.3c16.6,10.3,19-13,37.1-2.5s15.6,24.1,29,31.8s13.7-22.5,27.7-14.4"/>
			<ellipse transform="matrix(0.866 -0.5 0.5 0.866 -55.7448 202.5504)" class="st13" cx="350.1" cy="205.3" rx="1.8" ry="3.1"/>
			
				<ellipse transform="matrix(0.867 -0.4983 0.4983 0.867 -56.8581 233.1918)" class="st13" cx="408.4" cy="223.1" rx="1.8" ry="3.1"/>
			
				<ellipse transform="matrix(0.867 -0.4983 0.4983 0.867 -67.9153 221.0136)" class="st13" cx="380.1" cy="237.7" rx="1.8" ry="3.1"/>
			
				<ellipse transform="matrix(0.867 -0.4983 0.4983 0.867 -61.9251 184.2805)" class="st13" cx="314.3" cy="208.2" rx="1.8" ry="3.1"/>
			<path class="st8" d="M315.9,158.1l-3.8-2.2c-0.6-0.5-1-1.2-1-1.9v-18.6c0-0.8,0.5-1.1,1-0.8l3.8,2.2c0.6,0.5,1,1.2,1,1.9v18.6
				C316.9,158,316.4,158.4,315.9,158.1z"/>
			<path class="st9" d="M324.7,163.2l-3.9-2.2c-0.6-0.5-1-1.2-1-1.9v-37.8c0-0.8,0.5-1.1,1-0.8l3.9,2.2c0.6,0.5,1,1.2,1,2v37.7
				C325.7,163.1,325.3,163.5,324.7,163.2z"/>
			<path class="st8" d="M342.4,173.4l-3.8-2.2c-0.6-0.5-1-1.2-1-1.9v-34.1c0-0.8,0.5-1.1,1-0.8l3.8,2.2c0.6,0.5,1,1.2,1,1.9v34.1
				C343.4,173.4,343,173.7,342.4,173.4z"/>
			<path class="st9" d="M351.3,178.5l-3.8-2.2c-0.6-0.5-1-1.2-1-1.9v-28.3c0-0.8,0.5-1.1,1-0.8l3.8,2.2c0.6,0.5,1,1.2,1,1.9v28.3
				C352.3,178.5,351.8,178.8,351.3,178.5z"/>
			<path class="st8" d="M368.9,188.7l-3.8-2.2c-0.6-0.5-1-1.2-1-2v-14c0-0.8,0.5-1.1,1-0.8l3.8,2.2c0.6,0.5,1,1.2,1,1.9v14
				C369.9,188.7,369.4,189,368.9,188.7z"/>
			<path class="st9" d="M377.8,193.8l-3.9-2.2c-0.6-0.5-1-1.2-1-1.9v-47.5c0-0.8,0.5-1.1,1-0.8l3.9,2.2c0.6,0.5,1,1.2,1,1.9V193
				C378.8,193.8,378.3,194.1,377.8,193.8z"/>
			<path class="st8" d="M399.4,206.3l-3.9-2.3c-0.6-0.5-1-1.2-1-1.9v-14c0-0.8,0.5-1.1,1-0.8l3.9,2.2c0.6,0.5,1,1.2,1,1.9v14
				C400.4,206.2,399.9,206.6,399.4,206.3z"/>
			<path class="st9" d="M408.2,211.4l-3.9-2.2c-0.6-0.5-1-1.2-1-1.9v-18.6c0-0.8,0.5-1.1,1-0.8l3.9,2.2c0.6,0.5,1,1.2,1,1.9v18.6
				C409.2,211.4,408.8,211.7,408.2,211.4z"/>
		</g>
		<polygon class="st5" points="398.7,486.9 299.7,429.8 435.7,351.2 534.7,408.4 		"/>
		<polygon class="st0" points="535,404.5 439.3,349.2 306.6,425.9 303.3,424 303.3,427.7 402.3,484.9 538.3,406.4 538.3,402.6 		"/>
		<polygon class="st14" points="402.3,481.1 303.3,424 439.3,345.5 538.3,402.6 		"/>
		<polygon class="st8" points="509.1,408.7 429.7,362.9 437.6,358.3 516.9,404.1 		"/>
		<polygon class="st8" points="500.7,413.5 421.3,367.7 425.3,365.4 504.6,411.2 		"/>
		<polygon class="st8" points="494.2,417.3 414.9,371.4 418.8,369.2 498.1,415 		"/>
		<polygon class="st8" points="487.7,421 408.4,375.2 412.3,372.9 491.7,418.7 		"/>
		<polygon class="st8" points="440.2,448.5 360.8,402.6 368.7,398.1 448,443.9 		"/>
		<polygon class="st8" points="426.4,450.2 352.4,407.5 356.4,405.2 430.3,447.9 		"/>
		<polygon class="st8" points="418.4,453.1 345.9,411.2 349.9,409 422.3,450.8 		"/>
		<polygon class="st8" points="400.7,450.3 339.5,415 343.4,412.7 404.6,448.1 		"/>
		<polygon class="st8" points="400.1,405.5 378,392.8 400.1,380 422.2,392.8 		"/>
		<polygon class="st8" points="428.7,422 406.6,409.3 428.7,396.5 450.8,409.3 		"/>
		<polygon class="st8" points="457.3,438.6 435.2,425.8 457.3,413 479.5,425.8 		"/>
		<polygon class="st15" points="89.5,245 70.7,234.2 89.5,223.3 108.2,234.2 		"/>
		<polygon class="st15" points="119.2,227.6 100.5,216.8 119.2,206 138,216.8 		"/>
		<polygon class="st9" points="130.4,123.8 111.6,113 130.4,102.2 149.1,113 		"/>
		<polygon class="st9" points="130.4,221.4 111.6,210.5 111.6,113 130.4,123.8 		"/>
		<polygon class="st16" points="130.4,221.4 111.6,210.5 111.6,113 130.4,123.8 		"/>
		<polygon class="st9" points="149.1,210.5 130.4,221.4 130.4,123.8 149.1,113 		"/>
		<polygon class="st17" points="149.1,210.5 130.4,221.4 130.4,123.8 149.1,113 		"/>
		<polygon class="st8" points="102.2,172.6 83.4,161.8 102.2,150.9 121,161.8 		"/>
		<polygon class="st8" points="102.2,237.5 83.4,226.7 83.4,161.8 102.2,172.6 		"/>
		<polygon class="st16" points="102.2,237.5 83.4,226.7 83.4,161.8 102.2,172.6 		"/>
		<polygon class="st8" points="121,226.7 102.2,237.5 102.2,172.6 121,161.8 		"/>
		<polygon class="st17" points="121,226.7 102.2,237.5 102.2,172.6 121,161.8 		"/>
		<polygon class="st15" points="65.4,259.2 46.7,248.4 65.4,237.5 84.2,248.4 		"/>
		<polygon class="st9" points="72.2,224.1 53.5,213.2 72.2,202.4 91,213.2 		"/>
		<polygon class="st9" points="72.2,255.1 53.5,244.3 53.5,213.2 72.2,224.1 		"/>
		<polygon class="st16" points="72.2,255.1 53.5,244.3 53.5,213.2 72.2,224.1 		"/>
		<polygon class="st9" points="91,244.3 72.2,255.1 72.2,224.1 91,213.2 		"/>
		<polygon class="st17" points="91,244.3 72.2,255.1 72.2,224.1 91,213.2 		"/>
		<g id="Girl_12">
			<path id="_Контур_" class="st18" d="M268.1,1.3c0.9-1.4,7.4-2.3,9.6,3.3c0.8,2.1,0.7,7.5,1.4,10.9s2.3,5.3,2.9,8
				c0.6,2.7-0.4,7.3-7,8.1c-6.6,0.8-11.6-1.5-13.2-3.6s-1.6-6.6,0-9s2.9-4.4,2.8-7.5L268.1,1.3z"/>
			<path id="_Контур_2" class="st18" d="M272.4,0.4c0,0-5-1.4-7.9,1.2c-2,1.8-2.8,4.7-2.1,7.3c0.4,1.6,1.2,3.7,2.4,3.8
				S272.4,0.4,272.4,0.4z"/>
			<path id="_Контур_3" class="st19" d="M274.3,13.8c0,0-0.3,5.5-0.2,5.9s2.1,0.8,2.7,1.3c0.6,0.5-3,6.1-4.8,6.9
				c-1.8,0.8-7.4-1.3-7.8-4.1c-0.4-2.6,1.6-4.6,2.4-5.3c0.5,0,1,0,1.5,0l0.2-2.7C270.7,15,274.3,13.8,274.3,13.8z"/>
			<path id="_Контур_4" class="st19" d="M258.1,43.1c-1.6,2.1-3.4,4-5.5,5.7c-0.7,0.7-1.3,1.4-1.9,2.2c-1,1.1-2.3,2-3.7,2.4
				c-1.2,0.3-1.8,0.2-2,0s-0.1-0.6,0.4-0.8c0.9-0.3,1.7-0.7,2.4-1.3c0,0-1.1,0.5-1.9,0.8c-0.6,0.2-1.3,0.4-2,0.4
				c-0.7,0-1.4-0.8-0.9-1s1-0.3,2.1-0.7c0.6-0.2,1.1-0.5,1.6-0.8c-0.7,0.2-1.5,0.4-2.3,0.5c-0.6,0.1-1.3,0-1.9-0.2
				c-0.3-0.1-0.6-0.7,0.1-0.9c0.9-0.1,1.8-0.3,2.7-0.6c0.8-0.4,1.4-0.8,1.2-0.9s-0.7,0.2-1.5,0.1s-1.6-0.6-1.6-1s0.2-0.2,1-0.3
				c0.9-0.2,1.8-0.4,2.6-0.5c0.9,0,1.8-0.1,2.6-0.3c0.9-0.3,2.9-2.7,4.4-4.9c1.7-2.5,3-5.2,3.9-8c0.9-3,2-8.7,2.8-10.7
				s2.1-2.9,3.4-2.9c1.5,0,2.2,1.9,1.8,3.7C265.6,26.1,262.3,37.7,258.1,43.1z"/>
			<path id="_Контур_5" class="st20" d="M275.1,20.2c1.5,0.2,3.3,1.1,3.5,1.9c0.6,3,0.5,6.2-0.4,9.2
				c-1.3,3.5-2.9,9.9-3.6,11.4c-4,0.6-8-0.2-11.5-2.2c0,0-0.3-6.1-0.3-8.2c-5-4.3-0.7-9.7,3.5-13.8c0.5,0,1,0,1.5,0
				c0,0-3.8,4.4-1.1,7C272.2,23.8,273.3,21.2,275.1,20.2z"/>
			<path id="_Контур_6" class="st19" d="M264,7L264,7c0.6-3.5,3.1-6.2,6.8-6c3.9,0.2,6.8,3.5,6.6,7.4c0,0,0,0,0,0
				c-0.1,2.2-1.3,4.1-3.1,5.4c-0.1,0.5-0.3,1.1-0.6,1.6c-1.3,1.5-4.7,2.4-5.8,2.5c-1,0-1.8-0.9-2.7-2.4C263.3,12.2,263.7,8.8,264,7z
				"/>
			<path class="st18" d="M271.9,1.1c2.5,0.5,4.6,1.2,5.3,3.7c0.5,1.7,1.1,5,0.5,6.4l-0.4,1l-3.1,1.6c0,0-1.4-1.2-1-4.7
				c0-0.5-0.2-0.9-0.4-1.3c-0.2-0.3-0.3-0.7-0.4-1.1c-0.4-0.9-1.1-1.7-2-2.2c-2-0.9-4.3-0.8-6.1,0.3C265.6,1.9,268.8,0.4,271.9,1.1z
				"/>
			<path class="st18" d="M257.9,85.5c-1.3,1-3.3,0.3-3.4,0.4c-1.5,1.3-3.1,2.5-4.7,3.6c-0.8,0.6-2.1,1.5-1.8,2.7
				c0.4,2.2,3.9,1.5,5.2,0.8s2.4-1.8,3.6-2.5c0.9-0.6,1.8-0.8,1.9-2C258.7,87.9,258.1,85.5,257.9,85.5z"/>
			<path class="st21" d="M258.6,88.2c-0.2,1.1-1,1.4-1.9,1.9c-1.3,0.8-2.4,1.9-3.7,2.6s-4.2,1.2-5.1-0.3c0.5,2.1,3.9,1.4,5.2,0.8
				s2.4-1.8,3.6-2.5c0.9-0.6,1.8-0.8,1.9-2C258.6,88.4,258.6,88.3,258.6,88.2z"/>
			<path class="st18" d="M251.6,82c-1.2,1-3,0.4-3.1,0.5c-1.4,1.2-2.8,2.3-4.3,3.3c-0.7,0.6-1.9,1.4-1.7,2.5c0.4,2,3.6,1.4,4.8,0.8
				s2.2-1.6,3.3-2.3c0.8-0.5,1.6-0.8,1.7-1.8C252.3,83.9,252,82.9,251.6,82z"/>
			<path class="st21" d="M252.3,84.5c-0.2,1-0.9,1.2-1.8,1.8c-1.1,0.7-2.1,1.7-3.4,2.4s-3.9,1.1-4.7-0.3c0.4,1.9,3.6,1.3,4.8,0.7
				s2.2-1.6,3.3-2.3c0.8-0.5,1.6-0.8,1.7-1.8C252.3,84.8,252.3,84.7,252.3,84.5z"/>
			<path class="st19" d="M269.4,44.1c-3.5,0.5-7.1,0-10.3-1.5c0.1,1.1,0.1,2.1,0.1,2.1c-4.2,3-12.6,7.9-13.1,11.4
				c0.6,10.9,2.2,26.4,2.7,26.6c1.3,0.6,2.2,0.5,2.9-0.1c0,0,2.6-9.2,1.9-22.7c0,0,14.7-6.5,15.6-10c0.4-1.4,0.6-2.9,0.4-4.4
				C269.5,45,269.5,44.5,269.4,44.1z"/>
			<path class="st19" d="M274.3,42.7c-2.8,1.2-5.9,1.7-8.9,1.2c0,1.5,0.2,4.2,0.2,4.2c-4.2,2.9-12.6,7.9-13.1,11.4
				c0.5,10.9,1.6,26.6,2,26.8c1.1,0.5,2.5,0.3,3.5-0.4c0,0,2.6-9.1,1.9-22.6c0-0.2,12.6-6.4,14.1-8.1s1.9-4.1,1.9-6.4
				C275.8,46.7,275.2,44.6,274.3,42.7z"/>
			<path class="st13" d="M277.4,45c0,0,4.6,8.2-3.1,12.5c-8.2,4.5-13.1,5.5-13.1,5.5l-1.2,0.3c0.4,2.8,0.4,5.7,0,8.6
				c0,0-5.8,2-13.3-4.5l-2.5-7.9l-0.3-2.1c-0.3-1.5,0.2-3,1.2-4c1.8-1.6,7.4-5.8,10.9-8.1s6.3-4.6,6.3-4.6l0.6-0.6
				c0,0,4.2,3.3,11.8,2.2C275.8,42.9,276.7,43.9,277.4,45z"/>
			<path id="_Контур_7" class="st19" d="M272.8,57.2c0.7-0.6,1.5-1.2,2.2-1.8c0.8-0.4,1.6-1,2.3-1.6c0.7-0.7,1.8-3.7,2.3-6.6
				c0.5-3.3,0.5-6.6-0.2-9.8c-1-3.9-2.3-7.7-3.9-11.3c-1-2.2-0.5-3.5,0.5-4.5c1.1-1.1,2.3-1.1,3.6,1.9c1.9,4.3,3.2,8.7,4.1,13.3
				c0.5,3.3,0.5,6.7-0.1,10c-0.5,2.9-1.4,5.7-2.7,8.4c-0.3,0.8-0.4,1.5-0.9,3c-0.4,1.6-1.3,3-2.4,4.2c-1,0.9-1.5,1.1-1.8,1
				s-0.3-0.5,0.1-1c0.7-0.7,1.3-1.5,1.7-2.5c0,0-0.9,1.1-1.4,1.7c-0.5,0.6-1.1,1-1.7,1.4c-0.6,0.4-1.6-0.1-1.2-0.6
				c0.4-0.5,0.9-0.8,1.7-1.7c0.4-0.5,0.8-1,1.1-1.6c-0.6,0.6-1.2,1.1-1.9,1.6c-0.5,0.4-1.1,0.7-1.8,0.8c-0.3,0-0.8-0.4-0.2-1
				c0.8-0.6,1.6-1.2,2.2-2c0.6-0.8,0.9-1.4,0.7-1.4c-0.2,0-0.5,0.5-1.3,0.9s-1.7,0.2-1.9-0.2S272.1,57.7,272.8,57.2z"/>
			<path class="st22" d="M281.6,27.7c0,0-2.8,2.5-5.9,2l-1.3-5.2c0,0-0.8-2.8,1.5-3.8C278.3,19.6,280.6,22.3,281.6,27.7z"/>
			<path class="st22" d="M266.2,18.5c0,0-3.1-0.9-6.3,5.8l1.2,0.7C262.6,22.7,264.3,20.5,266.2,18.5z"/>
			<g id="_Группа_">
				<g id="_Группа_2">
					<path id="_Контур_8" class="st20" d="M245.1,47.6l10.9-6.3c0.2-0.1,0.4-0.1,0.6,0l19,11l-11.2,6.5L245.1,47.6z"/>
					<path class="st23" d="M264.8,56.3l0.8,0.5c0.1,0,0.1,0.1,0,0.2l-0.8,0.5c-0.1,0-0.2,0-0.3,0l-0.8-0.5c-0.1,0-0.1-0.1,0-0.2
						l0.8-0.5C264.6,56.3,264.7,56.3,264.8,56.3z"/>
					<path class="st23" d="M263.6,55.7l0.8,0.5c0.1,0,0.1,0.1,0,0.2l-0.8,0.5c-0.1,0-0.2,0-0.3,0l-0.8-0.5c-0.1,0-0.1-0.1,0-0.2
						l0.8-0.5C263.4,55.6,263.5,55.6,263.6,55.7z"/>
					<path class="st23" d="M262.4,55l0.8,0.5c0.1,0,0.1,0.1,0,0.2l-0.8,0.5c-0.1,0-0.2,0-0.3,0l-0.8-0.5c-0.1,0-0.1-0.1,0-0.2
						l0.8-0.5C262.3,55,262.4,55,262.4,55z"/>
					<path class="st23" d="M261.3,54.3l0.8,0.5c0.1,0,0,0.1,0,0.2l-0.8,0.5c-0.1,0-0.2,0-0.3,0l-0.8-0.5c-0.1,0-0.1-0.1,0-0.2
						l0.8-0.5C261.1,54.2,261.2,54.2,261.3,54.3z"/>
					<path class="st23" d="M260.1,53.6l0.8,0.5c0.1,0,0.1,0.1,0,0.2l-0.8,0.5c-0.1,0-0.2,0-0.3,0l-0.8-0.5c-0.1,0-0.1-0.1,0-0.2
						l0.8-0.5C259.9,53.6,260,53.6,260.1,53.6z"/>
					<path class="st23" d="M258.9,52.9l0.8,0.5c0.1,0,0.1,0.1,0,0.2l-0.8,0.5c-0.1,0-0.2,0-0.3,0l-0.8-0.5c-0.1,0-0.1-0.1,0-0.2
						l0.8-0.5C258.7,52.9,258.8,52.9,258.9,52.9z"/>
					<path class="st23" d="M257.7,52.2l0.8,0.5c0.1,0,0.1,0.1,0,0.2l-0.8,0.5c-0.1,0-0.2,0-0.3,0l-0.8-0.5c-0.1,0-0.1-0.1,0-0.2
						l0.8-0.5C257.6,52.2,257.7,52.2,257.7,52.2z"/>
					<path class="st23" d="M256.6,51.6l0.8,0.5c0.1,0,0.1,0.1,0,0.2l-0.8,0.5c-0.1,0-0.2,0-0.3,0l-0.9-0.5c-0.1,0-0.1-0.1,0-0.2
						l0.8-0.5C256.3,51.5,256.5,51.5,256.6,51.6z"/>
					<path class="st23" d="M255.4,50.9l0.8,0.5c0.1,0,0.1,0.1,0,0.2l-0.8,0.5c-0.1,0-0.2,0-0.3,0l-0.8-0.5c-0.1,0-0.1-0.1,0-0.2
						l0.8-0.5C255.2,50.9,255.3,50.9,255.4,50.9z"/>
					<path class="st23" d="M254.2,50.2l0.8,0.5c0.1,0,0.1,0.1,0,0.2l-0.8,0.5c-0.1,0-0.2,0-0.3,0l-0.8-0.5c-0.1,0-0.1-0.1,0-0.2
						l0.8-0.5C254,50.2,254.1,50.2,254.2,50.2z"/>
					<path class="st23" d="M253,49.5l0.8,0.5c0.1,0,0.1,0.1,0,0.2l-0.8,0.5c-0.1,0-0.2,0-0.3,0l-0.8-0.5c-0.1,0-0.1-0.1,0-0.2
						l0.8-0.5C252.9,49.5,253,49.5,253,49.5z"/>
					<path class="st23" d="M251.9,48.9l0.8,0.5c0.1,0,0.1,0.1,0,0.2l-0.8,0.5c-0.1,0-0.2,0-0.3,0l-0.8-0.5c-0.1,0-0.1-0.1,0-0.2
						l0.8-0.5C251.7,48.8,251.8,48.8,251.9,48.9z"/>
					<path class="st23" d="M250.7,48.2l0.8,0.5c0.1,0,0.1,0.1,0,0.2l-0.8,0.5c-0.1,0-0.2,0-0.3,0l-0.8-0.5c-0.1,0-0.1-0.1,0-0.2
						l0.8-0.5C250.5,48.1,250.6,48.1,250.7,48.2z"/>
					<path class="st23" d="M248.9,47.2l1.4,0.8c0.1,0,0.1,0.1,0,0.2l-0.8,0.5c-0.1,0-0.2,0-0.3,0l-1.4-0.8c-0.1,0-0.1-0.1,0-0.2
						l0.8-0.5C248.8,47.1,248.9,47.1,248.9,47.2z"/>
					<path class="st23" d="M264.2,54.7l0.8,0.5c0.1,0,0.1,0.1,0,0.2l-0.8,0.5c-0.1,0-0.2,0-0.3,0l-0.8-0.5c-0.1,0-0.1-0.1,0-0.2
						l0.8-0.5C264,54.6,264.1,54.6,264.2,54.7z"/>
					<path class="st23" d="M263,54l0.8,0.5c0.1,0,0.1,0.1,0,0.2l-0.8,0.5c-0.1,0-0.2,0-0.3,0l-0.8-0.5c-0.1,0-0.1-0.1,0-0.2l0.8-0.5
						C262.8,54,262.9,54,263,54z"/>
					<path class="st23" d="M261.8,53.3l0.8,0.5c0.1,0,0.1,0.1,0,0.2l-0.8,0.5c-0.1,0-0.2,0-0.3,0l-0.8-0.5c-0.1,0-0.1-0.1,0-0.2
						l0.8-0.5C261.6,53.3,261.7,53.3,261.8,53.3z"/>
					<path class="st23" d="M260.6,52.6l0.8,0.5c0.1,0,0,0.1,0,0.2l-0.8,0.5c-0.1,0-0.2,0-0.3,0l-0.8-0.5c-0.1,0-0.1-0.1,0-0.2
						l0.8-0.5C260.5,52.6,260.6,52.6,260.6,52.6z"/>
					<path class="st23" d="M259.4,52l0.8,0.5c0.1,0,0.1,0.1,0,0.2l-0.8,0.5c-0.1,0-0.2,0-0.3,0l-0.8-0.5c-0.1,0-0.1-0.1,0-0.2
						l0.8-0.5C259.3,52,259.4,52,259.4,52z"/>
					<path class="st23" d="M258.3,51.3l0.8,0.5c0.1,0,0.1,0.1,0,0.2l-0.8,0.5c-0.1,0-0.2,0-0.3,0l-0.8-0.5c-0.1,0-0.1-0.1,0-0.2
						l0.8-0.5C258.1,51.2,258.2,51.2,258.3,51.3z"/>
					<path class="st23" d="M257.1,50.6l0.8,0.5c0.1,0,0.1,0.1,0,0.2l-0.8,0.5c-0.1,0-0.2,0-0.3,0l-0.8-0.5c-0.1,0-0.1-0.1,0-0.2
						l0.8-0.5C257,50.5,257,50.5,257.1,50.6z"/>
					<path class="st23" d="M255.9,49.9l0.8,0.5c0.1,0,0.1,0.1,0,0.2L256,51c-0.1,0-0.2,0-0.3,0l-0.8-0.5c-0.1,0-0.1-0.1,0-0.2
						l0.8-0.5C255.8,49.9,255.9,49.9,255.9,49.9z"/>
					<path class="st23" d="M254.8,49.2l0.8,0.5c0.1,0,0.1,0.1,0,0.2l-0.8,0.5c-0.1,0-0.2,0-0.3,0l-0.8-0.5c-0.1,0-0.1-0.1,0-0.2
						l0.8-0.5C254.6,49.2,254.7,49.2,254.8,49.2z"/>
					<path class="st23" d="M253.6,48.5l0.9,0.5c0.1,0,0.1,0.1,0,0.2l-0.8,0.5c-0.1,0-0.2,0-0.3,0l-0.8-0.5c-0.1,0-0.1-0.1,0-0.2
						l0.8-0.5C253.4,48.5,253.5,48.5,253.6,48.5z"/>
					<path class="st23" d="M252.4,47.9l0.8,0.5c0.1,0,0.1,0.1,0,0.2l-0.8,0.5c-0.1,0-0.2,0-0.3,0l-0.8-0.5c-0.1,0-0.1-0.1,0-0.2
						l0.8-0.5C252.2,47.8,252.4,47.8,252.4,47.9z"/>
					<path class="st23" d="M251.2,47.2l0.8,0.5c0.1,0,0.1,0.1,0,0.2l-0.8,0.5c-0.1,0-0.2,0-0.3,0l-0.8-0.5c-0.1,0-0.1-0.1,0-0.2
						l0.8-0.5C251.1,47.1,251.2,47.1,251.2,47.2z"/>
					<path class="st23" d="M265.4,55.3l1.4,0.8c0.1,0,0.1,0.1,0,0.2l-0.8,0.5c-0.1,0-0.2,0-0.3,0l-1.4-0.8c-0.1,0-0.1-0.1,0-0.2
						l0.8-0.5C265.2,55.3,265.3,55.3,265.4,55.3z"/>
					<path class="st23" d="M249,47.1l0.8,0.5c0.1,0,0.2,0,0.2,0l0.8-0.5c0,0,0.1-0.1,0-0.1c0,0,0,0,0,0h-0.1c0,0-0.1-0.1,0-0.1
						c0,0,0,0,0,0l0.9-0.5c0,0,0.1-0.1,0-0.1c0,0,0,0,0,0l-0.5-0.3c-0.1,0-0.2,0-0.2,0l-0.8,0.5l-0.2,0.1l-0.1,0.1l-0.1,0.1L249,47
						C248.9,47,248.9,47.1,249,47.1z"/>
					<path class="st23" d="M269.3,53.7l0.8,0.5c0.1,0,0,0.1,0,0.2l-0.8,0.5c-0.1,0-0.2,0-0.3,0l-0.8-0.5c-0.1,0-0.1-0.1,0-0.2
						l0.8-0.5C269.2,53.7,269.3,53.7,269.3,53.7z"/>
					<path class="st23" d="M268.2,53l0.8,0.5c0.1,0,0.1,0.1,0,0.2l-0.8,0.5c-0.1,0-0.2,0-0.3,0l-0.8-0.5c-0.1,0-0.1-0.1,0-0.2
						l0.8-0.5C268,53,268.1,53,268.2,53z"/>
					<path class="st23" d="M267,52.3l0.8,0.5c0.1,0,0.1,0.1,0,0.2l-0.8,0.5c-0.1,0-0.2,0-0.3,0l-0.8-0.5c-0.1,0-0.1-0.1,0-0.2
						l0.8-0.5C266.8,52.3,266.9,52.3,267,52.3z"/>
					<path class="st23" d="M257,46.6l0.8,0.5c0.1,0,0.1,0.1,0,0.2l-0.8,0.5c-0.1,0-0.2,0-0.3,0l-0.8-0.5c-0.1,0-0.1-0.1,0-0.2
						l0.8-0.5C256.8,46.5,256.9,46.5,257,46.6z"/>
					<path class="st23" d="M255.8,45.9l0.8,0.5c0.1,0,0.1,0.1,0,0.2l-0.8,0.5c-0.1,0-0.2,0-0.3,0l-0.8-0.5c-0.1,0-0.1-0.1,0-0.2
						l0.8-0.5C255.7,45.9,255.8,45.9,255.8,45.9z"/>
					<path class="st23" d="M254.7,45.2l0.8,0.5c0.1,0,0.1,0.1,0,0.2l-0.8,0.5c-0.1,0-0.2,0-0.3,0l-0.8-0.5c-0.1,0-0.1-0.1,0-0.2
						l0.8-0.5C254.5,45.2,254.6,45.2,254.7,45.2z"/>
					<path class="st23" d="M253.5,44.5l0.8,0.5c0.1,0,0.1,0.1,0,0.2l-0.8,0.5c-0.1,0-0.2,0-0.3,0l-0.8-0.5c-0.1,0-0.1-0.1,0-0.2
						l0.8-0.5C253.3,44.5,253.4,44.5,253.5,44.5z"/>
					<path class="st23" d="M265.5,51.5l1.1,0.7c0.1,0,0.1,0.1,0,0.2l-0.8,0.5c-0.1,0-0.2,0-0.3,0l-1.2-0.6c-0.1,0-0.1-0.1,0-0.2
						l0.8-0.5C265.3,51.4,265.4,51.4,265.5,51.5z"/>
					<path class="st23" d="M258.2,47.2l1.1,0.7c0.1,0,0.1,0.1,0,0.2l-0.8,0.5c-0.1,0-0.2,0-0.3,0l-1.1-0.7c-0.1,0-0.1-0.1,0-0.2
						l0.8-0.5C258,47.2,258.1,47.2,258.2,47.2z"/>
					<path class="st23" d="M259.7,48.1l5.5,3.2c0.1,0,0.1,0.1,0,0.2l-0.8,0.5c-0.1,0-0.2,0-0.3,0l-5.5-3.2c-0.1,0-0.1-0.1,0-0.2
						l0.8-0.5C259.5,48.1,259.6,48.1,259.7,48.1z"/>
					<path class="st23" d="M265,53.8l0.8,0.5c0.1,0,0.1,0.1,0,0.2l-0.8,0.5c-0.1,0-0.2,0-0.3,0l-0.8-0.5c-0.1,0-0.1-0.1,0-0.2
						l0.8-0.5C264.8,53.8,264.9,53.8,265,53.8z"/>
					<path class="st23" d="M263.8,53.1l0.8,0.5c0.1,0,0.1,0.1,0,0.2l-0.8,0.5c-0.1,0-0.2,0-0.3,0l-0.8-0.5c-0.1,0-0.1-0.1,0-0.2
						l0.8-0.5C263.6,53.1,263.7,53.1,263.8,53.1z"/>
					<path class="st23" d="M262.7,52.5l0.8,0.5c0.1,0,0.1,0.1,0,0.2l-0.8,0.5c-0.1,0-0.2,0-0.3,0l-0.8-0.5c-0.1,0-0.1-0.1,0-0.2
						l0.8-0.5C262.5,52.4,262.6,52.4,262.7,52.5z"/>
					<path class="st23" d="M261.4,51.8l0.8,0.5c0.1,0,0.1,0.1,0,0.2l-0.8,0.5c-0.1,0-0.2,0-0.3,0l-0.8-0.5c-0.1,0-0.1-0.1,0-0.2
						l0.8-0.5C261.3,51.7,261.4,51.7,261.4,51.8z"/>
					<path class="st23" d="M260.3,51.1l0.8,0.5c0.1,0,0.1,0.1,0,0.2l-0.8,0.5c-0.1,0-0.2,0-0.3,0l-0.8-0.5c-0.1,0-0.1-0.1,0-0.2
						l0.8-0.5C260.1,51.1,260.2,51.1,260.3,51.1z"/>
					<path class="st23" d="M259.1,50.4l0.8,0.5c0.1,0,0.1,0.1,0,0.2l-0.8,0.5c-0.1,0-0.2,0-0.3,0l-0.8-0.5c-0.1,0-0.1-0.1,0-0.2
						l0.8-0.5C259,50.4,259.1,50.4,259.1,50.4z"/>
					<path class="st23" d="M258,49.8l0.8,0.5c0.1,0,0.1,0.1,0,0.2l-0.8,0.5c-0.1,0-0.2,0-0.3,0l-0.8-0.5c-0.1,0-0.1-0.1,0-0.2
						l0.8-0.5C257.8,49.7,257.9,49.7,258,49.8z"/>
					<path class="st23" d="M256.8,49.1l0.8,0.5c0.1,0,0.1,0.1,0,0.2l-0.8,0.5c-0.1,0-0.2,0-0.3,0l-0.8-0.5c-0.1,0-0.1-0.1,0-0.2
						l0.8-0.5C256.6,49,256.7,49,256.8,49.1z"/>
					<path class="st23" d="M255.6,48.4l0.8,0.5c0.1,0,0.1,0.1,0,0.2l-0.8,0.5c-0.1,0-0.2,0-0.3,0l-0.8-0.5c-0.1,0-0.1-0.1,0-0.2
						l0.8-0.5C255.4,48.4,255.5,48.4,255.6,48.4z"/>
					<path class="st23" d="M254.4,47.7l0.8,0.5c0.1,0,0.1,0.1,0,0.2l-0.8,0.5c-0.1,0-0.2,0-0.3,0l-0.8-0.5c-0.1,0-0.1-0.1,0-0.2
						l0.8-0.5C254.3,47.7,254.4,47.7,254.4,47.7z"/>
					<path class="st23" d="M253.3,47l0.8,0.5c0.1,0,0.1,0.1,0,0.2l-0.8,0.5c-0.1,0-0.2,0-0.3,0l-0.8-0.5c-0.1,0-0.1-0.1,0-0.2
						L253,47C253.1,47,253.2,47,253.3,47z"/>
					<path class="st23" d="M252.1,46.4l0.8,0.5c0.1,0,0.1,0.1,0,0.2l-0.8,0.5c-0.1,0-0.2,0-0.3,0L251,47c-0.1,0-0.1-0.1,0-0.2
						l0.8-0.5C251.9,46.3,252,46.3,252.1,46.4z"/>
					<path class="st23" d="M266.2,54.5l1.7,1c0.1,0,0.1,0.1,0,0.2l-0.8,0.5c-0.1,0-0.2,0-0.3,0l-1.7-1c-0.1,0-0.1-0.1,0-0.2l0.8-0.5
						C266,54.5,266.1,54.5,266.2,54.5z"/>
					<path class="st23" d="M266.7,53.5l0.8,0.5c0.1,0,0.1,0.1,0,0.2l-0.8,0.5c-0.1,0-0.2,0-0.3,0l-0.8-0.5c-0.1,0-0.1-0.1,0-0.2
						l0.8-0.5C266.5,53.5,266.6,53.5,266.7,53.5z"/>
					<path class="st23" d="M265.6,52.8l0.8,0.5c0.1,0,0.1,0.1,0,0.2l-0.8,0.5c-0.1,0-0.2,0-0.3,0l-0.8-0.5c-0.1,0-0.1-0.1,0-0.2
						l0.8-0.5C265.4,52.8,265.5,52.8,265.6,52.8z"/>
					<path class="st23" d="M264.4,52.1l0.8,0.5c0.1,0,0.1,0.1,0,0.2l-0.8,0.5c-0.1,0-0.2,0-0.3,0l-0.8-0.5c-0.1,0-0.1-0.1,0-0.2
						l0.8-0.5C264.2,52.1,264.3,52.1,264.4,52.1z"/>
					<path class="st23" d="M263.2,51.5l0.8,0.5c0.1,0,0.1,0.1,0,0.2l-0.8,0.5c-0.1,0-0.2,0-0.3,0l-0.8-0.5c-0.1,0-0.1-0.1,0-0.2
						l0.8-0.5C263,51.4,263.1,51.4,263.2,51.5z"/>
					<path class="st23" d="M262,50.8l0.8,0.5c0.1,0,0.1,0.1,0,0.2l-0.8,0.5c-0.1,0-0.2,0-0.3,0l-0.8-0.5c-0.1,0-0.1-0.1,0-0.2
						l0.8-0.5C261.8,50.7,261.9,50.7,262,50.8z"/>
					<path class="st23" d="M260.9,50.1l0.8,0.5c0.1,0,0.1,0.1,0,0.2l-0.8,0.5c-0.1,0-0.2,0-0.3,0l-0.8-0.5c-0.1,0-0.1-0.1,0-0.2
						l0.8-0.5C260.7,50.1,260.8,50.1,260.9,50.1z"/>
					<path class="st23" d="M259.7,49.4l0.8,0.5c0.1,0,0,0.1,0,0.2l-0.8,0.5c-0.1,0-0.2,0-0.3,0l-0.8-0.5c-0.1,0-0.1-0.1,0-0.2
						l0.8-0.5C259.5,49.4,259.6,49.4,259.7,49.4z"/>
					<path class="st23" d="M258.5,48.8l0.8,0.5c0.1,0,0.1,0.1,0,0.2l-0.8,0.5c-0.1,0-0.2,0-0.3,0l-0.8-0.5c-0.1,0-0.1-0.1,0-0.2
						l0.8-0.5C258.3,48.7,258.4,48.7,258.5,48.8z"/>
					<path class="st23" d="M257.3,48.1l0.8,0.5c0.1,0,0.1,0.1,0,0.2l-0.8,0.5c-0.1,0-0.2,0-0.3,0l-0.8-0.5c-0.1,0-0.1-0.1,0-0.2
						l0.8-0.5C257.2,48,257.3,48,257.3,48.1z"/>
					<path class="st23" d="M256.2,47.4l0.8,0.5c0.1,0,0.1,0.1,0,0.2l-0.8,0.5c-0.1,0-0.2,0-0.3,0l-0.8-0.5c-0.1,0-0.1-0.1,0-0.2
						l0.8-0.5C256,47.4,256.1,47.4,256.2,47.4z"/>
					<path class="st23" d="M255,46.7l0.8,0.5c0.1,0,0.1,0.1,0,0.2l-0.8,0.5c-0.1,0-0.2,0-0.3,0l-0.8-0.5c-0.1,0-0.1-0.1,0-0.2
						l0.8-0.5C254.8,46.7,254.9,46.7,255,46.7z"/>
					<path class="st23" d="M252.4,45.2l2.3,1.3c0.1,0,0.1,0.1,0,0.2l-0.8,0.5c-0.1,0-0.2,0-0.3,0l-2.3-1.3c-0.1,0-0.1-0.1,0-0.2
						l0.8-0.5C252.2,45.2,252.3,45.2,252.4,45.2z"/>
					<path class="st23" d="M267.9,54.2l1.1,0.7c0.1,0,0,0.1,0,0.2l-0.8,0.5c-0.1,0-0.2,0-0.3,0l-1.1-0.7c-0.1,0-0.1-0.1,0-0.2
						l0.8-0.5C267.7,54.1,267.8,54.1,267.9,54.2z"/>
					<path class="st23" d="M247.8,47.9l16.7,9.6c0.1,0,0.1,0.1,0,0.2l-0.4,0.2c-0.1,0-0.2,0-0.3,0l-16.7-9.6c-0.1,0,0-0.1,0-0.2
						l0.4-0.2C247.6,47.8,247.7,47.8,247.8,47.9z"/>
					<polygon id="_Контур_9" class="st24" points="267.5,48.5 267.4,48.5 264.5,50.2 259.4,47.3 259.3,47.2 262.3,45.5 					
						"/>
					<polygon id="_Контур_10" class="st25" points="267.4,48.5 264.5,50.2 259.4,47.3 262.3,45.6 					"/>
					<path id="_Контур_11" class="st25" d="M275.7,52.4v0.2c0,0.4-0.2,0.7-0.5,0.9L265,59.4c-0.3,0.2-0.7,0.2-1,0l-18.3-10.6
						c-0.3-0.2-0.5-0.5-0.5-0.9v-0.2l19.4,11.2L275.7,52.4z"/>
					<path id="_Контур_12" class="st25" d="M264.5,58.8v0.7c-0.2,0-0.4,0-0.5-0.1l-18.3-10.6c-0.3-0.2-0.5-0.5-0.5-0.9v-0.2
						L264.5,58.8z"/>
					<path id="_Контур_13" class="st20" d="M264.2,59c-0.4,0.1-0.7,0.1-1.1-0.1l-18.2-10.6c-0.3-0.2-0.5-0.5-0.6-0.9l-2-11.9
						c0-0.1,0-0.1,0-0.2c0-0.3,0.1-0.6,0.4-0.9l18.9,10.9c0.2,0.1,0.4,0.4,0.4,0.6L264.2,59z"/>
					<path id="_Контур_14" class="st25" d="M264.5,58.8l-0.1,0.1l-0.2,0.1l-2.2-12.9c0-0.3-0.2-0.5-0.5-0.6l-18.9-10.9
						c0.1-0.1,0.2-0.1,0.2-0.2l19,11c0.2,0.1,0.4,0.4,0.5,0.7L264.5,58.8z"/>
				</g>
			</g>
		</g>
		<g id="Men_11">
			<path id="_Контур_15" class="st19" d="M104,145.1c1.4,2.6,3.2,4.9,5.2,7.1c0.6,0.6,4.9-1,4-1.5s-3.7-4.4-5.1-7
				c-1.2-3.1-2.2-6.4-3-9.6c-0.9-3.2-1.7-7.9-2.3-10.2c-0.3-1.7-1.6-3-3.3-3.4c-1.5-0.4-2.6,0.1-2.3,1.9
				C97.6,125.8,100.2,138.7,104,145.1z"/>
			<path class="st26" d="M101.5,195.4c1.3,1.1,3.3,0.1,3.4,0.2c1.6,1.5,3.2,2.8,4.9,4.1c0.8,0.6,2.1,1.5,1.9,2.8
				c-0.4,2.3-4,1.6-5.4,0.9s-2.5-1.8-3.8-2.6c-0.9-0.6-1.8-0.9-2-2C100.5,198,101.3,195.3,101.5,195.4z"/>
			<path class="st27" d="M100.7,198.2c0.2,1.1,1.1,1.4,2,2c1.3,0.8,2.5,2,3.8,2.7s4.4,1.3,5.3-0.3c-0.5,2.2-4,1.5-5.4,0.8
				c-1.4-0.7-2.5-1.8-3.8-2.6c-0.9-0.6-1.8-0.9-2-2C100.6,198.5,100.6,198.4,100.7,198.2z"/>
			<path class="st26" d="M115.1,187.5c1.3,1.1,3.7-0.1,3.8,0c1.4,1.4,2.9,2.8,4.4,4c0.8,0.7,2.1,1.5,1.9,2.8c-0.4,2.3-4,1.6-5.4,0.9
				s-2.5-1.8-3.8-2.6c-0.9-0.6-1.8-0.9-2-2C114.1,189.5,114.5,188.4,115.1,187.5z"/>
			<path class="st27" d="M114.1,190.2c0.2,1.1,1.1,1.4,2,2c1.3,0.8,2.5,2,3.8,2.7s4.4,1.3,5.3-0.3c-0.5,2.2-4,1.5-5.4,0.8
				s-2.5-1.8-3.8-2.6c-0.9-0.6-1.8-0.9-2-2C114.1,190.5,114.1,190.4,114.1,190.2z"/>
			<path id="_Контур_16" class="st9" d="M83.6,152.4c-1.5,9.3,2.6,12.7,8,14.7c3.8,1.4,9.3,3.6,9.3,3.6s-0.1,2-0.1,6.6
				c0,4,0.5,18.7,0.5,18.7c1.3,0.7,2.8,0.7,4.1,0c0,0,2.2-11.2,2.6-16.3c0.6-6.9,1.7-11.4,1.3-12.9c-0.3-1.3-7.8-5-10.2-7l15.8,5.3
				c-0.3,1.7-0.5,3.4-0.5,5.2c0.1,5.4,0.4,17.3,0.4,17.3s2.2,1.6,4,0c0,0,4-23.4,3.5-26.5c-0.5-2.9-14.3-8.9-16.8-11
				c-0.9-0.7-2-1-3.1-0.8L83.6,152.4z"/>
			<g id="_Группа_3">
				<g id="_Группа_4">
					<path id="_Контур_17" class="st20" d="M121.4,156.3l-10.6-6.1c-0.2-0.1-0.4-0.1-0.6,0l-18.6,10.7l10.9,6.3L121.4,156.3z"
						/>
					<path class="st23" d="M102,165l-0.8,0.5c-0.1,0-0.1,0.1,0,0.1l0.8,0.4c0.1,0,0.2,0,0.3,0l0.8-0.5c0.1,0,0.1-0.1,0-0.1l-0.8-0.4
						C102.2,165,102.1,165,102,165z"/>
					<path class="st23" d="M103.2,164.3l-0.8,0.5c-0.1,0,0,0.1,0,0.1l0.8,0.4c0.1,0,0.2,0,0.3,0l0.8-0.5c0.1,0,0.1-0.1,0-0.1
						l-0.8-0.4C103.3,164.3,103.2,164.3,103.2,164.3z"/>
					<path class="st23" d="M104.3,163.6l-0.8,0.5c-0.1,0-0.1,0.1,0,0.1l0.8,0.4c0.1,0,0.2,0,0.2,0l0.8-0.5c0.1,0,0.1-0.1,0-0.1
						l-0.8-0.4C104.5,163.6,104.4,163.6,104.3,163.6z"/>
					<path class="st23" d="M105.4,163l-0.8,0.5c-0.1,0-0.1,0.1,0,0.1l0.8,0.4c0.1,0,0.2,0,0.3,0l0.8-0.5c0.1,0,0.1-0.1,0-0.1
						l-0.8-0.4C105.6,162.9,105.5,162.9,105.4,163z"/>
					<path class="st23" d="M106.6,162.3l-0.8,0.5c-0.1,0-0.1,0.1,0,0.1l0.8,0.4c0.1,0,0.2,0,0.2,0l0.8-0.5c0.1,0,0.1-0.1,0-0.1
						l-0.8-0.4C106.8,162.3,106.7,162.3,106.6,162.3z"/>
					<path class="st23" d="M107.7,161.7l-0.8,0.5c-0.1,0-0.1,0.1,0,0.1l0.8,0.4c0.1,0,0.2,0,0.2,0l0.8-0.5c0.1,0,0.1-0.1,0-0.1
						l-0.8-0.4C107.9,161.6,107.8,161.6,107.7,161.7z"/>
					<path class="st23" d="M108.9,161l-0.8,0.5c-0.1,0-0.1,0.1,0,0.1l0.8,0.4c0.1,0,0.2,0,0.3,0l0.8-0.5c0.1,0,0.1-0.1,0-0.1
						l-0.8-0.4C109,161,108.9,161,108.9,161z"/>
					<path class="st23" d="M110,160.3l-0.8,0.5c-0.1,0-0.1,0.1,0,0.1l0.8,0.4c0.1,0,0.2,0,0.3,0l0.8-0.5c0.1,0,0.1-0.1,0-0.1
						l-0.8-0.4C110.2,160.3,110.1,160.3,110,160.3z"/>
					<path class="st23" d="M111.1,159.7l-0.8,0.5c-0.1,0,0,0.1,0,0.1l0.8,0.4c0.1,0,0.2,0,0.3,0l0.8-0.5c0.1,0,0-0.1,0-0.1l-0.8-0.4
						C111.3,159.6,111.2,159.6,111.1,159.7z"/>
					<path class="st23" d="M112.3,159l-0.8,0.5c-0.1,0-0.1,0.1,0,0.1l0.8,0.4c0.1,0,0.2,0,0.3,0l0.8-0.5c0.1,0,0-0.1,0-0.1l-0.8-0.4
						C112.5,159,112.4,159,112.3,159z"/>
					<path class="st23" d="M113.4,158.4l-0.8,0.5c-0.1,0-0.1,0.1,0,0.1l0.8,0.4c0.1,0,0.2,0,0.2,0l0.8-0.4c0.1,0,0.1-0.1,0-0.1
						l-0.8-0.4C113.6,158.4,113.5,158.3,113.4,158.4z"/>
					<path class="st23" d="M114.6,157.7l-0.8,0.5c-0.1,0-0.1,0.1,0,0.1l0.8,0.4c0.1,0,0.2,0,0.2,0l0.8-0.5c0.1,0,0.1-0.1,0-0.1
						l-0.8-0.4C114.7,157.7,114.7,157.7,114.6,157.7z"/>
					<path class="st23" d="M115.7,157.1l-0.8,0.5c-0.1,0-0.1,0.1,0,0.1l0.8,0.4c0.1,0,0.2,0,0.2,0l0.8-0.5c0.1,0,0.1-0.1,0-0.1
						l-0.8-0.4C115.9,157,115.8,157,115.7,157.1z"/>
					<path class="st23" d="M117.4,156.1l-1.4,0.8c-0.1,0-0.1,0.1,0,0.1l0.8,0.4c0.1,0,0.2,0,0.3,0l1.3-0.8c0.1,0,0.1-0.1,0-0.1
						l-0.8-0.4C117.6,156,117.5,156,117.4,156.1z"/>
					<path class="st23" d="M102.6,163.3l-0.8,0.5c-0.1,0-0.1,0.1,0,0.1l0.8,0.4c0.1,0,0.2,0,0.2,0l0.8-0.5c0.1,0,0.1-0.1,0-0.1
						l-0.8-0.4C102.8,163.3,102.7,163.3,102.6,163.3z"/>
					<path class="st23" d="M103.7,162.7l-0.8,0.5c-0.1,0-0.1,0.1,0,0.1l0.8,0.4c0.1,0,0.2,0,0.3,0l0.8-0.5c0.1,0,0.1-0.1,0-0.1
						l-0.8-0.4C103.9,162.6,103.8,162.6,103.7,162.7z"/>
					<path class="st23" d="M104.9,162l-0.8,0.5c-0.1,0-0.1,0.1,0,0.1l0.8,0.4c0.1,0,0.2,0,0.3,0l0.8-0.5c0.1,0,0-0.1,0-0.1l-0.8-0.4
						C105.1,162,105,162,104.9,162z"/>
					<path class="st23" d="M106,161.4l-0.8,0.5c-0.1,0-0.1,0.1,0,0.1l0.8,0.4c0.1,0,0.2,0,0.2,0l0.8-0.5c0.1,0,0.1-0.1,0-0.1
						l-0.8-0.4C106.2,161.3,106.1,161.3,106,161.4z"/>
					<path class="st23" d="M107.2,160.7l-0.8,0.5c-0.1,0,0,0.1,0,0.1l0.8,0.4c0.1,0,0.2,0,0.3,0l0.8-0.5c0.1,0,0.1-0.1,0-0.1
						l-0.8-0.4C107.3,160.7,107.2,160.7,107.2,160.7z"/>
					<path class="st23" d="M108.3,160l-0.8,0.5c-0.1,0-0.1,0.1,0,0.1l0.8,0.4c0.1,0,0.2,0,0.3,0l0.8-0.5c0.1,0,0.1-0.1,0-0.1
						l-0.8-0.4C108.5,160,108.4,160,108.3,160z"/>
					<path class="st23" d="M109.4,159.4l-0.8,0.5c-0.1,0-0.1,0.1,0,0.1l0.8,0.4c0.1,0,0.2,0,0.2,0l0.8-0.5c0.1,0,0.1-0.1,0-0.1
						l-0.8-0.4C109.6,159.3,109.5,159.3,109.4,159.4z"/>
					<path class="st23" d="M110.6,158.7l-0.8,0.5c-0.1,0-0.1,0.1,0,0.1l0.8,0.4c0.1,0,0.2,0,0.3,0l0.8-0.5c0.1,0,0.1-0.1,0-0.1
						l-0.8-0.4C110.8,158.7,110.7,158.7,110.6,158.7z"/>
					<path class="st23" d="M111.7,158.1l-0.8,0.5c-0.1,0-0.1,0.1,0,0.1l0.8,0.4c0.1,0,0.2,0,0.2,0l0.8-0.5c0.1,0,0.1-0.1,0-0.1
						l-0.8-0.4C111.9,158,111.8,158,111.7,158.1z"/>
					<path class="st23" d="M112.9,157.4l-0.8,0.5c-0.1,0-0.1,0.1,0,0.1l0.8,0.4c0.1,0,0.2,0,0.3,0l0.8-0.5c0.1,0,0.1-0.1,0-0.1
						l-0.8-0.4C113.1,157.4,113,157.4,112.9,157.4z"/>
					<path class="st23" d="M114,156.7l-0.8,0.5c-0.1,0,0,0.1,0,0.1l0.8,0.4c0.1,0,0.2,0,0.3,0l0.8-0.5c0.1,0,0.1-0.1,0-0.1l-0.8-0.4
						C114.2,156.7,114.1,156.7,114,156.7z"/>
					<path class="st23" d="M115.2,156.1l-0.8,0.5c-0.1,0-0.1,0.1,0,0.1l0.8,0.4c0.1,0,0.2,0,0.2,0l0.8-0.5c0.1,0,0.1-0.1,0-0.1
						l-0.8-0.4C115.3,156,115.2,156,115.2,156.1z"/>
					<path class="st23" d="M101.4,164l-1.4,0.8c-0.1,0,0,0.1,0,0.1l0.8,0.4c0.1,0,0.2,0,0.3,0l1.4-0.8c0.1,0,0-0.1,0-0.1l-0.8-0.4
						C101.6,164,101.5,164,101.4,164z"/>
					<path class="st23" d="M117.3,156l-0.8,0.5c-0.1,0-0.2,0-0.2,0l-0.9-0.5c0,0-0.1-0.1,0-0.1c0,0,0,0,0,0h0.1c0.1,0,0.1-0.1,0-0.1
						l-0.9-0.5c-0.1,0-0.1-0.1,0-0.1l0.5-0.3c0.1,0,0.2,0,0.2,0l0.8,0.5l0.2,0.1l0.1,0.1l0.1,0.1L117.3,156
						C117.4,155.9,117.4,156,117.3,156z"/>
					<path class="st23" d="M97.6,162.4l-0.8,0.5c-0.1,0-0.1,0.1,0,0.1l0.8,0.4c0.1,0,0.2,0,0.2,0l0.8-0.5c0.1,0,0.1-0.1,0-0.1
						l-0.8-0.4C97.8,162.3,97.7,162.4,97.6,162.4z"/>
					<path class="st23" d="M98.7,161.7l-0.8,0.5c-0.1,0-0.1,0.1,0,0.1l0.8,0.4c0.1,0,0.2,0,0.2,0l0.8-0.5c0.1,0,0.1-0.1,0-0.1
						l-0.8-0.4C98.9,161.7,98.8,161.7,98.7,161.7z"/>
					<path class="st23" d="M99.9,161.1l-0.8,0.5c-0.1,0-0.1,0.1,0,0.1l0.8,0.4c0.1,0,0.2,0,0.3,0l0.8-0.5c0.1,0,0.1-0.1,0-0.1
						l-0.8-0.4C100.1,161,100,161,99.9,161.1z"/>
					<path class="st23" d="M109.6,155.5l-0.8,0.5c-0.1,0-0.1,0.1,0,0.1l0.8,0.4c0.1,0,0.2,0,0.3,0l0.8-0.5c0.1,0,0.1-0.1,0-0.1
						l-0.8-0.4C109.7,155.4,109.6,155.4,109.6,155.5z"/>
					<path class="st23" d="M110.7,154.8l-0.8,0.5c-0.1,0-0.1,0.1,0,0.1l0.8,0.4c0.1,0,0.2,0,0.2,0l0.8-0.5c0.1,0,0.1-0.1,0-0.1
						l-0.8-0.4C110.9,154.8,110.8,154.8,110.7,154.8z"/>
					<path class="st23" d="M111.8,154.2l-0.8,0.5c-0.1,0-0.1,0.1,0,0.1l0.8,0.4c0.1,0,0.2,0,0.2,0l0.8-0.5c0.1,0,0.1-0.1,0-0.1
						l-0.8-0.4C112,154.1,111.9,154.1,111.8,154.2z"/>
					<path class="st23" d="M113,153.5l-0.8,0.5c-0.1,0-0.1,0.1,0,0.1l0.8,0.4c0.1,0,0.2,0,0.3,0l0.8-0.5c0.1,0,0-0.1,0-0.1l-0.8-0.4
						C113.2,153.5,113.1,153.5,113,153.5z"/>
					<path class="st23" d="M101.3,160.3l-1.1,0.6c-0.1,0,0,0.1,0,0.1l0.8,0.4c0.1,0,0.2,0,0.3,0l1.1-0.6c0.1,0,0.1-0.1,0-0.1
						l-0.8-0.4C101.5,160.2,101.4,160.2,101.3,160.3z"/>
					<path class="st23" d="M108.4,156.1l-1.1,0.6c-0.1,0-0.1,0.1,0,0.1l0.8,0.4c0.1,0,0.2,0,0.2,0l1.1-0.6c0.1,0,0.1-0.1,0-0.1
						l-0.8-0.4C108.6,156.1,108.5,156.1,108.4,156.1z"/>
					<path class="st23" d="M107,157l-5.4,3.1c-0.1,0-0.1,0.1,0,0.1l0.8,0.4c0.1,0,0.2,0,0.3,0l5.4-3.1c0.1,0,0.1-0.1,0-0.1l-0.8-0.4
						C107.2,157,107.1,157,107,157z"/>
					<path class="st23" d="M101.8,162.5L101,163c-0.1,0-0.1,0.1,0,0.1l0.8,0.4c0.1,0,0.2,0,0.3,0l0.8-0.5c0.1,0,0.1-0.1,0-0.1
						l-0.8-0.4C102,162.5,101.9,162.5,101.8,162.5z"/>
					<path class="st23" d="M102.9,161.9l-0.8,0.5c-0.1,0-0.1,0.1,0,0.1l0.8,0.4c0.1,0,0.2,0,0.3,0l0.8-0.5c0.1,0,0.1-0.1,0-0.1
						l-0.8-0.4C103.1,161.8,103,161.8,102.9,161.9z"/>
					<path class="st23" d="M104.1,161.2l-0.8,0.5c-0.1,0,0,0.1,0,0.1l0.8,0.4c0.1,0,0.2,0,0.3,0l0.8-0.5c0.1,0,0.1-0.1,0-0.1
						l-0.8-0.4C104.3,161.2,104.2,161.2,104.1,161.2z"/>
					<path class="st23" d="M105.2,160.5l-0.8,0.5c-0.1,0,0,0.1,0,0.1l0.8,0.4c0.1,0,0.2,0,0.3,0l0.8-0.5c0.1,0,0.1-0.1,0-0.1
						l-0.8-0.4C105.4,160.5,105.3,160.5,105.2,160.5z"/>
					<path class="st23" d="M106.4,159.9l-0.8,0.5c-0.1,0,0,0.1,0,0.1l0.8,0.4c0.1,0,0.2,0,0.3,0l0.8-0.5c0.1,0,0.1-0.1,0-0.1
						l-0.8-0.4C106.5,159.8,106.4,159.8,106.4,159.9z"/>
					<path class="st23" d="M107.5,159.2l-0.8,0.5c-0.1,0,0,0.1,0,0.1l0.8,0.4c0.1,0,0.2,0,0.3,0l0.8-0.5c0.1,0,0.1-0.1,0-0.1
						l-0.8-0.4C107.7,159.2,107.6,159.2,107.5,159.2z"/>
					<path class="st23" d="M108.6,158.6l-0.8,0.5c-0.1,0,0,0.1,0,0.1l0.8,0.4c0.1,0,0.2,0,0.3,0l0.8-0.5c0.1,0,0-0.1,0-0.1l-0.8-0.4
						C108.8,158.5,108.7,158.5,108.6,158.6z"/>
					<path class="st23" d="M109.8,157.9l-0.8,0.5c-0.1,0,0,0.1,0,0.1l0.8,0.4c0.1,0,0.2,0,0.3,0l0.8-0.5c0.1,0,0-0.1,0-0.1l-0.8-0.4
						C110,157.9,109.9,157.9,109.8,157.9z"/>
					<path class="st23" d="M110.9,157.2l-0.8,0.5c-0.1,0-0.1,0.1,0,0.1l0.8,0.4c0.1,0,0.2,0,0.3,0l0.8-0.5c0.1,0,0-0.1,0-0.1
						l-0.8-0.4C111.1,157.2,111,157.2,110.9,157.2z"/>
					<path class="st23" d="M112.1,156.6l-0.8,0.5c-0.1,0-0.1,0.1,0,0.1l0.8,0.4c0.1,0,0.2,0,0.3,0l0.8-0.5c0.1,0,0-0.1,0-0.1
						l-0.8-0.4C112.3,156.6,112.2,156.6,112.1,156.6z"/>
					<path class="st23" d="M113.2,155.9l-0.8,0.5c-0.1,0-0.1,0.1,0,0.1l0.8,0.4c0.1,0,0.2,0,0.3,0l0.8-0.5c0.1,0,0-0.1,0-0.1
						l-0.8-0.4C113.4,155.9,113.3,155.9,113.2,155.9z"/>
					<path class="st23" d="M114.3,155.3l-0.8,0.5c-0.1,0-0.1,0.1,0,0.1l0.8,0.4c0.1,0,0.2,0,0.3,0l0.8-0.5c0.1,0,0-0.1,0-0.1
						l-0.8-0.4C114.5,155.2,114.4,155.2,114.3,155.3z"/>
					<path class="st23" d="M100.7,163.2l-1.7,1c-0.1,0-0.1,0.1,0,0.1l0.8,0.4c0.1,0,0.2,0,0.3,0l1.7-1c0.1,0,0.1-0.1,0-0.1l-0.8-0.4
						C100.8,163.1,100.7,163.1,100.7,163.2z"/>
					<path class="st23" d="M100.1,162.2l-0.8,0.5c-0.1,0-0.1,0.1,0,0.1l0.8,0.4c0.1,0,0.2,0,0.2,0l0.8-0.5c0.1,0,0.1-0.1,0-0.1
						l-0.8-0.4C100.3,162.2,100.2,162.2,100.1,162.2z"/>
					<path class="st23" d="M101.3,161.6l-0.8,0.4c-0.1,0-0.1,0.1,0,0.1l0.8,0.4c0.1,0,0.2,0,0.2,0l0.8-0.5c0.1,0,0.1-0.1,0-0.1
						l-0.8-0.4C101.4,161.5,101.3,161.5,101.3,161.6z"/>
					<path class="st23" d="M102.4,160.9l-0.8,0.5c-0.1,0-0.1,0.1,0,0.1l0.8,0.5c0.1,0,0.2,0,0.2,0l0.8-0.5c0.1,0,0.1-0.1,0-0.1
						l-0.8-0.4C102.7,160.9,102.5,160.9,102.4,160.9z"/>
					<path class="st23" d="M103.6,160.2l-0.8,0.5c-0.1,0-0.1,0.1,0,0.1l0.8,0.4c0.1,0,0.2,0,0.2,0l0.8-0.5c0.1,0,0.1-0.1,0-0.1
						l-0.8-0.4C103.7,160.2,103.6,160.2,103.6,160.2z"/>
					<path class="st23" d="M104.7,159.6l-0.8,0.5c-0.1,0-0.1,0.1,0,0.1l0.8,0.4c0.1,0,0.2,0,0.2,0l0.8-0.5c0.1,0,0.1-0.1,0-0.1
						l-0.8-0.4C104.9,159.5,104.8,159.5,104.7,159.6z"/>
					<path class="st23" d="M105.8,158.9l-0.8,0.5c-0.1,0-0.1,0.1,0,0.1l0.8,0.4c0.1,0,0.2,0,0.2,0l0.8-0.5c0.1,0,0.1-0.1,0-0.1
						l-0.8-0.4C106,158.9,105.9,158.9,105.8,158.9z"/>
					<path class="st23" d="M107,158.3l-0.8,0.5c-0.1,0-0.1,0.1,0,0.1l0.8,0.4c0.1,0,0.2,0,0.3,0l0.8-0.5c0.1,0,0.1-0.1,0-0.1
						l-0.8-0.4C107.1,158.2,107.1,158.2,107,158.3z"/>
					<path class="st23" d="M108.1,157.6l-0.8,0.5c-0.1,0-0.1,0.1,0,0.1l0.8,0.4c0.1,0,0.2,0,0.3,0l0.8-0.5c0.1,0,0.1-0.1,0-0.1
						l-0.8-0.4C108.3,157.6,108.2,157.6,108.1,157.6z"/>
					<path class="st23" d="M109.3,156.9l-0.8,0.5c-0.1,0-0.1,0.1,0,0.1l0.8,0.4c0.1,0,0.2,0,0.3,0l0.8-0.5c0.1,0,0.1-0.1,0-0.1
						l-0.8-0.4C109.4,156.9,109.3,156.9,109.3,156.9z"/>
					<path class="st23" d="M110.4,156.3l-0.8,0.5c-0.1,0-0.1,0.1,0,0.1l0.8,0.4c0.1,0,0.2,0,0.3,0l0.8-0.5c0.1,0,0.1-0.1,0-0.1
						l-0.8-0.4C110.6,156.2,110.5,156.2,110.4,156.3z"/>
					<path class="st23" d="M111.5,155.6l-0.8,0.5c-0.1,0-0.1,0.1,0,0.1l0.8,0.4c0.1,0,0.2,0,0.3,0l0.8-0.5c0.1,0,0.1-0.1,0-0.1
						l-0.8-0.4C111.7,155.6,111.6,155.6,111.5,155.6z"/>
					<path class="st23" d="M114.1,154.1l-2.2,1.3c-0.1,0-0.1,0.1,0,0.1l0.8,0.4c0.1,0,0.2,0,0.3,0l2.2-1.3c0.1,0,0.1-0.1,0-0.1
						l-0.8-0.4C114.3,154.1,114.2,154.1,114.1,154.1z"/>
					<path class="st23" d="M99,162.9l-1.1,0.6c-0.1,0-0.1,0.1,0,0.1l0.8,0.4c0.1,0,0.2,0,0.3,0l1.1-0.6c0.1,0,0.1-0.1,0-0.1
						l-0.8-0.4C99.2,162.8,99.1,162.8,99,162.9z"/>
					<path class="st23" d="M118.5,156.7l-16.2,9.4c-0.1,0-0.1,0.1,0,0.1l0.4,0.2c0.1,0,0.2,0,0.3,0l16.2-9.4c0.1,0,0.1-0.1,0-0.1
						l-0.4-0.2C118.7,156.7,118.6,156.7,118.5,156.7z"/>
					<polygon id="_Контур_18" class="st24" points="99.6,157.1 99.7,157.2 102.5,158.8 107.5,155.9 107.6,155.9 104.7,154.2 
											"/>
					<polygon id="_Контур_19" class="st25" points="99.7,157.2 102.5,158.8 107.5,155.9 104.7,154.3 					"/>
					<path id="_Контур_20" class="st25" d="M91.6,160.9v0.2c0,0.4,0.2,0.7,0.5,0.9l9.9,5.7c0.2,0.1,0.3,0.1,0.5,0.1
						c0.2,0,0.4,0,0.5-0.1l17.8-10.3c0.3-0.2,0.5-0.5,0.5-0.9v-0.2l-18.9,10.9L91.6,160.9z"/>
					<path id="_Контур_21" class="st20" d="M102.8,167.4c0.3,0.1,0.7,0.1,1-0.1l17.8-10.3c0.3-0.2,0.5-0.5,0.6-0.8l2-11.6
						c0-0.1,0-0.1,0-0.2c0-0.3-0.1-0.6-0.3-0.9l-18.5,10.7c-0.2,0.1-0.4,0.4-0.4,0.6L102.8,167.4z"/>
					<path id="_Контур_22" class="st25" d="M102.5,167.2l0.1,0.1l0.2,0.1l2.1-12.6c0-0.3,0.2-0.5,0.4-0.6l18.5-10.7
						c-0.1-0.1-0.2-0.1-0.2-0.2L105,154c-0.2,0.1-0.4,0.4-0.4,0.6L102.5,167.2z"/>
				</g>
			</g>
			<path id="_Контур_23" class="st19" d="M89.1,117.6c0,0,0.2,4.4,0.1,4.8s-2,1.7-2.6,2.2c-0.6,0.5,3.1,4,4.8,4.8
				s7.3-1.3,7.4-4c0.1-2.7-1-5-1.8-5.2C96.2,120,89.1,117.6,89.1,117.6z"/>
			<path id="_Контур_24" class="st20" d="M88.6,123.1c0,0,3.2,4.8,7.7,5.2c1.4-1.4,1.5-6.3-0.4-7.9c0,0,1.8-1.4,3-1.2
				c1.3,0.8,2.3,2,2.8,3.5c1.1,3.3,1.7,6.7,1.6,10.2c-0.1,4.7,0,16.5,0,16.5c-0.5,2.8-2.2,5.3-4.7,6.8c-3.2,1.8-7,2.3-10.6,1.5
				c-1.8-0.4-3.3-1.7-3.9-3.4c0.2-3.3,1.5-10,1-14.2c-0.5-4.2-1.4-7.2-1.7-10.5s0.4-3.3,2.1-4.5C86.5,124.4,87.5,123.7,88.6,123.1z"
				/>
			<path id="_Контур_25" class="st19" d="M93.7,161.2c-0.8-0.5-1.6-1-2.5-1.4c-0.8-0.3-1.5-0.7-2.1-1.3
				c-0.8-0.8-2.1-3.7-3-6.5c-0.9-3.2-1.3-6.5-1.1-9.9c0.4-4,1.8-9.6,2.2-11.8s-0.4-3.2-1.4-4c-1.2-1-3-0.6-3.9,2.7
				c-1.2,4.4-1.8,9-2,13.6c0,3.4,0.5,6.8,1.6,10c1,2.8,2.2,5.4,3.8,7.9c0.4,0.7,0.6,1.4,1.2,2.9c0.6,1.5,1.7,2.9,2.9,3.9
				c1.1,0.8,1.7,0.9,1.9,0.8c0.3-0.1,0.3-0.6-0.2-1c-0.8-0.6-1.5-1.4-2-2.2c0,0,1,1,1.6,1.5c0.6,0.5,1.2,0.9,1.9,1.2
				c0.7,0.3,1.6-0.3,1.1-0.7s-0.9-0.7-1.9-1.5c-0.5-0.4-1-0.9-1.4-1.4c0.7,0.5,1.4,1,2.1,1.4c0.6,0.3,1.2,0.5,1.9,0.5
				c0.3,0,0.8-0.5,0.1-1c-0.9-0.5-1.7-1-2.5-1.7c-0.7-0.7-1.1-1.3-0.9-1.3c0.2,0,0.6,0.4,1.4,0.7c0.8,0.3,1.7,0,1.8-0.4
				C94.6,161.5,94.5,161.6,93.7,161.2z"/>
			<path id="_Контур_26" class="st19" d="M99.1,111L99.1,111c-0.5-3.4-3-6-6.5-5.8c-3.8,0.2-6.6,3.4-6.4,7.2c0,0,0,0,0,0
				c0.1,2.1,1.2,4,3,5.2c0.1,0.5,0.3,1,0.6,1.5c1.2,1.5,5,2.4,6.1,2.2c1.3-0.1,2.4-1,2.8-2.3C99.7,116.3,99.4,112.7,99.1,111z"/>
			<path class="st23" d="M89.1,117.6L89.1,117.6l0.3-3c0,0-2.4-6.3,3.3-5.1c3.8,0.8,4.8,1.1,5.9-1.4c1.2-2.6-2.9-4.9-7.8-4.2
				c-3.5,0.4-6.1,3.3-6,6.8C85,112.5,85.5,116.3,89.1,117.6z"/>
			<path class="st22" d="M79.2,134.7c0,0,3.2,3.1,6.9,2.2c0.5-0.4,1.8-7.7,1.8-7.7s0-4.1-3.1-4S79.2,134.7,79.2,134.7z"/>
			<path class="st22" d="M103,128.6c0.9,0,1.7-0.4,2.3-1c-0.1-1.6-2.2-7.9-6.4-8.3c1.2,0.8,2.1,1.9,2.6,3.2
				C102.2,124.5,102.7,126.6,103,128.6z"/>
		</g>
		<g id="Girl_8">
			<ellipse class="st5" cx="502.3" cy="360.2" rx="22.7" ry="13.1"/>
			<path id="_Контур_27" class="st23" d="M501.3,237.7c0.9-1.5,7.9-2.4,10.1,3.5c0.9,2.2,0.7,7.9,1.5,11.5s2.4,5.6,3,8.5
				s-0.4,7.8-7.4,8.6s-12.4-1.6-14.1-3.8s-1.7-7,0-9.5s3-4.6,3-8L501.3,237.7z"/>
			<path class="st19" d="M493,262.3c0,0-1.6,11.7,1.5,19.9s2.2-2.1,2.2-2.1l-0.8-2.5c0,0-0.6-9.5-0.4-11.8s0.2-4.3,0.4-4.5
				s-0.6-0.6-0.9-0.6S493,262.3,493,262.3z"/>
			<path id="_Контур_28" class="st23" d="M505.9,236.7c0,0-5.2-1.5-8.4,1.3c-2.1,2-3,5-2.2,7.8c0.4,1.6,1.3,3.9,2.6,4
				S505.9,236.7,505.9,236.7z"/>
			<path id="_Контур_29" class="st19" d="M507.9,251c0,0-0.3,5.8-0.2,6.3s2.3,0.8,2.9,1.4s-3.2,6.4-5.1,7.3s-7.9-1.4-8.3-4.3
				c-0.4-2.7,1.7-4.8,2.5-5.6c0.5,0,1.1,0,1.6,0l0.2-2.8C504.1,252.2,507.9,251,507.9,251z"/>
			<path id="_Контур_30" class="st20" d="M508.7,257.8c1.6,0.3,3.5,1.1,3.8,2c0.7,3.2,0.5,6.6-0.5,9.7
				c-1.4,3.8-2.4,6.1-3.2,7.8c0,0-7.1,3-12.8-0.5c0,0-0.4-4-0.4-6.2c-5.3-4.6-0.8-10.3,3.7-14.7c0.5,0,1.1,0,1.6,0
				c0,0-4,4.7-1.2,7.4C505.6,261.5,506.8,258.8,508.7,257.8z"/>
			<path id="_Контур_31" class="st19" d="M497,243.7L497,243.7c0.6-3.8,3.3-6.6,7.2-6.4c4.1,0.2,7.3,3.7,7.1,7.8
				c-0.1,2.4-1.4,4.6-3.3,5.9c-0.1,0.6-0.3,1.1-0.6,1.6c-1.4,1.6-5,2.6-6.2,2.6c-1,0-1.9-0.9-2.9-2.6
				C496.2,249.3,496.7,245.6,497,243.7z"/>
			<path class="st23" d="M505.3,237.4c2.7,0.5,4.9,1.3,5.7,3.9c0.5,1.8,1.2,5.3,0.5,6.8l-0.4,1.1l-3.3,1.7c0,0-1.5-1.3-1-5
				c0-0.5-0.2-1-0.5-1.4c-0.2-0.4-0.4-0.7-0.5-1.1c-0.4-1-1.1-1.8-2.1-2.3c-2.5-1.4-6-0.2-6.5,0.3
				C498.7,238.4,502,236.7,505.3,237.4z"/>
			<path id="_Контур_32" class="st19" d="M512.6,285c0.6-3.8,1.8-6.3,1.2-8.4c-1.2-4.2-2.7-8.3-4.6-12.3
				c-1.2-2.4-0.8-4,0.4-4.9c1.4-1,2.7-0.6,4,2c1.6,3.3,3.4,6.7,4.2,11.6c0.6,3.2,0.5,6.4-0.1,9.6c-0.5,3.4-1.6,5.3-2.9,8.5
				C514.5,292,512.1,288.2,512.6,285z"/>
			<path class="st26" d="M510.3,355.8c-1.4,1.1-3.5,0.3-3.6,0.4c-1.6,1.4-3.3,2.7-5,3.8c-0.9,0.7-2.2,1.6-2,2.9
				c0.4,2.3,4.1,1.6,5.5,0.9s2.5-1.9,3.9-2.7c1-0.6,1.9-0.9,2-2.1C511.2,358.4,510.5,355.8,510.3,355.8z"/>
			<path class="st27" d="M511.1,358.6c-0.2,1.1-1.1,1.5-2,2c-1.3,0.8-2.5,2-3.9,2.7s-4.5,1.3-5.4-0.4c0.5,2.2,4.1,1.5,5.5,0.8
				s2.5-1.9,3.9-2.7c1-0.6,1.9-0.9,2-2.1C511.1,358.9,511.1,358.8,511.1,358.6z"/>
			<path class="st26" d="M500.6,353.9c-1.2,1-3.1,0.5-3.2,0.5c-1.5,1.3-3,2.4-4.6,3.5c-0.8,0.6-2,1.4-1.8,2.6
				c0.4,2.1,3.8,1.5,5.1,0.8s2.3-1.7,3.5-2.5c0.9-0.5,1.7-0.8,1.9-1.9C501.6,356.4,500.9,353.9,500.6,353.9z"/>
			<path class="st27" d="M501.4,356.6c-0.2,1-1,1.3-1.9,1.9c-1.2,0.8-2.3,1.9-3.6,2.5s-4.1,1.2-5-0.3c0.5,2,3.8,1.4,5,0.8
				s2.3-1.7,3.5-2.5c0.9-0.5,1.7-0.8,1.9-1.9C501.4,356.9,501.4,356.7,501.4,356.6z"/>
			<path class="st19" d="M493.3,290.1c0.6-4.7,2.4-11.6,2.4-11.6c1.6,0.8,3.4,1.2,5.2,1.3c2.7,0,5.3-0.3,7.9-0.8
				c0.9,1.5,1.8,2.9,2.8,4.3c1.4,1.9,4,6,3.4,13.3c-0.4,4.7-3.1,24.8-3.1,24.8c1,3.4,1.6,6.9,1.6,10.4c-0.2,4.2-0.8,8.4-1.7,12.5
				l-1.6,11.4c0,0-2.1,1.5-3.6,0.4l0.2-11.2c-0.2-2.7-0.5-6.8-0.6-9.3c-0.3-4.2-1-10.9-1.2-12.5s-0.8-4.6-1-7.8s-1.5-19.8-1.5-19.8
				l-0.2,3.1c0,0-0.2,5-0.9,11.2s-1,9-1,9c0.7,1.2,1.2,2.6,1.4,4c0.1,1.3,1.7,12,0.7,17.4l-1.9,13.7c-1,0.7-2.2,0.8-3.2,0.4
				l-1.1-13.8c-0.7-5.3-2.3-16.4-2.5-17.9c-0.5-2.9-0.8-5.9-0.9-8.9C492.5,307.9,492.7,294.8,493.3,290.1z"/>
			<path class="st9" d="M508.8,277.3l4.1,8.2c0,0,6.2,9.1-0.2,32.5l1.2,7.2c0,0-12.2,7.8-20.4,0c0,0-2.8-21.6-1.3-31.6
				c0.8-5.7,2.1-11.4,3.8-16.9c0,0,2,2.2,12.3,0.8"/>
			<path class="st22" d="M516.1,266c0,0-2.8,2.8-6.2,2.5l-1.6-5.5c0,0-1-2.9,1.4-4.1C512.1,257.6,514.7,260.4,516.1,266z"/>
			<path class="st22" d="M499.3,255.9c0,0-3.2-1-6.7,6.2l1.3,0.8C495.5,260.4,497.3,258.1,499.3,255.9z"/>
		</g>
		<g id="Girl_4">
			<ellipse class="st5" cx="131.8" cy="486.9" rx="22.7" ry="13.1"/>
			<path id="_Контур_33" class="st19" d="M144.9,386.2c2,0.6,3.1,2.8,4.9,7.5c1.4,4.3,2.2,8.7,2.1,13.2
				c-0.6,4.4-2.4,7.9-6.8,11.4l-2.1-3.9c0,0,4.3-3.8,4.8-8.2c0.2-2.5-2.7-10.8-2.7-11.1S144.9,386.2,144.9,386.2z"/>
			<path class="st26" d="M127.6,488.1c-1.3,0.4-2.8,0.2-4-0.5c-1.1,0-7.4-2.5-8.2-0.4c-0.7,1.9,1.8,3.6,3.2,3.9
				c3,0.7,5.2,2.2,6.4,2.4c0.9,0.3,1.9,0.2,2.7-0.4C128.5,492.3,128.4,489.2,127.6,488.1z"/>
			<path class="st27" d="M124.9,493c-1.2-0.2-3.4-1.7-6.4-2.5c-1.1-0.3-3.1-1.5-3.3-3c-0.3,1.7,2,3.2,3.3,3.5c3,0.7,5.2,2.2,6.4,2.4
				c0.9,0.3,1.9,0.2,2.7-0.4c0.2-0.2,0.3-0.4,0.4-0.7C127.2,493.1,126,493.3,124.9,493z"/>
			<path class="st26" d="M143.7,479.7c-1.2,0.4-2.5,0.2-3.5-0.5c-1,0-7.5-2.4-8.3-0.4c-0.7,1.8,1.8,3.4,3.1,3.7
				c2.9,0.7,5,2.1,6.1,2.4c0.9,0.3,1.9,0.2,2.6-0.4C144.6,483.8,144.5,480.8,143.7,479.7z"/>
			<path class="st27" d="M141.1,484.4c-1.1-0.2-3.3-1.7-6.1-2.4c-1.1-0.3-3-1.5-3.2-2.9c-0.2,1.6,2,3.1,3.2,3.4
				c2.9,0.7,5,2.1,6.1,2.4c0.9,0.3,1.9,0.2,2.6-0.4c0.2-0.2,0.3-0.4,0.4-0.7C143.3,484.5,142.2,484.7,141.1,484.4z"/>
			<path id="_Контур_34" class="st19" d="M145.9,463.6c0-2.4-0.4-4.9-1.2-7.1c0,0,0.8-9.8,1.4-16.2c0.9-9.5,2.4-10.4,2-16.2
				c-0.4-5.3-3.4-8.8-4.2-12.4l-15.5,1.2c0,0-1.3,4.4-3.1,13.1s-1.9,19.1-1.7,32.9c0,3.5-0.6,6.6-0.4,15.5
				c0.1,5.9,0.5,13.2,0.5,13.2c2.3,1.9,3.8,0.5,3.8,0.5s4-17.6,4.6-21.6c0.4-2.2,0.2-4.5-0.5-6.7c0,0,1.2-5.5,2-9.9
				c1-5.3,3.6-16.8,3.6-16.8s-0.4,17.6,0.3,21.1c0.8,3.5,0.9,6.5,1.6,11.2c0.8,5.7,1.1,14,1.1,14c2.4,1.5,3.4,0.4,3.4,0.4
				S145.9,468.6,145.9,463.6z"/>
			<path class="st9" d="M143.8,411.6c1.6,1.7,4.3,6.7,4.3,14.4c0,8.6-1.2,6.9-1.9,16.3l-0.6,9.5c0,0-12.9,6.2-22.2,0.5
				c-0.8-1.8,0.3-21.7,1.9-28.8s2.7-10.5,2.7-10.5S140.1,416.1,143.8,411.6z"/>
			<path id="_Контур_35" class="st19" d="M144,386.1c-3.3-0.2-3.6,0.4-3.9-0.8c-0.1-0.4-0.3-3.3-0.3-3.3
				c0.3-0.4,0.6-0.8,0.8-1.2c2.2-1.4,3.7-3.7,4-6.3c0.5-4.6-2.9-8.8-7.5-9.3c-4.4-0.5-7.6,2.6-8.4,6.8c-0.5,2.1-0.9,6.3,0.4,9.7
				c0.7,1.9,1.4,3.3,3.1,3.2c0.6-0.1,1.2-0.2,1.7-0.3c0.1,0.8,0.1,1.6,0.1,2.4c0,0.9,0.1,1.3-1.6,2.3c-1.7,1,2.5,3.1,5.2,2.9
				c2.7-0.2,5.8-1.8,6.6-3.6C145.2,386.7,145.6,386.2,144,386.1z"/>
			<path class="st22" d="M146.4,400.8c0,0,3.7-0.8,5.4-2.5c0,0-2.2-7-3.6-8.7s-2.8,9.5-2.8,9.5L146.4,400.8z"/>
			<path id="_Контур_36" class="st20" d="M140.7,386.1c0.6,0.8,0.7,1.7-1.7,2.3c-1.7,0.5-3.5,0.3-5.2-0.4
				c-1.9,0.8-3.6,1.7-5.3,2.8c-2,6.6-0.4,7.5-1.2,12.2c0.3,2.4,0.7,8.5,0.8,9.9c4.5,3.1,13.6,2.1,15.6-1.3c0-1.1,0.1-2.2,0.3-3.3
				c2.1-7.9,3.8-10,3.2-16c-0.3-3.4-0.6-5.1-2.4-6.1C143.5,386,142.1,386,140.7,386.1z"/>
			<path id="_Контур_37" class="st19" d="M99.5,411.9c1,0.2,2,0.5,3,0.9c0.9,0.5,1.9,0.8,2.9,1c1.1,0.2,2.8-0.4,5.8-1.8
				c3.3-1.7,6.2-3.9,8.7-6.5c2.8-3.4,5.4-7,7.6-10.9c1.3-2.4,2.9-2.9,4.3-2.5c1.7,0.6,1.9,2.2,0,5.4c-2.4,4.1-5.4,8-8.7,11.4
				c-2.6,2.6-5.7,4.8-9.1,6.4c-2.4,1.2-5,2.1-7.6,2.6c-0.9,0.2-1.6,0.6-3.3,1.2c-1.7,0.6-3.5,0.8-5.3,0.6c-1.5-0.3-2-0.6-2.1-1
				c-0.1-0.4,0.2-0.6,0.9-0.6c1.1,0.2,2.2,0.1,3.3-0.1c0,0-1.5,0-2.5-0.2c-0.8-0.1-1.6-0.3-2.4-0.6c-0.7-0.3-1-1.5-0.3-1.4
				c0.7,0,1.2,0.3,2.6,0.4c0.7,0.1,1.4,0.1,2.2,0c-0.9-0.1-1.8-0.4-2.7-0.7c-0.7-0.2-1.4-0.6-1.8-1.1c-0.2-0.3-0.2-1,0.7-0.8
				c1,0.4,2.1,0.6,3.2,0.7c1.1,0,1.9-0.1,1.8-0.3c-0.1-0.2-0.8-0.1-1.6-0.6c-0.8-0.5-1.3-1.4-1-1.8
				C98.6,411.2,98.6,411.5,99.5,411.9z"/>
			<path class="st22" d="M130.1,401.3c-2.6-0.4-5-1.6-6.8-3.5l4.1-5.7c0,0,2.3-2.9,5.4-1.3c0,0,2.3,0.2,0,5.1
				C132,397.8,131.1,399.6,130.1,401.3z"/>
			<path class="st23" d="M127.9,369.5c0.3-2.1,2.3-3.5,4.3-3.2c1.4-1,3.2-1.4,4.9-1.2c3.9,0.4,6.5,3,7.7,6.9c0.6,2,1,4,1.2,6
				c1.2,8.8,4.4,15.7,1.4,18.3s-11.1,4.2-14.5,2.6c-3.4-1.6,2.8-16.7-3.9-25.1C127.4,371.9,127.2,370.5,127.9,369.5z"/>
		</g>
		<g id="Men_13">
			<ellipse class="st5" cx="69.1" cy="454.9" rx="22.7" ry="13.1"/>
			<path class="st18" d="M58.4,451.6c1.5,1.3,3.8,0.1,3.9,0.2c1.8,1.7,3.7,3.3,5.7,4.8c1,0.8,2.5,1.8,2.2,3.2
				c-0.5,2.6-4.7,1.8-6.2,1c-1.6-0.8-2.9-2.1-4.3-3c-1.1-0.7-2.1-1-2.3-2.3C57.3,454.6,58.1,451.6,58.4,451.6z"/>
			<path class="st21" d="M57.4,454.9c0.2,1.3,1.2,1.6,2.3,2.3c1.5,0.9,2.8,2.3,4.4,3.1s5.1,1.5,6.1-0.4c-0.5,2.5-4.6,1.7-6.2,0.9
				c-1.6-0.8-2.9-2.1-4.3-3c-1.1-0.7-2.1-1-2.3-2.3C57.4,455.3,57.4,455.1,57.4,454.9z"/>
			<path class="st18" d="M71.8,446.6c1.6,1.3,4.2-0.1,4.4,0c1.6,1.6,3.3,3.2,5.1,4.6c1,0.8,2.5,1.8,2.2,3.2c-0.5,2.6-4.7,1.8-6.2,1
				s-2.9-2.1-4.4-3c-1.1-0.7-2.1-1-2.3-2.3C70.5,449.3,71.6,446.6,71.8,446.6z"/>
			<path class="st21" d="M70.7,449.7c0.2,1.3,1.2,1.6,2.3,2.3c1.5,0.9,2.8,2.3,4.4,3.1s5.1,1.5,6.1-0.4c-0.5,2.5-4.7,1.7-6.2,0.9
				s-2.8-2.1-4.3-3c-1.1-0.7-2.1-1-2.3-2.3C70.6,450.1,70.7,449.9,70.7,449.7z"/>
			<path id="_Контур_38" class="st13" d="M58.3,394.5c0.1,2.3,0.8,12.5,1.1,17.9c0.3,5.4,0.4,12,0.4,12s-0.9,3.9-1.5,8.5
				c-0.6,4.6,0,19.1,0,19.1c1.2,0.8,2.8,0.8,4,0c0,0,2.5-11.6,3.6-16.9s1.4-8.3,1.9-11.5c0.7-3.9,2.3-22.3,2.3-22.3h0.6l1.7,20.7
				c-0.5,1.5-0.9,3.1-1.1,4.7c-0.4,3.4,0.5,20.3,0.5,20.3c1.3,0.7,3,0.7,4.3-0.2c0,0,4.1-22.5,4.1-25.9c0-2.3-0.4-32.1-0.4-32.1
				L58.3,394.5z"/>
			<path id="_Контур_39" class="st19" d="M63.9,349.4c0,0,0.3,5.1,0.1,5.5c-0.1,0.4-2.3,1.9-3,2.5s3.5,4.6,5.6,5.6
				s8.5-1.5,8.6-4.7s-1.1-5.8-2.1-6C72.1,352.2,63.9,349.4,63.9,349.4z"/>
			<path class="st19" d="M77.9,358.8c0.3-2.2-1.2-4.4,0.2-6.2c5,4.9,4.4,18,5.5,26.4c3.7,3.9,11.2,7.8,13.4,8.7
				c0.4,0.2,0.7,0.4,0.6,0.8c-0.3,1.4-0.9,2.7-1.8,3.8c-5-2.1-8.6-3.4-14.8-9.3c-0.6-0.6-1.1-1.3-1.6-2.1
				C77.8,375.6,77.4,362.7,77.9,358.8z"/>
			<path id="_Контур_40" class="st20" d="M63.4,355.8c0,0,3.7,5.5,8.9,6c1.6-1.6,1.8-7.3-0.5-9.1c0,0,2.1-1.7,3.5-1.4
				c1.5,0.9,2.7,2.4,3.2,4.1c1.3,3.8,1.9,7.8,1.8,11.8c-0.1,5.4,0,21.9,0,21.9s-0.7,3.5-5.4,6.1s-8.1,2.9-11.3,2.1
				c-2.6-0.6-4.8-1.5-5.7-3.4c0.2-3.8,1.9-13.7,1.3-18.5s-1.6-8.3-1.9-12.2c-0.3-3.9,0.5-3.8,2.4-5.1
				C60.9,357.3,62.1,356.5,63.4,355.8z"/>
			<path id="_Контур_41" class="st19" d="M75.4,341.8L75.4,341.8c-0.6-4-3.5-7-7.5-6.7c-4.3,0.2-7.7,3.9-7.4,8.3
				c0.1,2.4,1.4,4.7,3.4,6.1c0.1,0.6,0.4,1.2,0.6,1.7c1.4,1.7,5.8,2.7,7.1,2.5c1.5-0.1,2.8-1.2,3.3-2.6
				C76.2,347.9,75.8,343.7,75.4,341.8z"/>
			<path class="st18" d="M63.9,349.4L63.9,349.4l0.4-3.5c0,0-2.8-7.3,3.9-5.9c4.4,0.9,5.5,1.3,6.8-1.6c1.3-2.9-3.4-5.6-9-4.9
				c-4,0.4-7,3.8-6.9,7.9C59.2,343.5,59.8,347.9,63.9,349.4z"/>
			<path class="st19" d="M56.1,361c1.9-0.5,0.5-0.1,1.9-0.5c5,4.9,4.4,13.4,5.5,21.7c2.8,4.6,13.1,10.8,13.1,10.8
				c0.1,0.9-0.2,1.1-1.3,3c-5.7-2.2-11-5.6-15.3-9.9c-0.2-0.2-0.6-0.3-0.7-0.6C57.6,380.1,55.6,364.9,56.1,361z"/>
			<polygon class="st20" points="102,371.3 94.5,396.9 78.1,403.5 84.1,378.5 			"/>
			<path class="st19" d="M74.1,393.2c0.2-0.9,0.9-0.7,1.6-0.4c0.8,0.3,1.6,0.4,2.4,0.2c0.6-0.3,1.2-0.7,1.7-1.2
				c0.3-0.2,0.7-0.3,1.1-0.3c0,0.2-0.4,1.5-0.4,1.5s3.6,0,4,0c0.3-0.1,0.6,0.2,0.7,0.5c0,0.2,0,0.4-0.1,0.5h0.2c0.7-0.2,1,1,0.3,1.1
				l-0.6,0.1c0.5,0.2,0.6,1,0,1.1h-0.2c-0.1,0-0.2,0-0.3,0h-0.2c0.1,0.3-0.1,0.7-0.5,0.8c0,0,0,0-0.1,0c-1.8,0.2-4.3,0.9-5.9-0.5
				c-1.1-0.1-2.2-0.4-3.2-0.9C73.8,395.2,73.8,394.2,74.1,393.2z"/>
			<path class="st19" d="M92.1,391.1h0.2c-0.3-0.2-0.3-0.6-0.1-0.8c0.1-0.2,0.3-0.3,0.5-0.3c0.4,0,4.1-0.8,4.1-0.8l0.5-1.5
				c0-0.1,0.6,0.3,0.7,0.3c0.6,0.4,1.1,1.1,1.1,1.9c0,1.1-0.3,2.1-1.1,2.9c-0.7,0.7-1.5,1-2.5,1.1c-0.4,0-0.9,0-1.3,0.1
				c-0.4,0-0.7-0.3-0.7-0.6c0,0,0,0,0,0h-0.1c-0.1,0-0.2,0-0.3,0h-0.2c-0.6,0-0.7-0.8-0.2-1.1h-0.6
				C91.3,392.3,91.3,391.1,92.1,391.1z"/>
			<path class="st22" d="M80,362.1c1,0,2-0.5,2.7-1.2c-0.1-1.9-2.6-9.1-7.4-9.6c1.3,0.9,2.3,2.2,3,3.7C79,357.3,79.6,359.7,80,362.1
				z"/>
			<path class="st22" d="M55.2,371.6c0,0,4.8,1.7,8.3-1.1c0.4-0.6-2-8.9-2-8.9s-2-4.2-5.2-2.5C53.1,360.7,55.2,371.6,55.2,371.6z"/>
		</g>
		<g id="Men_12">
			<path id="_Контур_42" class="st19" d="M350.8,86.4c-1.6,2.8-3.5,5.4-5.7,7.8c-0.6,0.7-5.4-1.1-4.4-1.6s4.1-4.8,5.6-7.7
				c1.3-3.4,2.4-7,3.3-10.5c1-3.5,1.8-8.7,2.5-11.2c0.4-1.8,1.8-3.3,3.6-3.7c1.7-0.4,2.8,0.1,2.5,2.1
				C357.8,65.2,354.9,79.3,350.8,86.4z"/>
			<path class="st26" d="M353.4,141.5c-1.5,1.2-3.6,0.1-3.7,0.2c-1.7,1.6-3.5,3.1-5.4,4.5c-0.9,0.7-2.3,1.7-2.1,3.1
				c0.5,2.5,4.4,1.7,5.9,1s2.7-2,4.1-2.9c1-0.6,2-0.9,2.2-2.2C354.5,144.4,353.7,141.5,353.4,141.5z"/>
			<path class="st27" d="M354.4,144.6c-0.2,1.2-1.2,1.6-2.2,2.2c-1.4,0.9-2.7,2.2-4.2,2.9s-4.8,1.4-5.8-0.4c0.5,2.4,4.4,1.6,5.9,0.9
				s2.7-2,4.1-2.9c1-0.6,2-0.9,2.2-2.2C354.5,145,354.5,144.8,354.4,144.6z"/>
			<path class="st26" d="M338.6,133c-1.5,1.2-4-0.1-4.1,0c-1.5,1.5-3.1,3-4.8,4.4c-0.9,0.7-2.4,1.7-2.1,3.1c0.5,2.5,4.4,1.7,5.9,1
				s2.7-2,4.1-2.9c1-0.6,2-0.9,2.2-2.2C339.8,135.5,338.8,132.9,338.6,133z"/>
			<path class="st27" d="M339.7,135.9c-0.2,1.2-1.2,1.6-2.2,2.2c-1.4,0.9-2.7,2.2-4.2,2.9s-4.8,1.4-5.8-0.4c0.5,2.4,4.4,1.6,5.9,0.9
				s2.7-2,4.1-2.9c1-0.6,2-0.9,2.2-2.2C339.7,136.2,339.7,136.1,339.7,135.9z"/>
			<path id="_Контур_43" class="st9" d="M373.1,94.4c1.6,10.2-2.9,14-8.8,16.1c-4.2,1.6-10.3,3.9-10.3,3.9s0.1,2.2,0.1,7.2
				c0,4.4-0.5,20.5-0.5,20.5c-1.4,0.7-3.1,0.7-4.5-0.1c0,0-2.4-12.3-2.9-17.9c-0.7-7.6-1.8-12.5-1.5-14.1c0.3-1.4,8.6-5.5,11.2-7.7
				l-17.3,5.8c0.3,1.9,0.5,3.8,0.5,5.7c-0.2,6-0.5,18.9-0.5,18.9s-2.4,1.7-4.4,0c0,0-4.4-25.7-3.8-29c0.5-3.2,15.7-9.8,18.4-12.1
				c0.9-0.8,2.2-1.1,3.4-0.9L373.1,94.4z"/>
			<g id="_Группа_5">
				<g id="_Группа_6">
					<path id="_Контур_44" class="st20" d="M331.7,98.7l11.6-6.7c0.2-0.1,0.5-0.1,0.7,0l20.4,11.8l-11.9,6.9L331.7,98.7z"/>
					<path class="st23" d="M352.9,108.2l0.9,0.5c0.1,0,0.1,0.1,0,0.2l-0.9,0.5c-0.1,0.1-0.2,0.1-0.3,0l-0.9-0.5
						c-0.1,0-0.1-0.1,0-0.2l0.8-0.5C352.7,108.1,352.8,108.1,352.9,108.2z"/>
					<path class="st23" d="M351.7,107.4l0.9,0.5c0.1,0,0.1,0.1,0,0.2l-0.8,0.5c-0.1,0-0.2,0-0.3,0l-0.9-0.5c-0.1,0-0.1-0.1,0-0.2
						l0.9-0.5C351.5,107.4,351.6,107.4,351.7,107.4z"/>
					<path class="st23" d="M350.4,106.7l0.9,0.5c0.1,0,0.1,0.1,0,0.2l-0.9,0.5c-0.1,0-0.2,0-0.3,0l-0.9-0.5c-0.1,0-0.1-0.1,0-0.2
						l0.8-0.5C350.3,106.7,350.4,106.7,350.4,106.7z"/>
					<path class="st23" d="M349.2,106l0.9,0.5c0.1,0,0.1,0.1,0,0.2l-0.9,0.5c-0.1,0.1-0.2,0.1-0.3,0l-0.9-0.5c-0.1,0-0.1-0.1,0-0.2
						l0.8-0.5C349,106,349.1,106,349.2,106z"/>
					<path class="st23" d="M347.9,105.3l0.9,0.5c0.1,0,0.1,0.1,0,0.2l-0.9,0.5c-0.1,0-0.2,0-0.3,0l-0.9-0.5c-0.1,0-0.1-0.1,0-0.2
						l0.9-0.5C347.7,105.2,347.8,105.2,347.9,105.3z"/>
					<path class="st23" d="M346.7,104.6l0.9,0.5c0.1,0,0.1,0.1,0,0.2l-0.8,0.5c-0.1,0-0.2,0-0.3,0l-0.9-0.5c-0.1,0-0.1-0.1,0-0.2
						l0.9-0.5C346.5,104.5,346.6,104.5,346.7,104.6z"/>
					<path class="st23" d="M345.4,103.8l0.9,0.5c0.1,0,0.1,0.1,0,0.2l-0.9,0.5c-0.1,0-0.2,0-0.3,0l-0.9-0.5c-0.1,0-0.1-0.1,0-0.2
						l0.8-0.5C345.2,103.8,345.3,103.8,345.4,103.8z"/>
					<path class="st23" d="M344.1,103.1l0.9,0.5c0.1,0,0.1,0.1,0,0.2l-0.9,0.5c-0.1,0-0.2,0-0.3,0l-0.9-0.5c-0.1,0-0.1-0.1,0-0.2
						l0.8-0.5C344,103.1,344.1,103.1,344.1,103.1z"/>
					<path class="st23" d="M342.9,102.4l0.9,0.5c0.1,0,0.1,0.1,0,0.2l-0.8,0.5c-0.1,0-0.2,0-0.3,0l-0.9-0.5c-0.1,0-0.1-0.1,0-0.2
						l0.9-0.5C342.7,102.3,342.8,102.3,342.9,102.4z"/>
					<path class="st23" d="M341.6,101.7l0.9,0.5c0.1,0,0.1,0.1,0,0.2l-0.8,0.5c-0.1,0.1-0.2,0.1-0.3,0l-0.9-0.5
						c-0.1,0-0.1-0.1,0-0.2l0.9-0.5C341.5,101.6,341.6,101.6,341.6,101.7z"/>
					<path class="st23" d="M340.4,100.9l0.9,0.5c0.1,0,0.1,0.1,0,0.2l-0.9,0.5c-0.1,0-0.2,0-0.3,0l-0.9-0.5c-0.1,0-0.1-0.1,0-0.2
						l0.8-0.5C340.2,100.9,340.3,100.9,340.4,100.9z"/>
					<path class="st23" d="M339.1,100.2l0.9,0.5c0.1,0,0.1,0.1,0,0.2l-0.9,0.5c-0.1,0-0.2,0-0.3,0l-0.9-0.5c-0.1,0-0.1-0.1,0-0.2
						l0.8-0.5C338.9,100.2,339,100.2,339.1,100.2z"/>
					<path class="st23" d="M337.9,99.5l0.9,0.5c0.1,0,0.1,0.1,0,0.2l-0.8,0.5c-0.1,0.1-0.2,0.1-0.3,0l-0.9-0.5c-0.1,0-0.1-0.1,0-0.2
						l0.9-0.5C337.7,99.4,337.8,99.4,337.9,99.5z"/>
					<path class="st23" d="M336,98.4l1.5,0.9c0.1,0,0.1,0.1,0,0.2l-0.8,0.5c-0.1,0-0.2,0-0.3,0l-1.5-0.9c-0.1,0-0.1-0.1,0-0.2
						l0.8-0.5C335.8,98.4,335.9,98.4,336,98.4z"/>
					<path class="st23" d="M352.3,106.4l0.9,0.5c0.1,0,0.1,0.1,0,0.2l-0.8,0.5c-0.1,0-0.2,0-0.3,0l-0.9-0.5c-0.1,0-0.1-0.1,0-0.2
						l0.9-0.5C352.1,106.4,352.2,106.4,352.3,106.4z"/>
					<path class="st23" d="M351,105.7l0.9,0.5c0.1,0,0.1,0.1,0,0.2l-0.9,0.5c-0.1,0-0.2,0-0.3,0l-0.9-0.5c-0.1,0-0.1-0.1,0-0.2
						l0.8-0.5C350.8,105.6,350.9,105.6,351,105.7z"/>
					<path class="st23" d="M349.8,105l0.9,0.5c0.1,0,0.1,0.1,0,0.2l-0.8,0.5c-0.1,0-0.2,0-0.3,0l-0.9-0.5c-0.1,0-0.1-0.1,0-0.2
						l0.8-0.5C349.5,104.9,349.7,104.9,349.8,105z"/>
					<path class="st23" d="M348.5,104.2l0.9,0.5c0.1,0,0.1,0.1,0,0.2l-0.9,0.5c-0.1,0-0.2,0-0.3,0l-0.9-0.5c-0.1,0-0.1-0.1,0-0.2
						l0.8-0.5C348.3,104.2,348.4,104.2,348.5,104.2z"/>
					<path class="st23" d="M347.3,103.5l0.9,0.5c0.1,0,0.1,0.1,0,0.2l-0.8,0.5c-0.1,0-0.2,0-0.3,0l-0.9-0.5c-0.1,0-0.1-0.1,0-0.2
						l0.9-0.5C347.1,103.5,347.2,103.5,347.3,103.5z"/>
					<path class="st23" d="M346,102.8l0.9,0.5c0.1,0,0.1,0.1,0,0.2l-0.9,0.5c-0.1,0-0.2,0-0.3,0l-0.9-0.5c-0.1,0-0.1-0.1,0-0.2
						l0.8-0.5C345.8,102.7,345.9,102.7,346,102.8z"/>
					<path class="st23" d="M344.8,102.1l0.9,0.5c0.1,0,0.1,0.1,0,0.2l-0.8,0.5c-0.1,0-0.2,0-0.3,0l-0.9-0.5c-0.1,0-0.1-0.1,0-0.2
						l0.9-0.5C344.6,102,344.7,102,344.8,102.1z"/>
					<path class="st23" d="M343.5,101.3l0.9,0.5c0.1,0,0.1,0.1,0,0.2l-0.9,0.5c-0.1,0.1-0.2,0.1-0.3,0l-0.9-0.5
						c-0.1,0-0.1-0.1,0-0.2l0.8-0.5C343.3,101.3,343.4,101.3,343.5,101.3z"/>
					<path class="st23" d="M342.2,100.6l0.9,0.5c0.1,0,0.1,0.1,0,0.2l-0.8,0.5c-0.1,0-0.2,0-0.3,0l-0.9-0.5c-0.1,0-0.1-0.1,0-0.2
						l0.9-0.5C342.1,100.6,342.2,100.6,342.2,100.6z"/>
					<path class="st23" d="M341,99.9l0.9,0.5c0.1,0,0.1,0.1,0,0.2L341,101c-0.1,0.1-0.2,0.1-0.3,0l-0.9-0.5c-0.1,0-0.1-0.1,0-0.2
						l0.8-0.5C340.8,99.8,340.9,99.8,341,99.9z"/>
					<path class="st23" d="M339.7,99.2l0.9,0.5c0.1,0,0.1,0.1,0,0.2l-0.8,0.5c-0.1,0-0.2,0-0.3,0l-0.9-0.5c-0.1,0-0.1-0.1,0-0.2
						l0.9-0.5C339.5,99.1,339.6,99.1,339.7,99.2z"/>
					<path class="st23" d="M338.4,98.4l0.9,0.5c0.1,0,0.1,0.1,0,0.2l-0.9,0.5c-0.1,0-0.2,0-0.3,0l-0.9-0.5c-0.1,0-0.1-0.1,0-0.2
						l0.8-0.5C338.3,98.4,338.4,98.4,338.4,98.4z"/>
					<path class="st23" d="M353.5,107.1l1.5,0.9c0.1,0,0.1,0.1,0,0.2l-0.8,0.5c-0.1,0-0.2,0-0.3,0l-1.5-0.9c-0.1,0-0.1-0.1,0-0.2
						l0.8-0.5C353.3,107.1,353.4,107.1,353.5,107.1z"/>
					<path class="st23" d="M336.1,98.4l0.9,0.5c0.1,0.1,0.2,0.1,0.3,0l0.9-0.5c0.1,0,0.1-0.1,0-0.2h-0.1c0,0-0.1-0.1,0-0.1
						c0,0,0,0,0,0l1-0.6c0,0,0.1-0.1,0-0.1c0,0,0,0,0,0l-0.6-0.4c-0.1,0-0.2,0-0.3,0l-0.9,0.5l-0.2,0.1l-0.1,0.1l-0.1,0.1l-0.8,0.4
						C336,98.2,336,98.2,336.1,98.4C336,98.3,336,98.4,336.1,98.4z"/>
					<path class="st23" d="M357.8,105.4l0.9,0.5c0.1,0,0.1,0.1,0,0.2l-0.9,0.5c-0.1,0-0.2,0-0.3,0l-0.9-0.5c-0.1,0-0.1-0.1,0-0.2
						l0.8-0.5C357.6,105.3,357.7,105.3,357.8,105.4z"/>
					<path class="st23" d="M356.5,104.6l0.9,0.5c0.1,0,0.1,0.1,0,0.2l-0.8,0.5c-0.1,0-0.2,0-0.3,0l-0.9-0.5c-0.1,0-0.1-0.1,0-0.2
						l0.8-0.5C356.3,104.6,356.4,104.6,356.5,104.6z"/>
					<path class="st23" d="M355.3,103.9l0.9,0.5c0.1,0,0.1,0.1,0,0.2l-0.8,0.5c-0.1,0-0.2,0-0.3,0l-0.9-0.5c-0.1,0-0.1-0.1,0-0.2
						l0.8-0.5C355.1,103.9,355.2,103.9,355.3,103.9z"/>
					<path class="st23" d="M344.6,97.8l0.9,0.5c0.1,0,0.1,0.1,0,0.2l-0.8,0.5c-0.1,0-0.2,0-0.3,0l-0.9-0.5c-0.1,0-0.1-0.1,0-0.2
						l0.9-0.5C344.4,97.7,344.5,97.7,344.6,97.8z"/>
					<path class="st23" d="M343.4,97.1l0.9,0.5c0.1,0,0.1,0.1,0,0.2l-0.8,0.5c-0.1,0-0.2,0-0.3,0l-0.9-0.5c-0.1,0-0.1-0.1,0-0.2
						l0.9-0.5C343.2,97,343.3,97,343.4,97.1z"/>
					<path class="st23" d="M342.1,96.3l0.9,0.5c0.1,0,0.1,0.1,0,0.2l-0.8,0.5c-0.1,0-0.2,0-0.3,0L341,97c-0.1,0-0.1-0.1,0-0.2
						l0.9-0.5C341.9,96.3,342.1,96.3,342.1,96.3z"/>
					<path class="st23" d="M340.9,95.6l0.9,0.5c0.1,0,0.1,0.1,0,0.2l-0.8,0.5c-0.1,0-0.2,0-0.3,0l-0.9-0.5c-0.1,0-0.1-0.1,0-0.2
						l0.9-0.5C340.7,95.6,340.8,95.6,340.9,95.6z"/>
					<path class="st23" d="M353.7,103l1.2,0.7c0.1,0,0.1,0.1,0,0.2l-0.8,0.5c-0.1,0-0.2,0-0.3,0l-1.2-0.7c-0.1-0.1-0.1-0.1,0-0.2
						l0.9-0.5C353.5,103,353.6,103,353.7,103z"/>
					<path class="st23" d="M345.9,98.5l1.2,0.7c0.1,0,0.1,0.1,0,0.2l-0.8,0.5c-0.1,0-0.2,0-0.3,0l-1.2-0.7c-0.1,0-0.1-0.1,0-0.2
						l0.8-0.5C345.7,98.5,345.8,98.5,345.9,98.5z"/>
					<path class="st23" d="M347.4,99.4l5.9,3.4c0.1,0,0.1,0.1,0,0.2l-0.8,0.5c-0.1,0-0.2,0-0.3,0l-5.9-3.4c-0.1,0-0.1-0.1,0-0.2
						l0.9-0.5C347.3,99.4,347.4,99.4,347.4,99.4z"/>
					<path class="st23" d="M353.1,105.5l0.9,0.5c0.1,0,0.1,0.1,0,0.2l-0.9,0.5c-0.1,0-0.2,0-0.3,0l-0.9-0.5c-0.1,0-0.1-0.1,0-0.2
						l0.8-0.5C353,105.5,353.1,105.5,353.1,105.5z"/>
					<path class="st23" d="M351.9,104.8l0.9,0.5c0.1,0,0.1,0.1,0,0.2l-0.8,0.5c-0.1,0-0.2,0-0.3,0l-0.9-0.5c-0.1,0-0.1-0.1,0-0.2
						l0.9-0.5C351.7,104.7,351.8,104.7,351.9,104.8z"/>
					<path class="st23" d="M350.6,104.1l0.9,0.5c0.1,0,0.1,0.1,0,0.2l-0.8,0.5c-0.1,0-0.2,0-0.3,0l-0.9-0.5c-0.1,0-0.1-0.1,0-0.2
						l0.9-0.5C350.5,104,350.6,104,350.6,104.1z"/>
					<path class="st23" d="M349.4,103.3l0.9,0.5c0.1,0,0.1,0.1,0,0.2l-0.8,0.5c-0.1,0.1-0.2,0.1-0.3,0l-0.9-0.5
						c-0.1,0-0.1-0.1,0-0.2l0.9-0.5C349.3,103.3,349.4,103.3,349.4,103.3z"/>
					<path class="st23" d="M348.1,102.6l0.9,0.5c0.1,0,0.1,0.1,0,0.2l-0.8,0.5c-0.1,0-0.2,0-0.3,0l-0.9-0.5c-0.1,0-0.1-0.1,0-0.2
						l0.8-0.5C347.9,102.6,348.1,102.6,348.1,102.6z"/>
					<path class="st23" d="M346.9,101.9l0.9,0.5c0.1,0,0.1,0.1,0,0.2l-0.9,0.5c-0.1,0-0.2,0-0.3,0l-0.9-0.5c-0.1,0-0.1-0.1,0-0.2
						l0.8-0.5C346.7,101.8,346.8,101.8,346.9,101.9z"/>
					<path class="st23" d="M345.6,101.2l0.9,0.5c0.1,0,0.1,0.1,0,0.2l-0.9,0.5c-0.1,0-0.2,0-0.3,0l-0.9-0.5c-0.1,0-0.1-0.1,0-0.2
						l0.8-0.5C345.4,101.1,345.5,101.1,345.6,101.2z"/>
					<path class="st23" d="M344.4,100.4l0.9,0.5c0.1,0,0.1,0.1,0,0.2l-0.9,0.5c-0.1,0.1-0.2,0.1-0.3,0l-0.9-0.5
						c-0.1,0-0.1-0.1,0-0.2l0.8-0.5C344.2,100.4,344.3,100.4,344.4,100.4z"/>
					<path class="st23" d="M343.1,99.7l0.9,0.5c0.1,0,0.1,0.1,0,0.2l-0.9,0.5c-0.1,0-0.2,0-0.3,0l-0.9-0.5c-0.1,0-0.1-0.1,0-0.2
						l0.9-0.5C342.9,99.7,343,99.7,343.1,99.7z"/>
					<path class="st23" d="M341.9,99l0.9,0.5c0.1,0,0.1,0.1,0,0.2l-0.8,0.5c-0.1,0-0.2,0-0.3,0l-0.9-0.5c-0.1,0-0.1-0.1,0-0.2
						l0.9-0.5C341.7,98.9,341.8,98.9,341.9,99z"/>
					<path class="st23" d="M340.6,98.3l0.9,0.5c0.1,0,0.1,0.1,0,0.2l-0.8,0.5c-0.1,0-0.2,0-0.3,0l-0.9-0.5c-0.1,0-0.1-0.1,0-0.2
						l0.9-0.5C340.4,98.2,340.5,98.2,340.6,98.3z"/>
					<path class="st23" d="M339.4,97.6l0.9,0.5c0.1,0,0.1,0.1,0,0.2l-0.8,0.5c-0.1,0-0.2,0-0.3,0l-0.9-0.5c-0.1,0-0.1-0.1,0-0.2
						l0.8-0.5C339.2,97.5,339.3,97.5,339.4,97.6z"/>
					<path class="st23" d="M354.4,106.2l1.8,1.1c0.1,0,0.1,0.1,0,0.2l-0.8,0.5c-0.1,0-0.2,0-0.3,0l-1.8-1.1c-0.1,0-0.1-0.1,0-0.2
						l0.8-0.5C354.3,106.2,354.4,106.2,354.4,106.2z"/>
					<path class="st23" d="M355,105.2l0.9,0.5c0.1,0,0.1,0.1,0,0.2l-0.8,0.5c-0.1,0-0.2,0-0.3,0l-0.9-0.5c-0.1,0-0.1-0.1,0-0.2
						l0.9-0.5C354.8,105.1,354.9,105.1,355,105.2z"/>
					<path class="st23" d="M353.7,104.4l0.9,0.5c0.1,0,0.1,0.1,0,0.2l-0.8,0.5c-0.1,0-0.2,0-0.3,0l-0.9-0.5c-0.1,0-0.1-0.1,0-0.2
						l0.8-0.5C353.5,104.4,353.6,104.4,353.7,104.4z"/>
					<path class="st23" d="M352.4,103.7l0.9,0.5c0.1,0,0.1,0.1,0,0.2l-0.9,0.5c-0.1,0.1-0.2,0.1-0.3,0l-0.9-0.5
						c-0.1,0-0.1-0.1,0-0.2l0.8-0.5C352.3,103.7,352.4,103.7,352.4,103.7z"/>
					<path class="st23" d="M351.2,103l0.9,0.5c0.1,0,0.1,0.1,0,0.2l-0.9,0.5c-0.1,0-0.2,0-0.3,0l-0.9-0.5c-0.1,0-0.1-0.1,0-0.2
						l0.8-0.5C351,103,351.1,103,351.2,103z"/>
					<path class="st23" d="M350,102.3l0.9,0.5c0.1,0,0.1,0.1,0,0.2l-0.9,0.5c-0.1,0-0.2,0-0.3,0l-0.9-0.5c-0.1,0-0.1-0.1,0-0.2
						l0.8-0.5C349.8,102.2,349.9,102.2,350,102.3z"/>
					<path class="st23" d="M348.7,101.5l0.9,0.5c0.1,0,0.1,0.1,0,0.2l-0.9,0.5c-0.1,0-0.2,0-0.3,0l-0.9-0.5c-0.1,0-0.1-0.1,0-0.2
						l0.9-0.5C348.5,101.5,348.6,101.5,348.7,101.5z"/>
					<path class="st23" d="M347.4,100.8l0.9,0.5c0.1,0,0.1,0.1,0,0.2l-0.8,0.5c-0.1,0-0.2,0-0.3,0l-0.9-0.5c-0.1,0-0.1-0.1,0-0.2
						l0.9-0.5C347.3,100.8,347.4,100.8,347.4,100.8z"/>
					<path class="st23" d="M346.2,100.1l0.9,0.5c0.1,0,0.1,0.1,0,0.2l-0.8,0.5c-0.1,0-0.2,0-0.3,0l-0.9-0.5c-0.1,0-0.1-0.1,0-0.2
						l0.9-0.5C346,100.1,346.1,100.1,346.2,100.1z"/>
					<path class="st23" d="M345,99.4l0.9,0.5c0.1,0,0.1,0.1,0,0.2l-0.8,0.5c-0.1,0-0.2,0-0.3,0l-0.9-0.5c-0.1,0-0.1-0.1,0-0.2
						l0.9-0.5C344.8,99.3,344.9,99.3,345,99.4z"/>
					<path class="st23" d="M343.7,98.7l0.9,0.5c0.1,0,0.1,0.1,0,0.2l-0.8,0.5c-0.1,0-0.2,0-0.3,0l-0.9-0.5c-0.1,0-0.1-0.1,0-0.2
						l0.8-0.5C343.5,98.6,343.6,98.6,343.7,98.7z"/>
					<path class="st23" d="M342.4,97.9l0.9,0.5c0.1,0,0.1,0.1,0,0.2l-0.8,0.5c-0.1,0-0.2,0-0.3,0l-0.9-0.5c-0.1,0-0.1-0.1,0-0.2
						l0.8-0.5C342.3,97.9,342.4,97.9,342.4,97.9z"/>
					<path class="st23" d="M339.7,96.3l2.4,1.4c0.1,0,0.1,0.1,0,0.2l-0.9,0.5c-0.1,0.1-0.2,0.1-0.3,0l-2.5-1.4c-0.1,0-0.1-0.1,0-0.2
						l0.8-0.5C339.5,96.3,339.6,96.3,339.7,96.3z"/>
					<path class="st23" d="M356.2,105.9l1.2,0.7c0.1,0,0.1,0.1,0,0.2l-0.8,0.5c-0.1,0-0.2,0-0.3,0l-1.2-0.7c-0.1,0-0.1-0.1,0-0.2
						l0.9-0.5C356.1,105.8,356.2,105.8,356.2,105.9z"/>
					<path class="st23" d="M334.8,99.2l17.8,10.2c0.1,0,0.1,0.1,0,0.2l-0.4,0.2c-0.1,0-0.2,0-0.3,0L334,99.6c-0.1,0-0.1-0.1,0-0.2
						l0.4-0.2C334.6,99.1,334.7,99.1,334.8,99.2z"/>
					<polygon id="_Контур_45" class="st24" points="355.6,99.6 355.4,99.7 352.4,101.4 346.9,98.3 346.8,98.2 350,96.4 					
						"/>
					<polygon id="_Контур_46" class="st25" points="355.4,99.7 352.4,101.4 346.9,98.3 350,96.5 					"/>
					<path id="_Контур_47" class="st25" d="M364.3,103.7v0.3c0,0.4-0.2,0.8-0.5,1l-10.8,6.2c-0.2,0.1-0.4,0.2-0.6,0.2
						c-0.2,0-0.4-0.1-0.6-0.2l-19.6-11.3c-0.4-0.2-0.6-0.6-0.6-1v-0.3l20.7,12L364.3,103.7z"/>
					<path id="_Контур_48" class="st20" d="M352.1,110.8c-0.4,0.1-0.8,0.1-1.1-0.1l-19.5-11.3c-0.3-0.2-0.6-0.5-0.6-0.9
						l-2.1-12.7c0-0.1,0-0.1,0-0.2c0-0.4,0.1-0.7,0.4-0.9l20.3,11.7c0.3,0.1,0.4,0.4,0.5,0.7L352.1,110.8z"/>
					<path id="_Контур_49" class="st25" d="M352.4,110.6l-0.1,0.1c-0.1,0-0.1,0.1-0.2,0.1L349.8,97c-0.1-0.3-0.2-0.5-0.5-0.7
						L329,84.6c0.1-0.1,0.2-0.1,0.3-0.2l20.3,11.7c0.2,0.1,0.4,0.4,0.5,0.7L352.4,110.6z"/>
				</g>
			</g>
			<path id="_Контур_50" class="st19" d="M367.1,56.2c0,0-0.2,4.8-0.1,5.3s2.2,1.8,2.8,2.3c0.6,0.5-3.4,4.4-5.3,5.3
				s-8-1.4-8.1-4.4s1-5.5,2-5.7S367.1,56.2,367.1,56.2z"/>
			<path id="_Контур_51" class="st20" d="M367.6,62.3c0,0-3.5,5.2-8.4,5.7c-1.5-1.5-1.7-7,0.5-8.7c0,0-2-1.6-3.3-1.3
				c-1.4,0.9-2.5,2.3-3,3.9c-1.3,3.6-1.8,7.4-1.7,11.2c0.1,5.1,0,18.1,0,18.1c0.6,3.1,2.5,5.8,5.2,7.4c3.5,2,7.7,2.6,11.7,1.6
				c2.5-0.6,3.4-2,4.3-3.8c-0.2-3.6-1.6-11-1-15.6s1.6-7.9,1.8-11.6s-0.5-3.6-2.3-4.9C370,63.7,368.9,62.9,367.6,62.3z"/>
			<path id="_Контур_52" class="st19" d="M362,104c0.9-0.6,1.8-1.1,2.8-1.6c0.9-0.3,1.7-0.8,2.4-1.4c0.9-0.8,2.3-4,3.3-7.2
				c1-3.5,1.4-7.2,1.2-10.8c-0.4-4.4-2-10.5-2.4-13s0.4-3.5,1.6-4.4c1.4-1.1,3.3-0.6,4.3,2.9c1.3,4.9,2.1,9.9,2.3,14.9
				c0,3.7-0.5,7.5-1.7,11c-1,3-2.5,5.9-4.2,8.7c-0.5,0.8-0.6,1.5-1.4,3.2c-0.7,1.7-1.8,3.1-3.2,4.3c-1.2,0.9-1.8,1-2.1,0.8
				s-0.3-0.6,0.2-1.1c0.9-0.7,1.6-1.5,2.2-2.5c0,0-1.1,1.1-1.8,1.7c-0.6,0.5-1.3,1-2.1,1.3c-0.7,0.3-1.7-0.3-1.2-0.8s1-0.7,2.1-1.6
				c0.5-0.5,1-1,1.5-1.6c-0.7,0.6-1.5,1-2.3,1.5c-0.6,0.4-1.3,0.6-2.1,0.6c-0.4,0-0.8-0.5-0.1-1.1c1-0.5,1.9-1.1,2.7-1.9
				c0.8-0.8,1.2-1.4,1-1.5s-0.6,0.5-1.6,0.8s-1.9,0-2-0.5S361.1,104.4,362,104z"/>
			<path id="_Контур_53" class="st19" d="M356.1,48.9L356.1,48.9c0.6-3.8,3.3-6.6,7.2-6.4c4.1,0.2,7.3,3.7,7.1,7.8
				c-0.1,2.3-1.3,4.5-3.3,5.8c-0.1,0.6-0.3,1.1-0.6,1.7c-1.4,1.6-5.5,2.6-6.7,2.4c-1.5-0.1-2.7-1.1-3.1-2.5
				C355.4,54.8,355.8,50.8,356.1,48.9z"/>
			<path class="st23" d="M367.1,56.2L367.1,56.2l-0.4-3.3c0,0,2.7-6.9-3.6-5.6c-4.2,0.9-5.2,1.3-6.5-1.5s3.2-5.3,8.5-4.6
				c3.8,0.4,6.7,3.6,6.6,7.5C371.6,50.6,371,54.8,367.1,56.2z"/>
			<path class="st22" d="M377.9,75c0,0-3.5,3.4-7.5,2.4c-0.6-0.4-2-8.4-2-8.4s0-4.4,3.4-4.3S377.9,75,377.9,75z"/>
			<path class="st22" d="M351.8,68.3c-1,0-1.9-0.5-2.5-1.2c0.1-1.8,2.4-8.6,7.1-9.1c-1.3,0.9-2.3,2.1-2.9,3.5
				C352.8,63.8,352.2,66,351.8,68.3z"/>
		</g>
		<path class="st0" d="M471.5,388.3c-1.6-1.4-3.3-2.7-5.1-3.7c-13.9-8-36.4-8-50.2,0c-2.1,1.2-4.1,2.7-5.8,4.4
			c-7.6,7.8-5.7,17.9,5.8,24.5c13.8,8,36.4,8,50.2,0C478.3,406.7,480,396.2,471.5,388.3z M462,411c-11.4,6.6-30,6.6-41.4,0
			c-8-4.6-10.4-11.3-7.2-17.1c1.7-2.9,4.2-5.2,7.2-6.8c11.4-6.6,30-6.6,41.4,0c3,1.6,5.4,3.9,7.1,6.8l0,0
			C472.4,399.8,470,406.4,462,411z"/>
		<path class="st28" d="M469.1,393.9L469.1,393.9c-1.7-2.9-4.2-5.2-7.1-6.8c-11.4-6.6-30-6.6-41.4,0c-3,1.6-5.4,3.9-7.2,6.8
			l-3.1-4.9l-0.6-0.9l4-9.5l13.9-7.7l25.9,0.5l17.6,10.4c0,0,0.3,3.3,0.4,6.6C471.5,392.4,471.1,396.3,469.1,393.9z"/>
		<polygon class="st0" points="405.8,399 405.8,388.1 411.2,397.3 		"/>
		<polygon class="st0" points="476.8,399 476.8,388.2 472,393.6 		"/>
		<ellipse class="st29" cx="441.6" cy="393.6" rx="29.5" ry="17"/>
		<path class="st0" d="M408.5,400.8c0,0,4.5,17.9,38.5,17c23.5,0,26.6-20.2,26-23.1c-4.9,6.7-12.5,11-20.8,11.6
			c-14.3,1.2-24.9,1.1-30.6-1.6s-13.1-9.9-13.1-9.9L408.5,400.8z"/>
		<path class="st2" d="M416.2,403.2c-13.8-8-13.8-21,0-29s36.4-8,50.2,0s13.8,21,0,29S430,411.2,416.2,403.2z M462,376.8
			c-11.4-6.6-30-6.6-41.4,0s-11.4,17.3,0,23.9s30,6.6,41.4,0S473.4,383.4,462,376.8z"/>
		<ellipse transform="matrix(0.866 -0.5 0.5 0.866 -170.4117 241.8072)" class="st16" cx="366" cy="438.9" rx="3.9" ry="6.8"/>
		<polygon class="st0" points="419.8,407.8 404.9,416.4 400.3,413.7 415.2,405.1 		"/>
		<polygon class="st28" points="419.8,413.1 404.9,421.7 404.9,416.4 419.8,407.8 		"/>
		<path class="st9" d="M407.9,420.2c-0.2-3.4-2-6.4-4.8-8.3c-1-0.7-2.2-0.8-3.3-0.4l0,0L362.7,433l6.8,11.6l36.7-21.2
			C407.3,423,407.9,421.9,407.9,420.2z"/>
		<ellipse transform="matrix(0.866 -0.5 0.5 0.866 -170.4117 241.8072)" class="st9" cx="366" cy="438.9" rx="3.9" ry="6.8"/>
		<g id="Men_1">
			<ellipse class="st5" cx="470.4" cy="486.8" rx="22.7" ry="13.1"/>
			<path id="_Контур_54" class="st19" d="M486.3,392.7c0.2,2.1,2.8,11.2,2.2,14.3s-9.1,8.3-9.1,8.3l-1.2-5.3l4.8-4.7l-1.3-8.8
				L486.3,392.7z"/>
			<path id="_Контур_55" class="st22" d="M479.6,383.8c1.7-0.8,3.8-0.2,4.8,1.5c1.3,2.1,2.6,9.3,2.7,10.5c0,0-1.8,2.5-4.4,2
				L479.6,383.8z"/>
			<path class="st18" d="M469.8,485.2c-1.9,0.5-3.9,0.3-5.6-0.7c-1.3,0-8.6-3.1-9.6-0.5c-0.9,2.3,2.3,4.4,4,4.8
				c3.7,0.9,6.4,2.7,7.9,3c1.1,0.2,2.5,0.4,3.4-0.5C470.9,490.4,470.9,486.6,469.8,485.2z"/>
			<path class="st21" d="M466.5,491.3c-1.5-0.3-4.2-2.1-7.9-3c-1.4-0.3-3.8-1.9-4.1-3.7c-0.3,2.1,2.5,4,4.1,4.4
				c3.7,0.9,6.4,2.7,7.9,3c1.1,0.2,2.5,0.4,3.4-0.5c0.2-0.3,0.4-0.6,0.5-0.9C469.3,491.4,467.8,491.7,466.5,491.3z"/>
			<path class="st18" d="M481.6,479.9c-1.9,0.5-3.9,0.3-5.6-0.7c-1.3,0-8.6-3.1-9.6-0.5c-0.9,2.3,2.3,4.4,4,4.8
				c3.7,0.9,6.4,2.7,7.9,3c1.1,0.2,2.5,0.4,3.4-0.5C482.7,485.1,482.7,481.3,481.6,479.9z"/>
			<path class="st21" d="M478.3,486c-1.5-0.3-4.2-2.1-7.9-3c-1.4-0.3-3.8-1.9-4.1-3.7c-0.3,2.1,2.5,4,4.1,4.4c3.7,0.9,6.4,2.7,7.9,3
				c1.1,0.2,2.5,0.4,3.4-0.5c0.2-0.3,0.4-0.6,0.5-0.9C481.1,486.1,479.6,486.4,478.3,486z"/>
			<path id="_Контур_56" class="st13" d="M481.8,460.1c-0.3-2.7-0.9-5.4-1.7-8c0,0,0.5-6.9,0.8-13.4
				c0.3-7.4,2.9-13.9,0.8-19.8l-22.8,5.1c0,0,1.4,29.5,1.7,33.1c0.2,2.8,0.5,5.5,1,8.3c1,5.7,2.7,19.4,2.7,19.4
				c1.7,0.8,3.7,1,5.6,0.6c0,0-0.2-17.2-0.3-21.4c-0.2-5-0.3-4.6-0.3-4.6l0.8-12.5l0.5-6.2c0,0,0.6,4.6,1,8.7
				c0.4,3.6,1.2,6.8,2.2,13.4c0.8,5.8,2.2,17.3,2.2,17.3c2.4,1.4,5.7,0.2,5.7,0.2S482.4,465.1,481.8,460.1z"/>
			<path id="_Контур_57" class="st19" d="M478.4,383.9c-1.7,0.1-3,0.5-3.2,0c-0.2-0.9-0.3-1.8-0.4-2.7c0.2-0.5,0.4-1,0.4-1
				c2.2-1.3,2.9-3.7,3.2-6.5c0.5-4.7-2-8.8-6.8-9.3c-4.4-0.5-7.7,2.6-8.5,6.9c-0.5,2.1-1.4,6.1-0.1,9.5c0.7,1.9,1.6,3.5,2.5,3.8
				c0.9,0,1.7-0.1,2.6-0.2l0,0c0,0,0.2,1.3,0.4,2.1s0.1,1.3-1.6,2.3s2.5,3.1,5.3,2.9s5.8-1.9,6.7-3.6
				C479.7,386.1,479.6,383.8,478.4,383.9z"/>
			<path id="_Контур_58" class="st20" d="M475.9,384.1c0.5,1.2-0.8,2.7-4,3.7s-3.6-0.3-3.6-0.3c-2.2,1-4.3,2.1-6.4,3.3
				c-2,1.4-2.8,5.3-3.1,12c-0.3,7.7-0.3,19.2-0.1,21.2c0,0,3.7,3.6,8.4,3.3s12.6-4.5,14.5-7.7c0-6.8-0.9-7.9,0.2-11.8
				c2.5-9,3.8-12.6,2.6-18.6c-1-4.9-2.4-5.5-4.4-5.5C478.8,383.8,477.3,383.9,475.9,384.1z"/>
			<path id="_Контур_59" class="st19" d="M451.5,409.2c3.9,1,4.8-1.5,5.3-3.5c1.2-4.9,1.9-9.2,2.8-12c1.1-3.3,2.2-3.8,3.8-4.4
				c1.9-0.8,3.5,0.8,2.8,5c-0.8,4.8-1.9,9.5-3.5,14.1c-0.5,1.5-1.5,4.2-3.2,5.5c-2,1.6-5,1.5-9.5,0.4c-1.9-0.5-4-1.6-7.7-3.3
				c-1-0.5-1.7-0.8-3.6-1.6c-1.9-0.9-3.5-2.1-4.8-3.8c-1-1.4-1.1-2.1-0.9-2.4s0.7-0.3,1.2,0.3c0.8,1,1.7,1.9,2.8,2.6
				c0,0-1.2-1.3-1.9-2.1c-0.6-0.7-1.1-1.5-1.5-2.4c-0.4-0.8,0.4-2,0.9-1.4s0.8,1.2,1.8,2.4c0.5,0.6,1.1,1.2,1.8,1.7
				c-0.6-0.8-1.2-1.7-1.6-2.6c-0.4-0.7-0.6-1.6-0.6-2.4c0-0.4,0.6-1,1.2-0.1c0.6,1.1,1.3,2.2,2.1,3.1c0.9,0.9,1.6,1.4,1.6,1.2
				s-0.5-0.8-0.8-1.8s0-2.2,0.6-2.3s0.5-0.1,0.9,0.9c0.6,1,1.2,2.1,1.8,3.2c0.3,1,0.8,2,1.6,2.7
				C445.8,407.2,447.9,408.3,451.5,409.2z"/>
			<path id="_Контур_60" class="st22" d="M464.8,388.7c-2.6-0.4-4.4,0.8-5.5,4.7s-1.9,7.1-1.9,7.1c1,1.5,2.6,2.5,4.3,2.9
				c3.1,0.7,4.2-0.7,4.2-0.7s0.9-4.1,1.4-6.9S468,389.2,464.8,388.7z"/>
			<path class="st18" d="M463.2,370.7c0,0-4-6.2,4.7-7.4c6.3-0.9,10.4,3.2,10.9,7.6c0.5,4.2-2.1,8.6-4,10.4
				c-1.8,0.5-3.8,0.2-5.5-0.7c-0.1-1.1-0.1-2.3-0.1-3.5C469.2,377.1,472.3,370.6,463.2,370.7z"/>
		</g>
	</g>
</g>
</svg>
