<?xml version="1.0" encoding="utf-8"?>
<!-- Generator: Adobe Illustrator 26.0.1, SVG Export Plug-In . SVG Version: 6.00 Build 0)  -->
<svg version="1.1" id="Layer_1" xmlns="http://www.w3.org/2000/svg" xmlns:xlink="http://www.w3.org/1999/xlink" x="0px" y="0px"
	 viewBox="0 0 579.1 500" style="enable-background:new 0 0 579.1 500;" xml:space="preserve">
<style type="text/css">
	.st0{opacity:0.4;fill:#D6D8E5;enable-background:new    ;}
	.st1{fill:#B1B4C4;}
	.st2{fill:#616E84;}
	.st3{fill:#20232D;}
	.st4{fill:#FFFFFF;}
	.st5{fill:#2B303F;}
	.st6{opacity:0.1;fill:#FFFFFF;enable-background:new    ;}
	.st7{fill:#757B89;}
	.st8{fill:#E9EAF2;}
	.st9{fill:#D9DAE2;}
	.st10{fill:#38226D;}
	.st11{fill:#9C73FF;}
	.st12{fill:#92278F;}
	.st13{fill:#FFCEA9;}
	.st14{fill:#F4F4F4;}
	.st15{fill:#3A2C6D;}
	.st16{fill:#EDEDED;}
	.st17{fill:#2B2A30;}
	.st18{fill:#BF4B4B;}
	.st19{fill:#F15A29;}
	.st20{opacity:0.5;fill:url(#SVGID_1_);enable-background:new    ;}
	.st21{fill:#F35A28;}
	.st22{fill:#E45626;}
	.st23{fill:#992799;}
	.st24{opacity:0.2;enable-background:new    ;}
	.st25{fill:#E900E9;}
	.st26{fill:#DD990E;}
	.st27{fill:#F9CB07;}
	.st28{fill:#CC8B09;}
	.st29{fill:#4399FF;}
	.st30{fill:#70B6FC;}
	.st31{fill:#EFBD9C;}
</style>
<g id="Слой_2">
	<g id="Слой_1-2">
		<path class="st0" d="M328,412.2l-87.8-50.6c-1.6-0.9-2.1-2.9-1.2-4.4c0.3-0.5,0.8-1,1.3-1.2l11.1-5.7c1-0.5,2.1-0.5,3.1,0.1
			l90.8,52.3c1.6,0.9,2.1,2.9,1.2,4.4c-0.3,0.5-0.8,1-1.3,1.3l-8,4.1C334.2,413.9,330.8,413.8,328,412.2z"/>
		<path class="st1" d="M333.3,402.7l-74.8-43.2c-6.3-3.7-11.4-13.5-11.4-21.9V128.8c0-8.4,5.1-12.3,11.5-8.7l74.8,43.2
			c6.3,3.7,11.5,13.5,11.5,21.9V394C344.8,402.5,339.7,406.3,333.3,402.7z"/>
		<polygon class="st1" points="334.6,406.4 340.6,403.4 334.9,393.7 		"/>
		<polygon class="st1" points="245.9,122.2 251.3,119.4 250.2,127.4 		"/>
		<path class="st2" d="M328.6,405.1l-74.8-43.2c-6.3-3.7-11.5-13.5-11.5-21.9V131.2c0-8.4,5.1-12.3,11.5-8.7l74.8,43.2
			c6.3,3.7,11.5,13.5,11.5,21.9v208.7C340.1,404.8,334.9,408.7,328.6,405.1z"/>
		<path class="st3" d="M339.2,188.2v208.7c0,8.5-5.1,12.3-11.5,8.7l-29.4-16.9l-9.1-5.3l-36.4-21c-6.3-3.7-11.5-13.5-11.5-21.9
			V131.8c0-8.5,5.1-12.3,11.5-8.7l74.8,43.2C334.1,169.9,339.2,179.7,339.2,188.2z"/>
		<path class="st4" d="M333.9,186.1v203.3c0,5.1-3.6,7.2-8,4.6l-23.4-13.5l-2.1-1.2l-0.7-0.4l-5.1-2.9l-14.6-8.4l0,0l-6.1-3.5
			l-2.4-1.4l-16.6-9.6c-4.4-2.6-8-8.8-8-13.9V135.9c0-5.1,3.6-7.2,8-4.6l29.2,16.9v0.1c0.2,4.4,2.6,8.4,6.3,10.8
			c3.5,2,6.3,0.4,6.3-3.6c0,0,0-0.1,0-0.1l29.2,16.9C330.3,174.7,333.9,181,333.9,186.1z"/>
		
			<ellipse transform="matrix(0.867 -0.4983 0.4983 0.867 -38.3156 165.6583)" class="st5" cx="291.2" cy="154.6" rx="1.9" ry="3.4"/>
		<path class="st6" d="M290.4,155.1c-0.6-0.4-1-1-1-1.7c0-0.6,0.4-0.9,1-0.6c0.6,0.4,1,1,1,1.7C291.4,155.2,290.9,155.5,290.4,155.1
			z"/>
		<path class="st7" d="M342.3,215.7L342.3,215.7c-0.6,0.4-1.1,0-1.1-0.8v-8.9c0-0.8,0.4-1.6,1.1-2.1l0,0c0.6-0.4,1.1,0,1.1,0.8v8.9
			C343.4,214.4,343,215.2,342.3,215.7z"/>
		<path class="st7" d="M342.3,230.2L342.3,230.2c-0.6,0.4-1.1,0-1.1-0.8v-8.9c0-0.8,0.4-1.6,1.1-2.1l0,0c0.6-0.4,1.1,0,1.1,0.8v8.9
			C343.4,229,343,229.8,342.3,230.2z"/>
		<path class="st8" d="M319.8,207.5L259,172.4c-1.9-1.4-3.1-3.6-3.1-5.9v-16.7c0-2.3,1.4-3.3,3.1-2.3l60.8,35.1
			c1.9,1.4,3.1,3.6,3.1,5.9v16.7C322.8,207.5,321.5,208.5,319.8,207.5z"/>
		<polygon class="st8" points="255.9,164.7 255.9,180.2 264.5,175.6 		"/>
		<polygon class="st9" points="314.1,190.6 268.3,164.1 268.3,159.4 314.1,185.8 		"/>
		<polygon class="st9" points="290.9,184.3 268.3,171.2 268.3,166.5 290.9,179.6 		"/>
		<path class="st8" d="M303.3,283.3L259,257.8c-1.9-1.4-3.1-3.6-3.1-5.9v-8.7c0-2.3,1.4-3.3,3.1-2.3l44.3,25.6
			c1.9,1.4,3.1,3.6,3.1,5.9v8.7C306.4,283.3,305,284.3,303.3,283.3z"/>
		<polygon class="st8" points="255.9,249.8 255.9,265.2 264.5,260.6 		"/>
		<polygon class="st9" points="299.8,275.7 265.2,255.7 265.2,251 299.8,270.9 		"/>
		<path class="st8" d="M280.5,231.4l39.3,22.7c1.7,1,3.1-0.1,3.1-2.3V235c0-2.3-1.2-4.5-3.1-5.9l-39.3-22.7c-1.7-1-3.1,0.1-3.1,2.3
			v16.7C277.4,227.9,278.6,230.1,280.5,231.4z"/>
		<polygon class="st8" points="322.8,249.9 322.8,265.4 314.3,250.9 		"/>
		<polygon class="st9" points="285.5,220.6 311.4,235.6 311.4,230.9 285.5,215.9 		"/>
		<polygon class="st9" points="285.5,227.8 299.4,235.8 299.4,231.1 285.5,223 		"/>
		<path class="st8" d="M259,307.6l60.4,34.9c1.7,1,3.1-0.1,3.1-2.3v-16.7c0-2.3-1.2-4.5-3.1-5.9L259,282.6c-1.7-1-3.1,0.1-3.1,2.3
			v16.7C255.9,304.1,257.1,306.3,259,307.6z"/>
		<polygon class="st8" points="322.5,338.3 322.5,353.8 313.9,339.3 		"/>
		<polygon class="st9" points="265.2,297.5 307.9,322.2 307.9,317.4 265.2,292.8 		"/>
		<polygon class="st9" points="265.2,304.6 305,327.6 305,322.9 265.2,299.9 		"/>
		<path class="st8" d="M319.8,379L259,343.9c-2.1-1.4-3.5-3.7-3.6-6.2v-8.3c0-2.3,1.6-3.2,3.6-2.1l60.8,35.1
			c2.1,1.4,3.5,3.7,3.6,6.2v8.3C323.4,379.2,321.7,380.1,319.8,379z M259,328.4c-1.4-0.8-2.6-0.2-2.6,1.5v8.3
			c0.1,1.8,1.1,3.5,2.6,4.5l60.8,35.1c1.4,0.8,2.6,0.2,2.6-1.5V368c-0.1-1.8-1.1-3.5-2.6-4.5L259,328.4z"/>
		<polygon class="st8" points="261.4,341.1 260.4,340.5 260.4,332.6 261.4,333.2 		"/>
		<g id="Men_8">
			<ellipse class="st0" cx="444" cy="291.1" rx="34.6" ry="20"/>
			<path class="st10" d="M463.1,286c-2.4,2-6,0.2-6.1,0.4c-2.8,2.6-5.8,5.1-8.9,7.4c-1.5,1.2-3.8,2.8-3.4,5c0.8,4.1,7.3,2.8,9.7,1.6
				s4.5-3.3,6.8-4.7c1.7-1,3.3-1.6,3.5-3.6C464.8,290.7,463.5,285.9,463.1,286z"/>
			<path class="st11" d="M464.6,291.1c-0.3,2-1.9,2.5-3.6,3.6c-2.4,1.5-4.4,3.6-6.9,4.8c-2.3,1.1-7.9,2.3-9.5-0.6
				c0.9,3.9,7.2,2.7,9.7,1.5s4.5-3.3,6.8-4.7c1.7-1,3.3-1.6,3.5-3.6C464.7,291.7,464.7,291.4,464.6,291.1z"/>
			<path class="st10" d="M442.2,278.2c-2.4,2-6.6-0.2-6.8,0c-2.5,2.5-5.2,4.9-8,7.2c-1.5,1.2-3.8,2.8-3.4,5c0.8,4.1,7.2,2.8,9.7,1.6
				s4.5-3.3,6.8-4.7c1.6-1,3.3-1.6,3.5-3.6C444.2,282.3,442.6,278.2,442.2,278.2z"/>
			<path class="st11" d="M444,283c-0.3,2-1.9,2.5-3.6,3.6c-2.4,1.5-4.4,3.6-6.9,4.8c-2.3,1.1-7.9,2.3-9.5-0.6
				c0.9,3.9,7.2,2.7,9.7,1.5s4.5-3.3,6.8-4.7c1.6-1,3.3-1.6,3.5-3.6C444,283.6,444,283.3,444,283z"/>
			<path id="_Контур_" class="st12" d="M463.2,197c-0.1,3.6-1.2,19.5-1.8,27.8s-0.6,18.6-0.6,18.6s1.5,6.1,2.4,13.3
				c0.9,7.2,0,29.8,0,29.8c-1.9,1.2-4.3,1.2-6.2,0c0,0-3.9-18.1-5.6-26.3s-2.1-12.9-3-17.9c-1.1-6.1-3.5-34.7-3.5-34.7l-1,0.1
				l-2.6,32.3c0.8,2.4,1.3,4.8,1.6,7.3c0.7,5.2-0.7,31.7-0.7,31.7c-2.1,1.2-4.7,1.1-6.7-0.3c0,0-6.4-35-6.4-40.3
				c0-3.5,0.6-50,0.6-50L463.2,197z"/>
			<path id="_Контур_2" class="st13" d="M454.5,126.6c0,0-0.4,7.9-0.2,8.7s3.6,3,4.6,3.9s-5.5,7.2-8.6,8.7s-13.2-2.4-13.4-7.3
				s1.7-9.1,3.2-9.3S454.5,126.6,454.5,126.6z"/>
			<path class="st13" d="M435.3,133.7c0,0-2.1-3.3-10,15s-12.7,23.1-16.2,27.6c-3.2,4.1-4.8-2.4-4.8-2.4s2.5-3.2,0.4-3.2
				c-1.2,0.1-2.8,2.5-2.8,2.5l2.7,4.3l7,3.6c0,0,8.6-7.9,11.3-12.7c3-3.8,7.5-11.4,7.5-11.4L435.3,133.7z"/>
			<path class="st3" d="M402,176.9c-0.1-0.1-2.2-2.5-2.2-2.5s-1.2-1.1,0.1-1.2s6.2-0.1,6.2-0.1c0.5,0,1,0.1,1.4,0.4
				c0.6,0.5,7.6,9.4,7.6,9.4s0.3,0.5-0.6,0.6s-6.8,0-6.8,0L402,176.9z"/>
			<path class="st13" d="M401.4,175.4c0,0-2.1-0.4-1.6,1.6s3.5,4.1,3.5,4.1l3.1,2.6c0.8,0.5,1.8,0.5,2.5,0c0.8-0.5,1.9-1.9,0.7-3.1
				s-2.3-4.1-5.5-4c0,0-0.2-0.8-2-1"/>
			<path id="_Контур_3" class="st14" d="M455.3,136.6c0,0-5.8,8.6-13.8,9.4c-2.5-2.5-2.8-11.4,0.8-14.2c0,0-3.2-2.6-5.4-2.1
				c-2.6,1.4-4.6,3.7-5.6,6.5c-1.5,4.5-2.3,9.8-2.2,18.2s0,34.2,0,34.2s1.1,5.4,8.4,9.5s12.6,4.4,17.6,3.3c4.1-0.9,7.4-2.4,8.8-5.3
				c-0.4-5.9-3-21.3-2-28.8s2.5-13,3-19s-0.8-5.9-3.8-8C459.3,139,457.4,137.7,455.3,136.6z"/>
			<path id="_Контур_4" class="st13" d="M458.6,200.5c1.2-1.3,3.3-8.8,4.4-13.5c1.1-5.3,1.4-10.7,0.7-16
				c-1.1-6.4-4-15.3-4.8-18.9s0.3-5.2,1.9-6.7c1.9-1.7,4.8-1.2,6.6,3.9c2.4,7.1,4,14.4,4.8,21.8c0.4,5.5-0.1,11.1-1.4,16.4
				c-1.2,5-3,8.6-5.3,13.2c-0.6,1.2-2.1,4.7-3,7.2S457.5,201.7,458.6,200.5z"/>
			<path id="_Контур_5" class="st13" d="M436.5,114.8L436.5,114.8c1-6.2,5.4-10.8,11.8-10.5c6.7,0.4,11.9,6.1,11.6,12.9
				c-0.2,3.8-2.2,7.3-5.3,9.5c-0.2,0.9-0.6,1.8-1,2.7c-2.2,2.6-9,4.3-11,4c-2.5-0.4-3.9-1.4-5.1-4.1
				C435.3,124.3,436,117.8,436.5,114.8z"/>
			<path class="st15" d="M454.5,126.6L454.5,126.6l-0.6-5.4c0,0,4.4-11.4-6-9.2c-6.9,1.4-8.6,2.1-10.7-2.5s5.3-8.7,14-7.6
				c6.3,0.6,11,6,10.9,12.2C461.8,117.6,460.9,124.4,454.5,126.6z"/>
			<path class="st16" d="M472.2,157.5c0,0-5.7,5.6-12.4,4c-1-0.6-3.3-13.8-3.3-13.8s0-7.3,5.6-7.1S472.2,157.5,472.2,157.5z"/>
			<path class="st16" d="M429.1,150.1c0,0-3.7,0.5-4.9-1.3c0.2-3,5.1-18.3,12.7-19.1c-1.8,1.7-3.4,3.6-4.7,5.7
				C429.4,139.9,429.1,150.1,429.1,150.1z"/>
		</g>
		<g id="Men_2">
			<ellipse class="st0" cx="116.7" cy="480" rx="34.6" ry="20"/>
			<path id="_Контур_6" class="st13" d="M91.3,330.5c-0.4,3.4-4.4,17.9-3.5,22.8s14.6,13.3,14.6,13.3l1.9-8.5l-7.6-7.4l2-14.1
				L91.3,330.5z"/>
			<path id="_Контур_7" class="st16" d="M101.9,316.2c-2.8-1.3-6-0.3-7.6,2.3c-2,3.3-4.1,14.8-4.3,16.7c0,0,2.8,3.9,7.1,3.2
				L101.9,316.2z"/>
			<path class="st17" d="M117.5,477.9c3,0.8,6.2,0.4,8.9-1.1c2.1,0.1,13.7-4.9,15.3-0.7c1.4,3.6-3.6,7-6.3,7.7
				c-5.8,1.4-10.2,4.3-12.5,4.8c-1.8,0.4-4,0.6-5.4-0.8C115.8,486.1,115.9,480,117.5,477.9z"/>
			<path class="st18" d="M122.8,487.5c2.3-0.5,6.7-3.4,12.5-4.8c2.2-0.5,6.1-3,6.5-5.9c0.5,3.4-4,6.3-6.5,7
				c-5.9,1.4-10.2,4.3-12.5,4.8c-1.8,0.4-4,0.6-5.4-0.8c-0.4-0.4-0.6-0.9-0.8-1.4C118.4,487.8,120.7,488.2,122.8,487.5z"/>
			<path class="st17" d="M98.7,469.4c3,0.8,6.2,0.4,8.9-1.1c2.1,0.1,13.7-4.9,15.3-0.7c1.4,3.6-3.6,7-6.3,7.7
				c-5.8,1.4-10.2,4.3-12.5,4.8c-1.8,0.4-4,0.6-5.4-0.8C97,477.7,97.1,471.6,98.7,469.4z"/>
			<path class="st18" d="M104.1,479.1c2.3-0.5,6.7-3.4,12.5-4.8c2.2-0.5,6.1-3,6.5-5.9c0.5,3.4-4,6.3-6.5,7
				c-5.8,1.4-10.2,4.3-12.5,4.8c-1.8,0.4-4,0.6-5.4-0.8c-0.4-0.4-0.6-0.9-0.8-1.4C99.7,479.3,102,479.7,104.1,479.1z"/>
			<path id="_Контур_8" class="st19" d="M98.5,437.9c0.5-4.3,1.4-8.6,2.7-12.7c0,0-0.8-11-1.2-21.3
				c-0.5-11.8-4.6-22.1-1.3-31.6l36.4,8.1c0,0-2.2,47-2.7,52.7c-0.3,4.4-0.8,8.8-1.6,13.2c-1.7,9.1-4.4,30.8-4.4,30.8
				c-3.8,2.2-8.9,1-8.9,1s0.3-27.4,0.5-34c0.3-8,0.5-7.4,0.5-7.4l-1.2-20l-0.8-9.9c0,0-1,7.3-1.7,13.8c-0.6,5.7-2,10.8-3.5,21.4
				c-1.3,9.2-3.5,27.6-3.5,27.6c-3.8,2.2-9.1,0.4-9.1,0.4S97.5,445.9,98.5,437.9z"/>
			<path id="_Контур_9" class="st13" d="M103.8,316.4c2.8,0.1,4.8,0.9,5.2,0c0.3-1.4,0.5-2.9,0.6-4.3
				c-0.3-0.8-0.6-1.7-0.6-1.7c-3.5-2.1-4.6-5.9-5-10.3c-0.8-7.5,3.3-14,10.7-14.8c7-0.7,12.2,4.2,13.6,11c0.7,3.4,2.2,9.7,0.2,15.2
				c-1.1,3.1-2.6,5.5-4,6c-1.4,0-2.8-0.2-4.2-0.4l0,0c0,0-0.4,2.1-0.6,3.4s-0.2,2,2.5,3.7s-4,5-8.4,4.7c-4.4-0.3-9.3-3-10.6-5.8
				C101.8,320,101.9,316.4,103.8,316.4z"/>
			<path id="_Контур_10" class="st14" d="M107.8,316.9c-0.8,1.9,1.2,4.3,6.4,5.9c5.2,1.6,5.7-0.5,5.7-0.5s7.6,3.5,10.1,5.2
				c3.1,2.2,4.5,8.5,4.9,19.2c0.5,12.3,0.5,30.6,0.1,33.8c0,0-5.8,5.8-13.3,5.2s-20-7.2-23.1-12.3c0.1-10.8,1.3-12.6-0.4-18.8
				c-4-14.3-6.1-20.1-4.2-29.6c1.6-7.8,3.9-8.8,7-8.7C103.3,316.3,105.6,316.5,107.8,316.9z"/>
			<path id="_Контур_11" class="st13" d="M146.6,356.8c-6.1,1.5-7.6-2.3-8.4-5.5c-1.9-7.8-3-14.7-4.4-19.1c-1.7-5.2-3.5-6-6-7
				c-3-1.2-5.5,1.3-4.5,7.9c1.2,7.8,2.7,13.3,5.6,22.5c0.8,2.4,2.5,6.7,5,8.8c3.2,2.6,7.9,2.5,15.1,0.7c3.1-0.8,6.4-2.6,12.2-5.3
				c1.6-0.7,2.8-1.2,5.8-2.6c3-1.4,5.6-3.4,7.7-6c1.6-2.3,1.3-3.7,1-4.2c-0.3-0.5-0.6-0.1-1.5,0.8c-1.2,1.6-2.7,3-4.4,4.1
				c0,0,1.9-2,3-3.3c0.9-1.2,1.7-2.4,2.3-3.8c0.6-1.3-0.6-3.1-1.5-2.2c-0.9,1-1.3,1.9-2.9,3.8c-0.9,1-1.8,1.9-2.9,2.7
				c1-1.3,1.9-2.7,2.6-4.2c1-2-2.4-1-4.3,1c-1.4,1.5-2.6,2.3-2.6,1.9c0-0.4-2.8,2.5-4.2,4S152.5,355.4,146.6,356.8z"/>
			<path id="_Контур_12" class="st16" d="M125.5,324.1c4.1-0.6,7,1.2,8.8,7.4c1.8,6.2,3.1,11.3,3.1,11.3
				c-1.6,2.3-4.1,4-6.9,4.5c-4.9,1.2-6.7-1.1-6.7-1.1s-1.4-6.5-2.2-10.9C120.8,330.9,120.5,324.9,125.5,324.1z"/>
			<path class="st17" d="M128.1,295.4c0,0,6.5-9.8-7.5-11.8c-10.1-1.4-16.6,5-17.3,12.1c-0.7,6.7,3.4,13.7,6.4,16.5
				c1.5,0.5,4.6,0.8,8.7-1.1c0.2-1.8,0.2-3.7,0.2-5.5C118.5,305.6,113.6,295.2,128.1,295.4z"/>
		</g>
		<path class="st13" d="M160.9,349.1c0,0-1.6-2.9-0.6-3.6s2.4,2,2.7,3c0.3,1-0.1-0.3-0.1-0.3s-1.1-3.3-0.4-3.9
			c0.7-0.6,1.7,0.8,2.6,2.8s0.2-0.2,0.2-0.2s-1.6-3.3-0.9-3.7c0.9-0.6,2.4,1.3,3.3,3.1s-1.2,3.8-1.2,3.8L160.9,349.1z"/>
		<g id="Mobile">
			<path class="st1" d="M164,354.3l-5.9-3.4c-0.5-0.3-0.4-0.8,0.1-1.1l14.3-8.3c0.6-0.3,1.4-0.4,2-0.1l5.9,3.4
				c0.5,0.3,0.4,0.8-0.1,1.1l-14.4,8.3C165.3,354.5,164.6,354.6,164,354.3z"/>
			<polygon class="st1" points="157.7,350.4 157.7,349.8 158.3,350 			"/>
			<polygon class="st1" points="180.8,345.3 180.8,344.7 180.2,345.1 			"/>
			<path class="st2" d="M164,353.8l-5.9-3.4c-0.5-0.3-0.4-0.8,0.1-1.1l14.3-8.3c0.6-0.4,1.4-0.4,2-0.1l5.9,3.4
				c0.5,0.3,0.4,0.8-0.1,1.1l-14.3,8.3C165.4,354.1,164.6,354.1,164,353.8z"/>
			<ellipse transform="matrix(0.867 -0.4983 0.4983 0.867 -154.4535 126.09)" class="st7" cx="159" cy="352.4" rx="0.1" ry="0.1"/>
			<ellipse transform="matrix(0.866 -0.5 0.5 0.866 -154.2835 126.5332)" class="st7" cx="159" cy="351.2" rx="0.1" ry="0.1"/>
			<ellipse transform="matrix(0.866 -0.5 0.5 0.866 -154.3336 126.7007)" class="st7" cx="159.3" cy="351.3" rx="0.1" ry="0.1"/>
			<ellipse transform="matrix(0.866 -0.5 0.5 0.866 -154.3713 126.8669)" class="st7" cx="159.6" cy="351.5" rx="0.1" ry="0.1"/>
			<ellipse transform="matrix(0.866 -0.5 0.5 0.866 -154.7552 128.2836)" class="st7" cx="162" cy="352.9" rx="0.1" ry="0.1"/>
			<ellipse transform="matrix(0.866 -0.5 0.5 0.866 -154.798 128.4484)" class="st7" cx="162.3" cy="353.1" rx="0.1" ry="0.1"/>
			<ellipse transform="matrix(0.866 -0.5 0.5 0.866 -154.8445 128.6122)" class="st7" cx="162.6" cy="353.2" rx="0.1" ry="0.1"/>
			<ellipse transform="matrix(0.866 -0.5 0.5 0.866 -154.8872 128.7771)" class="st7" cx="162.9" cy="353.4" rx="0.1" ry="0.1"/>
			<path class="st7" d="M161.2,352.5l-0.8-0.5c-0.1,0-0.1-0.1-0.1-0.2l0,0c0-0.1,0-0.1,0.1-0.1l0.8,0.5
				C161.2,352.3,161.3,352.4,161.2,352.5L161.2,352.5C161.3,352.5,161.2,352.6,161.2,352.5z"/>
			<path class="st7" d="M179,346.6l-0.7,0.4c0,0-0.1,0-0.1-0.1l0,0c0-0.1,0-0.1,0.1-0.2l0.7-0.4c0,0,0.1,0,0.1,0.1l0,0
				C179,346.5,179,346.5,179,346.6z"/>
			<path class="st7" d="M177.8,347.2l-0.7,0.4c0,0-0.1,0-0.1-0.1l0,0c0-0.1,0-0.1,0.1-0.2l0.7-0.4c0,0,0.1,0,0.1,0.1l0,0
				C177.9,347.1,177.9,347.2,177.8,347.2z"/>
			<path class="st3" d="M164,353.7l-5.9-3.4c-0.5-0.3-0.4-0.8,0.1-1.1l14.3-8.3c0.6-0.3,1.4-0.4,2-0.1l5.9,3.4
				c0.5,0.3,0.4,0.8-0.1,1.1l-14.3,8.3C165.4,354,164.6,354.1,164,353.7z"/>
			<path class="st5" d="M179.8,344.4l-2.3-1.4l0,0c-0.3,0.2-0.7,0.2-1,0c-0.3-0.2-0.3-0.4,0-0.6l0,0l-2.3-1.3
				c-0.4-0.2-0.9-0.2-1.3,0l-14,8.1c-0.3,0.2-0.3,0.5,0,0.7l5.6,3.2c0.4,0.2,0.9,0.2,1.3,0l14-8.1
				C180.1,344.9,180.1,344.6,179.8,344.4z"/>
			
				<linearGradient id="SVGID_1_" gradientUnits="userSpaceOnUse" x1="-2084.1731" y1="-2527.4922" x2="-2084.1731" y2="-2512.2539" gradientTransform="matrix(0.87 0.5 1 -0.58 4490.731 -65.5425)">
				<stop  offset="0.21" style="stop-color:#FFFFFF;stop-opacity:0"/>
				<stop  offset="1" style="stop-color:#FFFFFF;stop-opacity:0.2"/>
			</linearGradient>
			<path class="st20" d="M179.8,344.4l-2.3-1.4l0,0c-0.3,0.2-0.7,0.2-1,0c-0.3-0.2-0.3-0.4,0-0.6l0,0l-2.3-1.3
				c-0.4-0.2-0.9-0.2-1.3,0l-14,8.1c-0.3,0.2-0.3,0.5,0,0.7l5.6,3.2c0.4,0.2,0.9,0.2,1.3,0l14-8.1
				C180.1,344.9,180.1,344.6,179.8,344.4z"/>
			<ellipse class="st5" cx="176.8" cy="342.8" rx="0.3" ry="0.1"/>
			<path class="st6" d="M176.7,342.9C176.7,342.9,176.7,342.8,176.7,342.9c0-0.1,0.1-0.1,0.2-0.1c0,0,0,0.1,0,0.1
				C176.8,342.9,176.8,342.9,176.7,342.9z"/>
		</g>
		<path class="st13" d="M173.2,352.9c0,0,3.1-2.8,3-6.6c-0.2-2.6-1.8-0.7-1.8-0.7l-1.6,2.9c-0.8,1.1-1.8,1.9-3,2.5
			c-1.1,0.1-2.2,0.3-3.3,0.5c-1.9,0.4-3.9,2.8-3.9,2.8l2.4,1.9L173.2,352.9z"/>
		<path class="st21" d="M158.6,220.4L100.8,187c-1.1-0.8-2.5-1-3.8-0.6l0,0c-0.2,0.1-0.5,0.2-0.7,0.4l-6.4,3.7l5,5.9v24.1
			c0.2,4.2,2.5,8.1,6,10.4l18,11.3l4.9,11.2l-5.2,8.7l7.2-4.1l6.8-7.9l21.7,11.8l1.2,7l7.3-4.2l0.2-0.1h0.1l0,0
			c1.1-0.9,1.7-2.3,1.6-3.8v-30C164.4,226.6,162.2,222.7,158.6,220.4z"/>
		<path class="st22" d="M151.5,224.5l-57.8-33.4c-3.3-1.9-6-0.4-6,3.5v30c0.2,4.2,2.5,8.1,6,10.4l18,11.3l6.9,15.8l6.8-7.9
			l26.1,14.1c3.3,1.9,6,0.4,6-3.5v-30C157.2,230.7,155,226.8,151.5,224.5z"/>
		<path class="st23" d="M486.1,34.3L428.2,0.8c-1.1-0.8-2.5-1-3.9-0.6l0,0c-0.2,0.1-0.5,0.2-0.7,0.4l-6.5,3.7l5,5.9v24.2
			c0.2,4.2,2.5,8.1,6,10.4l18,11.3l4.9,11.2l-5.1,8.8l7.2-4.1l6.8-7.9l21.8,11.8l1.2,7l7.3-4.2l0.2-0.1h0.1l0,0
			c1.1-0.9,1.7-2.3,1.6-3.8v-30C491.9,40.5,489.7,36.6,486.1,34.3z"/>
		<path class="st24" d="M486.1,34.3L428.2,0.8c-1.1-0.8-2.5-1-3.9-0.6l0,0c-0.2,0.1-0.5,0.2-0.7,0.4l-6.5,3.7l5,5.9v24.2
			c0.2,4.2,2.5,8.1,6,10.4l18,11.3l4.9,11.2l-5.1,8.8l7.2-4.1l6.8-7.9l21.8,11.8l1.2,7l7.3-4.2l0.2-0.1h0.1l0,0
			c1.1-0.9,1.7-2.3,1.6-3.8v-30C491.9,40.5,489.7,36.6,486.1,34.3z"/>
		<path class="st25" d="M478.9,38.4L421,4.9c-3.3-1.9-6-0.4-6,3.5v30c0.2,4.2,2.5,8.1,6,10.4l18.1,11.4l6.9,15.9l6.8-7.9L479,82.3
			c3.3,1.9,6,0.4,6-3.5v-30C484.7,44.6,482.5,40.7,478.9,38.4z"/>
		<ellipse transform="matrix(0.866 -0.5 0.5 0.866 41.7964 219.8506)" class="st4" cx="431.1" cy="31.9" rx="3.4" ry="5.9"/>
		<ellipse transform="matrix(0.867 -0.4983 0.4983 0.867 38.873 229.7019)" class="st4" cx="449.8" cy="42" rx="3.4" ry="5.9"/>
		<ellipse transform="matrix(0.866 -0.5 0.5 0.866 36.476 239.6885)" class="st4" cx="465.5" cy="51.8" rx="3.4" ry="5.9"/>
		<path class="st26" d="M386.6,96.9c0-7-4.9-15.6-11-19.1c-3.2-1.9-6.1-1.9-8.1-0.5l-3.7,2.1l1.6,0.6c-0.5,1.3-0.8,2.8-0.8,4.2
			c0,7,4.9,15.6,11,19.1c0.9,0.6,1.9,1,3,1.2v2.2l4.7-2.7l0,0l0,0C385.3,102.8,386.6,100.3,386.6,96.9z"/>
		<ellipse transform="matrix(0.866 -0.5 0.5 0.866 3.352 198.1935)" class="st27" cx="371.5" cy="92.8" rx="9" ry="15.6"/>
		<ellipse transform="matrix(0.866 -0.5 0.5 0.866 5.454 195.2999)" class="st28" cx="367.2" cy="87.5" rx="1.3" ry="2.2"/>
		<ellipse transform="matrix(0.866 -0.5 0.5 0.866 4.1385 200.2294)" class="st28" cx="375.7" cy="92.4" rx="1.3" ry="2.2"/>
		<path class="st28" d="M367.2,94.3c0,0,1.4,3.9,4.3,5.6s4.6-0.4,4.6-0.4L367.2,94.3z"/>
		<polygon class="st29" points="182,306.3 188.2,309.9 188.2,293.9 182,290.3 		"/>
		<polygon class="st30" points="188.2,293.9 182,290.3 187,287.4 193.5,291 		"/>
		<path class="st13" d="M211.8,305.3c-0.1-1.5-0.9-2.9-2.2-3.7l-7.3-4.2l1.2-5.5v-0.4c0-0.6-0.1-1.2-0.2-1.7c-0.2-0.7-1-2.4-1.5-2.1
			l-7.6,4.4c-0.5,0.1-0.7,0.7-0.7,1.5V307c0.1,1.6,1,3.1,2.3,4l10.4,6c0.9,0.5,1.7,0.3,2.1-0.4l3.5-7.5c0.1-0.3,0.1-0.6,0.1-0.9
			V305.3z"/>
		<polygon class="st13" points="204.2,319.2 207.9,317 204.5,312.5 		"/>
		<path class="st31" d="M208.3,307.4c-0.1-1.5-0.9-2.9-2.2-3.7l-7.3-4.2l1.2-5.5v-0.4c0-0.6-0.1-1.2-0.2-1.7c-0.2-0.7-1-2.4-1.5-2.1
			l-7.6,4.4c-0.5,0.1-0.7,0.7-0.7,1.5V309c0.1,1.6,0.9,3.1,2.3,4l10.4,6c0.9,0.5,1.7,0.3,2.1-0.4l3.5-7.5c0.1-0.3,0.1-0.6,0.1-0.9
			L208.3,307.4z"/>
	</g>
</g>
</svg>
