<?xml version="1.0" encoding="utf-8"?>
<!-- Generator: Adobe Illustrator 26.0.1, SVG Export Plug-In . SVG Version: 6.00 Build 0)  -->
<svg version="1.1" id="Layer_1" xmlns="http://www.w3.org/2000/svg" xmlns:xlink="http://www.w3.org/1999/xlink" x="0px" y="0px"
	 viewBox="0 0 605 500" style="enable-background:new 0 0 605 500;" xml:space="preserve">
<style type="text/css">
	.st0{opacity:0.4;fill:#D6D8E5;enable-background:new    ;}
	.st1{fill:#3A2C6D;}
	.st2{fill:#FFCEA9;}
	.st3{fill:#F4F4F4;}
	.st4{fill:#38226D;}
	.st5{fill:#9C73FF;}
	.st6{fill:#92278F;}
	.st7{fill:#EDEDED;}
	.st8{fill:#C1C4D3;}
	.st9{opacity:0.2;fill:#D6D8E5;enable-background:new    ;}
	.st10{fill:#D5D7E2;}
	.st11{fill:#E9EAF4;}
	.st12{fill:#CED0DD;}
	.st13{fill:#FFFFFF;}
	.st14{fill:#F15A29;}
</style>
<g id="Слой_2">
	<g id="Слой_1-2">
		<ellipse class="st0" cx="492.3" cy="214.5" rx="40.6" ry="23.4"/>
		<g id="Girl_8">
			<path id="_Контур_" class="st1" d="M490.6,2.5c1.6-2.5,13.7-4.2,17.7,6c1.5,3.9,1.3,13.8,2.5,20.1s4.2,9.8,5.3,14.8
				s-0.7,13.5-12.9,15c-12.2,1.5-21.6-2.8-24.5-6.7s-3-12.2,0-16.6s5.3-8,5.2-13.8L490.6,2.5z"/>
			<path class="st2" d="M476.1,45.4c0,0-2.9,20.2,2.6,34.6s3.9-3.7,3.9-3.7l-1.3-4.3c0,0-1.1-16.5-0.6-20.6s0.4-7.5,0.6-7.9
				s-1.1-1-1.6-1S476.1,45.4,476.1,45.4z"/>
			<path id="_Контур_2" class="st1" d="M498.6,0.7c0,0-9.1-2.6-14.6,2.3c-5,4.5-4.6,10.6-3.9,13.5s2.2,6.8,4.5,7
				S498.6,0.7,498.6,0.7z"/>
			<path id="_Контур_3" class="st2" d="M502,25.5c0,0-0.6,10.1-0.4,10.9s4,1.5,5.1,2.3s-5.5,11.2-8.8,12.7s-13.7-2.4-14.4-7.5
				c-0.7-4.8,3-8.4,4.4-9.7c1-0.1,1.9-0.1,2.9-0.1l0.3-4.9C495.5,27.8,502,25.5,502,25.5z"/>
			<path id="_Контур_4" class="st3" d="M503.4,37.4c2.9,0.4,6.1,2,6.6,3.5c0.5,1.8,1.6,10.4-0.8,17s-4.1,10.7-5.5,13.5
				c0,0-12.4,5.3-22.3-0.9c0,0-0.7-7-0.7-10.8c-9.2-8-1.3-17.9,6.5-25.6c0.9-0.1,1.9-0.1,2.8,0c0,0-6.9,8.2-2.1,12.9
				C498.1,43.9,500.1,39.3,503.4,37.4z"/>
			<path id="_Контур_5" class="st2" d="M483.1,13L483.1,13c1-6.5,5.7-11.4,12.5-11c7.1,0.5,12.5,6.6,12,13.7
				c-0.3,4-2.3,7.6-5.6,9.8c-0.2,1-0.6,1.9-1,2.9c-2.4,2.8-8.7,4.5-10.8,4.6c-1.8,0-3.4-1.7-5-4.5C481.6,22.7,482.5,16.2,483.1,13z"
				/>
			<path class="st1" d="M497.6,2c4.7,0.9,8.6,2.2,9.9,6.9c0.9,3.2,2,9.3,0.9,11.8l-0.7,1.9l-5.8,3c0,0-2.7-2.2-1.8-8.7
				c0-0.9-0.3-1.7-0.8-2.5c-0.4-0.6-0.6-1.3-0.8-2c-0.7-1.8-2-3.2-3.7-4C490.7,6,484.4,8,483.6,8.9C486,3.6,491.9,0.7,497.6,2z"/>
			<path id="_Контур_6" class="st2" d="M510.3,84.9c1.1-6.6,3-10.9,2.1-14.5c-2-7.4-4.7-14.5-8-21.4c-2.1-4.1-1.5-7,0.7-8.6
				c2.4-1.8,4.8-1,6.9,3.5c2.8,5.7,5.9,11.6,7.4,20.1c0.7,4.1,1.1,8.2-0.2,16.7c-0.9,5.9-2.8,9.3-5.1,14.9
				C513.6,97.1,509.4,90.5,510.3,84.9z"/>
			<path class="st4" d="M506.2,208.2c-2.4,1.9-6.1,0.6-6.3,0.8c-2.4,2.4-6,4.6-8.8,6.7c-1.5,1.2-3.8,2.7-3.4,5
				c0.8,4,7.2,2.8,9.6,1.6s4.4-3.3,6.7-4.7c1.6-1,3.2-1.5,3.5-3.6C507.8,212.6,506.6,208.1,506.2,208.2z"/>
			<path class="st5" d="M507.6,213c-0.3,2-1.9,2.5-3.5,3.5c-2.3,1.4-4.4,3.6-6.8,4.8c-2.2,1.1-7.9,2.3-9.4-0.6
				c0.9,3.9,7.2,2.7,9.6,1.4s4.4-3.3,6.7-4.7c1.6-1,3.2-1.5,3.5-3.6C507.6,213.6,507.6,213.3,507.6,213z"/>
			<path class="st4" d="M489.4,204.8c-2.2,1.8-5.5,0.8-5.6,0.9c-2.2,2.2-5.5,4.1-8,6.1c-1.4,1.1-3.5,2.5-3.1,4.6
				c0.7,3.7,6.6,2.6,8.8,1.4s4-3,6.1-4.3c1.5-0.9,3-1.4,3.2-3.3C491,209.1,489.8,204.8,489.4,204.8z"/>
			<path class="st5" d="M490.8,209.5c-0.3,1.8-1.8,2.3-3.2,3.2c-2.1,1.3-4,3.2-6.2,4.4c-2.1,1-7.2,2.1-8.6-0.6
				c0.8,3.6,6.6,2.4,8.8,1.3s4-3,6.1-4.3c1.5-0.9,3-1.4,3.2-3.3C490.9,210,490.9,209.7,490.8,209.5z"/>
			<path class="st2" d="M476.6,93.7c1-8.2,4.1-20.2,4.1-20.2c2.9,1.3,6,2.1,9.1,2.3c5.3,0.3,13.8-1.3,13.8-1.3
				c1.5,2.6,3.1,5.1,4.9,7.6c2.4,3.3,7,10.5,5.9,23.1c-0.7,8.2-5.3,43.3-5.3,43.3c1.8,5.9,2.8,12,2.8,18.2c0,5.1-1.4,13.8-2.9,21.8
				l-2.8,19.9c0,0-3.7,2.6-6.3,0.8l0.3-19.5c-0.3-4.8-0.8-11.8-1.1-16.3c-0.5-7.3-1.8-18.9-2.2-21.8s-1.3-8-1.7-13.6
				s-2.6-34.5-2.6-34.5l-0.3,5.4c0,0-0.3,8.8-1.5,19.6s-1.7,15.6-1.7,15.6s2.2,4,2.5,7c0.2,2.3,2.9,20.8,1.3,30.2l-3.3,23.9
				c-1.7,1.1-3.8,1.4-5.7,0.8l-1.9-24.1c-1.3-9.2-4-28.6-4.4-31.1c-0.6-3.3-1-5-1.6-15.4S475.5,102,476.6,93.7z"/>
			<path class="st6" d="M503.6,71.4l7.1,14.2c0,0,10.8,15.8-0.4,56.6l2.1,12.6c0,0-21.2,13.6-35.4,0c0,0-4.9-37.6-2.3-55
				c1.5-10,3.7-19.8,6.6-29.5c0,0,3.5,3.8,21.4,1.3"/>
			<path class="st7" d="M516.3,51.8c0,0-4.9,4.9-10.8,4.3l-2.8-9.5c0,0-1.8-5,2.4-7.2S513.9,42.1,516.3,51.8z"/>
			<path class="st7" d="M487,34.2c0,0-5.6-1.7-11.6,10.8l2.2,1.3C477.7,46.3,483.6,37.4,487,34.2z"/>
		</g>
		<ellipse class="st0" cx="114.6" cy="309.8" rx="40.6" ry="23.4"/>
		<g id="Men_13">
			<path class="st4" d="M93.8,302.6c2.9,2.4,7.2,0.2,7.4,0.4c3.4,3.2,7,6.1,10.7,8.9c1.8,1.4,4.6,3.3,4.1,6.1
				c-0.9,4.9-8.8,3.4-11.7,1.9c-3-1.5-5.4-4-8.2-5.7c-2-1.2-4-1.9-4.3-4.4C91.7,308.3,93.2,302.6,93.8,302.6z"/>
			<path class="st5" d="M91.9,308.8c0.4,2.4,2.3,3.1,4.3,4.3c2.8,1.8,5.3,4.3,8.3,5.8c2.7,1.4,9.6,2.8,11.5-0.7
				c-1,4.7-8.7,3.2-11.7,1.8c-2.9-1.5-5.4-4-8.2-5.7c-2-1.2-4-1.9-4.3-4.4C91.8,309.5,91.9,309.2,91.9,308.8z"/>
			<path class="st4" d="M119,293.3c2.9,2.4,8-0.2,8.2,0c3,3.1,6.2,5.9,9.6,8.6c1.8,1.4,4.6,3.3,4.1,6.1c-0.9,4.9-8.8,3.4-11.7,1.9
				s-5.4-4-8.2-5.7c-2-1.2-4-1.9-4.3-4.4C116.6,298.2,118.5,293.2,119,293.3z"/>
			<path class="st5" d="M116.8,299.1c0.4,2.4,2.3,3.1,4.3,4.3c2.8,1.8,5.3,4.3,8.3,5.8c2.7,1.4,9.5,2.8,11.5-0.7
				c-1,4.7-8.7,3.2-11.7,1.8s-5.4-4-8.2-5.7c-2-1.2-4-1.9-4.3-4.4C116.8,299.8,116.8,299.4,116.8,299.1z"/>
			<path id="_Контур_7" class="st6" d="M93.6,195.4c0.1,4.4,1.5,23.5,2.1,33.6s0.8,22.5,0.8,22.5s-1.7,7.4-2.9,16
				c-1.1,8.6,0,35.9,0,35.9c2.3,1.5,5.2,1.5,7.4,0c0,0,4.7-21.9,6.8-31.7s2.5-15.5,3.7-21.6c1.3-7.4,4.3-41.8,4.3-41.8l1.2,0.1
				l3.1,38.9c-1,2.9-1.6,5.8-2,8.8c-0.8,6.3,0.9,38.2,0.9,38.2c2.5,1.4,5.6,1.3,8-0.3c0,0,7.8-42.2,7.8-48.6
				c0-4.2-0.7-60.2-0.7-60.2L93.6,195.4z"/>
			<path id="_Контур_8" class="st2" d="M104.1,110.5c0,0,0.5,9.6,0.3,10.4c-0.2,0.8-4.4,3.7-5.6,4.7s6.6,8.7,10.4,10.5
				s15.9-2.9,16.1-8.8s-2.1-10.9-3.9-11.2S104.1,110.5,104.1,110.5z"/>
			<path class="st2" d="M130.4,128.3c0.6-4.2-2.2-8.2,0.5-11.6c9.5,9.3,8.2,33.8,10.4,49.5c7,7.3,21.1,14.6,25.1,16.4
				c0.7,0.3,1.4,0.7,1.2,1.5c-0.6,3.1-1.5,4.2-3.3,7.2c-9.3-4-16.1-6.3-27.7-17.4c-1.1-1.2-2.1-2.5-3-3.9
				C130.2,159.9,129.4,135.6,130.4,128.3z"/>
			<path id="_Контур_9" class="st3" d="M103.1,122.6c0,0,7,10.4,16.7,11.3c3.1-3,3.3-13.7-0.9-17.2c0,0,3.9-3.1,6.6-2.5
				c2.9,1.7,5,4.4,6,7.6c2.5,7.1,3.6,14.6,3.4,22.1c-0.2,10.2,0,41.2,0,41.2s-1.4,6.6-10.1,11.4s-15.3,5.4-21.2,4
				c-4.9-1.1-9-2.9-10.7-6.4c0.4-7.1,3.6-25.7,2.4-34.7s-3.1-15.6-3.6-22.9s0.9-7.1,4.6-9.7C98.4,125.4,100.7,123.9,103.1,122.6z"/>
			<path id="_Контур_10" class="st2" d="M125.8,96.2L125.8,96.2c-1.1-7.4-6.5-13.1-14.2-12.7c-8.1,0.4-14.4,7.4-14,15.5
				c0.2,4.6,2.6,8.8,6.4,11.4c0.3,1.1,0.7,2.2,1.2,3.2c2.7,3.2,10.9,5.1,13.3,4.8c3-0.4,4.7-1.7,6.1-5
				C127.2,107.7,126.4,99.9,125.8,96.2z"/>
			<path class="st1" d="M104.1,110.5L104.1,110.5l0.7-6.5c0,0-5.3-13.7,7.2-11.1c8.3,1.7,10.3,2.5,12.9-3.1s-6.4-10.5-16.9-9.1
				c-7.5,0.8-13.2,7.2-13,14.8C95.3,99.6,96.4,107.8,104.1,110.5z"/>
			<path class="st2" d="M89.5,132.4c3.6-1,0.9-0.2,3.6-1c9.5,9.3,8.3,25.2,10.4,40.9c5.2,8.6,24.6,20.3,24.6,20.3
				c0.2,1.7-0.3,2.2-2.4,5.5c-9.3-4-17.1-7.5-28.8-18.6c-0.5-0.4-1.1-0.6-1.3-1.1C92.2,168.4,88.5,139.7,89.5,132.4z"/>
			<polygon class="st8" points="175.7,151.8 161.6,199.9 130.7,212.2 142,165.3 			"/>
			<path class="st2" d="M123.2,192.9c0.5-1.6,1.7-1.2,3-0.8c1.4,0.6,3,0.7,4.6,0.4c1.3-0.4,2.2-1.5,3.3-2.2c0.6-0.4,1.3-0.6,2.1-0.6
				c-0.1,0.4-0.7,2.9-0.7,2.9s6.8,0.1,7.5-0.1c0.6-0.2,1.2,0.2,1.4,0.8c0.1,0.4,0,0.8-0.3,1l0.5-0.1c1.4-0.3,2,1.8,0.6,2.1
				c-0.4,0.1-0.8,0.1-1.1,0.2c0.9,0.4,1.1,1.8,0,2.1c-0.1,0-0.2,0-0.3,0.1c-0.2,0.1-0.3,0.1-0.5,0.1c-0.1,0-0.1,0-0.2,0
				c0.1,0.7-0.3,1.3-1,1.4c0,0,0,0,0,0c-3.3,0.4-8.2,1.7-11.2-1c-2.1-0.2-4.1-0.8-6-1.6C122.7,196.7,122.7,194.9,123.2,192.9z"/>
			<path class="st2" d="M157,189c0.2,0,0.3,0,0.5,0c-0.5-0.4-0.6-1.1-0.2-1.6c0.2-0.3,0.5-0.5,0.9-0.5c0.7,0,7.7-1.4,7.7-1.4
				l0.8-2.9c0-0.2,1.2,0.6,1.2,0.6c1.2,0.8,2,2.1,2.1,3.5c0.1,2-0.6,3.9-2,5.3c-1.3,1.2-2.9,2-4.7,2c-0.8,0.1-1.7,0.1-2.4,0.2
				c-0.7,0-1.3-0.5-1.3-1.1c0,0,0,0,0-0.1h-0.2c-0.2,0-0.3,0-0.5,0h-0.4c-1.2,0-1.3-1.5-0.5-2c-0.4,0-0.8,0.1-1.1,0.1
				C155.5,191.2,155.6,189,157,189z"/>
			<path class="st7" d="M134.3,134.6c0,0,3.6-0.2,5-2.3c-0.3-3.6-4.8-17.1-14-18.1c2.5,1.7,4.5,4.1,5.7,6.9
				C132.8,125.2,134.3,134.6,134.3,134.6z"/>
			<path class="st7" d="M87.8,152.4c0,0,9.1,3.1,15.5-2.1c0.7-1.2-3.7-16.7-3.7-16.7s-3.8-7.9-9.8-4.8
				C83.8,131.9,87.8,152.4,87.8,152.4z"/>
		</g>
		<polygon class="st9" points="467.6,354.1 277.6,464.5 165.9,398.8 355.9,288.4 		"/>
		<path class="st8" d="M177.3,296.4v102.3c0.1,0.7,0.5,1.2,1.1,1.5c1.6,0.8,3.5,0.8,5.2,0c0.6-0.3,1-0.8,1.1-1.5l0,0V296.4H177.3z"
			/>
		<path class="st8" d="M276.1,336.2v118.7c0,0.6,0.4,1.2,0.9,1.5c1.4,0.8,3.1,0.8,4.5,0c0.5-0.3,0.9-0.9,0.9-1.5l0,0V336.2H276.1z"
			/>
		<path class="st8" d="M446.9,257v96.8c0,0.6,0.4,1.2,0.9,1.5c1.4,0.8,3.1,0.8,4.5,0c0.5-0.3,0.9-0.9,0.9-1.5l0,0V257H446.9z"/>
		<polygon class="st10" points="279.3,366.7 170.9,304.1 170.9,296.8 279.3,359.4 		"/>
		<polygon class="st11" points="462,254.1 279.3,359.6 170.9,297 353.6,191.6 		"/>
		<polygon class="st12" points="462,261.2 279.3,366.7 279.3,359.4 462,253.9 		"/>
		<ellipse class="st0" cx="486.4" cy="476.6" rx="40.6" ry="23.4"/>
		<g id="Men_1">
			<path id="_Контур_11" class="st2" d="M519.3,298.4c0.5,4,5.3,21.5,4.3,27.5c-1,6-17.5,16-17.5,16l-2.3-10.2l9.1-9l-2.5-17
				L519.3,298.4z"/>
			<path id="_Контур_12" class="st7" d="M506.5,281.2c3.3-1.5,7.3-0.3,9.2,2.8c2.4,4,4.9,17.8,5.2,20.2c0,0-3.4,4.7-8.5,3.9
				L506.5,281.2z"/>
			<path class="st4" d="M487.7,475.9c-3.6,1-7.4,0.5-10.7-1.3c-2.6,0.1-16.5-5.9-18.4-0.9c-1.7,4.4,4.4,8.5,7.6,9.2
				c7,1.7,12.3,5.2,15.1,5.8c2.1,0.4,4.8,0.7,6.5-0.9C489.9,485.8,489.7,478.5,487.7,475.9z"/>
			<path class="st5" d="M481.3,487.5c-2.8-0.6-8-4.1-15.1-5.8c-2.7-0.6-7.4-3.6-7.8-7.1c-0.6,4,4.8,7.6,7.8,8.4
				c7,1.7,12.3,5.2,15.1,5.8c2.1,0.4,4.8,0.7,6.5-0.9c0.4-0.5,0.8-1.1,0.9-1.7C486.3,488.2,483.4,488,481.3,487.5z"/>
			<path class="st4" d="M510.3,465.7c-3.6,1-7.4,0.5-10.7-1.3c-2.6,0.1-16.5-5.9-18.4-0.9c-1.7,4.4,4.4,8.5,7.6,9.2
				c7,1.7,12.3,5.2,15.1,5.8c2.1,0.5,4.8,0.7,6.5-0.9C512.5,475.7,512.3,468.3,510.3,465.7z"/>
			<path class="st5" d="M503.9,477.4c-2.8-0.6-8-4.1-15.1-5.8c-2.7-0.7-7.4-3.6-7.8-7.1c-0.6,4,4.8,7.6,7.8,8.4
				c7,1.7,12.3,5.2,15.1,5.8c2.1,0.5,4.8,0.7,6.5-0.9c0.4-0.5,0.7-1.1,0.9-1.7C508.9,478,506,477.8,503.9,477.4z"/>
			<path id="_Контур_13" class="st6" d="M510.6,427.8c-0.6-5.2-1.7-10.3-3.2-15.3c0,0,1-13.2,1.4-25.7
				c0.5-14.2,5.5-26.7,1.6-38l-43.8,9.7c0,0,2.6,56.6,3.2,63.4c0.3,5.3,1,10.6,2,15.9c2,11,5.2,37.1,5.2,37.1
				c4.6,2.7,10.7,1.2,10.7,1.2s-0.3-33-0.6-41c-0.4-9.7-0.7-8.9-0.7-8.9l1.5-24.1l1-12c0,0,1.2,8.8,2,16.6c0.7,6.8,2.3,13,4.2,25.8
				c1.6,11,4.2,33.3,4.2,33.3c4.6,2.7,10.9,0.5,10.9,0.5S511.9,437.4,510.6,427.8z"/>
			<path id="_Контур_14" class="st2" d="M504.2,281.5c-3.3,0.2-5.8,1-6.2,0c-0.4-1.7-0.6-3.5-0.8-5.2c0.4-1,0.7-2,0.7-2
				c4.2-2.6,5.5-7.1,6.1-12.4c0.9-9-3.9-16.9-12.9-17.8c-8.5-0.9-14.7,5.1-16.4,13.2c-0.9,4-2.7,11.7-0.3,18.3
				c1.3,3.7,3.1,6.6,4.8,7.2c1.7,0,3.3-0.2,5-0.4l0,0c0,0,0.4,2.5,0.8,4.1s0.2,2.5-3,4.4s4.8,6,10.1,5.6s11.1-3.6,12.8-7
				C506.7,285.8,506.5,281.3,504.2,281.5z"/>
			<path id="_Контур_15" class="st3" d="M499.4,282c0.9,2.3-1.4,5.1-7.7,7.1s-6.8-0.6-6.8-0.6s-9.2,4.2-12.2,6.3
				c-3.8,2.6-5.4,10.2-5.9,23.1c-0.6,14.9-0.6,36.9-0.1,40.7c0,0,7,7,16,6.3s24.1-8.7,27.8-14.8c-0.1-13-1.6-15.1,0.5-22.6
				c4.8-17.2,7.4-24.2,5-35.6c-1.9-9.4-4.7-10.6-8.4-10.5C504.8,281.3,502.1,281.6,499.4,282z"/>
			<path id="_Контур_16" class="st2" d="M452.6,330.1c7.4,1.9,9.1-2.8,10.1-6.6c2.3-9.3,3.6-17.8,5.4-23
				c2.1-6.2,4.2-7.2,7.2-8.5c3.6-1.4,6.6,1.6,5.4,9.5c-1.4,9.4-3.2,16-6.8,27.1c-0.9,2.9-3,8.1-6.1,10.6c-3.8,3.1-9.5,2.9-18.2,0.8
				c-3.7-0.9-7.8-3.1-14.8-6.4c-1.9-0.9-3.3-1.5-6.9-3.1s-7.4-4.5-9.2-7.2s-2.1-4-1.8-4.6c0.5-0.8,1.3-0.6,2.3,0.5
				c1.5,1.9,3.3,3.6,5.3,4.9c0,0-2.3-2.4-3.6-4c-1.1-1.4-2.1-2.9-2.8-4.6c-0.7-1.6,0.7-3.8,1.8-2.6s1.5,2.3,3.5,4.6
				c1,1.2,2.2,2.3,3.4,3.3c-1.2-1.6-2.2-3.3-3.1-5.1c-0.8-1.4-1.2-3-1.1-4.6c0-0.8,1.2-1.8,2.3-0.2c1,1.4,1.6,3.6,4,6
				c1.7,1.8,3.1,2.8,3.2,2.3s-1-1.5-1.6-3.5s0-4.2,1.1-4.4s0.9-0.2,1.8,1.7s2.3,3.3,3.4,6.1c0.6,2,1.6,3.8,3,5.2
				C441.6,326.2,445.6,328.3,452.6,330.1z"/>
			<path id="_Контур_17" class="st7" d="M478.1,290.7c-4.9-0.7-8.4,1.5-10.6,9s-3.7,13.6-3.7,13.6c2,2.8,4.9,4.8,8.3,5.5
				c5.9,1.4,8-1.4,8-1.4s1.6-7.8,2.7-13.1S484.2,291.6,478.1,290.7z"/>
			<path class="st1" d="M475,256.1c0,0-7.8-11.8,9.1-14.2c12.2-1.7,20,6.1,20.9,14.6c0.9,8.1-4.1,16.5-7.7,19.9
				c-1.8,0.6-5.5,1-10.5-1.3c-0.2-2.2-0.3-4.4-0.2-6.6C486.5,268.4,492.4,255.9,475,256.1z"/>
		</g>
		<path class="st13" d="M229.3,303.4c-7,4-18.4,4-25.4,0s-7-10.6,0-14.7s18.4-4,25.4,0S236.3,299.4,229.3,303.4z M207.6,290.9
			c-5,2.9-5,7.5,0,10.4s13.1,2.9,18.1,0s5-7.5,0-10.4S212.6,288,207.6,290.9L207.6,290.9z"/>
		<path class="st14" d="M229.3,303.4c-7,4-18.4,4-25.4,0s-7-10.6,0-14.7l3.7,2.1c-5,2.9-5,7.5,0,10.4s13.1,2.9,18.1,0s5-7.5,0-10.4
			l3.7-2.1C236.3,292.8,236.3,299.4,229.3,303.4z"/>
		<path class="st13" d="M260,321.1c-7,4-18.4,4-25.4,0s-7-10.6,0-14.7s18.4-4,25.4,0S267,317.1,260,321.1z M238.3,308.6
			c-5,2.9-5,7.5,0,10.4s13.1,2.9,18.1,0c5-2.9,5-7.5,0-10.4C251.3,305.7,243.2,305.7,238.3,308.6L238.3,308.6z"/>
		<path class="st14" d="M260,321.1c-7,4-18.4,4-25.4,0s-7-10.6,0-14.7l3.7,2.1c-5,2.9-5,7.5,0,10.4s13.1,2.9,18.1,0
			c1.6-0.8,2.9-2.2,3.5-3.9l5.1,0.5C264.1,318,262.3,320,260,321.1z"/>
		<path class="st13" d="M290.6,338.8c-7,4-18.4,4-25.4,0s-7-10.6,0-14.7s18.4-4,25.4,0S297.6,334.8,290.6,338.8z M268.9,326.3
			c-5,2.9-5,7.5,0,10.4s13.1,2.9,18.1,0s5-7.6,0-10.4S273.9,323.4,268.9,326.3z"/>
		<path class="st14" d="M273.1,341.5c-2.8-0.4-5.5-1.3-7.9-2.7c-7-4-7-10.6,0-14.7l3.7,2.1c-5,2.9-5,7.5,0,10.4
			c1.7,1,3.6,1.6,5.6,1.9L273.1,341.5z"/>
		<ellipse class="st14" cx="257.8" cy="269.9" rx="15.4" ry="8.9"/>
		<polygon class="st14" points="331.1,224.3 272.4,258.2 265.6,254.6 324.3,220.7 		"/>
		<polygon class="st13" points="324.9,242 284.4,265.4 277.8,261.6 318.3,238.2 		"/>
		<ellipse class="st14" cx="289.8" cy="288.3" rx="15.4" ry="8.9"/>
		<polygon class="st14" points="362.8,242.9 304.1,276.8 297.6,273 356.3,239.1 		"/>
		<polygon class="st13" points="356.8,260.4 316.3,283.8 309.8,280 350.3,256.7 		"/>
		<ellipse class="st14" cx="322.4" cy="307.1" rx="15.4" ry="8.9"/>
		<polygon class="st14" points="395.4,261.7 336.7,295.6 330.2,291.8 388.9,257.9 		"/>
		<polygon class="st13" points="389.4,279.3 348.9,302.6 342.4,298.9 382.9,275.5 		"/>
		<path class="st13" d="M260,265.2h-1.9c-0.2,0-0.5,0-0.7,0.2c-0.2,0.1-0.3,0.2-0.3,0.4v5.2h-4.1c-0.2,0-0.5,0-0.7,0.2
			c-0.2,0.1-0.3,0.2-0.3,0.4v1.1c0,0.2,0.1,0.3,0.3,0.4c0.2,0.1,0.4,0.2,0.7,0.2h6.9c0.2,0,0.5,0,0.7-0.2c0.2-0.1,0.3-0.2,0.3-0.4
			v-6.8c0-0.2-0.1-0.3-0.3-0.4C260.5,265.3,260.2,265.2,260,265.2z"/>
		<path class="st13" d="M292.2,283.8h-1.9c-0.2,0-0.5,0.1-0.7,0.2c-0.2,0.1-0.3,0.2-0.3,0.4v5.2h-4c-0.2,0-0.5,0.1-0.7,0.2
			c-0.2,0.1-0.3,0.2-0.3,0.4v1.1c0,0.2,0.1,0.3,0.3,0.4c0.2,0.1,0.4,0.2,0.7,0.2h6.9c0.2,0,0.5-0.1,0.7-0.2c0.2-0.1,0.3-0.2,0.3-0.4
			v-6.8c0-0.2-0.1-0.3-0.3-0.4C292.7,283.9,292.4,283.8,292.2,283.8z"/>
		<path class="st13" d="M324.5,302.5h-1.9c-0.2,0-0.5,0-0.7,0.2c-0.2,0.1-0.3,0.2-0.3,0.4v5.2h-4.1c-0.2,0-0.5,0-0.7,0.2
			c-0.2,0.1-0.3,0.2-0.3,0.4v1.1c0,0.2,0.1,0.3,0.3,0.4c0.2,0.1,0.4,0.2,0.7,0.2h6.9c0.2,0,0.5,0,0.7-0.2c0.2-0.1,0.3-0.2,0.3-0.4
			V303c0-0.1-0.1-0.3-0.3-0.4C325,302.5,324.8,302.5,324.5,302.5z"/>
		<polygon class="st13" points="428.9,260.5 341.6,210.2 355,202.5 442.2,252.9 		"/>
	</g>
</g>
</svg>
