<svg xmlns="http://www.w3.org/2000/svg" xmlns:xlink="http://www.w3.org/1999/xlink" id="Layer_1" data-name="Layer 1" viewBox="0 0 980.23 865.54"><defs><style>.cls-1,.cls-10,.cls-12,.cls-15,.cls-17,.cls-18,.cls-22,.cls-23,.cls-25{fill:none;}.cls-2{clip-path:url(#clip-path);}.cls-21,.cls-27,.cls-3{fill:#1c85e8;}.cls-4{fill:url(#linear-gradient);}.cls-5{fill:#ffccb3;}.cls-6{fill:#1f2d49;}.cls-7{fill:#080b09;}.cls-8{fill:#0e66af;}.cls-9{fill:#ff967c;}.cls-10,.cls-17,.cls-18,.cls-22,.cls-23,.cls-25{stroke:#fff;stroke-miterlimit:10;}.cls-10{stroke-width:1.36px;}.cls-11{fill:#e56441;}.cls-11,.cls-12{stroke:#e56441;}.cls-12,.cls-15,.cls-17,.cls-18,.cls-22,.cls-23{stroke-linecap:round;}.cls-12{stroke-width:2.24px;}.cls-13{fill:#fff;}.cls-14{fill:url(#linear-gradient-2);}.cls-15{stroke:#ff967c;stroke-linejoin:round;stroke-width:2.87px;}.cls-16,.cls-28{fill:#febb94;}.cls-16,.cls-18,.cls-21,.cls-23,.cls-24,.cls-27{isolation:isolate;}.cls-16,.cls-19,.cls-21,.cls-24{opacity:0.7;}.cls-17,.cls-18{stroke-width:7.43px;}.cls-18,.cls-23{opacity:0.4;}.cls-20{fill:#96bafd;}.cls-22,.cls-23{stroke-width:10.37px;}.cls-24{fill:url(#linear-gradient-3);}.cls-25{stroke-width:2.43px;}.cls-26{fill:url(#linear-gradient-4);}.cls-27{opacity:0.6;}</style><clipPath id="clip-path" transform="translate(-232.33 -79)"><rect class="cls-1" x="228" y="79" width="984.56" height="865.51"></rect></clipPath><linearGradient id="linear-gradient" x1="544.76" y1="-901.59" x2="904.78" y2="1330.75" gradientTransform="translate(0 232)" gradientUnits="userSpaceOnUse"><stop offset="0" stop-color="#fff"></stop><stop offset="1" stop-color="#94b9ff"></stop></linearGradient><linearGradient id="linear-gradient-2" x1="828.15" y1="313.96" x2="852.77" y2="654.59" xlink:href="#linear-gradient"></linearGradient><linearGradient id="linear-gradient-3" x1="568.57" y1="489.76" x2="600.41" y2="840.9" xlink:href="#linear-gradient"></linearGradient><linearGradient id="linear-gradient-4" x1="972.84" y1="-520.44" x2="1175.21" y2="535.14" xlink:href="#linear-gradient"></linearGradient></defs><g class="cls-2"><path class="cls-3" d="M425.22,79h602.87a34.36,34.36,0,0,1,34.37,34.35v38H390.85V113.37A34.39,34.39,0,0,1,425.22,79Z" transform="translate(-232.33 -79)"></path><path class="cls-4" d="M390.85,151.32h671.61V760.1a62.81,62.81,0,0,1-62.79,62.83h-546a62.86,62.86,0,0,1-62.84-62.83Z" transform="translate(-232.33 -79)"></path><path class="cls-5" d="M829.67,583.16H645.45v89.46H829.67Z" transform="translate(-232.33 -79)"></path><path class="cls-6" d="M644.37,638.32c-21.61,21.25-30.11,125.94-29,184.61h257.2s-.46-127.95-20-171.06C834.68,612.22,804.88,670.71,644.37,638.32Z" transform="translate(-232.33 -79)"></path><path class="cls-7" d="M798.71,176s21.34-24.33,62.76-27.88,53.81,32.74,52,55-34.19,68.36-27.7,87.88-24,10-27.36-28.91-15.72-93.25-49.36-73.78Z" transform="translate(-232.33 -79)"></path><path class="cls-3" d="M805.19,164.62s5.1-3,8.8,3.94,10.6,20.91,1.85,24.62S805.19,164.62,805.19,164.62Z" transform="translate(-232.33 -79)"></path><path class="cls-3" d="M686.88,388.94S720,426.08,709,438c-21.8,24.48-79.76,70.49-98.75,85.73a8.16,8.16,0,0,1-2.76,1.35,7.88,7.88,0,0,1-8.25-2.81l-44.92-59a11.25,11.25,0,0,1,1.55-15.37l87-75Z" transform="translate(-232.33 -79)"></path><path class="cls-8" d="M634.64,436.15s-41.23,24.51-44.95,73.75l8.21,10.55s5.16,9,12.31,3.27l40.2-32.2Z" transform="translate(-232.33 -79)"></path><path class="cls-3" d="M673.2,454.82a46.57,46.57,0,1,0-46.58-46.57A46.57,46.57,0,0,0,673.2,454.82Z" transform="translate(-232.33 -79)"></path><path class="cls-5" d="M551.92,554.23l-40.69-53.88,38.52-29.91,6-4.87L598,520.78l-7.35,5.29Z" transform="translate(-232.33 -79)"></path><path class="cls-9" d="M590.66,526.07c-10.9-14.6-31.4-43.12-40.91-55.63l6-4.87,42.11,54.88Z" transform="translate(-232.33 -79)"></path><path class="cls-5" d="M531,561.71a33.81,33.81,0,1,0-33.81-33.81h0A33.8,33.8,0,0,0,531,561.71Z" transform="translate(-232.33 -79)"></path><path class="cls-5" d="M559.58,509.72S450.53,349.56,445.48,336c-4.9-13.28-30.66,18.68-30.66,18.68l84.4,184.15Z" transform="translate(-232.33 -79)"></path><path class="cls-5" d="M709.72,286.37l-13.11,91.41s-3.44,12.13,11.83,14,47.84-2.26,59.47-14.66,7.57-18.53,7.57-18.53l-24.67-99.21Z" transform="translate(-232.33 -79)"></path><path class="cls-9" d="M707.9,298.2,740,286.87l-39.74,58.89Z" transform="translate(-232.33 -79)"></path><path class="cls-5" d="M673.44,173.47s-27.52,64.65-13.18,109c9.35,28.9,29.72,34.09,76.36,12.44C779.38,275,790.49,260,790.49,260l6.3-72.06S701.38,115.85,673.44,173.47Z" transform="translate(-232.33 -79)"></path><path class="cls-3" d="M696.38,351.5S661.13,361.29,654,367s-12.35,52.23-22.92,75.2c-15.65,34-25.79,52.11.51,89.48C647.42,554.23,642,611.54,642,611.54H835.1c-5.85-112.68,20-245.52,20-245.52L768,345.94C748.35,349.33,696.38,351.5,696.38,351.5Z" transform="translate(-232.33 -79)"></path><path class="cls-3" d="M690.22,353.31s2.6-17.71,10.93-19,59.23-8.9,67.14-5.57,17.5,24.53,17.5,24.53S769.54,393,746.21,395s-63.49-5.11-59.25-19.84S690.22,353.31,690.22,353.31Z" transform="translate(-232.33 -79)"></path><path class="cls-10" d="M674.36,358.7s5.63,34.18,36.21,33.65,75-46.41,75-46.41" transform="translate(-232.33 -79)"></path><path class="cls-8" d="M812.9,408.25s-30.38,20.09-21.43,40.36c10.06,22.79,10,81.49-18.91,85.17-51.53,6.56-29.14,15.57-5.32,21.33s14.08,5.76,14.08,30.45c0,17.57,55.21,32.8,53.78,18.61C825.5,509.19,865.4,449.05,812.9,408.25Z" transform="translate(-232.33 -79)"></path><path class="cls-11" d="M671,268.58l25.6,1.27c-.09.31-.23.74-.43,1.25a14.78,14.78,0,0,1-2.31,3.95c-2.27,2.78-6.23,5.43-13.08,4.73a11.45,11.45,0,0,1-8.18-6.49,18,18,0,0,1-1.37-3.69A4.18,4.18,0,0,1,671,268.58Z" transform="translate(-232.33 -79)"></path><path class="cls-7" d="M672.67,226.08c1.07-4-.24-7.76-2.93-8.49s-5.74,1.9-6.81,5.87.25,7.76,2.94,8.49S671.6,230.05,672.67,226.08Z" transform="translate(-232.33 -79)"></path><path class="cls-7" d="M712.27,237.37c1.07-4-.25-7.76-2.94-8.49s-5.74,1.9-6.81,5.87.25,7.76,2.94,8.49S711.2,241.34,712.27,237.37Z" transform="translate(-232.33 -79)"></path><path class="cls-7" d="M662.66,205.6l20.13,5.79a1.48,1.48,0,0,0,1.68-1,4.52,4.52,0,0,0-.11-1.9,4.66,4.66,0,0,0-.85-1.71,4.9,4.9,0,0,0-1.45-1.23,4.84,4.84,0,0,0-1.82-.57L663,203.2C661.63,202.84,661,205.16,662.66,205.6Z" transform="translate(-232.33 -79)"></path><path class="cls-7" d="M731.47,222.81l-27.29-5.59a6,6,0,0,1,1.21-2.2,6.35,6.35,0,0,1,2-1.53,6.11,6.11,0,0,1,2.45-.58,6,6,0,0,1,2.48.47l19.92,7.86C732.91,221.42,732.47,223.08,731.47,222.81Z" transform="translate(-232.33 -79)"></path><path class="cls-12" d="M684.85,227.22l-13,17.43,4.88,6.89" transform="translate(-232.33 -79)"></path><path class="cls-13" d="M708.92,417.42c2.51,0,4.54-5.61,4.54-12.54s-2-12.54-4.54-12.54-4.54,5.62-4.54,12.54S706.41,417.42,708.92,417.42Z" transform="translate(-232.33 -79)"></path><path class="cls-5" d="M918.13,590l-67.3,5.51L839.34,546.7,825.5,509.19l70.83-8.48,8.85,42Z" transform="translate(-232.33 -79)"></path><path class="cls-9" d="M898.72,512.05l2.48,11.77-69.75,1.5-4.59-12.44Z" transform="translate(-232.33 -79)"></path><path class="cls-3" d="M843.55,457.7A46.58,46.58,0,1,0,797,411.09v0A46.57,46.57,0,0,0,843.55,457.7Z" transform="translate(-232.33 -79)"></path><path class="cls-3" d="M834.57,389.23s49.08-8.06,53.25,7.62c9,31.51,20.07,82.11,22.76,106.31a7.81,7.81,0,0,1-4.21,7.64,7.65,7.65,0,0,1-3,.84L829.5,518a11.25,11.25,0,0,1-12.16-9.54l-20-90.64Z" transform="translate(-232.33 -79)"></path><path class="cls-7" d="M690.59,167.32s1.74,31.41,28.34,46.62c0,0,7.78,24.08,36.81,29.75,0,0-1.71-22.14,12.12-21.9,23.5.39,11.94,36-3.94,41.88-10.8,4-17.3,18.08-1.28,50.22,36.8-13.12,62.68-66.12,52.53-124.93-8.12-47.09-66.5-62.47-78.5-60.94,0,0-49.81-17.2-76,30-22.42,40.35-1.48,64.43-1.48,64.43l12-35.91S676.09,190,690.59,167.32Z" transform="translate(-232.33 -79)"></path><path class="cls-14" d="M918.38,706.32H740.11a14.15,14.15,0,0,1-14-12.4L709.62,562.6a14.14,14.14,0,0,1,14-15.9H934.83a14.14,14.14,0,0,1,14,15.9L932.42,693.92a14.15,14.15,0,0,1-14,12.4Z" transform="translate(-232.33 -79)"></path><path class="cls-13" d="M829.67,636.57a12.52,12.52,0,1,0-12.52-12.52h0a12.51,12.51,0,0,0,12.51,12.51Z" transform="translate(-232.33 -79)"></path><path class="cls-5" d="M419.45,365.16l-10.74-20.61s-38-21.73-42.38-29.58-6.14-30.29,1.66-36c0,0-30.31-22.76-25.15-27.38,5.14-4.94,64.68,39.29,64.68,39.29s-7.25-32.59,3.77-34.11a114.23,114.23,0,0,0,15.12,35.57c11.6,17.93,13,34,13,34l13.67,26.24Z" transform="translate(-232.33 -79)"></path><path class="cls-15" d="M370,279.51l18.35,11.57" transform="translate(-232.33 -79)"></path><path class="cls-15" d="M367.29,292.75l15.58,9.68" transform="translate(-232.33 -79)"></path><path class="cls-15" d="M370.32,307.05l10.39,6.57" transform="translate(-232.33 -79)"></path><path class="cls-13" d="M441.82,123.91a8.75,8.75,0,1,0-8.74-8.76h0A8.75,8.75,0,0,0,441.82,123.91Z" transform="translate(-232.33 -79)"></path><path class="cls-13" d="M477.15,123.91a8.75,8.75,0,1,0-8.75-8.75h0A8.75,8.75,0,0,0,477.15,123.91Z" transform="translate(-232.33 -79)"></path><path class="cls-13" d="M510.35,123.91a8.75,8.75,0,1,0-8.75-8.75h0a8.74,8.74,0,0,0,8.73,8.75Z" transform="translate(-232.33 -79)"></path><path class="cls-16" d="M247.6,114.09c35.16,30,127.91,98.37,245.7,101.64a9.25,9.25,0,0,1,9,9.27V411.63a9.28,9.28,0,0,1-8.82,9.27c-35.41,1.76-169.71,1.56-258.69-93.71a9.19,9.19,0,0,1-2.46-6.3V121.16a9.32,9.32,0,0,1,1.46-5,9.43,9.43,0,0,1,3.92-3.43,9.27,9.27,0,0,1,9.91,1.36Z" transform="translate(-232.33 -79)"></path><path class="cls-17" d="M260.94,169.09s27.75,27,65.68,43.71" transform="translate(-232.33 -79)"></path><path class="cls-18" d="M260.94,201.78s38.62,36,88.86,49.4" transform="translate(-232.33 -79)"></path><path class="cls-13" d="M255.18,321.32v-78l27.34,19.56v79.84Z" transform="translate(-232.33 -79)"></path><path class="cls-13" d="M301.32,352.82V297.27l27.33,16.35v54.9Z" transform="translate(-232.33 -79)"></path><path class="cls-13" d="M418.18,396.3V340.75L390.85,337v54.91Z" transform="translate(-232.33 -79)"></path><path class="cls-13" d="M463.08,398.67V301.43H435.74V398Z" transform="translate(-232.33 -79)"></path><path class="cls-13" d="M346.08,377.15V351.76l27.34,7.68v27.61Z" transform="translate(-232.33 -79)"></path><g class="cls-19"><path class="cls-20" d="M316.05,500.81c35.16,25.83,128,93.19,245.7,82.51a8.17,8.17,0,0,1,3.4.33,8,8,0,0,1,5.58,7.87V778.16a10.76,10.76,0,0,1-8.82,10.31c-35.41,6-182.7,3-258.69-73a8.37,8.37,0,0,1-1.83-2.76,8.62,8.62,0,0,1-.63-3.25V509.7C300.76,501.79,310,496.39,316.05,500.81Z" transform="translate(-232.33 -79)"></path></g><path class="cls-5" d="M882.08,701s9.42.78,8,5.53-9.83,2.56-17.51,7.32-38,8.15-53.21,5.62S800,701,800,701s-2.54-15.13,24.25-16.68,39.26,7,43.92,16.36Z" transform="translate(-232.33 -79)"></path><path class="cls-12" d="M811.37,686.63l5.78,15.56" transform="translate(-232.33 -79)"></path><path class="cls-12" d="M826.35,684.09l5.79,15.57" transform="translate(-232.33 -79)"></path><path class="cls-12" d="M842.18,685.41,848,701" transform="translate(-232.33 -79)"></path><path class="cls-21" d="M1167.2,516c-49,41.83-178.42,137.22-342.72,141.78A12.91,12.91,0,0,0,812,670.71V931a12.94,12.94,0,0,0,12.25,13c49.4,2.46,236.72,2.17,360.85-130.72a12.87,12.87,0,0,0,3.43-8.78V525.86A12.94,12.94,0,0,0,1167.2,516Z" transform="translate(-232.33 -79)"></path><path class="cls-22" d="M1148.6,592.71s-38.71,37.62-91.62,61" transform="translate(-232.33 -79)"></path><path class="cls-23" d="M1148.6,638.32s-53.88,50.25-124,68.9" transform="translate(-232.33 -79)"></path><path class="cls-22" d="M845.78,831s36-7.54,52.47-25c21.81-23.13,26.84-50.88,50.74-53.74,37.5-4.47,59.24,127.93,104.77,110s34.77-116.79,61.86-133.55c18.66-11.55,28.36,22.79,54.49,13.83" transform="translate(-232.33 -79)"></path><path class="cls-24" d="M491.46,722.33c26.91,7.68,89.88,21.42,172.38,11.94a9.22,9.22,0,0,1,10.52,9.35V871a11.92,11.92,0,0,1-10.13,11.54c-29.38,4-116.6,12.61-181.6-15.46a9.08,9.08,0,0,1-4.05-3.48,9.25,9.25,0,0,1-1.43-5.14V733.59C477.15,726.21,484.58,720.37,491.46,722.33Z" transform="translate(-232.33 -79)"></path><path class="cls-13" d="M373.28,689.65c-19.62-6.92-35.53-28.44-35.53-48.06s15.91-29.93,35.53-23h0V595.77h0c-31.7-11.18-57.4,5.46-57.4,37.17s25.7,66.46,57.4,77.64c30.36,10.71,55.21-4.11,57.25-33.24l-21.86-7.7C407.13,687.29,391.88,696.2,373.28,689.65Z" transform="translate(-232.33 -79)"></path><path class="cls-3" d="M380.57,591.05v22.81c19.62,6.92,35.53,28.44,35.53,48.06,0,1-.05,2-.14,3l21.86,7.7c.09-1.28.15-2.58.15-3.92C438,637,412.27,602.23,380.57,591.05Z" transform="translate(-232.33 -79)"></path><path class="cls-25" d="M373.28,689.65v20.93" transform="translate(-232.33 -79)"></path><path class="cls-25" d="M337.75,641.59l-21.87-7.72" transform="translate(-232.33 -79)"></path><path class="cls-22" d="M465.34,644.84l40.58,7.72" transform="translate(-232.33 -79)"></path><path class="cls-23" d="M465.34,708.43l40.58,7.72" transform="translate(-232.33 -79)"></path><path class="cls-22" d="M465.34,677.29l58.3,11.08" transform="translate(-232.33 -79)"></path><g class="cls-19"><path class="cls-26" d="M1197.27,99.33c-35.17,25.82-99.5,90.93-239.9,112.57-10.75,1.65-14.78,9.3-14.78,17.75v178A10.76,10.76,0,0,0,951.41,418c35.41,6,171.8-28.83,253.36-98.87,7.79-6.69,7.79-17.91,7.79-20.25V108.21C1212.56,100.3,1203.29,94.91,1197.27,99.33Z" transform="translate(-232.33 -79)"></path></g><path class="cls-13" d="M961.16,243.62V353.73a6.39,6.39,0,0,0,7.78,6.25c20.06-4.49,74.31-17.48,108.57-33.64a6.35,6.35,0,0,0,3.65-5.78V213.32a6.39,6.39,0,0,0-9.06-5.81c-19.09,8.79-65,28-104.88,29.73a6.36,6.36,0,0,0-6.06,6.38Z" transform="translate(-232.33 -79)"></path><path class="cls-3" d="M966.11,336v11.58a5.74,5.74,0,0,0,4.6,5.59,5.71,5.71,0,0,0,2.6-.09l60-16.41a5.7,5.7,0,0,0,4-6.83,5.8,5.8,0,0,0-1.36-2.55l-32.18-34.62a5.65,5.65,0,0,0-2.07-1.41,5.68,5.68,0,0,0-6.76,2l-27.84,39.44A5.75,5.75,0,0,0,966.11,336Z" transform="translate(-232.33 -79)"></path><path class="cls-27" d="M1027.3,308.84l18,19.11a4.21,4.21,0,0,0,4.62,1c5.32-2.07,17.27-6.77,23.32-9.37a4.22,4.22,0,0,0,2.55-3.89V297.82a4.27,4.27,0,0,0-.84-2.53l-25.32-33.92a4.36,4.36,0,0,0-1.77-1.38,4.22,4.22,0,0,0-2.22-.28,4.38,4.38,0,0,0-2.06.89,4.3,4.3,0,0,0-1.31,1.81l-15.86,42a4.24,4.24,0,0,0,.88,4.4Z" transform="translate(-232.33 -79)"></path><path class="cls-28" d="M1011.49,279a9.67,9.67,0,1,0-9.67-9.67h0a9.65,9.65,0,0,0,9.66,9.66Z" transform="translate(-232.33 -79)"></path><path class="cls-22" d="M1109,203.91A579.94,579.94,0,0,0,1180.49,161" transform="translate(-232.33 -79)"></path><path class="cls-22" d="M1109,245.68s16.26-7.93,38.57-21.46" transform="translate(-232.33 -79)"></path><path class="cls-22" d="M1109,286.51a582.77,582.77,0,0,0,71.45-42.92" transform="translate(-232.33 -79)"></path><path class="cls-22" d="M1109,332.36a582.84,582.84,0,0,0,71.45-42.93" transform="translate(-232.33 -79)"></path><path class="cls-13" d="M975,391.73a8.83,8.83,0,1,0-8.84-8.83,8.83,8.83,0,0,0,8.84,8.83Z" transform="translate(-232.33 -79)"></path><path class="cls-13" d="M1026.15,377.44a8.83,8.83,0,1,0-8.83-8.83,8.83,8.83,0,0,0,8.83,8.83Z" transform="translate(-232.33 -79)"></path><path class="cls-13" d="M1072.33,361.67a8.83,8.83,0,1,0-8.83-8.83h0A8.83,8.83,0,0,0,1072.33,361.67Z" transform="translate(-232.33 -79)"></path></g></svg>