<svg xmlns="http://www.w3.org/2000/svg" xmlns:xlink="http://www.w3.org/1999/xlink" id="Layer_1" data-name="Layer 1" viewBox="0 0 1064.21 848.22"><defs><style>.cls-1,.cls-22,.cls-27,.cls-32,.cls-33,.cls-34,.cls-35,.cls-36,.cls-37,.cls-39,.cls-9{fill:none;}.cls-2{clip-path:url(#clip-path);}.cls-3{fill:#f5f8ff;}.cls-4{fill:url(#linear-gradient);}.cls-5{fill:#febb94;}.cls-20,.cls-38,.cls-6{fill:#fff;}.cls-7{fill:#1c85e8;}.cls-19,.cls-8{fill:#ffccb3;}.cls-32,.cls-9{stroke:#ef6a77;}.cls-27,.cls-32,.cls-33,.cls-34,.cls-35,.cls-36,.cls-37,.cls-39,.cls-9{stroke-linecap:round;}.cls-27,.cls-9{stroke-width:1.08px;}.cls-10{fill:#d1e8f7;}.cls-11{fill:#5ca4e6;}.cls-12,.cls-18{fill:#5661ae;}.cls-13{fill:#bc775c;}.cls-14{fill:#93523e;}.cls-14,.cls-27{stroke:#93523e;}.cls-15{fill:#1f2d49;}.cls-16{fill:#0d1b33;}.cls-17{fill:url(#linear-gradient-2);}.cls-18,.cls-19,.cls-20,.cls-21{fill-rule:evenodd;}.cls-21,.cls-23{fill:#fcba9f;}.cls-22{stroke:#5ca4e6;stroke-width:1.1px;}.cls-22,.cls-32,.cls-33,.cls-34,.cls-35,.cls-36,.cls-37{stroke-miterlimit:10;}.cls-24{fill:#ff967c;}.cls-25{fill:url(#linear-gradient-3);}.cls-26{fill:#465393;}.cls-28{fill:#493212;}.cls-29{fill:#080b09;}.cls-30{fill:#e7efff;}.cls-31{fill:#96bafd;}.cls-33{stroke:#d4dcf4;}.cls-33,.cls-34{stroke-width:12px;}.cls-34{stroke:#5661ae;}.cls-35,.cls-36,.cls-37,.cls-39{stroke:#fff;}.cls-35{stroke-width:6.36px;}.cls-36,.cls-37{stroke-width:10.08px;}.cls-37,.cls-38{isolation:isolate;opacity:0.4;}.cls-39{stroke-linejoin:round;stroke-width:3.72px;}</style><clipPath id="clip-path" transform="translate(-188 -121)"><rect class="cls-1" x="188" y="121" width="1064.21" height="848.22"></rect></clipPath><linearGradient id="linear-gradient" x1="601.71" y1="-111.83" x2="656.04" y2="629.82" gradientTransform="translate(0 232)" gradientUnits="userSpaceOnUse"><stop offset="0" stop-color="#fff"></stop><stop offset="1" stop-color="#94b9ff"></stop></linearGradient><linearGradient id="linear-gradient-2" x1="727.85" y1="363.84" x2="727.92" y2="398.68" xlink:href="#linear-gradient"></linearGradient><linearGradient id="linear-gradient-3" x1="447.41" y1="292.74" x2="503.12" y2="727.49" xlink:href="#linear-gradient"></linearGradient></defs><g class="cls-2"><path class="cls-3" d="M720.1,969.22c293.88,0,532.11-6.08,532.11-13.59S1014,942,720.1,942,188,948.12,188,955.63,426.23,969.22,720.1,969.22Z" transform="translate(-188 -121)"></path><path class="cls-4" d="M858.58,121H370.42a13.13,13.13,0,0,0-13.13,13.13h0V455.46a13.13,13.13,0,0,0,13.13,13.13H858.58a13.13,13.13,0,0,0,13.13-13.13h0V134.13A13.13,13.13,0,0,0,858.58,121Z" transform="translate(-188 -121)"></path><path class="cls-5" d="M847.63,347.39h-91a6.1,6.1,0,0,0-6.1,6.1h0v98.71a6.11,6.11,0,0,0,6.1,6.11h91a6.13,6.13,0,0,0,6.11-6.11V353.5A6.12,6.12,0,0,0,847.63,347.39Z" transform="translate(-188 -121)"></path><path class="cls-6" d="M510.1,346.35H378.55a5.18,5.18,0,0,0-5.18,5.17V453.14a5.18,5.18,0,0,0,5.18,5.18H510.1a5.18,5.18,0,0,0,5.18-5.18h0V351.52A5.18,5.18,0,0,0,510.1,346.35Z" transform="translate(-188 -121)"></path><path class="cls-6" d="M734.28,346.35H532.21a6.37,6.37,0,0,0-6.37,6.37V452a6.37,6.37,0,0,0,6.37,6.37H734.28a6.37,6.37,0,0,0,6.37-6.37V352.72A6.37,6.37,0,0,0,734.28,346.35Z" transform="translate(-188 -121)"></path><path class="cls-7" d="M845.57,166.4h-183a8.16,8.16,0,0,0-8.16,8.16V328.2a8.16,8.16,0,0,0,8.16,8.16h183a8.16,8.16,0,0,0,8.17-8.15h0V174.56a8.16,8.16,0,0,0-8.16-8.16Z" transform="translate(-188 -121)"></path><path class="cls-8" d="M618.38,512.19c11.18-12.35,8-15.66,13.26-23,5.15-7.11,4-28.06,8.93-24.06s4.94,11.49,4.94,11.49c5.4-5.81,11.84-17.34,21.27-16.59s9.55,3.81,13.7,9.27c11,14.67-10.58,27.64-15.06,33.47-2.85,3.65-19.62,12.83-21.79,15.19l-9.35,8.41Z" transform="translate(-188 -121)"></path><path class="cls-9" d="M654.43,479.71l16-17.81" transform="translate(-188 -121)"></path><path class="cls-9" d="M660.9,484.76l16.61-16.17" transform="translate(-188 -121)"></path><path class="cls-9" d="M668.65,490.47l9.65-9.88" transform="translate(-188 -121)"></path><path class="cls-10" d="M450.86,612.17,357.29,948.06h19.06L484.51,612.17Z" transform="translate(-188 -121)"></path><path class="cls-11" d="M450.86,612.17,444,636.83l35.85-10.18,4.67-14.48Z" transform="translate(-188 -121)"></path><path class="cls-12" d="M1115.74,879.62,1065.05,947a7.48,7.48,0,0,1-10.46,1.51l0,0-4.71-3.54,59.69-79.36,4.71,3.54A7.5,7.5,0,0,1,1115.74,879.62Z" transform="translate(-188 -121)"></path><path class="cls-13" d="M1067.93,840.16,1086.2,855l-18.56,28.65L1047,867.93Z" transform="translate(-188 -121)"></path><path class="cls-14" d="M1076,847.4l-22.76,24.82-5.54-4.37L1069,841.66Z" transform="translate(-188 -121)"></path><path class="cls-7" d="M1083.75,853.17s-5.13,18.05-22,27.29l-15.27,59.7c.49,3.43,4.32,5.63,6.86,6.45a2.8,2.8,0,0,0,3.11-1l54.19-72a5.83,5.83,0,0,0,1.11-4.21,5.75,5.75,0,0,0-2.16-3.77c-4.73-3.71-12-9.31-15.14-11.23C1089.54,851.39,1086.08,850.71,1083.75,853.17Z" transform="translate(-188 -121)"></path><path class="cls-6" d="M1058.18,892.84l8.69-1.86a2.11,2.11,0,0,1,1,0,2,2,0,0,1,.83.48,1.94,1.94,0,0,1,.57,1.77,2,2,0,0,1-1.53,1.56L1057,897Z" transform="translate(-188 -121)"></path><path class="cls-6" d="M1056.13,902.3l8.64-1.88a2,2,0,0,1,1.79.51,1.87,1.87,0,0,1,.51.81,2.12,2.12,0,0,1,.07,1,2,2,0,0,1-.54,1,1.94,1.94,0,0,1-1,.55l-10.52,2.19Z" transform="translate(-188 -121)"></path><path class="cls-6" d="M1053.49,912.6l8.55-1.91a2.11,2.11,0,0,1,1,0,2,2,0,0,1,.83.48,2.06,2.06,0,0,1,.51.82,1.89,1.89,0,0,1,.06,1,2,2,0,0,1-1.55,1.6l-10.4,2.1Z" transform="translate(-188 -121)"></path><path class="cls-15" d="M894.21,761.63l144.67,116.55,33-38.46L945.39,721.05Z" transform="translate(-188 -121)"></path><path class="cls-16" d="M971.81,745.83v78.31l67.07,54,9.63-60.39Z" transform="translate(-188 -121)"></path><path class="cls-15" d="M907.05,547.35,883.27,737h66.49l57.75-188.68Z" transform="translate(-188 -121)"></path><path class="cls-16" d="M964.14,690l11.16-94.07h27.46Z" transform="translate(-188 -121)"></path><path class="cls-12" d="M1023.82,951.31H939.5a7.48,7.48,0,0,1-7.49-7.47v-5.9h99.3v5.88a7.48,7.48,0,0,1-7.47,7.49Z" transform="translate(-188 -121)"></path><path class="cls-13" d="M1026.61,889.38l-.88,23.54-34.06,2.38.18-25.92Z" transform="translate(-188 -121)"></path><path class="cls-14" d="M1025.71,900.22,992.18,897l.16-7,33.75,1.29Z" transform="translate(-188 -121)"></path><path class="cls-7" d="M1025.73,909.85s-17.51,6.75-35.06-1.21l-56.89,23.69c-2.45,2.45-1.91,6.83-1,9.35a2.75,2.75,0,0,0,1,1.37,2.82,2.82,0,0,0,1.63.52h90.14a5.75,5.75,0,0,0,5.75-5.63c.12-6,.22-15.19-.13-18.86C1030.63,913.41,1029.09,910.23,1025.73,909.85Z" transform="translate(-188 -121)"></path><path class="cls-6" d="M978.65,913.26l6.71,5.83a2.05,2.05,0,0,1,.55.78,1.9,1.9,0,0,1,.12,1A2,2,0,0,1,985,922.4a1.91,1.91,0,0,1-1.15.19,1.82,1.82,0,0,1-1.06-.48l-8.14-7.23Z" transform="translate(-188 -121)"></path><path class="cls-6" d="M969.85,917.31l6.71,5.77a2.17,2.17,0,0,1,.55.79,2,2,0,0,1-.23,1.9,1.88,1.88,0,0,1-.72.62,2,2,0,0,1-1.15.2,2,2,0,0,1-1.07-.48l-8.06-7.1Z" transform="translate(-188 -121)"></path><path class="cls-6" d="M960,921.39l6.66,5.69a2,2,0,0,1,.56.78,2,2,0,0,1-.23,1.85,2.11,2.11,0,0,1-.73.63,2,2,0,0,1-1.15.2,2,2,0,0,1-1.06-.49l-7.92-7Z" transform="translate(-188 -121)"></path><path class="cls-15" d="M1047.85,548.3a252.78,252.78,0,0,0,0,28.87c2.21,31.09-4.86,121.86-4.8,133.8s-7.81,180.18-7.81,180.18h-47.8S975.22,746.57,974.93,730s-3.12-181-3.12-181Z" transform="translate(-188 -121)"></path><path class="cls-16" d="M905.61,558.83l142.24,18.34V548.3L906.35,553Z" transform="translate(-188 -121)"></path><path class="cls-15" d="M916.51,770.22A33.25,33.25,0,1,0,883.27,737v0A33.25,33.25,0,0,0,916.51,770.22Z" transform="translate(-188 -121)"></path><path class="cls-17" d="M1164.25,595.93H291.49v16.24h872.76Z" transform="translate(-188 -121)"></path><path class="cls-18" d="M710.29,931c-12.89-4.56-26.19-9.26-38.44-8.39a2,2,0,0,0-.79.23,2.14,2.14,0,0,0-.62.54,2,2,0,0,0-.33,1.57l5.13,21.68a1.88,1.88,0,0,0,2,1.45l83.31-8c6.14-.6,9.11-4.23,9.55-9.25a.93.93,0,0,0-.11-.49,1,1,0,0,0-.36-.36.87.87,0,0,0-.5-.1.8.8,0,0,0-.47.18,44,44,0,0,1-32.11,8.42C728.36,937.35,719.42,934.19,710.29,931Z" transform="translate(-188 -121)"></path><path class="cls-19" d="M665.22,868.42s8.6,34.06,8.84,37.72a41.07,41.07,0,0,1-.39,6.07c-.38,3.62-.81,7.65-.17,10.3,11.79-.37,24.47,4.11,36.79,8.46,9.13,3.23,18.07,6.38,26.29,7.44a44,44,0,0,0,30.82-7.48c-.38-6.22-6.28-11.46-17.16-11.36-19.51.19-30.3-.16-41.07-13.29-7.64-9.34-11.33-48.71-11.33-48.71Z" transform="translate(-188 -121)"></path><path class="cls-20" d="M706.69,900.84c-3.6.84-17.9,4.12-31.85,6.39-2.71.44-3.57,6-1.52,8.83a46.24,46.24,0,0,1,3.72,6.48,70.66,70.66,0,0,1,14.37,2.35c-2.47-5.31.18-8.78,5.29-10,4-1,13.77-1.16,18.81-1.18a1.45,1.45,0,0,0,1.45-1.45,1.51,1.51,0,0,0-.35-.94l-8.49-10a1.6,1.6,0,0,0-.65-.44A1.48,1.48,0,0,0,706.69,900.84Z" transform="translate(-188 -121)"></path><path class="cls-20" d="M757.71,936c-8.92,3.45-15.16,2.74-15.16,2.74L740.65,919l15.35-.77Z" transform="translate(-188 -121)"></path><path class="cls-8" d="M657.11,731a28,28,0,1,0-34.85-18.81l0,.06A28,28,0,0,0,657.11,731Z" transform="translate(-188 -121)"></path><path class="cls-8" d="M657.35,677.46,611,661.58l-21.58,58.15,60,10.44Z" transform="translate(-188 -121)"></path><path class="cls-8" d="M676.8,700.47l23.54,175.92L669.8,887,623.64,720Z" transform="translate(-188 -121)"></path><path class="cls-18" d="M580.1,943.16c-12.18-6.21-24.74-12.62-37-13.38a2,2,0,0,0-.81.13,1.84,1.84,0,0,0-.68.45,2.13,2.13,0,0,0-.44.7,1.86,1.86,0,0,0-.09.81L543.3,954a1.94,1.94,0,0,0,.59,1.19,1.88,1.88,0,0,0,1.23.52l83.65,3c6.17.22,9.58-3,10.68-7.91a.85.85,0,0,0,0-.5.87.87,0,0,0-.31-.4.93.93,0,0,0-.48-.17.85.85,0,0,0-.49.12,44,44,0,0,1-33,4.11C597.17,951.88,588.73,947.57,580.1,943.16Z" transform="translate(-188 -121)"></path><path class="cls-21" d="M543.68,875.22s4,34.9,3.78,38.56a42.15,42.15,0,0,1-1.18,6c-.86,3.54-1.81,7.48-1.53,10.18,11.74,1.2,23.72,7.31,35.35,13.25,8.63,4.4,17.07,8.71,25.08,10.84a44,44,0,0,0,31.53-3.35c.45-6.21-4.7-12.19-15.51-13.52-19.36-2.39-30-4.16-39-18.6-6.35-10.26-4.81-49.78-4.81-49.78Z" transform="translate(-188 -121)"></path><path class="cls-20" d="M580.5,912.82c-3.67.36-18.28,1.73-32.41,2.14-2.75.08-4.33,5.52-2.67,8.55a45.16,45.16,0,0,1,2.83,6.91,70.75,70.75,0,0,1,13.94,4.24c-1.75-5.6,1.33-8.69,6.56-9.26,4.13-.45,13.81.66,18.81,1.31a1.48,1.48,0,0,0,.8-.13A1.44,1.44,0,0,0,589,926a1.34,1.34,0,0,0,.22-.78,1.42,1.42,0,0,0-.23-.78l-7.1-11a1.46,1.46,0,0,0-.58-.52A1.41,1.41,0,0,0,580.5,912.82Z" transform="translate(-188 -121)"></path><path class="cls-20" d="M626.44,954.41c-9.3,2.24-15.39.71-15.39.71l.72-19.78,15.32,1.26Z" transform="translate(-188 -121)"></path><path class="cls-22" d="M553.76,737.9a28,28,0,1,0-32-23.3l0,.12A28,28,0,0,0,553.76,737.9Z" transform="translate(-188 -121)"></path><path class="cls-23" d="M577.3,710.26l.14,177.49-31.67,6.44L522,722.53Z" transform="translate(-188 -121)"></path><path class="cls-12" d="M494.42,645.46s-8.52,41.66,2.64,59.07c14.12,22,31.39,25.41,44.16,25.64l69-5.94s-.46-39.65,25.08-54.47C635.26,669.76,530.58,631.13,494.42,645.46Z" transform="translate(-188 -121)"></path><path class="cls-8" d="M467.87,432.91l-5.48,28-31.7-2.16L436.76,429Z" transform="translate(-188 -121)"></path><path class="cls-23" d="M467.55,434.54l-2.66,13.59s-7.29-6.21-8.69-15.9Z" transform="translate(-188 -121)"></path><path class="cls-5" d="M420.91,466.69s7.22-18.84,11.53-16.55c10.24,5.43,25.2,4.43,31.83,1.16,4-2,4.12,15.39,4.12,15.39Z" transform="translate(-188 -121)"></path><path class="cls-5" d="M420.91,466.69l-30.42,4.08a3.22,3.22,0,0,0-2.79,3.54l21.24,201.52,109-10.7L504.45,473.37l-36.06-6.68Z" transform="translate(-188 -121)"></path><path class="cls-24" d="M498.48,524.11,490,508.65l2.09,15.46Z" transform="translate(-188 -121)"></path><path class="cls-5" d="M502.56,473c11.49,1.76,21.13,9.42,24.35,16.11l28.43,64.78,69.82-55.84L645,519l-62.76,77.55c-12.62,16.62-34.46,23.46-49.33,1.78L509.17,561Z" transform="translate(-188 -121)"></path><path class="cls-24" d="M555.34,553.91l7.95,15.61,6-26.8Z" transform="translate(-188 -121)"></path><path class="cls-5" d="M390.72,470.73s-8.21-.14-15.11,11.94-34.86,85.24-34.86,85.24S328,595.52,353.87,596.55h54.18Z" transform="translate(-188 -121)"></path><path class="cls-24" d="M396.83,524.11,394.57,514l-5.71,10.13Z" transform="translate(-188 -121)"></path><path class="cls-11" d="M540.17,730.1H421.84a15.48,15.48,0,0,1-15.33-13.29l-25-175a15.47,15.47,0,0,1,15.32-17.67H515.16a15.48,15.48,0,0,1,15.33,13.29l25,175a15.46,15.46,0,0,1-13.11,17.51,15.07,15.07,0,0,1-2.22.16Z" transform="translate(-188 -121)"></path><path class="cls-11" d="M532.2,730.1h90.62a4.4,4.4,0,0,0,2.61-8,4.32,4.32,0,0,0-1.65-.74l-73.36-16Z" transform="translate(-188 -121)"></path><path class="cls-25" d="M532.2,730.1H413.86a15.46,15.46,0,0,1-15.32-13.29l-25-175a15.5,15.5,0,0,1,13.16-17.52,15.72,15.72,0,0,1,2.17-.15H507.19a15.51,15.51,0,0,1,15.33,13.29l25,175a15.31,15.31,0,0,1-.47,6.56A15.46,15.46,0,0,1,532.2,730.1Z" transform="translate(-188 -121)"></path><path class="cls-13" d="M1015.46,569.25s-6.39,12.07-8,13.45-27.23,4.56-32.21,6.34-7.34,4.47-7.34,6.89h60.36s1.56-1.46,2.69-6.1,3.09-6.61,3.09-6.61Z" transform="translate(-188 -121)"></path><path class="cls-12" d="M928.69,379.05c4-19.6-5.36-19.09-8.47-22.21,0,0-11.65-9.61-20.54-.65-9.4,9.48-63.28,83.1-63.28,83.1l33.71,31,6.34-7.57,16.42-19.58,17.56-20.92,2.18-2.39L936.3,393S926.45,389.37,928.69,379.05Z" transform="translate(-188 -121)"></path><path class="cls-12" d="M942.8,382.39A25.92,25.92,0,1,0,910,398.72h0a25.91,25.91,0,0,0,32.8-16.34Z" transform="translate(-188 -121)"></path><path class="cls-26" d="M912.3,419.74c.68-4.1,2-12.29,3.5-19.76l7.78-36.13s-20.89,30.88-30.52,52.39c-7.13,16.12-15.4,32.54-16.76,46.44l16.41-19.58,17.56-20.93Z" transform="translate(-188 -121)"></path><path class="cls-13" d="M802.72,356.4c-8-14.61-4.17-17.09-7.57-25.41-3.36-8.11,2.6-28.22-3.11-25.48s-7.47,10-7.47,10c-3.91-6.91-7.5-19.61-16.85-21.07s-10.17,1.49-15.47,5.84c-14.09,11.72,3.88,29.34,6.88,36.05,1.93,4.21,16.11,17,17.68,19.83L784,366.55Z" transform="translate(-188 -121)"></path><path class="cls-27" d="M775.18,316.45l-11.38-21" transform="translate(-188 -121)"></path><path class="cls-27" d="M767.72,319.85l-12.41-19.58" transform="translate(-188 -121)"></path><path class="cls-27" d="M758.86,323.61l-7.09-11.85" transform="translate(-188 -121)"></path><path class="cls-27" d="M778,335c.06-7.28,4.43-16.09,4.43-16.09" transform="translate(-188 -121)"></path><path class="cls-12" d="M870.4,438.7l-68.57-91.31a2.75,2.75,0,0,0-1.74-1,2.87,2.87,0,0,0-2,.42l-18,11.88a4.18,4.18,0,0,0-1.33,5.45L834,465.79Z" transform="translate(-188 -121)"></path><path class="cls-12" d="M853.74,477.27a23,23,0,1,0-23-23h0A23,23,0,0,0,853.74,477.27Z" transform="translate(-188 -121)"></path><path class="cls-6" d="M949.67,336.2s-33.47,10.65-40.08,13.41-7,13.82-7.48,21.64C901.8,376.74,908,466.8,908.4,519c.08,11.14-2,18.21-3.33,24.41s0,9.56,0,9.56l143.44,1.28s-4.3-181.23-5.18-187.68,6-12-1.46-15.24L987.1,336.2Z" transform="translate(-188 -121)"></path><path class="cls-12" d="M931.67,342s5.47,25,9.05,45,4.67,185.64,4.67,185.64-41.91-8.14-47.59-17.77,5.26-52.9,6.11-92.21-7.42-100.32,1.26-110.9C905.17,351.78,907.4,349.57,931.67,342Z" transform="translate(-188 -121)"></path><path class="cls-12" d="M1002.12,340.41s-19.89,41.43-18.67,54.06,1.28,120.33,0,142.82a217.87,217.87,0,0,1-6.23,40.54s54.26,3.84,75.22-2.72c0,0,10-62.66,3.42-85s-11.52-138.71-11.52-138.71Z" transform="translate(-188 -121)"></path><path class="cls-26" d="M1016.8,396.09s2,75.09,1.61,100.12c-.26,15.6-18.1,22.21-18.15,31.24,0,5.34,14.08-.91,17.89,4.61s-2.7,22.83-2.7,22.83l33.06-.67L1061.76,490l-27.91-97.73Z" transform="translate(-188 -121)"></path><path class="cls-13" d="M950.36,319.46l-3.1,35s-.83,5.43,8.61,7.15c7.5,1.37,23.08-7.44,26.59-10.34,7.82-6.45,8.54-10.35,7.72-13.34-1.19-4.29-5-34.47-5-34.47Z" transform="translate(-188 -121)"></path><path class="cls-14" d="M948.32,348.1l1.92-21.57,16.66-8.23Z" transform="translate(-188 -121)"></path><path class="cls-13" d="M931.84,253.22s-6.38,28.6-7.23,48.07c-.86,19.65,6.16,23.39,14.86,24.85,6.87,1.16,17.55,1.25,24.26-2.11,12.25-6.11,32.35-20.95,35-23.83,4.08-4.46,3.8-24.34-11.76-29.26C975.63,267.36,946.78,237,931.84,253.22Z" transform="translate(-188 -121)"></path><path class="cls-28" d="M931.9,256.27c9.28,3.64,26.76,1.25,36.35,4.37s.87,6.42,1.28,15.68c.27,6,.73,17.45,4.41,17.3s5.85-13.17,13.61-12.67,11.42,3.82,11.25,8.78-5.75,9.27-10.15,11.57c-5.5,2.85-7.78,1.65-7.78,1.65s6.2,22.82,7.14,21.92c0,0,6.68-3.77,7.89-10.38,0,0,8.87-1.92,6.91-10.79,0,0,5.52-1.78,2.9-6.91,0,0,14.28-9.61,6.84-21.36,0,0,6.77-6.75-1.32-9.61,0,0,10.72-15.66-4.53-19,0,0,1-7.37-6-7.09,0,0-3-12.68-18.28-7.68a12.58,12.58,0,0,0-8.37-11.51c-8.63-3.48-14.24,1.31-14.24,1.31s-9-7.39-13.82,3.44c0,0-6.85-3.5-12,.22S931.41,237,931.41,237s-5.88-1.37-8,3.49c-3,6.85,1.22,9.35,1.22,9.35s-9.56,11.3,3.89,22Z" transform="translate(-188 -121)"></path><path class="cls-29" d="M955.26,284.5c.51-2.31-.31-4.45-1.83-4.79s-3.15,1.28-3.65,3.59.31,4.46,1.83,4.79S954.76,286.81,955.26,284.5Z" transform="translate(-188 -121)"></path><path class="cls-29" d="M934.42,279.81c.5-2.32-.32-4.46-1.83-4.79s-3.15,1.28-3.66,3.59.31,4.45,1.83,4.78S933.91,282.12,934.42,279.81Z" transform="translate(-188 -121)"></path><path class="cls-27" d="M938.54,286s2.59,5-1.15,5.06c-3.58-.05-5.66,2-2,5.08" transform="translate(-188 -121)"></path><path class="cls-14" d="M935.89,300.7h0c2.22.16,6.65.47,9.59.74h0a.41.41,0,0,1,.24.08.45.45,0,0,1,.16.2.53.53,0,0,1,0,.25.5.5,0,0,1-.09.23,19.66,19.66,0,0,1-2.45,2.29,8.3,8.3,0,0,1-3,1.57,3,3,0,0,1-2.68-.53,7.82,7.82,0,0,1-2.23-4.24h0a.31.31,0,0,1,0-.19.36.36,0,0,1,.07-.18.48.48,0,0,1,.16-.12A.37.37,0,0,1,935.89,300.7Z" transform="translate(-188 -121)"></path><path class="cls-29" d="M962.53,276.88l-.21.42a2.58,2.58,0,0,1-3.32,1.48h0l-10.86-4.49a2.36,2.36,0,0,1-1.24-1.09,2.28,2.28,0,0,1-.17-1.64,2.37,2.37,0,0,1,.43-.94,2.57,2.57,0,0,1,.78-.69,2.7,2.7,0,0,1,1-.3,2.61,2.61,0,0,1,1,.14L961,273.84a2.32,2.32,0,0,1,1.65,2.11A2.46,2.46,0,0,1,962.53,276.88Z" transform="translate(-188 -121)"></path><path class="cls-29" d="M925.88,266.77l11.77-.79a2.29,2.29,0,0,1,1,.16,2.37,2.37,0,0,1,.87.56,2.52,2.52,0,0,1,.55.88,2.14,2.14,0,0,1,.15,1,2.26,2.26,0,0,1-2.12,2.23l-11.69,1.25a2.59,2.59,0,0,1-2.79-2.36l-.08-.46a2.45,2.45,0,0,1,.14-.93,2.32,2.32,0,0,1,.49-.81,2.43,2.43,0,0,1,.83-.5A2.05,2.05,0,0,1,925.88,266.77Z" transform="translate(-188 -121)"></path><path class="cls-12" d="M1045.42,369.36c-14.78-13.47-19.14-5.2-23.41-4.14,0,0-14.23,5.06-11.11,17.29,3.3,12.93,38.77,97,38.77,97l44.76-10.6-4.06-11.72L1082,433l-8.93-25.82-.93-3.1L1061.3,370S1053.12,376.59,1045.42,369.36Z" transform="translate(-188 -121)"></path><path class="cls-12" d="M1052.7,395.52a25.92,25.92,0,1,0-36.55-2.85h0A25.92,25.92,0,0,0,1052.7,395.52Z" transform="translate(-188 -121)"></path><path class="cls-12" d="M1049.33,467.69l-39.59,107.1a2.82,2.82,0,0,0,.11,2,2.74,2.74,0,0,0,1.42,1.42l19.7,8.66a4.19,4.19,0,0,0,3,.1,4.06,4.06,0,0,0,2.28-1.93l55.59-101.44Z" transform="translate(-188 -121)"></path><path class="cls-12" d="M1071.47,496.19a23,23,0,1,0-23-23h0A23,23,0,0,0,1071.47,496.19Z" transform="translate(-188 -121)"></path><path class="cls-30" d="M451.5,730.1h86.27A35.87,35.87,0,0,1,501.91,766H487.39a35.87,35.87,0,0,1-35.89-35.87Z" transform="translate(-188 -121)"></path><path class="cls-11" d="M496.55,766h-3.83V938.48h3.83Z" transform="translate(-188 -121)"></path><path class="cls-11" d="M492.72,938.48l-52.58,17H548.32l-51.77-17Z" transform="translate(-188 -121)"></path><path class="cls-30" d="M321.91,612.17,228.34,948.06H247.4L355.55,612.17Z" transform="translate(-188 -121)"></path><path class="cls-31" d="M321.91,612.17,315,636.83l35.85-10.18,4.66-14.48Z" transform="translate(-188 -121)"></path><path class="cls-10" d="M1119.57,612.17l93.57,335.89h-19.06L1085.92,612.17Z" transform="translate(-188 -121)"></path><path class="cls-11" d="M1119.57,612.17l5.25,18.85-34-3.8L1086,612.17Z" transform="translate(-188 -121)"></path><path class="cls-8" d="M469.31,373.6s12.58,22.7,16.94,32.07,5.86,19.48-1.41,24.13c-9.89,6.33-20.83,4.93-32.62,3.61-10.21-1.14-23-29.86-21.43-36.92S450.11,361.15,469.31,373.6Z" transform="translate(-188 -121)"></path><path class="cls-29" d="M478.69,399.62c.92-.74.77-2.43-.32-3.78s-2.72-1.85-3.64-1.11-.77,2.44.32,3.79S477.77,400.36,478.69,399.62Z" transform="translate(-188 -121)"></path><path class="cls-29" d="M465.14,396.17l9.59-6.83a2.51,2.51,0,0,0-.84-.64,2.63,2.63,0,0,0-1-.25,2.58,2.58,0,0,0-1.92.8l-6.36,6.45C464.34,395.88,464.8,396.45,465.14,396.17Z" transform="translate(-188 -121)"></path><path class="cls-32" d="M484.44,413.71a8.11,8.11,0,0,1-8.59,0" transform="translate(-188 -121)"></path><path class="cls-15" d="M460.28,387.22l20.56-10.4s-7.45-24.25-34.76-26.78c-20-1.86-38.66,9.19-45.88,26.44s-1,45.69,17.26,52.52c15.48,5.77,15,21.14,15,21.14l22.67-29.73s-15.68-7.63-11.92-16.94c5.1-12.63,17.91,2,17.91,2l-8.67-25.23Z" transform="translate(-188 -121)"></path><path class="cls-8" d="M482,397.18s3.43,4.46,5.5,5.33.22,4-1.16,4.47S481.22,399.29,482,397.18Z" transform="translate(-188 -121)"></path><path class="cls-16" d="M397.26,421.54a24.36,24.36,0,1,0-24.36-24.36,24.36,24.36,0,0,0,24.36,24.36Z" transform="translate(-188 -121)"></path><path class="cls-15" d="M394.57,422.61a24.36,24.36,0,1,0-24.36-24.36h0A24.36,24.36,0,0,0,394.57,422.61Z" transform="translate(-188 -121)"></path><path class="cls-5" d="M633.48,166.4h-252a8.12,8.12,0,0,0-8.12,8.11V328.09a8.12,8.12,0,0,0,8.12,8.11h252a8.11,8.11,0,0,0,8.11-8.11V174.51A8.11,8.11,0,0,0,633.48,166.4Z" transform="translate(-188 -121)"></path><path class="cls-33" d="M547.68,370.48h13.47" transform="translate(-188 -121)"></path><path class="cls-34" d="M590.81,370.48H716.26" transform="translate(-188 -121)"></path><path class="cls-33" d="M547.68,400h13.47" transform="translate(-188 -121)"></path><path class="cls-34" d="M590.81,400h58.41" transform="translate(-188 -121)"></path><path class="cls-33" d="M547.68,430h13.47" transform="translate(-188 -121)"></path><path class="cls-34" d="M590.81,430H691.26" transform="translate(-188 -121)"></path><path class="cls-35" d="M391.21,257.5s22.21-4.68,29.25,6.12,14.08,31.09,30.05,28.46,23.67-55.7,39.63-55.23,13.43,35.22,30.8,35.69,12.53-19.42,24.13-18.88c14.07.66,12.49,41.89,30.81,42.36s16.43-54.47,44.13-53.53" transform="translate(-188 -121)"></path><path class="cls-36" d="M398.29,192.1h44.33" transform="translate(-188 -121)"></path><path class="cls-37" d="M398.29,212.79h91.62" transform="translate(-188 -121)"></path><path class="cls-38" d="M754.08,280.2a28.82,28.82,0,1,0-28.82-28.82,28.82,28.82,0,0,0,28.82,28.82Z" transform="translate(-188 -121)"></path><path class="cls-6" d="M745.17,243.45v18.29a2.93,2.93,0,0,0,2.87,2.92,2.81,2.81,0,0,0,1.45-.36l16.72-9.15a2.91,2.91,0,0,0,1.11-4.05,2.85,2.85,0,0,0-1.11-1.07l-16.72-9.15a2.92,2.92,0,0,0-4.32,2.57Z" transform="translate(-188 -121)"></path><path class="cls-11" d="M370.83,121H858.17a13.52,13.52,0,0,1,13.54,13.5v20.43H357.29V134.54A13.54,13.54,0,0,1,370.83,121Z" transform="translate(-188 -121)"></path><path class="cls-31" d="M1164.25,595.93H1020.57v16.24h143.68Z" transform="translate(-188 -121)"></path><path class="cls-30" d="M990.61,612.17l93.57,335.89h-19.06L957,612.17Z" transform="translate(-188 -121)"></path><path class="cls-11" d="M990.61,612.17l6.87,24.66-35.85-10.18L957,612.17Z" transform="translate(-188 -121)"></path><path class="cls-5" d="M1111.76,323.17a70.58,70.58,0,1,0-70.59-70.58,70.58,70.58,0,0,0,70.59,70.58Z" transform="translate(-188 -121)"></path><path class="cls-39" d="M1136.91,250.88a25.17,25.17,0,1,0-34.65,23.32v8.25h19V274.2A25.19,25.19,0,0,0,1137,250.88Z" transform="translate(-188 -121)"></path><path class="cls-39" d="M1102.26,282.45h19v4.06a6.49,6.49,0,0,1-6.47,6.47h-6.09a6.47,6.47,0,0,1-6.47-6.47v-4.06Z" transform="translate(-188 -121)"></path><path class="cls-39" d="M1107.49,282.45V253.56a2.61,2.61,0,0,0-2.61-2.61h-.08a2.61,2.61,0,0,0-2.61,2.61h0a2.66,2.66,0,0,0,.2,1,2.41,2.41,0,0,0,.57.84,2.59,2.59,0,0,0,1.84.77h13.88a2.59,2.59,0,0,0,1.84-.77,2.41,2.41,0,0,0,.57-.84,2.66,2.66,0,0,0,.2-1h0a2.61,2.61,0,0,0-2.61-2.61h-.23a2.61,2.61,0,0,0-2.61,2.61v28.89" transform="translate(-188 -121)"></path><path class="cls-39" d="M1111.77,212.21v6.45" transform="translate(-188 -121)"></path><path class="cls-39" d="M1088.48,218.43l3.23,5.59" transform="translate(-188 -121)"></path><path class="cls-39" d="M1071.43,235.46l5.59,3.23" transform="translate(-188 -121)"></path><path class="cls-39" d="M1152.08,235.52l-5.59,3.23" transform="translate(-188 -121)"></path><path class="cls-39" d="M1135.05,218.46l-3.23,5.59" transform="translate(-188 -121)"></path></g></svg>