<svg xmlns="http://www.w3.org/2000/svg" xmlns:xlink="http://www.w3.org/1999/xlink" id="Layer_1" x="0px" y="0px" viewBox="0 0 935.8 776.7" style="enable-background:new 0 0 935.8 776.7;" xml:space="preserve"><style type="text/css">	.st0{clip-path:url(#SVGID_00000013874335484484696540000015691764605212990390_);}	.st1{fill:#F5F8FF;}	.st2{fill:#5CA4E6;}	.st3{fill:#D1E8F7;}	.st4{fill:#FFFFFF;}	.st5{fill:url(#SVGID_00000111893235175622011890000009986331471365616823_);}	.st6{fill:#FEBB94;}	.st7{fill:none;stroke:#FF967C;stroke-width:16.5208;stroke-linecap:round;stroke-miterlimit:10;}	.st8{fill:none;stroke:#FFFFFF;stroke-width:16.5208;stroke-linecap:round;stroke-miterlimit:10;}	.st9{fill:url(#SVGID_00000116225021906850891160000009374042690545480081_);}	.st10{fill:none;stroke:#FFFFFF;stroke-width:10;stroke-linecap:round;stroke-miterlimit:10;}	.st11{opacity:0.6;fill:none;stroke:#FFFFFF;stroke-width:6;stroke-linecap:round;stroke-miterlimit:10;enable-background:new    ;}	.st12{fill:url(#SVGID_00000150798509569831202940000014611612258333577365_);}	.st13{fill:#71C8EA;}	.st14{fill:#FFCCB3;}	.st15{fill:#5661AE;}	.st16{fill:#465393;}	.st17{fill:#E56441;}	.st18{fill:none;stroke:#E56441;stroke-width:0.9467;stroke-linecap:round;}	.st19{fill:#93523E;}	.st20{fill:#FF967C;}	.st21{fill:#080B09;}	.st22{fill:#E56441;stroke:#E56441;}	.st23{fill:url(#SVGID_00000103969091962201337910000000328312867681798025_);}	.st24{fill:none;stroke:#FFFFFF;stroke-width:5;stroke-linecap:round;stroke-miterlimit:10;}			.st25{opacity:0.6;fill:none;stroke:#FFFFFF;stroke-width:10;stroke-linecap:round;stroke-miterlimit:10;enable-background:new    ;}	.st26{fill:#233B62;}	.st27{fill:#1C85E8;}	.st28{fill:#1F2D49;}	.st29{fill:#0D1B33;}	.st30{fill:none;stroke:#FFFFFF;stroke-width:4;stroke-linecap:round;stroke-miterlimit:10;}	.st31{fill:#FCBA9F;}	.st32{opacity:0.5;fill:none;stroke:#FFFFFF;stroke-width:5;stroke-linecap:round;stroke-miterlimit:10;enable-background:new    ;}	.st33{fill:none;stroke:#FFFFFF;stroke-width:6.5041;stroke-linecap:round;stroke-linejoin:round;}</style><g>	<defs>		<rect id="SVGID_1_" y="-107.8" width="935.8" height="884.4"></rect>	</defs>	<clipPath id="SVGID_00000016052165717088657830000011140903502541996725_">		<use xlink:href="#SVGID_1_" style="overflow:visible;"></use>	</clipPath>	<g style="clip-path:url(#SVGID_00000016052165717088657830000011140903502541996725_);">		<path class="st1" d="M475.2,657.8c196,0,354.9-4.7,354.9-10.4c0-5.8-158.9-10.4-354.9-10.4s-354.9,4.7-354.9,10.4   C120.3,653.1,279.2,657.8,475.2,657.8z"></path>		<path class="st2" d="M523.7,643.1h-241c-19.5,0-32.7-15.8-29.4-35.4l97-572.4C353.7,15.8,372.2,0,391.8,0h241   c19.5,0,32.7,15.8,29.4,35.4l-97,572.4C561.8,627.3,543.2,643.1,523.7,643.1z"></path>		<path class="st3" d="M493.6,643.1h-241c-19.5,0-32.7-15.8-29.4-35.4l97-572.4C323.6,15.8,342.1,0,361.7,0h241   c19.5,0,32.7,15.8,29.4,35.4l-97,572.4C531.7,627.3,513.1,643.1,493.6,643.1z"></path>		<path class="st4" d="M495,624H257.7c-10.1,0-17-8.2-15.3-18.4l96.3-568.1c1.7-10.1,11.3-18.4,21.5-18.4h237.2   c10.1,0,17,8.2,15.3,18.4l-96.3,568.1C514.8,615.8,505.1,624,495,624z"></path>					<linearGradient id="SVGID_00000034086768917210279630000007699708295836692128_" gradientUnits="userSpaceOnUse" x1="419.4301" y1="605.4347" x2="437.6931" y2="295.3897" gradientTransform="matrix(1 0 0 -1 0 670.486)">			<stop offset="0" style="stop-color:#FFFFFF"></stop>			<stop offset="1" style="stop-color:#94B9FF"></stop>		</linearGradient>		<path style="fill:url(#SVGID_00000034086768917210279630000007699708295836692128_);" d="M517.4,210.6H290.6l23.6-130.6   c1.5-8,9.3-14.4,17.2-14.4h214.2c8,0,13.2,6.5,11.6,14.4l-22.6,116.2C533.1,204.1,525.4,210.6,517.4,210.6z"></path>		<path class="st6" d="M499.2,193.7H159.5c-8,0-13.2-6.5-11.6-14.4l22.6-116.2c1.5-8,9.3-14.4,17.2-14.4h339.6   c8,0,13.2,6.5,11.6,14.4l-22.6,116.2C514.8,187.3,507.1,193.7,499.2,193.7z"></path>		<path class="st6" d="M477.5,609.2l-210.6,1c-8,0-13.2-6.5-11.6-14.4l22.6-116.2c1.5-8,9.3-14.4,17.2-14.4l210.6-1   c8,0,13.2,6.5,11.6,14.4l-22.6,116.2C493.2,602.7,485.5,609.2,477.5,609.2z"></path>		<path class="st7" d="M290,574c6-46.9,50.5-84.9,99.5-84.9s83.8,38,77.8,84.9"></path>		<path class="st8" d="M290,574c6-46.9,50.5-84.9,99.5-84.9c24.2,0,45,9.3,59.1,24.4"></path>					<linearGradient id="SVGID_00000103979233300123994690000011435814246782354855_" gradientUnits="userSpaceOnUse" x1="369.4966" y1="513.5757" x2="445.9276" y2="-22.1783" gradientTransform="matrix(1 0 0 -1 0 670.486)">			<stop offset="0" style="stop-color:#FFFFFF"></stop>			<stop offset="1" style="stop-color:#94B9FF"></stop>		</linearGradient>		<path style="fill:url(#SVGID_00000103979233300123994690000011435814246782354855_);" d="M452.3,447.7H301.5   c-8,0-13.5-6.5-12.2-14.6l31.9-191.6c1.3-8.1,8.9-14.6,17-14.6H489c8.1,0,13.5,6.5,12.2,14.6l-31.9,191.6   C468,441.2,460.3,447.7,452.3,447.7z"></path>		<path class="st4" d="M347.9,328.3h-20.6c-1.1,0-2.2,0.5-3.1,1.2c-0.9,0.7-1.4,1.7-1.7,2.9l-11.2,67.2c-0.1,0.5-0.1,1,0,1.5   c0.1,0.5,0.4,1,0.7,1.3c0.3,0.4,0.7,0.7,1.2,0.9c0.5,0.2,1,0.3,1.5,0.3h20.6c1.1,0,2.2-0.5,3.1-1.2c0.9-0.7,1.4-1.7,1.7-2.9   l11.2-67.2c0.1-0.5,0.1-1,0-1.5c-0.1-0.5-0.4-1-0.7-1.3c-0.3-0.4-0.7-0.7-1.2-0.9C348.9,328.4,348.4,328.3,347.9,328.3z"></path>		<path class="st4" d="M385.4,351.3h-20.6c-1.1,0-2.2,0.5-3.1,1.2c-0.9,0.7-1.4,1.7-1.7,2.9l-7.3,44.2c-0.1,0.5-0.1,1,0,1.5   c0.1,0.5,0.4,1,0.7,1.3c0.3,0.4,0.7,0.7,1.2,0.9c0.5,0.2,1,0.3,1.5,0.3h20.6c1.1,0,2.2-0.5,3.1-1.2s1.4-1.7,1.7-2.9l7.3-44.2   c0.1-0.5,0.1-1,0-1.5c-0.1-0.5-0.4-1-0.7-1.3s-0.7-0.7-1.2-0.9C386.5,351.4,385.9,351.3,385.4,351.3z"></path>		<path class="st4" d="M435.1,286.6h-20.6c-1.1,0-2.2,0.5-3.1,1.2c-0.9,0.7-1.4,1.7-1.7,2.9l-18.1,108.9c-0.1,0.5-0.1,1,0,1.5   c0.1,0.5,0.4,1,0.7,1.3c0.3,0.4,0.7,0.7,1.2,0.9c0.5,0.2,1,0.3,1.5,0.3h20.6c1.1,0,2.2-0.5,3.1-1.2c0.9-0.7,1.4-1.7,1.7-2.9   l18.1-108.9c0.1-0.5,0.1-1,0-1.5c-0.1-0.5-0.4-1-0.7-1.3c-0.3-0.4-0.7-0.7-1.2-0.9C436.1,286.7,435.6,286.6,435.1,286.6z"></path>		<path class="st4" d="M470.5,314.8h-20.6c-1.1,0-2.2,0.5-3.1,1.2c-0.9,0.7-1.4,1.7-1.7,2.9l-13.4,80.6c-0.1,0.5-0.1,1,0,1.5   c0.1,0.5,0.4,1,0.7,1.3c0.3,0.4,0.7,0.7,1.2,0.9c0.5,0.2,1,0.3,1.5,0.3h20.6c1.1,0,2.2-0.5,3.1-1.2c0.9-0.7,1.4-1.7,1.7-2.9   l13.4-80.6c0.1-0.5,0.1-1,0-1.5c-0.1-0.5-0.4-1-0.7-1.3c-0.3-0.4-0.7-0.7-1.2-0.9C471.5,314.9,471,314.8,470.5,314.8z"></path>		<path class="st10" d="M336.2,250.5h55.7"></path>		<path class="st10" d="M333.1,269.5h27.8"></path>		<path class="st11" d="M317.5,417.3h10.8"></path>		<path class="st11" d="M358.8,417.3h10.8"></path>		<path class="st11" d="M397.7,417.3h10.8"></path>		<path class="st11" d="M437.8,417.3h10.8"></path>					<linearGradient id="SVGID_00000147924291253944131680000009227459441013203364_" gradientUnits="userSpaceOnUse" x1="567.3274" y1="513.5757" x2="643.7574" y2="-22.1783" gradientTransform="matrix(1 0 0 -1 0 670.486)">			<stop offset="0" style="stop-color:#FFFFFF"></stop>			<stop offset="1" style="stop-color:#94B9FF"></stop>		</linearGradient>		<path style="fill:url(#SVGID_00000147924291253944131680000009227459441013203364_);" d="M650.1,447.7H499.3   c-8,0-13.5-6.5-12.2-14.6L519,241.6c1.3-8.1,8.9-14.6,17-14.6h150.8c8,0,13.5,6.5,12.2,14.6l-31.9,191.6   C665.8,441.2,658.2,447.7,650.1,447.7z"></path>		<path class="st4" d="M541.8,357.2h-20.6c-1.1,0-2.2,0.5-3.1,1.2s-1.4,1.7-1.7,2.9l-7.3,38.3c-0.1,0.5-0.1,1,0,1.5   c0.1,0.5,0.4,1,0.7,1.3c0.3,0.4,0.7,0.7,1.2,0.9c0.5,0.2,1,0.3,1.5,0.3h20.6c1.1,0,2.2-0.5,3.1-1.2s1.4-1.7,1.7-2.9l7.3-38.3   c0.1-0.5,0.1-1,0-1.5c-0.1-0.5-0.4-1-0.7-1.3s-0.7-0.7-1.2-0.9C542.9,357.3,542.4,357.2,541.8,357.2z"></path>		<path class="st4" d="M591,297.9h-20.6c-1.1,0-2.2,0.5-3.1,1.2c-0.9,0.7-1.4,1.7-1.7,2.9l-15.1,97.6c-0.1,0.5-0.1,1,0,1.5   c0.1,0.5,0.4,1,0.7,1.3c0.3,0.4,0.7,0.7,1.2,0.9c0.5,0.2,1,0.3,1.5,0.3h20.6c1.1,0,2.2-0.5,3.1-1.2c0.9-0.7,1.4-1.7,1.7-2.9   l15.1-97.6c0.1-0.5,0.1-1,0-1.5c-0.1-0.5-0.4-1-0.7-1.3c-0.3-0.4-0.7-0.7-1.2-0.9C592.1,298,591.5,297.9,591,297.9z"></path>		<path class="st4" d="M626.1,325.7h-20.6c-1.1,0-2.2,0.5-3.1,1.2c-0.9,0.7-1.4,1.7-1.7,2.9l-11.3,69.7c-0.1,0.5-0.1,1,0,1.5   c0.1,0.5,0.4,1,0.7,1.3c0.3,0.4,0.7,0.7,1.2,0.9c0.5,0.2,1,0.3,1.5,0.3h20.6c1.1,0,2.2-0.5,3.1-1.2s1.4-1.7,1.7-2.9l11.3-69.7   c0.1-0.5,0.1-1,0-1.5c-0.1-0.5-0.4-1-0.7-1.3c-0.3-0.4-0.7-0.7-1.2-0.9C627.1,325.8,626.6,325.7,626.1,325.7z"></path>		<path class="st4" d="M668.3,314.8h-20.6c-1.1,0-2.2,0.5-3.1,1.2c-0.9,0.7-1.4,1.7-1.7,2.9l-13.4,80.6c-0.1,0.5-0.1,1,0,1.5   c0.1,0.5,0.4,1,0.7,1.3c0.3,0.4,0.7,0.7,1.2,0.9c0.5,0.2,1,0.3,1.5,0.3h20.6c1.1,0,2.2-0.5,3.1-1.2c0.9-0.7,1.4-1.7,1.7-2.9   l13.4-80.6c0.1-0.5,0.1-1,0-1.5c-0.1-0.5-0.4-1-0.7-1.3c-0.3-0.4-0.7-0.7-1.2-0.9C669.3,314.9,668.8,314.8,668.3,314.8z"></path>		<path class="st10" d="M534.1,250.5h55.7"></path>		<path class="st10" d="M530.9,269.5h27.8"></path>		<path class="st11" d="M515.3,417.3h10.8"></path>		<path class="st11" d="M556.6,417.3h10.8"></path>		<path class="st11" d="M595.5,417.3h10.8"></path>		<path class="st11" d="M635.6,417.3h10.8"></path>		<path class="st13" d="M10,663l42.8,89.6l-5.3,2.5c-1.8,0.9-3.9,1-5.7,0.3c-1.9-0.7-3.4-2-4.3-3.8L1.1,675.6   c-0.9-1.8-1-3.9-0.3-5.7c0.7-1.9,2-3.4,3.8-4.3L10,663L10,663z"></path>		<path class="st14" d="M56.6,642.8L27,655l16.6,23.4l26.2-8L56.6,642.8z"></path>		<path class="st15" d="M37.7,656c0,0,11.5,17.8,13.3,27.8c1.7,10,7.7,60.3,6.1,64.9c-1.2,3.3-5.3,4.7-8,5c-0.6,0.1-1.2-0.1-1.7-0.3   c-0.5-0.3-0.9-0.7-1.2-1.3L7.4,670.7c-0.6-1.4-0.7-2.9-0.3-4.3c0.5-1.4,1.5-2.6,2.9-3.3c5.4-2.7,13.6-6.8,17.1-8   C32.4,653.1,35.9,653.1,37.7,656z"></path>		<path class="st13" d="M246.9,698.6l-40.2,74.1c-0.9,1.7-2.5,3-4.5,3.6c-1.9,0.6-4,0.4-5.7-0.6l-5.2-2.8l47.3-87.3l5.2,2.8   c1.7,0.9,3,2.5,3.6,4.5C248.1,694.8,247.9,696.9,246.9,698.6z"></path>		<path class="st14" d="M193.2,663.1l28.9,13.7l-17.7,22.6l-25.8-9.3L193.2,663.1z"></path>		<path class="st15" d="M211.4,677.2c0,0-12.4,17.2-14.7,27.1c-2.2,9.9-10.7,59.9-9.4,64.5c1,3.3,5.1,4.9,7.7,5.4   c0.6,0.1,1.2,0,1.7-0.3s1-0.7,1.2-1.2l42.9-79.3c0.7-1.3,0.9-2.9,0.5-4.3s-1.4-2.7-2.7-3.4c-5.2-3-13.2-7.4-16.6-8.9   C216.8,674.6,213.3,674.4,211.4,677.2z"></path>		<path class="st3" d="M280.3,557.5c0,0,11.1,54.9,2.5,65.7L64,679.2l-18.7-34.9l127.8-58l25.6-35.1L280.3,557.5z"></path>		<path class="st2" d="M224.9,596.7l-48.3,16.1l-22.5,9.4l29.3,26.4l-26.2,5.9l-71.4-57.9H224.9z"></path>		<path class="st2" d="M59,639.7l1.5,5.2l33.9,26.5l31.9-7.8C126.3,663.5,64.8,634.3,59,639.7z"></path>		<path class="st3" d="M120.4,554.3c0,0-61.9-3.4-92.5-0.7C8.1,555.3,1,605.9,16.8,615.1l169.1,86.6l19.9-36L96.7,591.8l78-11   L120.4,554.3z"></path>		<path class="st3" d="M33.1,619.4c18.3,0,33.1-14.8,33.1-33.1c0-18.3-14.8-33.1-33.1-33.1C14.8,553.2,0,568,0,586.3   C0,604.5,14.8,619.4,33.1,619.4z"></path>		<path class="st3" d="M277.2,623.6c18.3,0,33.1-14.8,33.1-33.1c0-18.3-14.8-33.1-33.1-33.1c-18.3,0-33.1,14.8-33.1,33.1   C244.2,608.8,259,623.6,277.2,623.6z"></path>		<path class="st15" d="M186.6,434.4c-3.5-17.2,4.7-16.8,7.4-19.5c0,0,10.2-8.4,18-0.6c8.3,8.3,55.6,73,55.6,73L238,514.6l-5.6-6.6   l-14.4-17.2l-15.4-18.4l-1.9-2.1l-20.8-23.6C179.9,446.7,188.6,443.5,186.6,434.4z"></path>		<path class="st15" d="M203,451.7c11.9-4,18.3-16.9,14.3-28.8c-4-11.9-16.9-18.3-28.8-14.3c-11.9,4-18.3,16.9-14.3,28.8   C178.2,449.3,191.1,455.7,203,451.7z"></path>		<path class="st16" d="M201,470.2c-0.6-3.6-1.8-10.8-3.1-17.3l-6.8-31.7c0,0,18.3,27.1,26.8,46c6.3,14.2,13.5,28.6,14.7,40.8   l-14.4-17.2l-15.4-18.4L201,470.2z"></path>		<path class="st14" d="M297.2,414.6c7-12.8,3.7-15,6.6-22.3c2.9-7.1-2.3-24.8,2.7-22.4c5,2.4,6.6,8.8,6.6,8.8   c3.4-6.1,6.6-17.2,14.8-18.5c8.2-1.3,8.9,1.3,13.6,5.1c12.4,10.3-3.4,25.8-6,31.7c-1.7,3.7-14.1,15-15.5,17.4l-6.3,9.1   L297.2,414.6z"></path>		<path class="st17" d="M321.4,379.5l10-18.5L321.4,379.5z"></path>		<path class="st18" d="M321.4,379.5l10-18.5"></path>		<path class="st17" d="M327.9,382.5l10.9-17.2L327.9,382.5z"></path>		<path class="st18" d="M327.9,382.5l10.9-17.2"></path>		<path class="st17" d="M335.7,385.8l6.2-10.4L335.7,385.8z"></path>		<path class="st18" d="M335.7,385.8l6.2-10.4"></path>		<path class="st17" d="M318.9,395.7c-0.1-6.4-3.9-14.1-3.9-14.1L318.9,395.7z"></path>		<path class="st18" d="M318.9,395.7c-0.1-6.4-3.9-14.1-3.9-14.1"></path>		<path class="st15" d="M237.8,486.8l60.2-80.2c0.4-0.5,0.9-0.8,1.5-0.9c0.6-0.1,1.2,0,1.7,0.4l15.8,10.4c0.7,0.5,1.3,1.3,1.5,2.2   c0.2,0.9,0.1,1.8-0.3,2.6l-48.4,89.3L237.8,486.8z"></path>		<path class="st15" d="M252.4,520.7c11.1,0,20.2-9,20.2-20.2c0-11.1-9-20.2-20.2-20.2c-11.1,0-20.2,9-20.2,20.2   C232.3,511.6,241.3,520.7,252.4,520.7z"></path>		<path class="st15" d="M163,397.2c0,0,33.8,8.9,39.6,11.3c5.8,2.3,6.2,11.6,6.6,18.2c0.4,6.6-0.9,154.2-0.9,154.2l-74.8-2.9   l-55.9-32.7c0,0,2.4-117.1,3.2-122.5c0.8-5.4-5.3-10.1,1.3-12.8l42.3-11.2L163,397.2z"></path>		<path class="st16" d="M106.8,449.8l0.6,109L75.2,523l15.5-76.6L106.8,449.8z"></path>		<path class="st16" d="M118.9,400.4c0,0-4.8,9.6,0,16.3c4.8,6.6,23.9,13.1,37,12.9c13.1-0.2,20-12.7,14.1-30.1l-21.7-6.1l-23.9,5.4   L118.9,400.4z"></path>		<path class="st19" d="M173.1,317.5c0,0,9.4,20.3-0.6,24.5C162.4,346.2,163.6,318.5,173.1,317.5z"></path>		<path class="st14" d="M162.4,382.5l2.7,30.7c0,0,2.6,4.1-7.6,6.3c-6.5,1.4-24.2-5.6-27.6-7.6c-1.5-0.8-2.6-2-3.2-3.5   c-0.6-1.5-0.7-3.2-0.2-4.8c1-3.8,5.3-35.1,5.3-35.1L162.4,382.5z"></path>		<path class="st20" d="M163,388.5l-16.2-8l18.1,29L163,388.5z"></path>		<path class="st14" d="M167.6,323.4c0,0,9.5,23.9,13,40.6c3.5,16.9-2.1,21.1-9.4,23.6c-5.8,2-15,3.5-21.3,1.6   c-11.5-3.6-22.7-14-25.4-16.1c-4.2-3.3-8.3-18.2-2.2-26.7C128.4,338,152.4,311.4,167.6,323.4z"></path>		<path class="st21" d="M155.4,356.4c1.3-0.5,1.7-2.5,0.9-4.4c-0.8-1.9-2.4-3.1-3.7-2.6c-1.3,0.5-1.7,2.5-0.9,4.4   C152.5,355.7,154.1,356.9,155.4,356.4z"></path>		<path class="st21" d="M172.8,349.4c1.3-0.5,1.7-2.5,0.9-4.4c-0.8-1.9-2.4-3.1-3.7-2.6c-1.3,0.5-1.7,2.5-0.9,4.4   C169.9,348.7,171.5,349.9,172.8,349.4z"></path>		<path class="st17" d="M166.4,352.7c0,0-1.5,4.7,1.7,4.2c3.1-0.5,5.2,1,2.5,4.1"></path>		<path class="st18" d="M166.4,352.7c0,0-1.5,4.7,1.7,4.2c3.1-0.5,5.2,1,2.5,4.1"></path>		<path class="st22" d="M170.8,365.2L170.8,365.2L170.8,365.2c0.1,0,0.1,0,0.2,0c0,0,0.1,0,0.1,0.1c0,0,0.1,0.1,0.1,0.1   c0,0,0,0.1,0,0.1l0,0l0,0c-0.2,2-0.7,3.3-1.3,4c-0.6,0.7-1.3,0.9-2.2,0.8c-0.9-0.1-1.8-0.4-2.8-0.9c-0.9-0.5-1.8-1.1-2.4-1.6   c0,0-0.1-0.1-0.1-0.2c0-0.1,0-0.1,0-0.2c0-0.1,0-0.1,0.1-0.2c0,0,0.1-0.1,0.2-0.1l0,0l0,0C165.1,366.5,168.9,365.6,170.8,365.2z"></path>		<path class="st21" d="M144.4,348.2l0.2,0.3c0.3,0.5,0.8,0.9,1.4,1c0.6,0.2,1.2,0.1,1.7-0.2l8.8-5.4c0.4-0.2,0.8-0.6,0.9-1.1   c0.2-0.5,0.1-1-0.1-1.4c-0.1-0.3-0.3-0.5-0.5-0.8c-0.2-0.2-0.5-0.4-0.8-0.5c-0.3-0.1-0.6-0.1-0.9-0.1c-0.3,0-0.6,0.1-0.9,0.3   l-9,5.1c-0.2,0.1-0.5,0.3-0.7,0.5c-0.2,0.2-0.3,0.5-0.4,0.7c-0.1,0.3-0.1,0.5-0.1,0.8C144.1,347.7,144.2,347.9,144.4,348.2z"></path>		<path class="st21" d="M174.7,334.3l-10.3,1c-0.3,0-0.6,0.1-0.9,0.3c-0.3,0.2-0.5,0.4-0.7,0.6c-0.2,0.2-0.3,0.5-0.4,0.8   c-0.1,0.3-0.1,0.6,0,0.9c0.1,0.5,0.4,0.9,0.8,1.2c0.4,0.3,0.9,0.4,1.4,0.4L175,339c0.6,0,1.2-0.3,1.5-0.8c0.4-0.5,0.6-1,0.5-1.6   l0-0.4c0-0.3-0.1-0.5-0.2-0.8c-0.1-0.2-0.3-0.5-0.5-0.6c-0.2-0.2-0.5-0.3-0.7-0.4C175.3,334.3,175,334.3,174.7,334.3z"></path>		<path class="st19" d="M155.8,328.2c0,0-5.1,9.8-14.5,12.7c-9.3,2.9-4.2,17.6-4.2,17.6s-6.4-6.4-13.8-2.8   c-7.4,3.6-1.8,17.7,8.4,17.8l-2.8,15.8c0,0-5.1-6.4-10.6-9.8c-5.4-3.4-24.9-16.8-16.3-34.3c0,0-6.7-24.6,11.7-37.4   c18.4-12.8,34.4-8,34.4-8s4.4-7,14.6-5.6c10.2,1.4,12.5,19.8,9.2,26.5C168.6,327.4,163.1,330.2,155.8,328.2z"></path>		<path class="st15" d="M79,426.3c13-11.8,16.8-4.6,20.5-3.6c0,0,12.5,4.4,9.8,15.2c-2.9,11.4-34,85.1-34,85.1l-38.6-11.4l2.8-8.2   l7.3-21.2l7.8-22.7l0.8-2.7l9.5-29.9C65,426.9,72.2,432.7,79,426.3z"></path>		<path class="st15" d="M104.7,446.8c8.2-9.5,7.1-23.9-2.5-32.1c-9.5-8.2-23.9-7.1-32.1,2.5c-8.2,9.5-7.1,23.9,2.5,32.1   C82.1,457.5,96.5,456.4,104.7,446.8z"></path>		<path class="st15" d="M71.4,504.9l71.6,70.2c0.4,0.4,0.7,1,0.7,1.6c0,0.6-0.2,1.2-0.6,1.7l-12.4,14.3c-0.6,0.7-1.4,1.1-2.3,1.2   c-0.9,0.1-1.8-0.1-2.5-0.7l-82.2-59.7L71.4,504.9z"></path>		<path class="st15" d="M55.9,537.8c11.1,0,20.2-9,20.2-20.2s-9-20.2-20.2-20.2c-11.1,0-20.2,9-20.2,20.2S44.8,537.8,55.9,537.8z"></path>		<path class="st4" d="M172.4,491.4L133.6,599H55.4c0-3.3,1.3-6.4,3.6-8.8c2.3-2.3,5.5-3.6,8.8-3.6h56.5l33.6-95.3H172.4z"></path>					<linearGradient id="SVGID_00000124874199449955540350000010412046085607340702_" gradientUnits="userSpaceOnUse" x1="201.0136" y1="179.2871" x2="219.6496" y2="-50.1299" gradientTransform="matrix(1 0 0 -1 0 670.486)">			<stop offset="0" style="stop-color:#FFFFFF"></stop>			<stop offset="1" style="stop-color:#94B9FF"></stop>		</linearGradient>		<path style="fill:url(#SVGID_00000124874199449955540350000010412046085607340702_);" d="M172.4,491.4h104.8L236.7,599H133.6   L172.4,491.4z"></path>		<path class="st24" d="M318.8,140.3c0,0,17.5-3.7,23,4.8c5.5,8.5,11.1,24.5,23.6,22.4s22.2-43.8,34.7-43.4   c12.6,0.4,7,27.7,20.7,28.1c13.7,0.4,10.3-15.1,21.4-15.1c11.1,0,7.4,33.2,21.8,33.6c14.4,0.4,12.9-42.8,34.7-42.1"></path>		<path class="st7" d="M267.8,134.6c8.9-21.8,0.3-46-19.1-53.9s-42.4,3.4-51.3,25.2c-8.9,21.8-0.3,46,19.1,53.9   C235.9,167.7,258.9,156.4,267.8,134.6z"></path>		<path class="st8" d="M250.7,155.7c-10.3,6.8-22.8,8.7-34.2,4.1c-19.5-7.9-28-32.1-19.1-53.9c8.9-21.8,31.9-33.1,51.3-25.2"></path>		<path class="st10" d="M331.9,78.1h76.9"></path>		<path class="st25" d="M328.3,99.3h31.3"></path>		<path class="st26" d="M913.8,605.1c-0.2,0-0.3,0.1-0.2,0.2c-0.1,0.1-0.1,0.1-0.1,0.3c-0.5,1.5-0.8,3.1-1,4.7l19,15.2l2.1-2.4   c0,0-7-8.7-9.6-11.2c-1.1-1.1-2.1-2.1-3.1-3.1c-0.9-0.9-1.7-1.9-2.4-2.8c-1.1-1.5-4.1-0.9-4.2-1.1   C914.1,604.9,913.8,605.1,913.8,605.1z"></path>		<path class="st14" d="M770.4,472.6l18.3,17.7l102.4,98.9l1.9,1.7l0.8,1.3l0.1,0.1l14.5,22l1.6,2.5l0.5,0.8l9.8,15l-8.1,4l-2.3,1.2   l-3.3,1.6l-5.2,2.7l-0.1,0.1l-5.5,2.8l-0.3-0.4l-12.6-24.1c-2.4-4.7-5.9-8.7-10-11.9l-111.3-85.2l-21.2-16.2L770.4,472.6z"></path>		<path class="st27" d="M907,593.1c-4.9-2.3-10.4-4.3-15.8-4c3.2,2.8,4.7,7.9,6.9,11.6c4.4,7.6,15.7,21.7,9.9,33.7   c-3.2,6.7-12.3,10.3-12.5,10.2c-1.5,6.9-9.1,35.1,6,18.8c8.4-9.1,16.7-18.8,20.9-28.5c1.7-4-1.9-7.9-3.7-11.3   c-2.3-5.1-5.7-11.8-5.2-17.4l0.1-0.1c0.2-0.4,19.7,17,20,17.1c0.7-1.1,2.2-3.3,2.2-3.3S907.9,593.5,907,593.1z"></path>		<path class="st26" d="M697.5,685.2c-0.2-0.1-0.3-0.1-0.3,0c-0.2,0-0.2,0-0.3,0.2c-1.4,0.8-2.7,1.7-4,2.6l2.9,24.2l3.1-0.2   c0,0,1.1-11.1,0.9-14.7c0-1.6,0-3-0.1-4.4c0-1.3,0.2-2.6,0.2-3.7c0.3-1.8-2.3-3.5-2.2-3.7C697.9,685.3,697.5,685.2,697.5,685.2z"></path>		<path class="st14" d="M687.6,490.3l0.7,25.5l4,142.3l0.1,2.5l-0.3,1.5l0,0.2l-5,25.8l-0.6,2.9l-0.2,1l-3.5,17.6l-8.6-2.8l-2.5-0.8   l-3.5-1.2l-5.6-1.7l-0.2,0l-5.9-1.8l0.1-0.5l7.8-26c1.5-5,1.9-10.3,1.2-15.5l-20-138.8L642,494L687.6,490.3z"></path>		<path class="st27" d="M701,671.9c-1.9-5.1-4.4-10.4-8.5-13.9c0.3,4.3-2.1,9-3.2,13.1c-2.2,8.5-3.9,26.5-16.4,31   c-7,2.5-16-1.3-16-1.4c-5.9,3.9-31,18.7-8.8,17.6c12.4-0.6,25.1-1.8,34.9-5.8c4-1.6,4.2-7,5.2-10.6c1.9-5.2,4.2-12.4,8.4-16.1   l0.2,0c0.4-0.1,2.2,25.9,2.4,26.2c1.2-0.3,3.9-0.8,3.9-0.8S701.4,672.8,701,671.9z"></path>		<path class="st28" d="M660.1,299.1l-36.2,152.8l-0.1,10.8l29.4,181l46.9-5.1l-13.6-172.8l37.3-90.2l-7.5-73.9L660.1,299.1z"></path>		<path class="st28" d="M655,489.1c17.5,0,31.6-14.2,31.6-31.6c0-17.5-14.2-31.6-31.6-31.6c-17.5,0-31.6,14.2-31.6,31.6   C623.3,474.9,637.5,489.1,655,489.1z"></path>		<path class="st29" d="M698.4,437.1l-8.9-75.5l-3,104.2L698.4,437.1z"></path>		<path class="st28" d="M757.7,298.6c0,0,16.9,28.3,17.1,52.1c0.3,35.6-12.5,99.5-12.5,99.5l112.2,113.4l-26.7,40   c0,0-95.7-79.4-136.2-117.2l-9.1-18.4l-13.1-106.5l20-63H757.7z"></path>		<path class="st29" d="M660.1,299.1l98.3,1l9.5,19.8l-109.5-13.8L660.1,299.1z"></path>		<path class="st28" d="M733.9,495.7c17.5,0,31.6-14.2,31.6-31.6c0-17.5-14.2-31.6-31.6-31.6c-17.5,0-31.6,14.2-31.6,31.6   C702.2,481.5,716.4,495.7,733.9,495.7z"></path>		<path class="st28" d="M648.6,89.1c0,0,1.3,14.7-2.6,28.8c-3.9,14.1-33.2,44-7.2,68.4c26,24.4,57.9-41,57.9-41l-10-30.2l-34.5-35.9   L648.6,89.1z"></path>		<path class="st28" d="M728,92.6c0,0,7.8,9.9,25.6,18c17.5,8,36.3,21,32.4,49.6c-3.9,28.5-55.5,6.4-70.7-10   c-15.2-16.3-13.1-45.5-13.1-45.5L728,92.6z"></path>		<path class="st6" d="M688.1,146c0,0-19.8,7.8-22.8,10.3c-3,2.4-5.9,22.2-11,31.5c-5.1,9.4-12.7,26.7-1.7,42.6   c11,15.9,9.8,28.5,9.8,28.5l-2.3,39.9l94.7,1.7c0.8,0,1.7-0.1,2.4-0.4c0.8-0.3,1.5-0.8,2-1.4c0.6-0.6,1-1.3,1.3-2.1   c0.3-0.8,0.4-1.6,0.3-2.5c-1-11.6-5.9-28-6.2-46.5c-0.5-25.1-0.9-108.9-0.9-108.9l-41.2-1.3C704,138.8,688.1,146,688.1,146z"></path>		<path class="st20" d="M737.4,173c0,0-13.8,12.6-14.6,21.9c-0.8,9.3-2.7,35.4-20.4,38c-21.7,3.2-27.4,6.3-17.3,8.7   c10.1,2.4,32.9-1.5,32.9,8.9c0,7.4,8.9,13,13.3,8.9C735.7,255.3,771.3,193.7,737.4,173z"></path>		<path class="st14" d="M571,183.5l-7.5-9.6c-1.6-2.2-3.6-4.1-6.1-5.3c-3.7-1.8-9.3-5.3-11.3-8.7c-3.2-5.5-16.1-20.2-4.9-31.7   c4.1-4.2,3.1-3.2,11.3-3.1c8.2,0.1,9.5,8.7,13.6,14.2c0,0,0.9-6.4,5.5-9.4c4.5-2.9,1.5,15,5,21.8c3.5,6.8,0.7,9.4,8.9,21.4   L571,183.5z"></path>		<path class="st17" d="M551.2,126.1l6.7,15.2L551.2,126.1z"></path>		<path class="st18" d="M551.2,126.1l6.7,15.2"></path>		<path class="st17" d="M542.5,128.8l9.3,16.1L542.5,128.8z"></path>		<path class="st18" d="M542.5,128.8l9.3,16.1"></path>		<path class="st17" d="M537,139.4l7.3,9.6L537,139.4z"></path>		<path class="st18" d="M537,139.4l7.3,9.6"></path>		<path class="st17" d="M564.3,142.8c0,0-2.8,8.1-2.3,14.5L564.3,142.8z"></path>		<path class="st18" d="M564.3,142.8c0,0-2.8,8.1-2.3,14.5"></path>		<path class="st6" d="M670,153.6c-7.7,2.7-18.4,8.1-21.3,14.1L623.2,226l-42.6-64.8l-16.1,17l39.8,82.3   c7.3,18.1,25.8,24.9,39.1,5.4l21.4-33.6L670,153.6z"></path>		<path class="st20" d="M659.1,203.8c0,0-2.3-4-2.3,16.8L643.3,266l21.4-33.6C681.9,209.3,668.3,203.2,659.1,203.8z"></path>		<path class="st27" d="M706.1,176.3l-70.7,28.2c-2.2,0.9-3.3,3.4-2.4,5.6l35.4,88.8c0.9,2.2,3.4,3.3,5.6,2.4l70.7-28.2   c2.2-0.9,3.3-3.4,2.4-5.6l-35.4-88.8C710.7,176.5,708.2,175.4,706.1,176.3z"></path>		<path class="st30" d="M646.1,212.8l29.2-11.6"></path>		<path class="st30" d="M650.5,223.3l13.3-5.3"></path>		<path class="st14" d="M685.6,125.1l1.1,31.2c0,0-1.5,6.8,5.5,6.1c7-0.8,16.4-6.3,21.7-12.3c5.3-6.1,4.9-6.5,2.7-10.5   c-2.3-4-12.9-34.3-12.9-34.3L685.6,125.1z"></path>		<path class="st31" d="M685.7,127.7l12.9-8.2c0,0-5.7,25.1-12,36.8L685.7,127.7z"></path>		<path class="st14" d="M650.9,78.5c0,0-0.2,31,13.2,46.6c8.7,10.2,17.9,8.8,33.2-7.9c14-15.4,16-23.4,16-23.4l-9.7-30.4   C703.6,63.3,652.5,50.2,650.9,78.5z"></path>		<path class="st28" d="M664.2,71.3c0,0,5.6,13.6,16,17.4c10.4,3.8,13.1,10.9,13.1,10.9s2-11.6,10.2-11.2s6.5,14.9,1.4,19.7   c0,0,6.1,11.3,11.3,19.7l22.7-22.5c0,0-11.7-13.5-14.3-24.4c-2.6-10.9-10.9-40-42.6-38.1C644.9,45,647,75.3,648.6,92.1   C648.6,92.1,660.3,87.6,664.2,71.3z"></path>		<path class="st22" d="M668.2,115.5l9-4.4c0,0.1,0,0.1,0,0.2c0.1,0.5,0.1,1.1,0,1.8c-0.3,1.4-1.1,3.1-3.7,4.2   c-1.7,0.5-3.1,0-4.1-0.7C669,116.2,668.6,115.8,668.2,115.5C668.3,115.5,668.2,115.5,668.2,115.5z"></path>		<path class="st21" d="M658.4,102.9c1.1-0.3,1.7-1.9,1.3-3.6s-1.7-2.8-2.8-2.5c-1.1,0.3-1.7,1.9-1.3,3.6   C656,102,657.2,103.2,658.4,102.9z"></path>		<path class="st21" d="M675.3,99c1.1-0.3,1.7-1.9,1.3-3.6c-0.4-1.7-1.7-2.8-2.8-2.5c-1.1,0.3-1.7,1.9-1.3,3.6   C672.9,98.1,674.2,99.2,675.3,99z"></path>		<path class="st21" d="M651.8,93.8l8.6-2c0.1,0,0.3-0.1,0.3-0.3c0.1-0.1,0.1-0.3,0.1-0.4c-0.1-0.3-0.2-0.5-0.4-0.7   c-0.2-0.2-0.4-0.4-0.7-0.5c-0.2-0.1-0.5-0.2-0.8-0.2c-0.3,0-0.5,0.1-0.8,0.2l-6.8,2.9C650.8,93,651.1,94,651.8,93.8z"></path>		<path class="st21" d="M680.8,86.1l-11.2,3.5c-0.1-0.4-0.1-0.7,0-1.1c0.1-0.4,0.2-0.7,0.4-1c0.2-0.3,0.5-0.5,0.8-0.7s0.7-0.3,1-0.3   l9-1.2C681,85.3,681.2,86,680.8,86.1z"></path>		<path class="st17" d="M664.4,97.3l-1.2,9.1l3.2,1.6"></path>		<path class="st18" d="M664.4,97.3l-1.2,9.1l3.2,1.6"></path>		<path class="st14" d="M673,256.8l-27.9,8l-3.4,17.2l6.3,19c0,0,4.5-3,3.5-10c-0.9-7,22.6-6.8,26.9-15.6"></path>		<path class="st6" d="M736.7,162.1c0,0-0.2-23.6,18.7-23.6c12.7,0,18.8,5.9,20.4,24.5c1.1,13,1.9,84.2,1.9,84.2s3.2,32.5-24.4,33.1   l-79.6-2.4l-1.8-22.2l69.4-6.9L736.7,162.1z"></path>		<path class="st6" d="M679.1,159.2c0,0,7.2-2,6-9.1c-1.1-6.9-1.2-13,1.1-12.1c0,0,2,3.4,14.5-0.4c12.4-3.7,11.6-7.9,11.6-7.9   s1.8-1.6,3.1,2.4c1.3,4,4.6,15.1,11.7,14.3L729,167l-37.4,12.3C691.5,179.4,674.2,162.7,679.1,159.2z"></path>		<path class="st24" d="M374.2,570.6h23.5"></path>		<path class="st32" d="M379,580.8h11.8"></path>		<path class="st33" d="M358.5,550.2l18-12.6l12.7,8.5l16.9-12.3"></path>		<path class="st33" d="M393.2,528.5h18v17.8"></path>		<path class="st20" d="M623.1,226l12,17.8l-6.4-30.4L623.1,226z"></path>	</g></g></svg>