<svg xmlns="http://www.w3.org/2000/svg" xmlns:xlink="http://www.w3.org/1999/xlink" id="Layer_1" x="0px" y="0px" viewBox="0 0 373.7 266.3" style="enable-background:new 0 0 373.7 266.3;" xml:space="preserve"><style type="text/css">	.st0{fill:#F15A29;}	.st1{fill:#92278F;}	.st2{fill:#FFFFFF;}	.st3{fill:#606060;}	.st4{fill:#383097;}	.st5{fill:url(#SVGID_1_);}	.st6{fill:#CCCCCC;}	.st7{fill:#F2F2F2;}	.st8{fill:#56403D;}	.st9{fill:#AB643C;}	.st10{fill:#974C26;}	.st11{fill:#81278F;}	.st12{fill:#999A1C;}	.st13{fill:#E88831;}	.st14{fill:#7ACC92;}	.st15{fill:#A94519;}	.st16{fill:#993419;}</style><g>	<g id="Layer_2_00000038378097585379751140000014235107969033950630_">		<path class="st0" d="M192.4,263.4l174.1-102.9c5.5-3.1,10.3-8.2,4.9-11.6L196.7,48.3c-2.6-1.6-6.6-2.7-9.3-1.1L4.7,153.2   c-5.5,3.2-6.5,12.2-1,15.4l165.8,94.6C176.5,267.3,185.2,267.4,192.4,263.4z"></path>		<path class="st1" d="M303.6,119.9l42.4,26.3c1.2,0.8,1.6,2.4,0.9,3.6c-0.2,0.4-0.6,0.7-0.9,0.9l-64.4,36.4c-1.8,1-4.1,1-5.9,0   l-42.2-24.8c-3-2.5-2.2-6.3,0-7.5l64-35C299.3,118.7,301.7,118.7,303.6,119.9z"></path>		<path class="st2" d="M303.6,118.1l42.4,26.3c1.2,0.8,1.6,2.4,0.9,3.6c-0.2,0.4-0.6,0.7-0.9,0.9l-64.4,36.4c-1.8,1-4.1,1-5.9,0   l-42.2-24.8c-1.6-0.9-2.1-2.9-1.2-4.5c0.3-0.5,0.7-0.9,1.2-1.2l64-36.8C299.3,116.9,301.7,116.9,303.6,118.1z"></path>		<polygon class="st3" points="300.8,119.5 343.4,146.3 279.6,182.8 235.6,156.9   "></polygon>		<ellipse class="st4" cx="254.8" cy="170.9" rx="1.5" ry="0.7"></ellipse>					<linearGradient id="SVGID_1_" gradientUnits="userSpaceOnUse" x1="289.9184" y1="120.0334" x2="283.5384" y2="110.6333" gradientTransform="matrix(1.015 0 0 -1.015 11.5822 273.3144)">			<stop offset="1.000000e-02" style="stop-color:#4D4D4D"></stop>			<stop offset="1" style="stop-color:#FFFFFF"></stop>		</linearGradient>		<path class="st5" d="M302.3,164c0,0,5.6-10.3,5.6-10.4l-1-0.5l-11.8,6.8L302.3,164z"></path>		<path class="st6" d="M352.2,125.9c0-0.1,0-0.1,0-0.2c-0.6-0.3-1.2-0.5-1.8-0.6l-39.6,23.6c0,0-2.4,1.9,2,4.4l40.2-23.9   C352.9,128,352.7,126.9,352.2,125.9z"></path>		<path class="st6" d="M310.7,148.7c0,0-4.6,5.2-4.7,5.5s6.7-1.1,6.7-1.1"></path>		<ellipse transform="matrix(0.866 -0.5 0.5 0.866 -16.4264 192.8337)" class="st7" cx="351.6" cy="127.1" rx="1.5" ry="2.4"></ellipse>		<path class="st8" d="M152.1,115.7l16.6,8c1.9,0.9,2.7,3.2,1.8,5.1c-0.3,0.7-0.9,1.3-1.5,1.6l-39.4,23c-1.8,1-4,0.5-5.1-1.2   l-9.6-14.9"></path>		<path class="st1" d="M61.7,77.2L194.3,0.8c2.9-1.7,6.5-0.7,8.2,2.2c0.5,0.9,0.8,2,0.8,3v79.5c0,1.8-0.9,3.4-2.5,4.3L59.4,171.4   c-1.5,0.9-3.5,0.4-4.4-1.2c-0.3-0.5-0.4-1-0.4-1.6V89.4C54.6,84.4,57.3,79.7,61.7,77.2z"></path>		<path class="st2" d="M194.3,6.8l-128.6,74c-2.8,1.6-4.5,4.6-4.5,7.8v59.6c0,1.8,1.5,3.3,3.3,3.2c0.6,0,1.1-0.1,1.6-0.4l131.1-75.3   c1-0.6,1.6-1.6,1.6-2.8V9.5c0-1.7-1.4-3-3.1-3C195.2,6.4,194.7,6.6,194.3,6.8z"></path>		<ellipse transform="matrix(0.1891 -0.982 0.982 0.1891 0.2234 232.3185)" class="st9" cx="140.8" cy="116" rx="3.2" ry="2.8"></ellipse>		<path class="st10" d="M200.8,150.1l34.7,19.8c1.1,0.7,1.5,2.1,0.9,3.3c-0.2,0.4-0.5,0.7-0.9,0.9l-96.4,55.4   c-2.4,1.4-5.3,1.4-7.7,0L99,210.7c-1.2-0.7-1.6-2.2-0.9-3.4c0.2-0.4,0.5-0.7,0.9-0.9l97.5-56.3   C197.8,149.3,199.5,149.3,200.8,150.1z"></path>		<path class="st2" d="M148.4,181.7l9.9,5.9l-7.3,4.3c-2-1.2-8-4.7-9.9-5.8L148.4,181.7z"></path>		<path class="st2" d="M159.2,175.4l9.9,5.9l-9.3,5.4c-1.6-0.9-7.6-4.5-9.9-5.8L159.2,175.4z"></path>		<path class="st2" d="M198.7,152.5l10.1,5.8l-9,5.2c-1.4-0.8-7.5-4.4-9.9-5.8L198.7,152.5z"></path>		<path class="st2" d="M177.5,164.8l9.9,5.9l-7.3,4.3c-1.7-1-7.7-4.5-9.9-5.8L177.5,164.8z"></path>		<path class="st2" d="M188.3,158.5l9.9,5.9l-9.3,5.4c-1.1-0.6-7.3-4.3-9.9-5.8L188.3,158.5z"></path>		<path class="st2" d="M139.5,186.8l9.9,5.9l-7,4.1c-2.1-1.2-8.1-4.7-9.9-5.8L139.5,186.8z"></path>		<path class="st2" d="M168.6,170l9.9,5.9l-7.8,4.5c-1.8-1-7.8-4.6-9.9-5.8L168.6,170z"></path>		<path class="st2" d="M130.9,191.8l9.9,5.9l-9.3,5.4c-1.9-1.1-7.9-4.6-9.9-5.8L130.9,191.8z"></path>		<polygon class="st2" points="120.1,198.1 130,204 113.3,213.7 103.2,207.9   "></polygon>		<path class="st2" d="M210,160l10.1,5.8l-13,7.6c-1.7-1-7.7-4.5-9.9-5.8L210,160z"></path>		<path class="st2" d="M184.8,174.6l9.9,5.9l-7.3,4.3c-2-1.1-7.9-4.6-9.9-5.8L184.8,174.6z"></path>		<path class="st2" d="M166.6,185.2l9.9,5.9l-9.3,5.4c-1.9-1.1-7.8-4.6-9.9-5.8L166.6,185.2z"></path>		<path class="st2" d="M175.9,179.8l9.9,5.9l-7.8,4.5c-2-1.2-8-4.7-9.9-5.8L175.9,179.8z"></path>		<path class="st2" d="M155.7,191.5l9.9,5.9l-7.3,4.3c-2.3-1.3-8.3-4.9-9.9-5.8L155.7,191.5z"></path>		<path class="st2" d="M146.8,196.7l9.9,5.9l-7,4.1c-2.3-1.3-8.3-4.9-9.9-5.8L146.8,196.7z"></path>		<path class="st2" d="M195.6,168.3l9.9,5.9l-9.3,5.4c-1.5-0.9-7.5-4.4-9.9-5.8L195.6,168.3z"></path>		<path class="st2" d="M138.2,201.7l9.9,5.9l-9.3,5.4c-2.2-1.3-8.1-4.8-9.9-5.8L138.2,201.7z"></path>		<polygon class="st2" points="137.3,213.8 124.6,221.2 114.6,215.4 127.4,208   "></polygon>		<polygon class="st2" points="144.7,212.8 152,217.2 143.5,222.2 136,217.9   "></polygon>		<polygon class="st2" points="141.7,223.2 134.5,227.4 127,223.1 134.4,218.8   "></polygon>		<polygon class="st2" points="222.4,167.7 230.1,172 221.4,177 213.8,172.7   "></polygon>		<polygon class="st2" points="212.2,173.6 219.6,178 210.3,183.5 202.7,179.1   "></polygon>		<polygon class="st2" points="201.1,180.1 208.5,184.5 153.8,216.2 146.3,211.9   "></polygon>		<ellipse class="st1" cx="237" cy="89.8" rx="13.1" ry="9.3"></ellipse>		<ellipse class="st11" cx="237" cy="84.3" rx="9.8" ry="4"></ellipse>		<path class="st12" d="M237.7,84.4c0.8-1.1,1.6-2.2,2.4-3.5c1-1.6,2-3.3,2.9-5c0.8-1.5,1.5-3.1,2.1-4.8c0.6-1.8,1.2-3.6,1.6-5.5   c0.1-0.5,0.2-1,0.3-1.5c0-0.2,0-0.2,0-0.2s0-0.2,0-0.4c0.1-1,0.2-2,0.2-3c0-3.5-0.6-6.9-2-10.1c-3.6,5.2-5.9,11-7,17.2   c-0.1,0.4-0.1,0.7-0.2,1.1c-0.1,0.6-0.1,0.7-0.1,0.9l-0.1,0.9c0,0.5-0.1,0.9-0.1,1.4c-0.1,1.8-0.2,3.6-0.2,5.5   C237.4,79.9,237.5,82.2,237.7,84.4z M241.8,57.3c0.2-0.3,0.5-0.5,0.7-0.8l0,0c-0.1,0.2-0.1,0.5,0,0.7   C242.3,57.2,242.1,57.2,241.8,57.3L241.8,57.3z"></path>		<path class="st12" d="M237.9,84.6c0.1-1.3,0.1-2.7,0.1-4.2c0-1.9-0.1-3.9-0.3-5.8c-0.1-1.7-0.4-3.5-0.8-5.1   c-0.4-1.8-1-3.7-1.6-5.4c-0.2-0.5-0.4-0.9-0.6-1.4c-0.1-0.2-0.1-0.2-0.1-0.2l-0.2-0.4c-0.5-0.9-0.9-1.8-1.5-2.6   c-1.8-2.9-4.3-5.5-7.1-7.4c-0.2,6.3,0.9,12.5,3.4,18.3c0.1,0.3,0.3,0.7,0.4,1l0.4,0.9l0.4,0.8c0.2,0.4,0.4,0.8,0.6,1.3   c0.9,1.6,1.8,3.2,2.8,4.7C235.2,80.9,236.5,82.8,237.9,84.6z M226.8,59.5c0.1-0.4,0.1-0.7,0.2-1l0,0c0.1,0.2,0.2,0.4,0.3,0.6   C227.1,59.2,226.9,59.3,226.8,59.5L226.8,59.5z"></path>		<path class="st12" d="M238,85.3c-0.4-0.7-0.8-1.5-1.3-2.3c-0.6-1-1.3-2-2-3c-0.6-0.9-1.3-1.7-2.1-2.5c-0.8-0.9-1.7-1.7-2.6-2.4   l-0.7-0.6c-0.1-0.1-0.1-0.1-0.1-0.1l-0.2-0.1c-0.5-0.3-1.1-0.6-1.6-0.9c-1.9-1-4-1.6-6.2-1.7c1.9,3.4,4.5,6.4,7.7,8.8l0.6,0.4   l0.5,0.3l0.5,0.3l0.8,0.5c1,0.6,2,1.1,3,1.6C235.3,84.2,236.6,84.8,238,85.3z M223.8,75.3c-0.1-0.2-0.2-0.4-0.2-0.6l0,0   c0.1,0.1,0.2,0.2,0.4,0.2C223.9,75.1,223.9,75.2,223.8,75.3z"></path>		<path class="st12" d="M237.7,84.4c0.8-1.1,1.6-2.2,2.4-3.5c1-1.6,2-3.3,2.9-5c0.8-1.5,1.5-3.1,2.1-4.8c0.6-1.8,1.2-3.6,1.6-5.5   c0.1-0.5,0.2-1,0.3-1.5c0-0.2,0-0.2,0-0.2s0-0.2,0-0.4c0.1-1,0.2-2,0.2-3c0-3.5-0.6-6.9-2-10.1c-3.6,5.2-5.9,11-7,17.2   c-0.1,0.4-0.1,0.7-0.2,1.1c-0.1,0.6-0.1,0.7-0.1,0.9l-0.1,0.9c0,0.5-0.1,0.9-0.1,1.4c-0.1,1.8-0.2,3.6-0.2,5.5   C237.4,79.9,237.5,82.2,237.7,84.4z M241.8,57.3c0.2-0.3,0.5-0.5,0.7-0.8l0,0c-0.1,0.2-0.1,0.5,0,0.7   C242.3,57.2,242.1,57.2,241.8,57.3L241.8,57.3z"></path>		<path class="st12" d="M237.9,84.6c0.1-1.3,0.1-2.7,0.1-4.2c0-1.9-0.1-3.9-0.3-5.8c-0.1-1.7-0.4-3.5-0.8-5.1   c-0.4-1.8-1-3.7-1.6-5.4c-0.2-0.5-0.4-0.9-0.6-1.4c-0.1-0.2-0.1-0.2-0.1-0.2l-0.2-0.4c-0.5-0.9-0.9-1.8-1.5-2.6   c-1.8-2.9-4.3-5.5-7.1-7.4c-0.2,6.3,0.9,12.5,3.4,18.3c0.1,0.3,0.3,0.7,0.4,1l0.4,0.9l0.4,0.8c0.2,0.4,0.4,0.8,0.6,1.3   c0.9,1.6,1.8,3.2,2.8,4.7C235.2,80.9,236.5,82.8,237.9,84.6z M226.8,59.5c0.1-0.4,0.1-0.7,0.2-1l0,0c0.1,0.2,0.2,0.4,0.3,0.6   C227.1,59.2,226.9,59.3,226.8,59.5L226.8,59.5z"></path>		<path class="st12" d="M238,85.3c-0.4-0.7-0.8-1.5-1.3-2.3c-0.6-1-1.3-2-2-3c-0.6-0.9-1.3-1.7-2.1-2.5c-0.8-0.9-1.7-1.7-2.6-2.4   l-0.7-0.6c-0.1-0.1-0.1-0.1-0.1-0.1l-0.2-0.1c-0.5-0.3-1.1-0.6-1.6-0.9c-1.9-1-4-1.6-6.2-1.7c1.9,3.4,4.5,6.4,7.7,8.8l0.6,0.4   l0.5,0.3l0.5,0.3l0.8,0.5c1,0.6,2,1.1,3,1.6C235.3,84.2,236.6,84.8,238,85.3z M223.8,75.3c-0.1-0.2-0.2-0.4-0.2-0.6l0,0   c0.1,0.1,0.2,0.2,0.4,0.2C223.9,75.1,223.9,75.2,223.8,75.3z"></path>		<polygon class="st13" points="89.1,124.9 136,100 107.9,73.1   "></polygon>		<circle class="st14" cx="172.5" cy="48.2" r="17.8"></circle>		<path class="st8" d="M79.3,89.9c-2.8-1.6-5.4,2.8-2.6,4.4c8.8,5.1,1.8,16.1-4.8,19.3c-2.9,1.4-0.4,5.8,2.6,4.4   C84.7,113,91.4,96.8,79.3,89.9z"></path>		<path class="st8" d="M160.5,77.5c-2.7-12.6-19.7-4.9-16.7,6.6c1.3,5,6.7,7.8,11.3,5.4C159.3,87,161.4,82.2,160.5,77.5z    M155.6,80.6c-0.2,1.9-1.4,3.6-3.1,4.4c-3.9,1.5-3.8-3.4-2.8-5.8C151.3,74.9,156.4,75.4,155.6,80.6L155.6,80.6z"></path>		<path class="st1" d="M152.6,239.6c0.2-1.3,1.1-2.5,2.3-3l7.4-4.2l11.4-6.6l13.6-7.9l14.5-8.4l14-8.1l12.2-7l9-5.2l4.7-2.7   c0,0.1,0.2,0.1,0.3,0.1c1.8-0.4,3.6,0.7,4.1,2.5c0.1,0.5,0.1,1.1,0,1.6c-0.5,2.1-2.4,4-4.1,5.3c-5.5,3.9-11.2,7.5-17.2,10.8v-2.1   c4-2.2,12.6-7.1,16.2-10.9l-1.7,1l-4.8,2.8l-7.2,4.2l-8.9,5.2l-10.1,6l-10.6,6.2l-10.5,6.1l-9.8,5.7l-8.4,4.9l-6.5,3.8   c-2,1.2-4.1,2.7-6.4,3.2c-1.7,0.1-3.2-1.2-3.4-2.9C152.6,239.7,152.6,239.7,152.6,239.6z"></path>		<polyline class="st15" points="208.7,124.9 208.7,132 230.6,145.6 256.9,129.5 256.9,123.5   "></polyline>		<polygon class="st16" points="256.9,123.5 234.6,110.1 208.7,124.9 231,138.5   "></polygon>	</g></g></svg>