<svg xmlns="http://www.w3.org/2000/svg" xmlns:xlink="http://www.w3.org/1999/xlink" id="Layer_1" x="0px" y="0px" viewBox="0 0 1007 711" style="enable-background:new 0 0 1007 711;" xml:space="preserve"><style type="text/css">	.st0{fill:#1C85E8;}	.st1{fill:none;stroke:#FFFFFF;stroke-width:7.4328;stroke-linecap:round;stroke-miterlimit:10;}			.st2{opacity:0.4;fill:none;stroke:#FFFFFF;stroke-width:7.4328;stroke-linecap:round;stroke-miterlimit:10;enable-background:new    ;}	.st3{fill:none;stroke:#FFFFFF;stroke-width:4;stroke-linecap:round;stroke-miterlimit:10;}	.st4{opacity:0.4;fill:none;stroke:#FFFFFF;stroke-width:4;stroke-linecap:round;stroke-miterlimit:10;enable-background:new    ;}	.st5{fill:#5661AE;}	.st6{fill:#BC775C;}	.st7{fill:#93523E;stroke:#93523E;}	.st8{fill:#493212;}	.st9{fill:#080B09;}	.st10{fill:none;stroke:#93523E;stroke-width:1.5154;stroke-linecap:round;}	.st11{fill:#FFFFFF;}	.st12{fill:#FEBB94;}	.st13{fill:#FFCCB3;}	.st14{fill:#FF967C;}	.st15{fill:#465393;}	.st16{fill:#E56441;stroke:#E56441;}	.st17{fill:none;stroke:#E56441;stroke-width:1.6669;stroke-linecap:round;}	.st18{fill:#1F2D49;}	.st19{fill:#0D1B33;}	.st20{fill:none;stroke:#FF967C;stroke-width:3;stroke-miterlimit:10;}	.st21{fill:none;stroke:#FF967C;stroke-width:2.8932;stroke-linecap:round;stroke-linejoin:round;}	.st22{fill:url(#SVGID_1_);}	.st23{fill:#96BAFD;}	.st24{fill:#5CA4E6;}	.st25{fill:#E7EFFF;}	.st26{fill:#B2CDFF;}	.st27{fill:none;stroke:#FF967C;stroke-width:2.099;stroke-linecap:round;stroke-linejoin:round;}	.st28{fill:#93523E;}	.st29{fill:none;stroke:#FFFFFF;stroke-miterlimit:10;}	.st30{fill:none;stroke:#1C85E8;stroke-width:3.8163;stroke-linecap:round;stroke-miterlimit:10;}			.st31{opacity:0.4;fill:none;stroke:#1C85E8;stroke-width:3.8163;stroke-linecap:round;stroke-miterlimit:10;enable-background:new    ;}	.st32{opacity:0.4;fill:#1C85E8;enable-background:new    ;}	.st33{opacity:0.6;}	.st34{opacity:0.6;fill:#FFFFFF;enable-background:new    ;}	.st35{fill:none;stroke:#5CA4E6;stroke-miterlimit:10;}	.st36{fill:url(#SVGID_00000034780652612888980340000012365980709825477544_);}	.st37{opacity:0.4;fill:#FFFFFF;enable-background:new    ;}	.st38{fill:none;stroke:#FFFFFF;stroke-width:16.3488;stroke-linecap:round;stroke-miterlimit:10;}			.st39{opacity:0.4;fill:none;stroke:#FFFFFF;stroke-width:16.3488;stroke-linecap:round;stroke-miterlimit:10;enable-background:new    ;}	.st40{fill:#F4608A;}	.st41{fill:none;stroke:#FFFFFF;stroke-width:15;stroke-linecap:round;stroke-miterlimit:10;}	.st42{fill:none;stroke:#96BAFD;stroke-width:15;stroke-linecap:round;stroke-linejoin:round;}	.st43{fill:none;stroke:#FEBB94;stroke-width:15;stroke-linecap:round;stroke-linejoin:round;}</style><path class="st0" d="M817.3,0H715.4C708.5,0,703,5.6,703,12.4v110.4c0,6.9,5.6,12.4,12.4,12.4h101.9c6.9,0,12.4-5.6,12.4-12.4V12.4 C829.8,5.6,824.2,0,817.3,0z"></path><path class="st1" d="M718.4,101.7h32.7"></path><path class="st2" d="M718.4,116.9h67.5"></path><path class="st3" d="M719.1,38.3H736c1.2,0,2.5,0.3,3.5,0.9c1.1,0.6,2,1.5,2.6,2.6l16.4,28c0.6,1.1,1.6,2,2.7,2.6 c1.1,0.6,2.4,0.9,3.6,0.9c1.3,0,2.5-0.4,3.6-1.1c1.1-0.7,2-1.6,2.5-2.8l10.1-19.6c0.6-1.2,1.5-2.1,2.6-2.8c1.1-0.7,2.4-1,3.7-1.1 l29.7-0.3"></path><path class="st4" d="M719.1,68.4h8.3c1.9,0,3.7-0.7,5-2.1l38.4-38.2c1.3-1.3,3.1-2.1,5-2.1h11.2c1.6,0,3.2,0.5,4.4,1.5 c1.3,1,2.1,2.4,2.5,4l5.9,25.4c0.4,1.6,1.2,3,2.5,4c1.3,1,2.8,1.5,4.4,1.5H817"></path><path class="st5" d="M962.6,673.4c0,0-3.7,37.6-68.5,37.6h-75.9l100.7-78.3L962.6,673.4z"></path><path class="st5" d="M811.9,237.8l178.3,39.5c1.6,0.3,3.1,1,4.5,1.9c4.9,3.3,13.7,12.8,12.1,38.8c-2.3,34.7-44.2,355.5-44.2,355.5 L791.4,525.2L811.9,237.8z"></path><path class="st0" d="M792.9,236.7l179.6,39.8c0,0,15.4,5.6,15.2,40.4c-0.2,34.8-44.2,355.5-44.2,355.5L772.3,524.1L792.9,236.7z"></path><path class="st6" d="M795.8,255.1c0,0,3.2,45.8,4.5,53c2.4,12.7,58.3-14,54.2-25.3c-2.1-5.9-11.8-61.8-11.8-61.8L795.8,255.1z"></path><path class="st7" d="M800.7,306.3l-4.8-46.9h28.3L800.7,306.3z"></path><path class="st6" d="M866.8,211.2c2.2-23.1-24-18.1-28.5-17c-4.5,1-11.5-33.1-11.5-33.1s-51.6-9.2-62.6,0c0,0-6.9,43.1-8.1,70.6 c-1.1,27.6,6.6,39.9,16.7,40.9c13.8,2.5,30.1-0.3,40.5-6.4c18.5-10.9,26.5-30.7,26.5-30.7c0.3-0.2,0.5-0.2,0.5-0.2 S864.7,232.9,866.8,211.2z"></path><path class="st8" d="M762.7,230.7c4.4-2.8,15.7-2.6,20.3-1.7c8.7,1.7,11.4,2.8,12.3,4.9c1,2,1.2,4.3-2.5,2.8c-3.6-1.4-11.2-4-18-3.9 c-3.1,0.3-6.3,0.9-9.3,1.7C762,235.6,758.7,233.3,762.7,230.7z"></path><path class="st8" d="M759.6,202.6c0,0,2.9-25.8,3.3-32.9c0.5-10.3,8-7,13.4,0.2c7.7,10.7,22.5,10,34.9,6.7c10.9-2.7,11.1-2,12,9.5 c1,11.5,4.7,32.9,8.2,27.7c4.3-6.7,7.3-13,14.9-17c10.4-5.5,21,4.7,18.5,12.6c-2.5,7.9-8.3,17-21.4,24.4l6.4,29.6 c32.4-44.9,44.6-106.6,0.7-120.8c-16.4-5.3-33.4-39.9-65.2-32c-22.5,5.6-22.5,23.6-24.1,39.3C731.1,151,759.6,202.6,759.6,202.6z"></path><path class="st9" d="M798.4,211.1c0.6-3.3-0.6-6.2-2.8-6.7c-2.1-0.4-4.4,1.9-5,5.2c-0.6,3.3,0.6,6.2,2.8,6.7 C795.5,216.7,797.8,214.4,798.4,211.1z"></path><path class="st9" d="M768.9,205.3c0.6-3.3-0.6-6.2-2.8-6.7c-2.1-0.4-4.4,1.9-5,5.2c-0.6,3.3,0.6,6.2,2.8,6.7 C766.1,210.9,768.3,208.6,768.9,205.3z"></path><path class="st10" d="M775,213.8c0,0,3.8,6.9-1.4,7.2c-5,0.1-7.9,3.1-2.7,7.2"></path><path class="st11" d="M771.9,233.9c3.1,0.1,9.4,0.4,13.5,0.7c0.2,0,0.5,0.1,0.7,0.2c0.2,0.1,0.4,0.3,0.5,0.6 c0.1,0.2,0.1,0.5,0.1,0.7c0,0.2-0.1,0.5-0.3,0.7c-3.6,4.2-12,11.8-15.8-1.1c-0.1-0.2-0.1-0.4-0.1-0.6c0-0.2,0.1-0.4,0.2-0.6 c0.1-0.2,0.3-0.3,0.5-0.4C771.5,233.9,771.7,233.9,771.9,233.9z"></path><path class="st9" d="M808.3,200.1l-0.3,0.6c-0.3,0.9-1,1.6-1.9,2.1c-0.9,0.4-1.9,0.5-2.8,0.1L788,197c-0.8-0.3-1.4-0.8-1.8-1.5 c-0.4-0.7-0.5-1.5-0.3-2.3c0.1-0.5,0.3-0.9,0.6-1.3c0.3-0.4,0.6-0.7,1.1-1c0.4-0.2,0.9-0.4,1.4-0.5c0.5-0.1,1,0,1.4,0.1l15.7,5.3 c0.4,0.1,0.8,0.3,1.2,0.6c0.3,0.3,0.6,0.6,0.8,1c0.2,0.4,0.3,0.8,0.4,1.3C808.5,199.2,808.4,199.7,808.3,200.1z"></path><path class="st9" d="M756.4,187.3l16.5-1.6c0.5,0,1,0,1.4,0.2c0.5,0.2,0.9,0.4,1.2,0.8c0.4,0.3,0.6,0.7,0.8,1.2 c0.2,0.5,0.3,0.9,0.3,1.4c0,0.8-0.3,1.6-0.8,2.2c-0.5,0.6-1.3,1-2.1,1l-16.4,2.2c-1,0.1-1.9-0.2-2.7-0.8c-0.8-0.6-1.2-1.5-1.3-2.4 l-0.1-0.6c0-0.4,0-0.9,0.2-1.3c0.1-0.4,0.4-0.8,0.7-1.2c0.3-0.3,0.7-0.6,1.1-0.8C755.5,187.5,756,187.4,756.4,187.3z"></path><path class="st5" d="M44.4,673.4c0,0,3.7,37.6,68.5,37.6h75.9L88.1,632.7L44.4,673.4z"></path><path class="st5" d="M195.1,237.8L16.7,277.3c-1.6,0.3-3.1,1-4.5,1.9c-4.9,3.3-13.7,12.8-12.1,38.8c2.3,34.7,44.1,355.5,44.1,355.5 l171.2-148.2L195.1,237.8z"></path><path class="st12" d="M214.1,236.7L34.5,276.5c0,0-15.4,5.6-15.2,40.4c0.2,34.8,44.1,355.5,44.1,355.5l171.2-148.2L214.1,236.7z"></path><path class="st13" d="M291.9,402.2l17.4,24.4c2.5,3.5,5.7,6.4,9.4,8.6c3.7,2.2,7.8,3.5,12.1,4l114.1,12l1.7,28.6l-139.2,8.5 c-7.8,0.5-15.7-1-22.8-4.2c-7.1-3.3-13.4-8.2-18.2-14.5L229,420.8L291.9,402.2z"></path><path class="st14" d="M302.8,417.5c0,0-35.9,9.5-46.4,39.1l-17.9-26.4l60.4-18L302.8,417.5z"></path><path class="st5" d="M215.2,310.2c0,0,34.9,10.2,44.6,21.9c7.6,9.1,20.4,47.1,30.5,65.4c2.4,4.4,5.9,4.8,3.3,9.2 c-10.6,18-19.7,44.2-37.3,49.8C197.7,447.7,215.2,310.2,215.2,310.2z"></path><path class="st15" d="M253,362.2c0,0,23.3,42.2,26.8,64.9c0,0-8.3,21-14.1,25.3c-9.1,6.7-14.1,2.9-14.1,2.9L253,362.2z"></path><path class="st9" d="M131.2,224.9c32.2,0,58.3-26.1,58.3-58.3c0-32.2-26.1-58.3-58.3-58.3s-58.3,26.1-58.3,58.3 C72.9,198.8,99,224.9,131.2,224.9z"></path><path class="st12" d="M180.6,135.5c0,0-75.2-13.3-84,77.9c0,0,7.5,8.1,18.4,9c0,0,8.8-88.5,70.1-81.7L180.6,135.5z"></path><path class="st12" d="M164.7,139c0,0-8.7-4.5-2.1-9.7c4.1-3.4,7.4-7.8,9.6-12.7c2.1,1.1,3.6,3,4.3,5.3c0.7,2.2,0.6,4.7-0.4,6.8 c-3.3,8.2-5.4,8.7-5.4,8.7L164.7,139z"></path><path class="st12" d="M164.2,134c0,0-2.4,9.5-8.9,4.3c-4.3-3.2-9.3-5.4-14.5-6.4c0.6-2.3,2.1-4.2,4.1-5.4c2-1.2,4.4-1.6,6.7-1.2 c8.8,1.4,9.7,3.3,9.7,3.3L164.2,134z"></path><path class="st13" d="M180.9,269l9.2,34.3c0,0,70.3,79.8,12,108.8c-10.3,5.1-59.3-34.1-68.5-42.8c-9.2-8.7-5.4-60-5.4-60l21.1-73.3 L180.9,269z"></path><path class="st0" d="M160.2,377.7c0,0,34.3,21.6,68.9,1.6c0,0-5.3,29.7-26.2,39.3C181.9,428.2,160.2,377.7,160.2,377.7z"></path><path class="st14" d="M182.7,275.1L164.2,263l27.3,46L182.7,275.1z"></path><path class="st13" d="M229.4,184.7c0,0,9.8,51.4-7.7,81.3c-11.4,19.5-27,20.1-57.5-3.1c-28-21.2-33.7-33.9-33.7-33.9l6.8-53.4 C137.4,175.7,218.3,138.4,229.4,184.7z"></path><path class="st5" d="M190.1,303.3c0,0,34.6,8.5,40.1,12.5S243,354.1,253,370c10,15.9,23.7,41.1,6.1,70.2c-17.6,29.1-16,57-16,57 l13.3,73.1H108c-6.2,0.6-9.5-15.2-9.3-21.4c0.6-20.5,2.6-26.7,1.2-59.2c-1.8-44.1-18.3-169.4-18.3-169.4l48.9-18.2 c-1.5,68.9,38.5,53.9,72.2,116.5C230.4,365.7,190.1,303.3,190.1,303.3z"></path><path class="st15" d="M113.9,355.9c0,0,7.3,15.1,1.5,30.6c-6.5,17.4-13.5,59.8,17.9,62.4c38.5,3.3,22.4,10.3,4.9,15.6 c-17.4,5.4-10.2,4.9-9.1,23.3c0.8,13.1-34.3,39.6-31.1,29.4C115.4,463,56.4,395.9,113.9,355.9z"></path><path class="st16" d="M197.5,251.3l18.5,3.1c-0.1,0.2-0.2,0.3-0.3,0.5c-0.3,0.7-0.8,1.6-1.6,2.4c-1.4,1.8-3.6,3.5-6.9,3.4 c-5-0.6-7.5-3.1-8.7-5.4c-0.6-1.2-0.9-2.3-1-3.2C197.5,251.8,197.5,251.5,197.5,251.3z"></path><path class="st9" d="M225.7,228.5c2.1-0.1,3.6-2.7,3.5-5.7c-0.1-3.1-2-5.4-4-5.3c-2.1,0.1-3.6,2.7-3.5,5.7 C221.8,226.2,223.6,228.6,225.7,228.5z"></path><path class="st9" d="M195.1,230.4c2.1-0.1,3.6-2.7,3.5-5.7c-0.2-3.1-2-5.4-4-5.3c-2.1,0.1-3.6,2.7-3.5,5.7 C191.2,228.1,193,230.5,195.1,230.4z"></path><path class="st9" d="M232.2,209.8l-15.6,1c-0.3,0-0.5-0.1-0.7-0.3c-0.2-0.2-0.3-0.4-0.4-0.7c0-0.5,0.2-0.9,0.4-1.4 c0.2-0.4,0.5-0.8,0.9-1.1c0.4-0.3,0.8-0.5,1.3-0.7c0.5-0.1,0.9-0.2,1.4-0.1l12.9,1.4C233.4,208,233.5,209.7,232.2,209.8z"></path><path class="st9" d="M179.4,211.4l20.7,0.3c-0.1-0.6-0.2-1.2-0.5-1.8c-0.3-0.6-0.7-1-1.2-1.4c-0.5-0.4-1.1-0.7-1.7-0.8 c-0.6-0.1-1.3-0.2-1.9-0.1l-15.7,2.6C178.6,210.2,178.6,211.5,179.4,211.4z"></path><path class="st17" d="M212.6,222l6.7,14.7l-4.6,4.2"></path><path class="st9" d="M210.4,192.7c-10.9,0.1-16-2.4-27.4,2.9c-3.6,1.7-7,3.4-9.1,7.5c-2.2,8.3-0.8,19.9-15.5,19.6 c0,0,4.8-15.8-5.3-17.9c-17.2-3.4-14.4,24.3-3.8,31.1c7.2,4.6-5.2,37.8-14.4,50c-31.6-73.8-20.6-81.2-12.4-100.5 c13.9-32.7,26.2-42.7,59.2-48.1c0,0,43.8,1.2,55.3,39.7c9.9,32.9-5,45.5-5,45.5s0.5-24.5-2-27C226.9,192.3,224.3,192.6,210.4,192.7z "></path><path class="st13" d="M741.2,591l-123.8,22l24.4,98h79.3C721.1,711,758.8,629.9,741.2,591z"></path><path class="st14" d="M662.2,599.6c0,0,19.1,5.9,27,37c7.9,31.1-0.7,74.4-0.7,74.4h12.3c0,0,43.7-51.4,11.6-116.8L662.2,599.6z"></path><path class="st18" d="M921,560.1c0,0,9.5,71.2-4.7,105.2c-12.1,28.9-30.8,45.3-53.6,45.7H688.4c0,0-0.3-93.1-73.8-109 C614.6,602,856.6,534.6,921,560.1z"></path><path class="st19" d="M924.3,581.7l-158.2,5.2l1.7-11l30.8-3.6h125.4L924.3,581.7z"></path><path class="st12" d="M801.6,302.6c-1.4,5.8-1.7-14.6-4.5-13.8c-12.6,3.9-48.4,15.1-56,18.3c-9.3,3.9-9.9,19.4-10.5,30.4 c-0.4,7.7,11,115.9,11.6,189.2c0.1,15.7-15.7,34-17.6,42.7c-0.5,2.3-0.8,4.7-0.8,7.1c0,1.7,0.6,3.3,1.8,4.5c1.2,1.2,2.8,1.9,4.5,1.9 l188.9,1.8c0,0,8.4,1.2,6.3-8.3c-2-10.5-3.1-21.1-3.3-31.7c-1.9-76.1-2.2-203.7-3.1-209.7c-1.2-9.1,8.5-16.9-2.1-21.4l-58.5-23.4 c0,0-10.7,7.8-12.3,8.6C816.7,313.8,801.6,302.6,801.6,302.6z"></path><path class="st20" d="M813.8,310.4c0,0-6.7,24.5-3.6,48.2c3.1,23.7-9.1,56.1-11.6,82.1s9.8,60.1,7.9,81.9 c-1.9,21.8,5.1,62.1,5.1,62.1"></path><path class="st13" d="M284.4,572.8l123.8,22l-24.4,98h-79.3C304.5,692.8,266.8,611.8,284.4,572.8z"></path><path class="st14" d="M363.4,581.4c0,0-19.1,5.9-27,37c-7.9,31.1,0.7,74.4,0.7,74.4h-12.3c0,0-43.7-51.4-11.6-116.9L363.4,581.4z"></path><path class="st18" d="M101,546.5c0,0-21.9,41.2-19.3,95.5c2.5,51.6,30.7,68.9,75.3,68.9l180.3-18.2c0,0,0.3-93.1,73.8-109 c0,0-81.9-59.6-164.6-44.6C205.7,546.5,180.2,555.5,101,546.5z"></path><path class="st0" d="M97.9,532.8c0,0,116.8,12.2,159.8-20l-1.9,26.8c0,0-72.8,40.4-156.1,17.7C99.6,557.3,87.1,548.6,97.9,532.8z"></path><path class="st13" d="M454.2,491.6c0,0,34.7-7.3,49-3.9c14.6,3,45.4,10.7,39.9,33.3c-3.8,16.1-20.7,9.7-20.7,9.7s4.4,6.4-2.1,9.4 c-4,1.6-29.6-12.4-29.6-12.4c-17.1,5.5-39.4-6.1-39.4-6.1L454.2,491.6z"></path><path class="st21" d="M503.5,522.1l18.7,8.6"></path><path class="st21" d="M507.7,507.4c4.7,0.9,25.8,10.9,25.8,10.9"></path><path class="st21" d="M510.3,496.3c9.4,2.3,18.4,6.1,26.6,11.1"></path><linearGradient id="SVGID_1_" gradientUnits="userSpaceOnUse" x1="456.1558" y1="708.135" x2="530.6088" y2="-355.8349" gradientTransform="matrix(1 0 0 -1 0 694)">	<stop offset="0" style="stop-color:#FFFFFF"></stop>	<stop offset="1" style="stop-color:#94B9FF"></stop></linearGradient><path class="st22" d="M300,379.3h376.4l190.5,313.5H144.3L300,379.3z"></path><path class="st23" d="M606.4,513l12.6,76.4l70.1,47.2l117.3-12.7l-28.8-34.5L606.4,513z"></path><path class="st11" d="M539,437.1l52.5,96.9l78.2,74.2L606.4,513L539,437.1z"></path><path class="st24" d="M539,437.1l52.5,96.9l-5.1,3.9l-51.8-98.2L539,437.1z"></path><path class="st24" d="M591.5,534l78.2,74.2v4.8l-83.3-75.1L591.5,534z"></path><path class="st24" d="M669.8,613l107.9-19.7v-3.9l-107.9,18.8V613z"></path><path class="st25" d="M777.6,589.4l-70.3-90L606.4,513l63.3,95.2L777.6,589.4z"></path><path class="st5" d="M134.4,362.4l-16.3,93.7c-0.4,2.3-1.7,4.4-3.6,5.9c-1.9,1.4-4.3,2.1-6.6,1.8c0,0-45.9-3-61.2-4.3 c-3.6-0.3-13.4-9.2-10.4-23.8c2.7-20,15.6-66.6,23.7-92.5c3.8-12.9,44.2-5.2,44.2-5.2L134.4,362.4z"></path><path class="st5" d="M96.3,394.5c21.3,0,38.5-17.3,38.5-38.5c0-21.3-17.3-38.5-38.5-38.5c-21.3,0-38.6,17.3-38.6,38.5 C57.8,377.2,75,394.5,96.3,394.5z"></path><path class="st13" d="M47.7,464.7l0.6-7.5l57.2,6.5l-0.9,6.4l-4.9,40.1l-55.6-6L47.7,464.7z"></path><path class="st14" d="M48.7,457.1l56.9,6.6l-0.9,6.4c-12.9-1.4-41.9-3.9-56.9-5.4L48.7,457.1z"></path><path class="st13" d="M71.8,533.6c15.5,0,28-12.5,28-28c0-15.5-12.5-28-28-28c-15.5,0-28,12.5-28,28 C43.8,521.1,56.3,533.6,71.8,533.6z"></path><path class="st13" d="M85.6,529.7l157.9-74.1c0,0,9.5-33.7-0.8-28.1c-10.6,5.7-178.8,51.2-178.8,51.2L85.6,529.7z"></path><path class="st0" d="M333.9,459.3L266.7,471c-4.3,0.8-7.2-2.2-6.4-6.7L280.9,346c0.8-4.5,4.9-8.7,9.2-9.4l67.1-11.7 c4.3-0.8,7.2,2.2,6.4,6.7l-20.6,118.4C342.3,454.3,338.2,458.5,333.9,459.3z"></path><path class="st26" d="M336.9,458.8l-67.1,11.7c-4.3,0.8-7.2-2.2-6.4-6.7L284,345.4c0.8-4.5,4.9-8.7,9.2-9.4l67.1-11.7 c4.3-0.8,7.2,2.2,6.4,6.7l-20.6,118.4C345.3,453.8,341.2,458,336.9,458.8z"></path><path class="st13" d="M233.2,430.8l7.8,25.4c0,0,32.3-7.7,39.2-11.1c13.5-6.9,28-16.3,29.7-19.8c5.2-9,5.8-20.1,5.2-27.9 c-0.1-1.2-0.4-2.3-1-3.3c-0.6-1-1.5-1.8-2.5-2.4c-1-0.6-2.1-0.9-3.3-0.9c-1.2,0-2.3,0.2-3.3,0.7l-28.3,14.1c0,0-3.7-6.2,0-11.2 c2.4-3.3-1.3-9.5-2.9-11.4c-0.6-0.9-4.1-0.9-4.9,0c-1.3,1.7,0.5,7.5-2.3,11.2c-4.7,5.9-0.5,8.5-12.7,18.6 C244.3,420.8,233.1,430.5,233.2,430.8z"></path><path class="st27" d="M287.8,409.9c8-2.7,24.4-12.3,24.4-12.3"></path><path class="st27" d="M286.8,420.6c6.5-2.4,23.6-11.6,23.6-11.6"></path><path class="st27" d="M290.7,430.2c4.3-1.5,17-7.5,17-7.5"></path><path class="st5" d="M46.8,454.1c-1.4,5.6-1.3,11.4,0.4,16.9c0,0,27.5,13.3,56.6,6.6c2-1.7,3.4-3.9,4.1-6.3c0.7-2.5,0.8-5.1,0-7.6 L46.8,454.1z"></path><path class="st14" d="M865.9,354.5c0,0-8.5,46.4-3.2,91.7c3.3,28.4,21.4,57.5,21.2,71c-0.4,21.9-25.4,31.2-25.5,43.9 c-0.1,7.5,20.2,2.8,29.2-0.1c20.2-6.6,33.4,2.4,33.4,2.4l-5.4-192.3L865.9,354.5z"></path><path class="st12" d="M919.8,343.3c-18.6-23.3-26.9-12.1-33.5-11.6c0,0-22.1,4.1-20.4,22.8c1.8,19.8,34.4,151.7,34.4,151.7l68.3-5.1 l-3.2-18.2l-6.7-37.5l-7.1-40.1l-0.6-4.8l-8-52.7C943,347.9,929.4,355.7,919.8,343.3z"></path><path class="st12" d="M924.4,383.4c18.2-11.2,23.8-34.9,12.7-53.1c-11.2-18.2-34.9-23.8-53.1-12.7c-18.2,11.1-23.8,34.9-12.7,53.1 C882.4,388.9,906.2,394.6,924.4,383.4z"></path><path class="st6" d="M760.9,511.7l-43.1,3.2l-10.2,24l3.5,29.6c0,0,7.4-3,8.2-13.5s35.1-3,44-14.6"></path><path class="st12" d="M925.1,472.9l-167.1,31.5c-1,0.2-1.9,0.8-2.5,1.7c-0.6,0.8-0.9,1.9-0.7,2.9l4,31.8c0.2,1.5,1,2.9,2.2,3.9 c1.2,1,2.7,1.5,4.2,1.4l172.1-6.7L925.1,472.9z"></path><path class="st12" d="M935,539.6c18.9,0,34.2-15.3,34.2-34.2c0-18.9-15.3-34.2-34.2-34.2s-34.2,15.3-34.2,34.2 C900.8,524.3,916.1,539.6,935,539.6z"></path><path class="st12" d="M762.1,349.9c5.6-27.5-7.5-26.8-11.9-31.2c0,0-16.4-13.5-28.9-0.9c-13.2,13.3-88.9,116.8-88.9,116.8l47.4,43.6 l8.9-10.6l23.1-27.5l24.7-29.4l3.1-3.3l33.3-37.7C772.8,369.5,759,364.4,762.1,349.9z"></path><path class="st12" d="M781.9,354.6c6.4-19.1-3.9-39.7-23-46.1s-39.7,3.9-46.1,23c-6.4,19.1,3.9,39.7,23,46.1 S775.6,373.7,781.9,354.6z"></path><path class="st14" d="M736.5,410.6c-1.4-15.3-6.5-38.2-6.5-38.2s-4.4-0.4-17.9,29.8c-10,22.7-21.6,45.7-23.6,65.3l23.1-27.5 L736.5,410.6z"></path><path class="st6" d="M643.9,300.5c-2.5-23.3,3.9-24.4,4-37c0-12.3,18.7-35.2,9.8-34.7c-8.9,0.5-15.1,9-15.1,9 c-1.3-11.1,0.9-29.5-10.4-36.4c-11.3-7-14-3.6-23.2-0.8c-24.6,7.6-10.9,40.2-10.6,50.5c0.2,6.5,11.7,30.8,12.2,35.3l3.6,17.3 L643.9,300.5z"></path><path class="st28" d="M629.9,233.7l-3.4-33.4L629.9,233.7z"></path><path class="st10" d="M629.9,233.7l-3.4-33.4"></path><path class="st28" d="M618.4,234.1l-5.5-32.1L618.4,234.1z"></path><path class="st10" d="M618.4,234.1l-5.5-32.1"></path><path class="st28" d="M604.8,234.2l-2.8-19.2L604.8,234.2z"></path><path class="st10" d="M604.8,234.2l-2.8-19.2"></path><path class="st28" d="M623.5,259.2c4-9.4,14.5-18.5,14.5-18.5L623.5,259.2z"></path><path class="st10" d="M623.5,259.2c4-9.4,14.5-18.5,14.5-18.5"></path><path class="st12" d="M687.1,443.9l-36.9-140.4c-0.3-0.9-0.9-1.7-1.7-2.2c-0.8-0.5-1.8-0.7-2.8-0.5l-29.7,5.7 c-1.4,0.3-2.7,1.1-3.5,2.3c-0.9,1.2-1.3,2.6-1.1,4l13.9,146.6L687.1,443.9z"></path><path class="st12" d="M613.8,312.4c0,0-3.7-14,0-15.6c3.7-1.5,26.6-5.9,29.7-3.1c3.1,2.9,5.8,14.8,5.8,14.8L613.8,312.4z"></path><path class="st12" d="M657,487.3c17.8,0,32.3-14.4,32.3-32.3c0-17.8-14.4-32.3-32.3-32.3c-17.8,0-32.3,14.4-32.3,32.3 C624.7,472.9,639.2,487.3,657,487.3z"></path><path class="st29" d="M131.2,298.8c0,0,23.5,45.6,47.5,53c0,0,13.5-7.2,11.3-48.5"></path><path class="st5" d="M177.9,363.6c4.5,0,8.2-3.7,8.2-8.2c0-4.5-3.7-8.2-8.2-8.2c-4.5,0-8.2,3.7-8.2,8.2 C169.7,359.9,173.4,363.6,177.9,363.6z"></path><path class="st5" d="M166.9,348.1c1.6,0,2.8-1.3,2.8-2.8c0-1.6-1.3-2.8-2.8-2.8c-1.6,0-2.8,1.3-2.8,2.8 C164.1,346.8,165.3,348.1,166.9,348.1z"></path><path class="st5" d="M186.1,346.3c1.6,0,2.8-1.3,2.8-2.8s-1.3-2.8-2.8-2.8c-1.6,0-2.8,1.3-2.8,2.8S184.5,346.3,186.1,346.3z"></path><path class="st11" d="M413.6,486.8l-92.3,0.5V576l137.4-8L413.6,486.8z"></path><path class="st30" d="M404.8,495.4l15.3,31.4"></path><path class="st31" d="M390,495.4l5.7,11.8"></path><path class="st32" d="M327.5,495.4l45.7-1.1l3.4,11.2l-48.1,1.6L327.5,495.4z"></path><path class="st32" d="M328.8,513.6l26.8-0.7l3.4,11.2l-29.2,1.3L328.8,513.6z"></path><path class="st32" d="M328.8,533.4l45.7-1.1l3.4,11.2l-48.1,1.6L328.8,533.4z"></path><path class="st32" d="M330.1,551.5l26.8-0.7l3.4,11.2l-29.2,1.3L330.1,551.5z"></path><path class="st0" d="M251.5,636.6l101.8-63.7l72.2,20.5l-87,76.5L251.5,636.6z"></path><path class="st11" d="M813.5,306.8c0,0,34.1-11.4,40.5-26.5c0,0,15.6,2.2,21.7,8.1c6.1,5.9,20.9,7.6,8.1,14.1s-63,12-66.1,11.2 C814.7,312.7,813.5,306.8,813.5,306.8z"></path><path class="st11" d="M799.4,286v7.6c0,0,3.1,11,14.1,13.2c0,0,1.7,6.1-4.4,6.8c-6.1,0.7-23.8-8.2-26.4-9.1 c-2.6-0.9-3.8-4.5,1.3-7.4C784.1,297.1,785.9,287.1,799.4,286z"></path><path class="st11" d="M830.5,393.2c0,0-0.1,0-0.1,0c-0.2,0-0.3-0.1-0.4-0.3c-0.1-0.1-0.1-0.3-0.1-0.5c1.9-8.1-3.3-18.1-8.4-27.9 c-3.7-7.2-7.6-14.7-8.6-21.4c-2.3-15.6,4-33.1,4.1-33.3c0.1-0.2,0.2-0.3,0.3-0.4c0.2-0.1,0.3-0.1,0.5,0c0.1,0,0.1,0.1,0.2,0.1 c0.1,0.1,0.1,0.1,0.2,0.2c0,0.1,0.1,0.2,0.1,0.2c0,0.1,0,0.2,0,0.3c-0.1,0.2-6.3,17.4-4,32.7c1,6.5,4.8,13.8,8.5,21 c5.1,9.9,10.4,20.2,8.5,28.8c0,0.1-0.1,0.3-0.2,0.4C830.8,393.1,830.6,393.2,830.5,393.2z"></path><path class="st11" d="M806.3,385.7c-0.2,0-0.3,0-0.4-0.1c-0.1-0.1-0.2-0.2-0.2-0.4c-4.1-17.2,0.3-46.7,1.7-55.3 c1.2-6.5,1.6-13.2,1.3-19.8c0-0.2,0-0.3,0.2-0.5c0.1-0.1,0.3-0.2,0.4-0.2c0.2,0,0.3,0,0.5,0.1c0.1,0.1,0.2,0.3,0.2,0.4 c0.4,6.7-0.1,13.5-1.3,20.1c-1.4,8.6-5.8,37.8-1.8,54.8c0,0.1,0,0.2,0,0.3c0,0.1-0.1,0.2-0.1,0.3c-0.1,0.1-0.1,0.1-0.2,0.2 C806.4,385.7,806.4,385.7,806.3,385.7L806.3,385.7z"></path><g class="st33">	<path class="st34" d="M829.8,397.9c2.3,0,4.1-1.8,4.1-4.1c0-2.3-1.8-4.1-4.1-4.1c-2.3,0-4.1,1.8-4.1,4.1  C825.6,396,827.5,397.9,829.8,397.9z"></path></g><g class="st33">	<path class="st34" d="M807,389.2c2.3,0,4.1-1.8,4.1-4.1c0-2.3-1.8-4.1-4.1-4.1c-2.3,0-4.1,1.8-4.1,4.1  C802.9,387.4,804.7,389.2,807,389.2z"></path></g><path class="st35" d="M558.7,31.5h6"></path><linearGradient id="SVGID_00000146495254639839806460000012882473535488091788_" gradientUnits="userSpaceOnUse" x1="475.7404" y1="778.6225" x2="534.9854" y2="141.9508" gradientTransform="matrix(1 0 0 -1 0 694)">	<stop offset="0" style="stop-color:#FFFFFF"></stop>	<stop offset="1" style="stop-color:#94B9FF"></stop></linearGradient><path style="fill:url(#SVGID_00000146495254639839806460000012882473535488091788_);" d="M668.5,0.1H322.9 c-10.1,0-18.3,8.2-18.3,18.3v222.7c0,10.1,8.2,18.3,18.3,18.3h345.6c10.1,0,18.3-8.2,18.3-18.3V18.4C686.8,8.3,678.6,0.1,668.5,0.1z "></path><path class="st11" d="M656.4,193.8h-192c-3.2,0-5.8,2.6-5.8,5.8v26c0,3.2,2.6,5.8,5.8,5.8h192c3.2,0,5.8-2.6,5.8-5.8v-26 C662.2,196.4,659.6,193.8,656.4,193.8z"></path><path class="st0" d="M597,210v-1.5h3.4v13h-1.7V210H597z M603.1,211.7c0.1-1.1,0.5-2,1.3-2.6c0.8-0.6,1.8-0.9,3-0.9 c0.8,0,1.5,0.1,2.1,0.4c0.6,0.3,1.1,0.7,1.3,1.2c0.3,0.5,0.5,1.1,0.5,1.7c0,0.7-0.2,1.4-0.6,1.9c-0.4,0.5-1,0.9-1.7,1v0.1 c0.8,0.2,1.4,0.6,1.9,1.1c0.5,0.6,0.7,1.3,0.7,2.2c0,0.7-0.2,1.3-0.5,1.9c-0.3,0.5-0.8,1-1.4,1.3c-0.6,0.3-1.4,0.5-2.2,0.5 c-1.3,0-2.3-0.3-3.1-1c-0.8-0.7-1.3-1.6-1.4-2.8h1.6c0.1,0.7,0.4,1.3,0.9,1.8c0.5,0.5,1.2,0.7,2,0.7c0.8,0,1.5-0.2,1.9-0.6 c0.4-0.4,0.7-1,0.7-1.7c0-0.9-0.3-1.5-0.9-1.9c-0.6-0.4-1.5-0.6-2.7-0.6h-0.4v-1.4h0.4c1.1,0,1.9-0.2,2.5-0.5 c0.6-0.4,0.8-0.9,0.8-1.7c0-0.6-0.2-1.1-0.6-1.5c-0.4-0.4-1-0.6-1.8-0.6c-0.7,0-1.3,0.2-1.8,0.6c-0.5,0.4-0.7,0.9-0.8,1.5H603.1z  M613.5,220.2c1.5-1.2,2.7-2.2,3.6-3c0.9-0.8,1.6-1.6,2.2-2.5c0.6-0.9,0.9-1.7,0.9-2.5c0-0.8-0.2-1.4-0.6-1.8 c-0.4-0.5-1-0.7-1.8-0.7c-0.8,0-1.5,0.3-1.9,0.8c-0.4,0.5-0.7,1.2-0.7,2h-1.6c0-1.3,0.5-2.4,1.2-3.1c0.8-0.7,1.8-1.1,3-1.1 c1.2,0,2.2,0.3,2.9,1c0.7,0.7,1.1,1.6,1.1,2.8c0,1-0.3,2-0.9,2.9c-0.6,0.9-1.3,1.8-2,2.5c-0.8,0.7-1.7,1.5-2.9,2.5h6.2v1.4h-8.6 V220.2z"></path><path class="st0" d="M431.7,27.6H331.1c-3.8,0-6.8,3.1-6.8,6.8v190c0,3.8,3.1,6.8,6.8,6.8h100.6c3.8,0,6.8-3.1,6.8-6.8v-190 C438.6,30.7,435.5,27.6,431.7,27.6z"></path><path class="st37" d="M381.4,162.9c15.9,0,28.8-12.9,28.8-28.8c0-15.9-12.9-28.8-28.8-28.8c-15.9,0-28.8,12.9-28.8,28.8 C352.6,150,365.5,162.9,381.4,162.9z"></path><path class="st11" d="M372.5,126.1v18.3c0,0.5,0.1,1,0.4,1.4c0.3,0.4,0.6,0.8,1,1.1c0.4,0.3,0.9,0.4,1.4,0.4c0.5,0,1-0.1,1.5-0.4 l16.7-9.1c0.5-0.3,0.8-0.6,1.1-1.1c0.3-0.5,0.4-1,0.4-1.5c0-0.5-0.1-1-0.4-1.5c-0.3-0.5-0.7-0.8-1.1-1.1l-16.7-9.1 c-0.4-0.2-0.9-0.4-1.5-0.4c-0.5,0-1,0.1-1.4,0.4c-0.4,0.3-0.8,0.6-1,1.1C372.7,125.1,372.5,125.6,372.5,126.1z"></path><path class="st38" d="M463.8,52.1h71.9"></path><path class="st39" d="M463.8,85.6h148.6"></path><path class="st38" d="M464.7,130.1h71.9"></path><path class="st39" d="M464.7,163.6h148.6"></path><path class="st40" d="M490.8,206.1c-1.1-1-2.6-1.6-4.1-1.6c-1.5,0-3,0.6-4.1,1.6l-1.6,1.4l-1.6-1.4c-1.1-1-2.6-1.6-4.1-1.6 c-1.5,0-3,0.6-4.1,1.6c-0.6,0.5-1.1,1.2-1.4,1.9c-0.3,0.7-0.5,1.5-0.5,2.3s0.2,1.6,0.5,2.3c0.3,0.7,0.8,1.4,1.4,1.9l9.8,9.1l9.8-9 c0.6-0.5,1.1-1.2,1.5-1.9s0.5-1.6,0.5-2.4c0-0.8-0.2-1.6-0.5-2.4C491.9,207.3,491.4,206.7,490.8,206.1z"></path><path class="st0" d="M501.7,211.7c0.1-1.1,0.5-2,1.3-2.6c0.8-0.6,1.8-0.9,3-0.9c0.8,0,1.5,0.1,2.1,0.4c0.6,0.3,1,0.7,1.3,1.2 c0.3,0.5,0.5,1.1,0.5,1.7c0,0.7-0.2,1.4-0.6,1.9c-0.4,0.5-1,0.9-1.7,1v0.1c0.8,0.2,1.4,0.6,1.9,1.1c0.5,0.6,0.7,1.3,0.7,2.2 c0,0.7-0.2,1.3-0.5,1.9c-0.3,0.5-0.8,1-1.4,1.3c-0.6,0.3-1.4,0.5-2.2,0.5c-1.3,0-2.3-0.3-3.1-1c-0.8-0.7-1.3-1.6-1.4-2.8h1.6 c0.1,0.7,0.4,1.3,0.9,1.8c0.5,0.5,1.2,0.7,2,0.7s1.5-0.2,1.9-0.6c0.4-0.4,0.7-1,0.7-1.7c0-0.9-0.3-1.5-0.9-1.9 c-0.6-0.4-1.5-0.6-2.7-0.6h-0.4v-1.4h0.4c1.1,0,1.9-0.2,2.5-0.5c0.6-0.4,0.8-0.9,0.8-1.7c0-0.6-0.2-1.1-0.6-1.5 c-0.4-0.4-1-0.6-1.8-0.6c-0.7,0-1.3,0.2-1.8,0.6c-0.5,0.4-0.7,0.9-0.8,1.5H501.7z M514.3,219.2l-2,4.8h-1.1l1.3-4.8H514.3z  M524.2,209.9h-6.3v4.1c0.3-0.4,0.7-0.7,1.2-0.9c0.5-0.3,1.1-0.4,1.7-0.4c1,0,1.8,0.2,2.4,0.6c0.6,0.4,1.1,0.9,1.3,1.6 c0.3,0.6,0.4,1.3,0.4,2.1c0,0.9-0.2,1.6-0.5,2.3c-0.3,0.7-0.8,1.2-1.5,1.6c-0.7,0.4-1.5,0.6-2.5,0.6c-1.3,0-2.3-0.3-3.1-1 c-0.8-0.6-1.3-1.5-1.4-2.6h1.6c0.2,0.7,0.5,1.2,1,1.6c0.5,0.4,1.1,0.6,1.9,0.6c0.9,0,1.7-0.3,2.1-0.8c0.5-0.6,0.7-1.3,0.7-2.3 c0-0.9-0.2-1.7-0.7-2.2c-0.5-0.5-1.2-0.8-2.1-0.8c-0.6,0-1.2,0.2-1.7,0.5c-0.5,0.3-0.8,0.7-1,1.2h-1.5v-7.3h7.8V209.9z M527,220.2 c1.5-1.2,2.7-2.2,3.6-3c0.9-0.8,1.6-1.6,2.2-2.5c0.6-0.9,0.9-1.7,0.9-2.5c0-0.8-0.2-1.4-0.6-1.8c-0.4-0.5-1-0.7-1.8-0.7 c-0.8,0-1.5,0.3-1.9,0.8c-0.4,0.5-0.7,1.2-0.7,2h-1.6c0-1.3,0.5-2.4,1.2-3.1c0.8-0.7,1.8-1.1,3-1.1c1.2,0,2.2,0.3,2.9,1 c0.7,0.7,1.1,1.6,1.1,2.8c0,1-0.3,2-0.9,2.9c-0.6,0.9-1.3,1.8-2,2.5c-0.8,0.7-1.7,1.5-2.9,2.5h6.2v1.4H527V220.2z M545.6,209.7 l-5,11.7h-1.7l5.1-11.6H537v-1.4h8.5V209.7z"></path><path class="st0" d="M589.6,212.6c0-5.5-6.5-10-14.6-10s-14.6,4.5-14.6,10s6.5,10,14.6,10c0.6,0,1.1,0,1.7-0.1c0.1,0,0.2,0,0.3,0 c0.1,0,0.2,0.1,0.2,0.1c1,1.1,3.3,2.8,7.6,3c0.1,0,0.2,0,0.3-0.1c0.1-0.1,0.2-0.1,0.2-0.2c0.1-0.1,0.1-0.2,0.1-0.3 c0-0.1,0-0.2-0.1-0.3c-0.8-1.1-1.3-2.4-1.7-3.6c0-0.1,0-0.3,0-0.4c0.1-0.1,0.2-0.2,0.3-0.3C587.4,218.6,589.6,215.8,589.6,212.6z"></path><path class="st0" d="M273.2,0H146.4c-9.7,0-17.5,7.8-17.5,17.5v174.9c0,9.7,7.8,17.5,17.5,17.5h126.8c9.7,0,17.5-7.8,17.5-17.5V17.5 C290.7,7.8,282.9,0,273.2,0z"></path><path class="st11" d="M201.6,129.2l-6.6,15.6h-2.2l6.7-15.4h-9.2v-1.9h11.3V129.2z M207.1,135.8c-0.9-0.4-1.6-0.9-2.1-1.5 c-0.5-0.7-0.7-1.5-0.7-2.4c0-0.9,0.2-1.6,0.6-2.3c0.4-0.7,1.1-1.3,1.9-1.6c0.9-0.4,1.9-0.6,3.1-0.6c1.2,0,2.2,0.2,3.1,0.6 c0.9,0.4,1.5,0.9,1.9,1.6c0.4,0.7,0.7,1.5,0.7,2.3c0,0.9-0.2,1.7-0.7,2.4c-0.5,0.7-1.2,1.2-2,1.5c1,0.3,1.8,0.8,2.3,1.6 c0.6,0.7,0.9,1.7,0.9,2.7c0,1-0.3,1.9-0.8,2.7c-0.5,0.8-1.2,1.4-2.2,1.8c-0.9,0.4-2,0.6-3.2,0.6c-1.2,0-2.3-0.2-3.2-0.6 c-0.9-0.4-1.6-1-2.1-1.8c-0.5-0.8-0.8-1.7-0.8-2.7c0-1.1,0.3-2,0.9-2.7C205.4,136.6,206.1,136.1,207.1,135.8z M213.6,132.1 c0-1-0.3-1.7-1-2.2s-1.5-0.8-2.6-0.8c-1.1,0-2,0.3-2.6,0.8s-1,1.3-1,2.3c0,0.9,0.3,1.6,1,2.2c0.7,0.5,1.5,0.8,2.6,0.8 c1.1,0,1.9-0.3,2.6-0.8C213.3,133.7,213.6,133,213.6,132.1z M210,136.7c-1.2,0-2.1,0.3-2.9,0.8c-0.7,0.5-1.1,1.4-1.1,2.5 c0,1,0.4,1.8,1.1,2.5c0.7,0.6,1.7,0.9,2.9,0.9c1.2,0,2.2-0.3,2.9-0.9c0.7-0.6,1.1-1.4,1.1-2.5c0-1.1-0.4-1.9-1.1-2.4 C212.2,137,211.2,136.7,210,136.7z M218.6,131.4c0-1.1,0.3-1.9,1-2.6c0.7-0.7,1.5-1,2.5-1c1,0,1.9,0.3,2.5,1c0.7,0.6,1,1.5,1,2.6 c0,1.1-0.3,2-1,2.6c-0.7,0.6-1.5,1-2.5,1c-1,0-1.9-0.3-2.5-1C218.9,133.4,218.6,132.5,218.6,131.4z M232.5,128.1l-9.7,16.7h-2.1 l9.7-16.7H232.5z M222.1,129.2c-0.5,0-1,0.2-1.3,0.6c-0.3,0.4-0.5,0.9-0.5,1.6s0.2,1.3,0.5,1.7c0.3,0.4,0.7,0.6,1.3,0.6 c0.5,0,1-0.2,1.3-0.6c0.3-0.4,0.5-1,0.5-1.7c0-0.7-0.2-1.3-0.5-1.6C223,129.4,222.6,129.2,222.1,129.2z M227.7,141.5 c0-1.1,0.3-2,1-2.6c0.7-0.7,1.5-1,2.5-1c1,0,1.8,0.3,2.5,1c0.7,0.6,1,1.5,1,2.6c0,1.1-0.3,2-1,2.6c-0.6,0.7-1.5,1-2.5,1 c-1,0-1.9-0.3-2.5-1C228,143.5,227.7,142.6,227.7,141.5z M231.2,139.3c-0.5,0-1,0.2-1.3,0.6c-0.3,0.4-0.5,0.9-0.5,1.6 c0,0.7,0.2,1.3,0.5,1.6c0.3,0.4,0.7,0.5,1.3,0.5c0.5,0,1-0.2,1.3-0.5c0.3-0.4,0.5-0.9,0.5-1.6c0-0.7-0.2-1.3-0.5-1.6 C232.2,139.4,231.7,139.3,231.2,139.3z"></path><path class="st41" d="M209.8,181.6c27.2,0,49.2-22,49.2-49.2c0-27.2-22-49.2-49.2-49.2c-27.2,0-49.2,22-49.2,49.2 C160.6,159.6,182.6,181.6,209.8,181.6z"></path><path class="st42" d="M259,132.4c0,13-5.2,25.5-14.4,34.7c-9.2,9.2-21.7,14.4-34.7,14.4s-25.5-5.2-34.7-14.4 c-9.2-9.2-14.4-21.7-14.4-34.7"></path><path class="st43" d="M209.8,83.3c6.5,0,12.9,1.3,18.8,3.7c6,2.5,11.4,6.1,16,10.7c4.6,4.6,8.2,10,10.7,16c2.5,6,3.7,12.4,3.7,18.8"></path><path class="st1" d="M152.3,32.4H185"></path><path class="st2" d="M152.3,47.7h67.5"></path><path class="st0" d="M866.9,692.8H144.3V711h722.6V692.8z"></path><circle class="st5" cx="150" cy="231" r="3"></circle></svg>