<svg xmlns="http://www.w3.org/2000/svg" xmlns:xlink="http://www.w3.org/1999/xlink" id="Layer_1" data-name="Layer 1" viewBox="0 0 843.53 837.01"><defs><style>.cls-1,.cls-10,.cls-11,.cls-12,.cls-13,.cls-17,.cls-18,.cls-19,.cls-20,.cls-22,.cls-23,.cls-24,.cls-5{fill:none;}.cls-1,.cls-5{stroke:#d1e8f7;}.cls-1,.cls-10,.cls-11,.cls-12,.cls-13,.cls-17,.cls-18,.cls-19,.cls-22,.cls-23,.cls-24,.cls-5{stroke-miterlimit:10;}.cls-1{stroke-width:1.92px;}.cls-2{fill:#febb94;}.cls-3{fill:#5661ae;}.cls-4{fill:#1c85e8;}.cls-5{stroke-width:1.43px;}.cls-6{fill:url(#linear-gradient);}.cls-7{fill:#fff;}.cls-8{fill:url(#linear-gradient-2);}.cls-9{fill:url(#linear-gradient-3);}.cls-10,.cls-24{stroke:#ef6a77;}.cls-10,.cls-11,.cls-24{stroke-width:11.69px;}.cls-11,.cls-12,.cls-13,.cls-17,.cls-18,.cls-19,.cls-22,.cls-23{stroke:#fff;}.cls-11,.cls-12,.cls-13,.cls-17,.cls-18,.cls-19,.cls-20,.cls-22,.cls-23,.cls-24{stroke-linecap:round;}.cls-12,.cls-13{stroke-width:5.98px;}.cls-13,.cls-19,.cls-23{isolation:isolate;opacity:0.4;}.cls-14{fill:url(#linear-gradient-4);}.cls-15{fill:#ffccb3;}.cls-16{fill:#fcba9f;}.cls-17{stroke-width:7.57px;}.cls-18,.cls-19{stroke-width:12px;}.cls-20{stroke:#ff967c;stroke-width:3px;}.cls-21{fill:url(#linear-gradient-5);}.cls-22,.cls-23{stroke-width:12px;}</style><linearGradient id="linear-gradient" x1="351.13" y1="944.07" x2="634.97" y2="-478.31" gradientTransform="matrix(1, 0, 0, -1, 0, 868)" gradientUnits="userSpaceOnUse"><stop offset="0" stop-color="#fff"></stop><stop offset="1" stop-color="#94b9ff"></stop></linearGradient><linearGradient id="linear-gradient-2" x1="434.67" y1="711.9" x2="462.19" y2="283.49" xlink:href="#linear-gradient"></linearGradient><linearGradient id="linear-gradient-3" x1="507.82" y1="491.51" x2="552.84" y2="118.75" xlink:href="#linear-gradient"></linearGradient><linearGradient id="linear-gradient-4" x1="423.7" y1="302.99" x2="431.63" y2="83.44" xlink:href="#linear-gradient"></linearGradient><linearGradient id="linear-gradient-5" x1="763.12" y1="743.4" x2="769.88" y2="654.83" xlink:href="#linear-gradient"></linearGradient></defs><path class="cls-1" d="M446.72,761.62c198.09,0,358.66-160.57,358.66-358.66S644.81,44.3,446.72,44.3,88.07,204.88,88.07,403,248.64,761.62,446.72,761.62Z" transform="translate(-10 -15)"></path><path class="cls-2" d="M155,205a12.63,12.63,0,1,0-12.63-12.63A12.63,12.63,0,0,0,155,205Z" transform="translate(-10 -15)"></path><path class="cls-3" d="M805.38,429.26a12.64,12.64,0,1,0-12.63-12.64A12.64,12.64,0,0,0,805.38,429.26Z" transform="translate(-10 -15)"></path><path class="cls-4" d="M461.44,774.26a12.64,12.64,0,1,0-12.64-12.64A12.64,12.64,0,0,0,461.44,774.26Z" transform="translate(-10 -15)"></path><path class="cls-5" d="M455,672.88c147.77,0,267.55-119.79,267.55-267.55S602.8,137.77,455,137.77,187.48,257.56,187.48,405.33,307.27,672.88,455,672.88Z" transform="translate(-10 -15)"></path><path class="cls-2" d="M718,468.64a9.42,9.42,0,1,0-9.43-9.42A9.42,9.42,0,0,0,718,468.64Z" transform="translate(-10 -15)"></path><path class="cls-3" d="M206.89,515.3a9.43,9.43,0,1,0-9.43-9.43A9.43,9.43,0,0,0,206.89,515.3Z" transform="translate(-10 -15)"></path><path class="cls-4" d="M335.19,175.29a9.43,9.43,0,1,0-9.42-9.42A9.42,9.42,0,0,0,335.19,175.29Z" transform="translate(-10 -15)"></path><path class="cls-4" d="M594.28,701.6h-309c-13.4,0-23.22-10.86-21.93-24.27l52.74-548.69c1.29-13.41,13.2-24.28,26.61-24.28h309c13.4,0,23.22,10.87,21.93,24.28L620.89,677.33C619.6,690.74,607.69,701.6,594.28,701.6Z" transform="translate(-10 -15)"></path><path class="cls-6" d="M572.51,701.6h-309c-13.41,0-23.23-10.86-21.94-24.27l52.75-548.69c1.28-13.41,13.2-24.28,26.6-24.28h309c13.4,0,23.23,10.87,21.94,24.28L599.11,677.33C597.82,690.74,585.91,701.6,572.51,701.6Z" transform="translate(-10 -15)"></path><path class="cls-7" d="M560.8,683.36h-282c-12.43,0-21.53-10.07-20.34-22.49L308,145.1c1.2-12.42,12.24-22.5,24.66-22.5H614.7c12.43,0,21.53,10.08,20.33,22.5L585.46,660.87C584.26,673.29,573.22,683.36,560.8,683.36Z" transform="translate(-10 -15)"></path><path class="cls-8" d="M583.42,357.24,280.85,357a8.75,8.75,0,0,1-3.61-.68,8.67,8.67,0,0,1-5.27-8.9l16.31-181.13a10.77,10.77,0,0,1,10.6-9.56l302.57.27a8.7,8.7,0,0,1,8.48,5.93,8.68,8.68,0,0,1,.4,3.65L594,347.68a10.77,10.77,0,0,1-10.6,9.56Z" transform="translate(-10 -15)"></path><path class="cls-9" d="M573.89,552.41H446a6.82,6.82,0,0,1-2.75-.54,6.63,6.63,0,0,1-3.67-4.06,6.75,6.75,0,0,1-.26-2.79l15.53-161.53a8.29,8.29,0,0,1,8.09-7.38H590.84a6.45,6.45,0,0,1,2.74.54,6.59,6.59,0,0,1,2.28,1.63,6.52,6.52,0,0,1,1.39,2.42,6.59,6.59,0,0,1,.26,2.79L582,545a8.29,8.29,0,0,1-8.09,7.39Z" transform="translate(-10 -15)"></path><path class="cls-10" d="M543.4,463.29c14.43-13.74,16-35.5,3.51-48.61s-34.3-12.57-48.72,1.17-16,35.51-3.51,48.61S529,477,543.4,463.29Z" transform="translate(-10 -15)"></path><path class="cls-11" d="M504.58,471.35c-12-5.17-19.54-17.45-18.17-31.78,1.83-19,18.7-34.38,37.69-34.38" transform="translate(-10 -15)"></path><path class="cls-12" d="M501.74,500.9h26.31" transform="translate(-10 -15)"></path><path class="cls-12" d="M498.88,530.7h26.31" transform="translate(-10 -15)"></path><path class="cls-13" d="M486.3,515.63h54.37" transform="translate(-10 -15)"></path><path class="cls-2" d="M417.49,552.41H289.61a6.85,6.85,0,0,1-2.75-.54,6.68,6.68,0,0,1-2.27-1.63,6.56,6.56,0,0,1-1.39-2.43,6.43,6.43,0,0,1-.26-2.79l15.53-161.53a8.27,8.27,0,0,1,8.09-7.38H434.44a6.58,6.58,0,0,1,6.67,7.38L425.59,545a8.31,8.31,0,0,1-8.1,7.39Z" transform="translate(-10 -15)"></path><path class="cls-10" d="M387,463.29c14.42-13.74,16-35.5,3.5-48.61s-34.3-12.57-48.72,1.17-16,35.51-3.51,48.61S372.59,477,387,463.29Z" transform="translate(-10 -15)"></path><path class="cls-11" d="M398.78,439.57c-1.82,19-18.7,34.39-37.69,34.39s-32.9-15.4-31.07-34.39,18.7-34.38,37.68-34.38" transform="translate(-10 -15)"></path><path class="cls-12" d="M345.35,500.9h26.31" transform="translate(-10 -15)"></path><path class="cls-12" d="M342.48,530.7h26.31" transform="translate(-10 -15)"></path><path class="cls-13" d="M329.9,515.63h54.37" transform="translate(-10 -15)"></path><path class="cls-14" d="M563.17,667.94h-285a6.1,6.1,0,0,1-2.6-.51,6.24,6.24,0,0,1-2.16-1.54,6.31,6.31,0,0,1-1.32-2.3,6.38,6.38,0,0,1-.25-2.64l8.51-88.49a7.89,7.89,0,0,1,7.67-7H573a6.25,6.25,0,0,1,6.08,4.36,6.37,6.37,0,0,1,.25,2.64L570.84,661a7.89,7.89,0,0,1-2.52,4.94A7.81,7.81,0,0,1,563.17,667.94Z" transform="translate(-10 -15)"></path><path class="cls-11" d="M298,647.43l4-41.84" transform="translate(-10 -15)"></path><path class="cls-11" d="M327.47,618.12l-2.81,29.31" transform="translate(-10 -15)"></path><path class="cls-11" d="M353.2,628.13l-1.86,19.3" transform="translate(-10 -15)"></path><path class="cls-11" d="M383.1,594.72,378,647.43" transform="translate(-10 -15)"></path><path class="cls-11" d="M406.58,628.13l-1.86,19.3" transform="translate(-10 -15)"></path><path class="cls-11" d="M436.25,597.05l-4.84,50.38" transform="translate(-10 -15)"></path><path class="cls-11" d="M460.11,626.51l-2,20.92" transform="translate(-10 -15)"></path><path class="cls-11" d="M485.85,636.28l-1.07,11.15" transform="translate(-10 -15)"></path><path class="cls-11" d="M515.49,605.59l-4,41.84" transform="translate(-10 -15)"></path><path class="cls-11" d="M543.71,589.67l-5.55,57.76" transform="translate(-10 -15)"></path><path class="cls-15" d="M305.35,329.46l16,25.1a5.1,5.1,0,0,1-1.52,7l-2.59,1.68a21.33,21.33,0,0,1-27.82-4l-21.26-24.79Z" transform="translate(-10 -15)"></path><path class="cls-16" d="M293.13,339.12S299.06,359.49,311,366a52.64,52.64,0,0,0,8.88-4.45l-13.37-22.45" transform="translate(-10 -15)"></path><path class="cls-15" d="M19.06,430.71,82,400.56a35.14,35.14,0,0,0,14.47-12.84l60.79-95.62A35.12,35.12,0,0,1,173,278.68L260.55,241,241.81,382.71l-.33,5.23s-23.16,60-79.92,81.77l-90.74,55.5Z" transform="translate(-10 -15)"></path><path class="cls-16" d="M87.54,397.23s29.77,74.3,74,72.48L133.31,487s-95.91-17.79-60-82.41Z" transform="translate(-10 -15)"></path><path class="cls-16" d="M247,267.19S216,286,217.69,329.46l37.17-13.89Z" transform="translate(-10 -15)"></path><path class="cls-15" d="M324.76,329.46l16,25.1a5.08,5.08,0,0,1,.69,3.82,5.13,5.13,0,0,1-2.2,3.19l-2.59,1.68a21.33,21.33,0,0,1-27.82-4L287.6,334.46Z" transform="translate(-10 -15)"></path><path class="cls-4" d="M561.6,339.36,259,339.09a8.74,8.74,0,0,1-3.6-.68,8.73,8.73,0,0,1-5.28-8.9l16.32-181.13a10.77,10.77,0,0,1,10.6-9.56l302.57.27a8.74,8.74,0,0,1,3.61.67,8.69,8.69,0,0,1,5.27,8.91L572.2,329.8a10.77,10.77,0,0,1-10.6,9.56Z" transform="translate(-10 -15)"></path><path class="cls-17" d="M279.06,246.27s27.16-5.49,34.47,7.26,13.61,36.67,33.06,33.59S380.92,221.46,400,222s12.38,41.55,33.19,42.13,17.11-22.9,31-22.24c16.83.79,10.55,49.41,32.49,50s25.52-64.22,58.68-63.08" transform="translate(-10 -15)"></path><path class="cls-18" d="M294.51,169.15l53.23,0" transform="translate(-10 -15)"></path><path class="cls-19" d="M292.31,193.56l110,.09" transform="translate(-10 -15)"></path><path class="cls-15" d="M189.31,338.46l38.81-17.1,39.69-27.09c10.44-7.13,32.24-10.34,40.09-.43,8,10.08-1,30-10.67,38.46l-36.68,32-19.07,23.61Z" transform="translate(-10 -15)"></path><path class="cls-20" d="M268.19,304.56s5.24,20.2,18.83,23.7l14.41-12.18a13.36,13.36,0,0,0,5.31-9.16,13.51,13.51,0,0,0-3-10.17h0a13.42,13.42,0,0,0-17.11-3Z" transform="translate(-10 -15)"></path><path class="cls-4" d="M84.38,398.06s-7.52,53.8,57.94,84.6c0,0-47,43.13-65.15,50.39s-86.25-66.87-62-108.94C21.94,412.32,84.38,398.06,84.38,398.06Z" transform="translate(-10 -15)"></path><path class="cls-16" d="M332.4,341.42s-25.51.53-34.39,5.17l-6.41-7.47h39.33Z" transform="translate(-10 -15)"></path><path class="cls-2" d="M802.16,339.36H620.76c-13.67,0-23.77-11.08-22.56-24.75L622.54,39.74C623.75,26.08,635.81,15,649.47,15H830.88c13.67,0,23.76,11.08,22.55,24.74L829.09,314.61C827.88,328.28,815.82,339.36,802.16,339.36Z" transform="translate(-10 -15)"></path><path class="cls-7" d="M776.19,170.21c28.73-27.48,31.62-71.07,6.47-97.36S713.83,47.52,685.11,75s-31.62,71.07-6.47,97.36S747.47,197.69,776.19,170.21Z" transform="translate(-10 -15)"></path><path class="cls-21" d="M734.49,124.74,780,166.28s10.36-11.14,13.45-19.1Z" transform="translate(-10 -15)"></path><path class="cls-4" d="M737.53,45,731.05,118a6.85,6.85,0,0,0,3.44,6.7l61.79,34.4S833,56.78,737.53,45Z" transform="translate(-10 -15)"></path><path class="cls-22" d="M640.81,242.07H716" transform="translate(-10 -15)"></path><path class="cls-22" d="M635.31,304.2h75.16" transform="translate(-10 -15)"></path><path class="cls-23" d="M638.09,272.78H793.4" transform="translate(-10 -15)"></path><path class="cls-15" d="M579.07,541.85s24.22-6.46,37.11,7.43c0,0,23.18-4.21,32.6,8.68,0,0,20.54,1.19,26.49,9.57a28.28,28.28,0,0,1,22.4,17.53c5.61,13.24.85,89.79-4.74,117.22a39,39,0,0,0,1.39,20.58l14.2,40.82-98.27,41.09-23.34-60.86s-28.4-45.64-32.45-53.76,2.82-75.44-11-117.51Z" transform="translate(-10 -15)"></path><path class="cls-16" d="M599.59,777l-2.83-7.39s51-3.26,97.56-46.72l4.45,12.8s-5.75,26.44-31.94,38.9S599.59,777,599.59,777Z" transform="translate(-10 -15)"></path><path class="cls-3" d="M599.59,777s61.73,5.62,99.18-41.31c0,0,13.83,7.25,35.07,60.33,6.52,16.31-102.39,74.35-120,50.23C613.84,846.22,598.64,814.06,599.59,777Z" transform="translate(-10 -15)"></path><path class="cls-15" d="M549.47,598s-2.13,11.3-12.2,11.3c-6.57,0-35-8.6-54-14.58a26.45,26.45,0,0,0-28.91,9.1l-1.15,1.5a6.88,6.88,0,0,0-1.23,2.5,7.09,7.09,0,0,0-.14,2.79,6.76,6.76,0,0,0,1,2.61,7,7,0,0,0,1.92,2c16.09,11.23,59.53,41.71,65.08,47.26,6.84,6.84,44.91,45.17,44.91,45.17Z" transform="translate(-10 -15)"></path><path class="cls-16" d="M547.15,586.72s20.58,27.85,17.53,33.95-34.95-12.55-34.95-12.55S555.48,614.74,547.15,586.72Z" transform="translate(-10 -15)"></path><path class="cls-15" d="M543.42,572.64,508.8,467.49a28.35,28.35,0,0,1,18.89-36.06,12.75,12.75,0,0,1,15.3,7.13l48.57,111.66Z" transform="translate(-10 -15)"></path><path class="cls-20" d="M528.41,527a13.73,13.73,0,0,0,9,6.31" transform="translate(-10 -15)"></path><path class="cls-20" d="M540.87,473.22c4.21-1.87,8.86-4.48,10.86-7.52l-12.9-30.62a4.88,4.88,0,0,0-1.21-1.74A5,5,0,0,0,533.7,432a5.14,5.14,0,0,0-2,.64c-4.58,2.65-10.64,7.43-10.88,14.29l8.73,21.7a8.37,8.37,0,0,0,1.87,2.83,8.54,8.54,0,0,0,6.17,2.49A8.77,8.77,0,0,0,540.87,473.22Z" transform="translate(-10 -15)"></path><path class="cls-20" d="M587.65,541.24l11.94,26.29" transform="translate(-10 -15)"></path><path class="cls-20" d="M616.66,549.82A51.68,51.68,0,0,1,626,579.46" transform="translate(-10 -15)"></path><path class="cls-20" d="M649.35,558.45s6,13.78,6.5,24.68" transform="translate(-10 -15)"></path><path class="cls-20" d="M676.11,568.35a38.7,38.7,0,0,1,2.68,18.37" transform="translate(-10 -15)"></path><path class="cls-20" d="M480.11,628.13s7.11-9,4.67-13.56-13.28-10.93-19.55-10.23a25.29,25.29,0,0,0-8.53,2.9,3.14,3.14,0,0,0-1.18,1.08,3.06,3.06,0,0,0-.48,1.52,3.13,3.13,0,0,0,.33,1.57,3.22,3.22,0,0,0,1.07,1.19Z" transform="translate(-10 -15)"></path><path class="cls-2" d="M357.84,738.23H141.23a6.24,6.24,0,0,1-4.76-2.05,6.31,6.31,0,0,1-1.32-2.3,6.38,6.38,0,0,1-.25-2.64l8.51-88.49a7.89,7.89,0,0,1,7.67-7H367.69a6.26,6.26,0,0,1,2.6.52,6.15,6.15,0,0,1,2.16,1.54,6.23,6.23,0,0,1,1.32,2.3,6.37,6.37,0,0,1,.25,2.64l-8.51,88.49a7.87,7.87,0,0,1-7.67,7Z" transform="translate(-10 -15)"></path><path class="cls-24" d="M161.56,658.83H295.25" transform="translate(-10 -15)"></path><path class="cls-11" d="M161.56,658.83h92.9" transform="translate(-10 -15)"></path><path class="cls-24" d="M159.56,687H293.25" transform="translate(-10 -15)"></path><path class="cls-11" d="M159.56,687H215.1" transform="translate(-10 -15)"></path><path class="cls-24" d="M155.19,715.16H288.88" transform="translate(-10 -15)"></path><path class="cls-11" d="M155.19,715.16h34" transform="translate(-10 -15)"></path><path class="cls-7" d="M342.57,666.82a8,8,0,1,0-8-8A8,8,0,0,0,342.57,666.82Z" transform="translate(-10 -15)"></path><path class="cls-7" d="M340,693.75a8,8,0,1,0-8-8A8,8,0,0,0,340,693.75Z" transform="translate(-10 -15)"></path><path class="cls-7" d="M337.09,723.15a8,8,0,1,0-8-8A8,8,0,0,0,337.09,723.15Z" transform="translate(-10 -15)"></path></svg>