<svg xmlns="http://www.w3.org/2000/svg" xmlns:xlink="http://www.w3.org/1999/xlink" id="Layer_1" x="0px" y="0px" viewBox="0 0 1005.6 831.2" style="enable-background:new 0 0 1005.6 831.2;" xml:space="preserve"><style type="text/css">	.st0{clip-path:url(#SVGID_00000037666469766505770350000000243448650029407123_);}	.st1{fill:#FEBB94;}	.st2{fill:#FFFFFF;}	.st3{fill:none;stroke:#FFFFFF;stroke-width:17.1948;stroke-miterlimit:10;}	.st4{fill:none;stroke:#1C85E8;stroke-width:17.1948;stroke-miterlimit:10;}	.st5{fill:none;stroke:#FFFFFF;stroke-width:6.7263;stroke-linecap:round;stroke-miterlimit:10;}			.st6{opacity:0.4;fill:none;stroke:#FFFFFF;stroke-width:6.7263;stroke-linecap:round;stroke-miterlimit:10;enable-background:new    ;}	.st7{fill:#1C85E8;}	.st8{fill:url(#SVGID_00000066504236187988498190000007463328341398793143_);}	.st9{opacity:0.6;fill:none;stroke:#FFFFFF;stroke-width:30;stroke-miterlimit:10;enable-background:new    ;}	.st10{fill:url(#SVGID_00000105393007917893793450000004741800267522829488_);}	.st11{fill:#1F2D49;}	.st12{fill:#0D1B33;}	.st13{fill:#FF967C;}	.st14{fill:#FFCCB3;}	.st15{fill:#E56441;}	.st16{fill:none;stroke:#E56441;stroke-width:1.2013;stroke-linecap:round;}	.st17{fill:#BC775C;}	.st18{fill:#080B09;}	.st19{fill:#E56441;stroke:#E56441;}	.st20{fill:none;stroke:#FFFFFF;stroke-width:5.0479;stroke-linecap:round;stroke-miterlimit:10;}	.st21{fill:none;stroke:#E56441;stroke-width:1.2054;stroke-linecap:round;}	.st22{fill:#5661AE;}	.st23{fill:#465393;}	.st24{fill:#96BAFD;}	.st25{fill:url(#SVGID_00000012457588634006474100000002439742130973975969_);}	.st26{fill:url(#SVGID_00000115508537491568653540000010180388071027435424_);}	.st27{fill:#FCBA9F;}	.st28{fill-rule:evenodd;clip-rule:evenodd;fill:#FFFFFF;}	.st29{fill:#493212;}	.st30{fill:none;stroke:#E56441;stroke-width:1.225;stroke-linecap:round;}	.st31{fill:none;stroke:#FFFFFF;stroke-width:14.8881;stroke-linecap:round;stroke-miterlimit:10;}			.st32{opacity:0.4;fill:none;stroke:#FFFFFF;stroke-width:14.8881;stroke-linecap:round;stroke-miterlimit:10;enable-background:new    ;}	.st33{fill:none;stroke:#FFFFFF;stroke-width:5.1623;stroke-linecap:round;stroke-miterlimit:10;}	.st34{fill:none;stroke:#080B09;stroke-miterlimit:10;}	.st35{fill:none;stroke:#96BAFD;stroke-miterlimit:10;}	.st36{fill-rule:evenodd;clip-rule:evenodd;fill:#1C85E8;}</style><g>	<defs>		<rect id="SVGID_1_" width="1005.6" height="831.2"></rect>	</defs>	<clipPath id="SVGID_00000086654891948363990390000017050130120586937759_">		<use xlink:href="#SVGID_1_" style="overflow:visible;"></use>	</clipPath>	<g style="clip-path:url(#SVGID_00000086654891948363990390000017050130120586937759_);">		<path class="st1" d="M784.8,120H539.5c-5.5,0-10,4.5-10,10v173.1c0,5.5,4.5,10,10,10h245.3c5.5,0,10-4.5,10-10V130   C794.8,124.5,790.3,120,784.8,120z"></path>		<path class="st2" d="M564.7,154.8h-7.3l-1.2,3.5h-3l6.2-17.4h3.3l6.2,17.4h-3L564.7,154.8z M563.9,152.5l-2.8-8.1l-2.8,8.1H563.9z    M570.7,151.4c0-1.4,0.3-2.6,0.8-3.7c0.6-1.1,1.4-1.9,2.3-2.5c1-0.6,2.1-0.9,3.3-0.9c0.9,0,1.8,0.2,2.6,0.6   c0.9,0.4,1.6,0.9,2.1,1.5v-6.6h2.9v18.5H582v-2.1c-0.5,0.7-1.1,1.2-1.9,1.6c-0.8,0.4-1.8,0.6-2.8,0.6c-1.2,0-2.3-0.3-3.3-0.9   c-1-0.6-1.8-1.5-2.3-2.5C571,154,570.7,152.8,570.7,151.4z M582,151.4c0-0.9-0.2-1.8-0.6-2.5c-0.4-0.7-0.9-1.2-1.5-1.6   c-0.6-0.4-1.3-0.5-2-0.5c-0.7,0-1.4,0.2-2,0.5c-0.6,0.4-1.1,0.9-1.5,1.6c-0.4,0.7-0.6,1.5-0.6,2.4c0,0.9,0.2,1.8,0.6,2.5   c0.4,0.7,0.9,1.3,1.5,1.6c0.6,0.4,1.3,0.5,2,0.5c0.7,0,1.4-0.2,2-0.5c0.6-0.4,1.1-0.9,1.5-1.6C581.8,153.2,582,152.4,582,151.4z    M593.6,158.5c-1.1,0-2.1-0.2-2.9-0.6c-0.8-0.4-1.5-0.9-2-1.6c-0.5-0.7-0.8-1.4-0.8-2.3h2.9c0.1,0.6,0.3,1.1,0.8,1.5   c0.5,0.4,1.2,0.6,1.9,0.6c0.8,0,1.4-0.1,1.8-0.4c0.4-0.3,0.7-0.7,0.7-1.2c0-0.5-0.2-0.9-0.7-1.1c-0.5-0.2-1.3-0.5-2.3-0.8   c-1-0.3-1.9-0.6-2.5-0.8s-1.2-0.7-1.7-1.2c-0.5-0.5-0.7-1.3-0.7-2.2c0-0.7,0.2-1.4,0.6-2c0.4-0.6,1-1.1,1.8-1.4   c0.8-0.3,1.7-0.5,2.8-0.5c1.6,0,2.8,0.4,3.8,1.2c1,0.8,1.5,1.9,1.5,3.2h-2.8c0-0.6-0.3-1.1-0.7-1.5c-0.4-0.4-1.1-0.6-1.8-0.6   c-0.7,0-1.3,0.1-1.7,0.4c-0.4,0.3-0.6,0.7-0.6,1.1c0,0.4,0.1,0.7,0.4,0.9c0.3,0.2,0.6,0.5,1,0.6c0.4,0.1,0.9,0.3,1.7,0.5   c1,0.3,1.8,0.5,2.4,0.8c0.6,0.3,1.2,0.7,1.7,1.2c0.5,0.5,0.7,1.2,0.7,2.1c0,0.8-0.2,1.5-0.6,2.1c-0.4,0.6-1,1.1-1.8,1.4   C595.5,158.4,594.6,158.5,593.6,158.5z"></path>		<path class="st3" d="M712.7,228.1c0,10-3,19.8-8.5,28.1c-5.6,8.3-13.4,14.8-22.7,18.6c-9.2,3.8-19.4,4.8-29.2,2.9   c-9.8-2-18.8-6.8-25.9-13.8c-7.1-7.1-11.9-16.1-13.8-25.9c-1.9-9.8-0.9-20,2.9-29.2c3.8-9.2,10.3-17.1,18.6-22.7   c8.3-5.6,18.1-8.5,28.1-8.5"></path>		<path class="st4" d="M671.5,167.9c13.4,0,26.3,5.3,35.7,14.8c9.5,9.5,14.8,22.3,14.8,35.7"></path>		<path class="st5" d="M552.7,276.7h29.6"></path>		<path class="st6" d="M552.7,293.3h61.1"></path>		<path class="st5" d="M722.1,276.9h29.6"></path>		<path class="st6" d="M722.1,293.4h61.1"></path>		<path class="st7" d="M93.2,103.9h356.1c9.5,0,18.5,3.8,25.2,10.4c6.7,6.7,10.4,15.8,10.4,25.2v21.3H57.6v-21.3   c0-9.5,3.8-18.5,10.4-25.2S83.8,103.9,93.2,103.9z"></path>					<linearGradient id="SVGID_00000150100384206687662770000014002987016152899969_" gradientUnits="userSpaceOnUse" x1="249.1553" y1="620.8911" x2="349.2343" y2="-293.5858" gradientTransform="matrix(1 0 0 -1 0 782)">			<stop offset="0" style="stop-color:#FFFFFF"></stop>			<stop offset="1" style="stop-color:#94B9FF"></stop>		</linearGradient>		<path style="fill:url(#SVGID_00000150100384206687662770000014002987016152899969_);" d="M57.6,160.9H485V564c0,7.5-3,14.7-8.3,20   c-5.3,5.3-12.5,8.3-20,8.3H85.9c-7.5,0-14.7-3-20-8.3c-5.3-5.3-8.3-12.5-8.3-20V160.9L57.6,160.9z"></path>		<path class="st9" d="M275.5,515.4c81.8,0,148.2-66.3,148.2-148.2c0-81.8-66.3-148.2-148.2-148.2c-81.8,0-148.2,66.3-148.2,148.2   C127.3,449.1,193.7,515.4,275.5,515.4z"></path>		<path class="st2" d="M97,142.5c4.8,0,8.7-3.9,8.7-8.7c0-4.8-3.9-8.7-8.7-8.7c-4.8,0-8.7,3.9-8.7,8.7   C88.3,138.6,92.2,142.5,97,142.5z"></path>		<path class="st2" d="M132.4,142.5c4.8,0,8.7-3.9,8.7-8.7c0-4.8-3.9-8.7-8.7-8.7c-4.8,0-8.7,3.9-8.7,8.7   C123.6,138.6,127.5,142.5,132.4,142.5z"></path>		<path class="st2" d="M165.6,142.5c4.8,0,8.7-3.9,8.7-8.7c0-4.8-3.9-8.7-8.7-8.7c-4.8,0-8.7,3.9-8.7,8.7   C156.8,138.6,160.7,142.5,165.6,142.5z"></path>		<path class="st7" d="M565.1,342.7h356.1c9.5,0,18.5,3.8,25.2,10.4c6.7,6.7,10.4,15.8,10.4,25.2v21.3H529.5v-21.3   c0-9.5,3.8-18.5,10.4-25.2C546.6,346.4,555.7,342.7,565.1,342.7z"></path>					<linearGradient id="SVGID_00000142163637798999492770000017567651840826047419_" gradientUnits="userSpaceOnUse" x1="721.0435" y1="382.0878" x2="821.1215" y2="-532.3862" gradientTransform="matrix(1 0 0 -1 0 782)">			<stop offset="0" style="stop-color:#FFFFFF"></stop>			<stop offset="1" style="stop-color:#94B9FF"></stop>		</linearGradient>		<path style="fill:url(#SVGID_00000142163637798999492770000017567651840826047419_);" d="M529.5,399.7h427.4v403.1   c0,7.5-3,14.7-8.3,20c-5.3,5.3-12.5,8.3-20,8.3H557.8c-7.5,0-14.7-3-20-8.3s-8.3-12.5-8.3-20V399.7z"></path>		<path class="st9" d="M765.4,763.6c81.8,0,148.2-66.3,148.2-148.2c0-81.8-66.3-148.2-148.2-148.2c-81.8,0-148.2,66.3-148.2,148.2   C617.2,697.2,683.5,763.6,765.4,763.6z"></path>		<path class="st2" d="M568.9,381.3c4.8,0,8.7-3.9,8.7-8.7c0-4.8-3.9-8.7-8.7-8.7c-4.8,0-8.7,3.9-8.7,8.7   C560.2,377.4,564.1,381.3,568.9,381.3z"></path>		<path class="st2" d="M604.3,381.3c4.8,0,8.7-3.9,8.7-8.7c0-4.8-3.9-8.7-8.7-8.7c-4.8,0-8.7,3.9-8.7,8.7   C595.5,377.4,599.4,381.3,604.3,381.3z"></path>		<path class="st2" d="M637.5,381.3c4.8,0,8.7-3.9,8.7-8.7c0-4.8-3.9-8.7-8.7-8.7c-4.8,0-8.7,3.9-8.7,8.7   C628.7,377.4,632.6,381.3,637.5,381.3z"></path>		<path class="st11" d="M700,652.7l-21.1,178.5h84.7l48.3-177.5L700,652.7z"></path>		<path class="st12" d="M766.3,821.4l-10-54.8l19.7-59.8h30.6L766.3,821.4z"></path>		<path class="st11" d="M856.9,653.7c-0.6,10.7-0.6,21.5,0,32.2c2.5,34.6-4.6,132-4.5,145.3h-75.2c-0.3-18.4-5-176.7-5-176.7   L856.9,653.7z"></path>		<path class="st12" d="M698.4,665.5l158.5,20.4v-32.2L700,652.7L698.4,665.5z"></path>		<path class="st1" d="M728.4,471.6c4.4-21.8-6-21.3-9.4-24.7c0,0-13-10.7-22.9-0.7c-10.5,10.6-70.5,92.6-70.5,92.6l37.6,34.5   l7.1-8.4l18.3-21.8l19.6-23.3l2.4-2.7l26.4-29.9C736.9,487.2,725.9,483.1,728.4,471.6z"></path>		<path class="st1" d="M744.1,475.4c5.1-15.1-3.1-31.5-18.2-36.5c-15.1-5.1-31.5,3.1-36.5,18.2c-5.1,15.1,3.1,31.5,18.2,36.5   C722.7,498.6,739.1,490.5,744.1,475.4z"></path>		<path class="st13" d="M710.2,517c0.8-4.6,2.3-13.7,3.9-22l8.7-40.3c0,0-23.3,34.4-34,58.4c-7.9,18-17.2,36.3-18.7,51.7l18.3-21.8   l19.6-23.3L710.2,517z"></path>		<path class="st14" d="M634.7,432.4c-2-18.5,3.1-19.4,3.1-29.4c0-9.8,14.8-27.9,7.8-27.5c-7,0.4-12,7.1-12,7.1   c-1-8.8,0.7-23.4-8.3-28.9c-9-5.5-11.1-2.8-18.4-0.7c-19.5,6-8.6,31.8-8.4,40c0.2,5.2,9.2,24.4,9.7,28l2.9,13.7L634.7,432.4z"></path>		<path class="st15" d="M623.6,379.5l-2.7-26.5L623.6,379.5z"></path>		<path class="st16" d="M623.6,379.5l-2.7-26.5"></path>		<path class="st15" d="M614.5,379.8l-4.3-25.5L614.5,379.8z"></path>		<path class="st16" d="M614.5,379.8l-4.3-25.5"></path>		<path class="st15" d="M603.7,379.9l-2.2-15.2L603.7,379.9z"></path>		<path class="st16" d="M603.7,379.9l-2.2-15.2"></path>		<path class="st15" d="M618.5,399.8c3.2-7.5,11.5-14.6,11.5-14.6L618.5,399.8z"></path>		<path class="st16" d="M618.5,399.8c3.2-7.5,11.5-14.6,11.5-14.6"></path>		<path class="st1" d="M668.9,546.1l-31.2-123.3c-0.2-0.7-0.7-1.4-1.4-1.8c-0.7-0.4-1.4-0.5-2.2-0.4l-23.6,4.5   c-1.1,0.2-2.1,0.9-2.8,1.8c-0.7,0.9-1,2.1-0.9,3.2l13,128.2L668.9,546.1z"></path>		<path class="st1" d="M645.1,580.6c14.1,0,25.6-11.5,25.6-25.6c0-14.1-11.5-25.6-25.6-25.6c-14.1,0-25.6,11.5-25.6,25.6   C619.5,569.1,631,580.6,645.1,580.6z"></path>		<path class="st1" d="M748.4,426c0,0-29.2,8.6-36.6,11.7c-7.4,3.1-7.8,15.4-8.3,24.1c-0.3,6.1-1.5,98.5-1,156.7   c0.1,12.4-2.2,20.3-3.7,27.2c-0.4,1.8-0.6,3.7-0.7,5.6c0,0.7,0.1,1.3,0.4,1.9s0.6,1.2,1.1,1.6c0.5,0.5,1,0.9,1.6,1.1   c0.6,0.3,1.3,0.4,1.9,0.4l149.7,1.4c0,0,6.6,1,5-6.6c-1.6-8.3-2.5-16.7-2.6-25.1c-1.5-60.4-1.8-161.4-2.4-166.2   c-1-7.2,6.7-13.4-1.6-17l-40.4-14.7L748.4,426z"></path>		<path class="st13" d="M823.2,492.7c0,0,2.3,83.7,1.8,111.5c-0.3,17.4-20.2,24.7-20.2,34.8c0,6,16.1,2.2,23.2-0.1   c16-5.2,26.5,1.9,26.5,1.9l-4.3-152.5L823.2,492.7z"></path>		<path class="st14" d="M755.1,396.4l8.9,46.6l3.2,3.3c0,0-1.2,1.5,2.3-2.1c8.5-8.5,30.7-18.8,29.8-22.1c-1.3-4.8-5.1-34.5-5.1-34.5   L755.1,396.4z"></path>		<path class="st13" d="M754.8,399.5h23.5l-25.8,40.1L754.8,399.5z"></path>		<path class="st14" d="M822.9,379.2c6.9-17-14.1-19.2-17.8-19.4c-3.6-0.2-1.2-27.8-1.2-27.8s-37.1-18.7-47.6-14.2   c0,0-15,31.1-22.1,51.8c-7.1,20.7-4,31.8,3.4,34.8c9.9,5,22.9,6.6,32.2,4.3c16.6-4.1,27.1-17.3,27.1-17.3c0.3,0,0.4-0.1,0.4-0.1   S816.4,395.3,822.9,379.2z"></path>		<path class="st17" d="M812.9,394.2c13.4-9.3,24.7-19.8,26.8-33.1C844,334.4,829,328,829,328c10-18.9-12.8-29.2-24.5-33   c-38.8-12.6-62.4,1.1-64.1,16.1c-0.7,6.3,0.3,12.2,3.5,17c-0.1,4.6,0.4,9.3,1.4,13.8l6.4-11.9c1.3,1.6,2.9,2.9,4.8,3.7   c21.1,10,42.7-1.1,42.7-1.1c-8.4,9.7-8.5,31.3-7.9,35.8c0.8,6.5,4.8,1.7,4.8,1.7c4-6.4,18.6-11,22.5,2.2c3,10.3-24,20.5-24,20.5   l2.7,16.1c5,1,4.3-4.3,5.6-2.5c1.3,1.8,4.2,2.9,4.7-2.5C808.1,398.3,812.9,394.2,812.9,394.2L812.9,394.2z"></path>		<path class="st18" d="M771,363.7c1.2-2.3,1-4.9-0.6-5.7c-1.5-0.8-3.8,0.5-5,2.8c-1.2,2.3-0.9,4.9,0.6,5.7   C767.5,367.3,769.7,366,771,363.7z"></path>		<path class="st18" d="M749.9,352.6c1.2-2.3,0.9-4.9-0.6-5.7c-1.5-0.8-3.8,0.5-5,2.8c-1.2,2.3-0.9,4.9,0.6,5.7   C746.4,356.2,748.7,354.9,749.9,352.6z"></path>		<path class="st16" d="M752.5,360.4c0,0,1.3,6.1-2.7,5.1c-3.8-1.1-6.7,0.6-3.7,4.9"></path>		<path class="st19" d="M745.5,375.4L745.5,375.4L745.5,375.4c2.4,0.8,7,2.4,10.1,3.6l0,0l0,0c0.1,0,0.2,0.1,0.3,0.2   c0.1,0.1,0.1,0.2,0.1,0.3c0,0.1,0,0.2,0,0.3c0,0.1-0.1,0.2-0.2,0.2c-0.9,0.6-2.1,1.2-3.3,1.8c-1.2,0.5-2.5,0.9-3.7,0.8   c-1.1,0-2.1-0.4-2.8-1.4c-0.7-1-1.2-2.6-1.2-5.2l0,0l0,0c0-0.1,0-0.2,0-0.2s0.1-0.1,0.1-0.2c0.1-0.1,0.1-0.1,0.2-0.1   S745.4,375.4,745.5,375.4z"></path>		<path class="st18" d="M781,357.6l-0.3,0.4c-0.5,0.6-1.1,1-1.9,1.1c-0.8,0.1-1.5-0.1-2.1-0.5l-10.4-8c-0.5-0.4-0.9-0.9-1-1.5   c-0.1-0.6,0-1.3,0.3-1.8c0.2-0.3,0.4-0.6,0.7-0.9c0.3-0.2,0.7-0.4,1-0.5c0.4-0.1,0.8-0.1,1.2,0c0.4,0.1,0.7,0.2,1.1,0.4l10.7,7.6   c0.3,0.2,0.6,0.4,0.8,0.7c0.2,0.3,0.3,0.6,0.4,1c0.1,0.3,0.1,0.7,0,1C781.3,356.9,781.2,357.3,781,357.6z"></path>		<path class="st18" d="M744.5,336.1l12.9,2.5c0.4,0.1,0.7,0.2,1.1,0.5c0.3,0.2,0.6,0.5,0.8,0.9c0.2,0.3,0.3,0.7,0.3,1.1   s0,0.8-0.1,1.1c-0.2,0.6-0.6,1.1-1.1,1.5c-0.5,0.3-1.2,0.4-1.8,0.3l-12.9-2c-0.7-0.1-1.4-0.6-1.8-1.2c-0.4-0.6-0.6-1.4-0.5-2.1   l0-0.5c0.1-0.3,0.2-0.7,0.4-1c0.2-0.3,0.5-0.5,0.8-0.7c0.3-0.2,0.6-0.3,1-0.4C743.8,336,744.1,336,744.5,336.1z"></path>		<path class="st7" d="M807.5,496.8l-95.7,8.3c-3,0.3-5.2,2.9-4.9,5.8l10.4,120.2c0.3,3,2.9,5.2,5.8,4.9l95.7-8.3   c3-0.3,5.2-2.9,4.9-5.8l-10.4-120.2C813.1,498.7,810.5,496.5,807.5,496.8z"></path>		<path class="st20" d="M721.8,519.1l39.5-3.4"></path>		<path class="st20" d="M723.4,533.3l18-1.6"></path>		<path class="st1" d="M853.4,466.4c-14.7-18.4-21.3-9.6-26.5-9.2c0,0-17.5,3.3-16.2,18.1C812.2,491,838,595.5,838,595.5l54.1-4.1   l-2.6-14.4l-5.3-29.7l-5.6-31.8l-0.5-3.8l-6.3-41.8C871.8,470,861,476.2,853.4,466.4z"></path>		<path class="st1" d="M857,498.2c14.4-8.8,18.9-27.7,10.1-42.1c-8.8-14.4-27.7-18.9-42.1-10.1c-14.4,8.8-18.9,27.7-10.1,42.1   C823.8,502.5,842.6,507,857,498.2z"></path>		<path class="st14" d="M727.4,599.9l-34.1,2.5l-8.1,19L688,645c0,0,5.9-2.4,6.5-10.7c0.6-8.3,27.8-2.4,34.9-11.5"></path>		<path class="st1" d="M857.7,569.1l-132.5,25c-0.8,0.2-1.5,0.7-2,1.3c-0.5,0.7-0.7,1.5-0.6,2.3l3.2,25.2c0.2,1.2,0.8,2.3,1.7,3.1   c0.9,0.8,2.1,1.2,3.3,1.1l136.4-5.3L857.7,569.1z"></path>		<path class="st1" d="M865.5,622c15,0,27.1-12.1,27.1-27.1s-12.1-27.1-27.1-27.1s-27.1,12.1-27.1,27.1S850.5,622,865.5,622z"></path>		<path class="st11" d="M322.1,369.1l46.1,194.6l3.3,28.6h-78.6L241,466.6l9.6-94.2L322.1,369.1z"></path>		<path class="st12" d="M273.3,544.9l11.4-96.1l3.8,132.7L273.3,544.9z"></path>		<path class="st11" d="M197.7,368.5c0,0-21.5,36.1-21.8,66.3c-0.4,45.4-3.7,157.4-3.7,157.4h94.8l17.6-143.6l-25.4-80.2H197.7z"></path>		<path class="st12" d="M322.1,369.1L197,370.4l-12.2,25.2l139.4-17.5L322.1,369.1z"></path>		<path class="st14" d="M466.4,168.5l6.7-14c1.3-3.2,3.4-6.1,6.1-8.3c4.1-3.3,10.1-9.1,11.6-13.9c2.5-7.7,14.4-29.6-2.6-40.7   c-6.3-4.1-4.7-3.2-14.9-0.7c-10.2,2.4-9.4,13.4-13,21.4c0,0-2.9-7.8-9.4-10.2c-6.5-2.4,2.2,19.1-0.2,28.5   c-2.5,9.4,1.8,11.9-5.2,29L466.4,168.5z"></path>		<path class="st15" d="M475.1,91.6l-4.1,20.7L475.1,91.6z"></path>		<path class="st21" d="M475.1,91.6l-4.1,20.7"></path>		<path class="st15" d="M486.7,92.6l-7.1,22.6L486.7,92.6z"></path>		<path class="st21" d="M486.7,92.6l-7.1,22.6"></path>		<path class="st15" d="M496.4,104.3l-6.4,14L496.4,104.3z"></path>		<path class="st21" d="M496.4,104.3l-6.4,14"></path>		<path class="st15" d="M463.4,116c0,0,5.7,9.3,6.9,17.4L463.4,116z"></path>		<path class="st21" d="M463.4,116c0,0,5.7,9.3,6.9,17.4"></path>		<path class="st22" d="M287.2,187.8c10.1-2.2,25.3-3.5,32.5,1.2l71.2,49.2l55.6-90.8l24.9,13.8l-51.1,114.3   c-7.5,19.5-26.3,19.2-37.7,12.5l-37.2-18.2L287.2,187.8z"></path>		<path class="st23" d="M332.4,235c0,0-0.1-5.9,13.7,16.7l36.4,36.2l-37.2-18.2C311.4,256.1,322,240.4,332.4,235z"></path>		<path class="st22" d="M286.5,174.2c0,0,25.2,10,29.1,13.1c3.9,3.1,7.5,28.2,14.1,40.2c6.5,11.9,16.1,34,2.1,54.2   c-14,20.2-12.5,36.3-12.5,36.3l3,50.8l-120.6,2.2c-1.1,0-2.1-0.2-3.1-0.6c-1-0.4-1.9-1-2.6-1.8c-0.7-0.8-1.3-1.7-1.6-2.7   c-0.3-1-0.5-2.1-0.4-3.1c1.3-14.8,7.5-35.6,7.9-59.2c0.7-31.9,1.1-138.7,1.1-138.7l52.5-1.6C266.1,165.1,286.5,174.2,286.5,174.2z   "></path>		<path class="st23" d="M330.9,282.8c0,0-16.4,3.5-30.1,4.2c-13.7,0.7-6.6,11.3,6,12.6c12.5,1.3,15,2.2,15,2.2   C324,295.2,327.1,288.8,330.9,282.8z"></path>		<path class="st23" d="M199.9,326.1l-4.2,24.5c0,0,2.8,7.3,15.8,11.8c13,4.5,24.6,3.1,32.2-5.4c7.6-8.5,34.1-47.8,34.1-47.8   L199.9,326.1z"></path>		<path class="st23" d="M223.7,208.5c0,0,17.6,16,18.6,27.9c1,11.9,3.4,45,26,48.3c27.7,4.1,34.9,8,22.1,11.1   c-12.8,3.1-41.9-1.9-41.9,11.4c0,9.5-11.3,16.5-17,11.4C225.7,313.4,180.5,234.9,223.7,208.5z"></path>		<path class="st24" d="M340.5,185.5l-13.7,29.6l24.8,10.6l14.8-33.6L340.5,185.5z"></path>		<path class="st24" d="M336,200.2l25.2,4.4l-3.2,5.9l-22-7.7V200.2z"></path>		<path class="st7" d="M350.1,153.3L350.1,153.3c-6.6-2.5-14,0.8-16.5,7.4l-2.2,5.9c-2.5,6.6,0.8,14,7.4,16.5l0,0   c6.6,2.5,14-0.8,16.5-7.4l2.2-5.9C360,163.2,356.7,155.8,350.1,153.3z"></path>		<path class="st24" d="M380.6,156.6c35,14.5,70.6,2.2,70.6,2.2l-34.5,90.3c0,0-22.9-36.9-52.9-48.3   C352.7,196.6,380.6,156.6,380.6,156.6z"></path>		<path class="st2" d="M446.2,208.7c9.6-25.2,12.6-47.4,6.7-49.7c-5.9-2.2-18.5,16.3-28,41.5c-9.6,25.2-12.6,47.4-6.7,49.7   C424,252.5,436.6,233.9,446.2,208.7z"></path>		<path class="st7" d="M446.2,208.7c9.6-25.2,13.3-47.2,8.2-49.1c-5-1.9-16.9,16.9-26.5,42.1c-9.6,25.2-13.3,47.2-8.2,49.1   C424.7,252.7,436.6,233.9,446.2,208.7z"></path>					<linearGradient id="SVGID_00000161624675301307108090000007100121376198205330_" gradientUnits="userSpaceOnUse" x1="365.6434" y1="630.9775" x2="342.7704" y2="533.0355" gradientTransform="matrix(1 0 0 -1 0 782)">			<stop offset="0" style="stop-color:#FFFFFF"></stop>			<stop offset="1" style="stop-color:#94B9FF"></stop>		</linearGradient>		<path style="fill:url(#SVGID_00000161624675301307108090000007100121376198205330_);" d="M361.5,149.4l24.2,9.2l-16.8,44.2   l-24.2-9.2c-1.5-0.6-2.8-1.4-4-2.5c-1.2-1.1-2.1-2.4-2.7-3.8c-0.6-1.4-1-3-1.1-4.6c0-1.6,0.2-3.2,0.8-4.7l8.2-21.6   c0.6-1.5,1.4-2.8,2.5-4c1.1-1.2,2.4-2.1,3.8-2.7c1.4-0.6,3-1,4.6-1.1C358.4,148.5,360,148.8,361.5,149.4z"></path>		<path class="st2" d="M367.8,161.3l-12.2-4.6c-1-0.4-2.2,0.1-2.6,1.2c-0.4,1,0.1,2.2,1.2,2.6l12.2,4.6c1,0.4,2.2-0.1,2.6-1.2   C369.3,162.9,368.8,161.7,367.8,161.3z"></path>		<path class="st2" d="M363.7,169.7l-12.2-4.6c-1-0.4-2.2,0.1-2.6,1.2c-0.4,1,0.1,2.2,1.2,2.6l12.2,4.6c1,0.4,2.2-0.1,2.6-1.2   S364.8,170.1,363.7,169.7z"></path>					<linearGradient id="SVGID_00000033350687241614777450000011267935300289930639_" gradientUnits="userSpaceOnUse" x1="430.88" y1="591.4202" x2="436.519" y2="552.0103" gradientTransform="matrix(1 0 0 -1 0 782)">			<stop offset="0" style="stop-color:#FFFFFF"></stop>			<stop offset="1" style="stop-color:#94B9FF"></stop>		</linearGradient>		<path style="fill:url(#SVGID_00000033350687241614777450000011267935300289930639_);" d="M432.5,190.4l1.5,0.6   c2.2,0.9,4,2.7,5,4.9c1,2.2,1.1,4.7,0.2,7c-0.4,1.2-1.1,2.3-2,3.3c-0.9,0.9-2,1.7-3.2,2.2c-1.2,0.5-2.5,0.8-3.8,0.7   c-1.3,0-2.6-0.3-3.8-0.8l-0.9-0.4C425.6,207.9,428.3,197.7,432.5,190.4z"></path>		<path class="st14" d="M308.4,237L320,224c0,0-1.1-11.6,0-16c1.1-4.4,1.1-6.3,4-8.6c2.9-2.3,12-7,12-7v10.5l27.3,7.5   c0,0,4,6.3-2.1,9.8c3.4,5.1-0.8,9.4-0.8,9.4s2.2,5.9-3.2,7c0,0,1,4.4-4.9,6.3c0,0-1.7,2.9-8.7,3.8c-1.9,0.2-7.6,0.8-7.6,0.8   l-11,10.9L308.4,237z"></path>		<path class="st27" d="M311.3,233.8l20.2,18.1l2.3-2.3l-21.1-17.4L311.3,233.8z"></path>		<path class="st15" d="M360.6,220.2c0,0-6-0.6-8.9-1.6L360.6,220.2z"></path>		<path class="st21" d="M360.6,220.2c0,0-6-0.6-8.9-1.6"></path>		<path class="st15" d="M359.5,229.5c0,0-6-0.6-8.9-1.6L359.5,229.5z"></path>		<path class="st21" d="M359.5,229.5c0,0-6-0.6-8.9-1.6"></path>		<path class="st15" d="M357.1,236.5c0,0-6-0.6-8.9-1.6L357.1,236.5z"></path>		<path class="st21" d="M357.1,236.5c0,0-6-0.6-8.9-1.6"></path>		<path class="st15" d="M351.7,242.9c0,0-6-0.6-8.9-1.6L351.7,242.9z"></path>		<path class="st21" d="M351.7,242.9c0,0-6-0.6-8.9-1.6"></path>		<path class="st22" d="M229.7,189.9c0,0-5.3-29.6-28.9-25.2c-15.9,2.9-22.1,11.8-19.8,35.4c1.6,16.5,13.6,90.1,17.9,120.2   c4.4,30.9,31.9,36.3,50.4,21l86.1-86l-26.5-23.7l-66.5,54.7L229.7,189.9z"></path>		<path class="st28" d="M312.7,185.5l-24-10.5c-4.3,21.3-2.5,16.8-5.4,18.4c0,0-25.3,1-31.9-30l-27.8,0.9c0,0-7.8,21.3,25.4,31.6   c-5.2,12.5,13.1,33.8,36.6,9.8c16.2,24.2,27.1,1.6,19.3-7.1C316.4,191.8,312.7,185.5,312.7,185.5z"></path>		<path class="st14" d="M289.6,147.6l-1.4,39.7c0,0,1.9,8.7-7,7.7c-8.9-1-20.9-8-27.7-15.7c-6.7-7.7-6.3-8.3-3.4-13.4   c2.9-5.1,16.5-43.6,16.5-43.6L289.6,147.6z"></path>		<path class="st27" d="M289.4,150.9L273,140.4c0,0,7.3,32,15.2,46.8L289.4,150.9z"></path>		<path class="st29" d="M271.1,42.7c0.5-7.6-1.2-15.2-4.8-22C260.3,10,248-4.9,229.2,1.5c-18.8,6.4-32.5,20.8-25.4,41.2   s26.8,26.9,36.8,24.7C250.7,65.3,271.1,42.7,271.1,42.7z"></path>		<path class="st7" d="M277.1,45.6c-1.1-1.8-2.7-3.3-4.6-4.1c-1.9-0.9-4.1-1.1-6.2-0.7c-7.4,1.4-15.2,7.2-21.9,14.3   c-6.6,7-6.4,12.1-3.4,15.2C244,73.3,277.1,45.6,277.1,45.6z"></path>		<path class="st14" d="M332.3,92.1c0,0-4,38.2-22.6,55.6c-12.1,11.4-23.3,8.4-39.8-14.3c-15.2-20.8-16.5-31-16.5-31l16.1-36.2   C269.5,66.3,334.2,57.1,332.3,92.1z"></path>		<path class="st29" d="M325.8,84.6c0,0-9.2,14.6-25.9,14.8c0,0-10.1,9.5-25.5,4.5c0,0,6.7-10.1,0-13.7c-11.4-6-15.3,14.1-9.2,21.1   c4.1,4.8,4.3,13.4,1.3,18.4c-3.1,5-7.5,14.1-7.5,14.1s-8.9-7.3-13.6-12.3c-16.4-17.4-19-58.4,8-77.9c27-19.6,55.5-3.9,60.8,0   c0,0,28.4,5,28.5,34.5c0,25.3-17.9,31.3-17.9,31.3l5.4-20.4C330,98.9,326.7,99.3,325.8,84.6z"></path>		<path class="st19" d="M295.9,132.4l12.1,5.9c-0.1,0.1-0.1,0.1-0.2,0.2c-0.4,0.4-0.9,0.9-1.6,1.4c-1.4,0.9-3.2,1.6-5.4,0.9   c-3.4-1.5-4.5-3.7-4.9-5.6c-0.2-0.9-0.1-1.8-0.1-2.4C295.8,132.7,295.9,132.5,295.9,132.4z"></path>		<path class="st18" d="M324.1,118.8c0.5-2.2-0.2-4.2-1.7-4.6c-1.5-0.4-3.1,1.1-3.7,3.3c-0.5,2.2,0.2,4.2,1.7,4.6   C322,122.4,323.6,121,324.1,118.8z"></path>		<path class="st18" d="M302.2,113.7c0.5-2.2-0.2-4.2-1.7-4.6c-1.5-0.4-3.1,1.1-3.7,3.3c-0.5,2.2,0.2,4.2,1.7,4.6   C300,117.4,301.6,115.9,302.2,113.7z"></path>		<path class="st18" d="M329,110.3l-11.2-2.6c-0.2-0.1-0.3-0.2-0.4-0.4c-0.1-0.2-0.1-0.4-0.1-0.6c0.1-0.3,0.3-0.6,0.6-0.9   c0.2-0.3,0.5-0.5,0.9-0.6c0.3-0.1,0.7-0.2,1-0.2c0.4,0,0.7,0.1,1,0.2l8.8,3.7C330.2,109.3,329.9,110.5,329,110.3z"></path>		<path class="st18" d="M291.5,100.3l14.5,4.6c0.1-0.5,0.1-0.9,0-1.4c-0.1-0.5-0.3-0.9-0.6-1.3c-0.3-0.4-0.6-0.7-1-0.9   s-0.8-0.4-1.3-0.4l-11.6-1.5C291.2,99.3,290.9,100.2,291.5,100.3z"></path>		<path class="st30" d="M312.6,114.8l1.6,11.8l-4.2,2"></path>		<path class="st7" d="M470.4,622h-400c-7.1,0-12.8,5.7-12.8,12.8v124.9c0,7.1,5.7,12.8,12.8,12.8h400c7.1,0,12.8-5.7,12.8-12.8   V634.8C483.2,627.7,477.4,622,470.4,622z"></path>		<path class="st1" d="M150.1,387.3H6.8c-3.7,0-6.8,3-6.8,6.8V442c0,3.7,3,6.8,6.8,6.8h143.3c3.7,0,6.8-3,6.8-6.8v-47.9   C156.8,390.4,153.8,387.3,150.1,387.3z"></path>		<path class="st2" d="M189.9,696.5h10c0.9,0,1.7-0.4,2.3-1c0.6-0.6,1-1.5,1-2.3c0-0.9-0.3-1.7-1-2.3c-0.6-0.6-1.5-1-2.3-1h-10   c-0.9,0-1.7,0.3-2.3,1c-0.6,0.6-1,1.5-1,2.3c0,0.9,0.3,1.7,1,2.3C188.2,696.1,189,696.5,189.9,696.5z"></path>		<path class="st2" d="M170.6,660.6c0-0.5-0.1-1.1-0.4-1.5c-0.2-0.5-0.6-0.9-1-1.2c-0.4-0.3-0.9-0.5-1.5-0.6s-1.1,0-1.6,0.2   l-62.1,22.4H89.6c-0.9,0-1.7,0.3-2.3,1c-0.6,0.6-1,1.5-1,2.3v20.1c0,0.9,0.3,1.7,1,2.3c0.6,0.6,1.5,1,2.3,1h11.7v26.8   c0,0.4,0.1,0.9,0.3,1.3c0.2,0.4,0.4,0.8,0.7,1.1c0.3,0.3,0.7,0.6,1.1,0.7c0.4,0.2,0.8,0.3,1.3,0.3h17.5c0.4,0,0.9-0.1,1.3-0.3   c0.4-0.2,0.8-0.4,1.1-0.7c0.3-0.3,0.6-0.7,0.7-1.1c0.2-0.4,0.3-0.8,0.3-1.3v-19.1l40.7,14.6c0.5,0.2,1,0.2,1.6,0.2   c0.5-0.1,1-0.3,1.5-0.6c0.4-0.3,0.8-0.7,1-1.2c0.2-0.5,0.4-1,0.4-1.5V660.6z M92.9,699.9v-13.4h8.4v13.4H92.9z M118.9,730h-10.9   v-22.1l10.9,3.9V730z M107.9,700.9v-15.4l56.1-20.2v55.8L107.9,700.9z"></path>		<path class="st2" d="M189.7,718.4l-5-5c-0.3-0.3-0.7-0.6-1.1-0.7c-0.4-0.2-0.8-0.3-1.3-0.3c-0.4,0-0.9,0.1-1.3,0.3   c-0.4,0.2-0.8,0.4-1.1,0.7c-0.3,0.3-0.6,0.7-0.7,1.1c-0.2,0.4-0.3,0.8-0.3,1.3c0,0.4,0.1,0.9,0.3,1.3c0.2,0.4,0.4,0.8,0.7,1.1l5,5   c0.3,0.3,0.7,0.6,1.1,0.7c0.4,0.2,0.8,0.3,1.3,0.3c0.4,0,0.9-0.1,1.3-0.3c0.4-0.2,0.8-0.4,1.1-0.7c0.3-0.3,0.6-0.7,0.7-1.1   c0.2-0.4,0.3-0.8,0.3-1.3c0-0.4-0.1-0.9-0.3-1.3C190.3,719.1,190,718.7,189.7,718.4z"></path>		<path class="st2" d="M180,673c0.6,0.6,1.5,1,2.3,1c0.9,0,1.7-0.3,2.3-1l5-5c0.6-0.6,1-1.5,1-2.3s-0.3-1.7-1-2.3   c-0.6-0.6-1.5-1-2.3-1c-0.9,0-1.7,0.3-2.3,1l-5,5c-0.6,0.6-1,1.5-1,2.3C179,671.5,179.4,672.3,180,673z"></path>		<path class="st31" d="M244.6,663.2h65.5"></path>		<path class="st31" d="M244.6,736.5h121.3"></path>		<path class="st32" d="M244.6,699.9h155.3"></path>		<path class="st7" d="M998.3,489.4h-73.8c-4,0-7.3,3.3-7.3,7.3V564c0,4,3.3,7.3,7.3,7.3h73.8c4,0,7.3-3.3,7.3-7.3v-67.3   C1005.6,492.7,1002.4,489.4,998.3,489.4z"></path>		<path class="st2" d="M68,431c-1.1,0-2.2-0.2-3.1-0.6c-0.9-0.4-1.6-1-2.2-1.7c-0.5-0.7-0.8-1.6-0.8-2.6h3c0.1,0.7,0.4,1.3,0.9,1.8   c0.5,0.5,1.3,0.7,2.2,0.7c1,0,1.7-0.2,2.3-0.7c0.5-0.5,0.8-1.1,0.8-1.8c0-0.6-0.2-1-0.5-1.4c-0.3-0.4-0.7-0.6-1.3-0.8   c-0.5-0.2-1.2-0.4-2.1-0.6c-1.1-0.3-2-0.6-2.7-0.9c-0.7-0.3-1.3-0.8-1.8-1.4c-0.5-0.6-0.7-1.5-0.7-2.6c0-1,0.2-1.8,0.7-2.6   c0.5-0.7,1.2-1.3,2.1-1.7c0.9-0.4,1.9-0.6,3.1-0.6c1.7,0,3,0.4,4.1,1.3c1.1,0.8,1.7,2,1.8,3.4h-3.1c0-0.6-0.3-1.2-0.9-1.6   c-0.5-0.4-1.3-0.7-2.1-0.7c-0.8,0-1.5,0.2-2,0.6c-0.5,0.4-0.8,1-0.8,1.8c0,0.5,0.2,1,0.5,1.3c0.3,0.3,0.7,0.6,1.2,0.8   c0.5,0.2,1.2,0.4,2,0.6c1.1,0.3,2,0.6,2.8,0.9c0.7,0.3,1.3,0.8,1.8,1.5c0.5,0.6,0.8,1.5,0.8,2.6c0,0.9-0.2,1.7-0.7,2.5   c-0.5,0.8-1.1,1.4-2,1.9C70.3,430.7,69.2,431,68,431z M84.2,417c1,0,2,0.2,2.8,0.7c0.8,0.4,1.5,1.1,1.9,2c0.5,0.9,0.7,1.9,0.7,3.1   v8h-2.8v-7.6c0-1.2-0.3-2.1-0.9-2.8c-0.6-0.7-1.4-1-2.5-1s-1.9,0.3-2.5,1c-0.6,0.6-0.9,1.6-0.9,2.8v7.6h-2.8v-18.2H80v6.2   c0.5-0.6,1.1-1,1.8-1.3C82.6,417.2,83.4,417,84.2,417z M92.3,424c0-1.4,0.3-2.6,0.8-3.6c0.6-1,1.3-1.9,2.3-2.4   c1-0.6,2.1-0.9,3.2-0.9c1.1,0,2,0.2,2.8,0.6c0.8,0.4,1.4,0.9,1.9,1.5v-2h2.8v13.5h-2.8v-2c-0.5,0.6-1.1,1.2-1.9,1.6   c-0.8,0.4-1.8,0.6-2.8,0.6c-1.2,0-2.2-0.3-3.2-0.9c-1-0.6-1.7-1.4-2.3-2.5C92.6,426.5,92.3,425.3,92.3,424z M103.4,424   c0-0.9-0.2-1.7-0.6-2.4c-0.4-0.7-0.9-1.2-1.5-1.6c-0.6-0.4-1.3-0.5-2-0.5c-0.7,0-1.4,0.2-2,0.5c-0.6,0.3-1.1,0.9-1.5,1.5   c-0.4,0.7-0.6,1.5-0.6,2.4c0,0.9,0.2,1.8,0.6,2.5c0.4,0.7,0.9,1.2,1.5,1.6c0.6,0.4,1.3,0.5,2,0.5c0.7,0,1.4-0.2,2-0.5   c0.6-0.4,1.1-0.9,1.5-1.6C103.2,425.8,103.4,424.9,103.4,424z M112.7,419.2c0.4-0.7,1-1.2,1.6-1.6c0.7-0.4,1.5-0.6,2.4-0.6v2.9   H116c-1.1,0-1.9,0.3-2.5,0.8c-0.6,0.6-0.8,1.5-0.8,2.9v7.1h-2.8v-13.5h2.8V419.2z M131.7,423.7c0,0.5,0,1-0.1,1.4h-10.4   c0.1,1.1,0.5,2,1.2,2.6c0.7,0.7,1.6,1,2.7,1c1.5,0,2.6-0.6,3.2-1.9h3c-0.4,1.2-1.2,2.3-2.2,3.1c-1.1,0.8-2.4,1.2-4,1.2   c-1.3,0-2.5-0.3-3.5-0.9c-1-0.6-1.8-1.4-2.4-2.5c-0.6-1.1-0.9-2.3-0.9-3.7c0-1.4,0.3-2.6,0.8-3.7c0.6-1.1,1.4-1.9,2.4-2.5   c1-0.6,2.2-0.9,3.5-0.9c1.3,0,2.4,0.3,3.4,0.8c1,0.6,1.8,1.3,2.3,2.4C131.4,421.2,131.7,422.4,131.7,423.7z M128.8,422.8   c0-1-0.4-1.9-1.1-2.5c-0.7-0.6-1.6-0.9-2.7-0.9c-1,0-1.8,0.3-2.5,0.9c-0.7,0.6-1.1,1.4-1.2,2.5H128.8z"></path>		<path class="st2" d="M41.4,422.3c-1,0-1.9,0.2-2.8,0.6c-0.9,0.4-1.7,1-2.3,1.8l-7.9-4.5c0.5-1.4,0.5-3,0-4.4l7.9-4.5   c1.1,1.3,2.5,2.1,4.2,2.3c1.6,0.2,3.3-0.2,4.6-1.1c1.4-0.9,2.3-2.3,2.7-4c0.4-1.6,0.1-3.3-0.7-4.7c-0.8-1.4-2.1-2.5-3.7-3   c-1.6-0.5-3.3-0.4-4.8,0.3c-1.5,0.7-2.7,1.9-3.3,3.4c-0.6,1.5-0.7,3.2-0.1,4.8l-7.9,4.5c-0.9-1-2-1.8-3.3-2.2   c-1.3-0.4-2.7-0.3-4,0.2c-1.3,0.5-2.4,1.3-3.2,2.4s-1.2,2.4-1.2,3.8c0,1.4,0.4,2.7,1.2,3.8c0.8,1.1,1.9,2,3.2,2.4   c1.3,0.5,2.7,0.5,4,0.2c1.3-0.4,2.5-1.1,3.3-2.2l7.9,4.5c-0.5,1.3-0.5,2.8-0.1,4.1c0.4,1.3,1.2,2.5,2.3,3.4   c1.1,0.8,2.5,1.3,3.9,1.3c1.4,0,2.8-0.4,3.9-1.2c1.1-0.8,2-2,2.4-3.3c0.4-1.3,0.5-2.8,0-4.1c-0.4-1.3-1.3-2.5-2.4-3.3   C44.2,422.8,42.8,422.3,41.4,422.3z M41.4,402.9c0.8,0,1.7,0.3,2.4,0.7c0.7,0.5,1.3,1.1,1.6,1.9c0.3,0.8,0.4,1.6,0.2,2.5   c-0.2,0.8-0.6,1.6-1.2,2.2c-0.6,0.6-1.4,1-2.2,1.2c-0.8,0.2-1.7,0.1-2.5-0.2c-0.8-0.3-1.5-0.9-1.9-1.6c-0.5-0.7-0.7-1.5-0.7-2.4   c0-1.1,0.5-2.2,1.3-3C39.2,403.3,40.3,402.9,41.4,402.9z M22.2,422.3c-0.8,0-1.7-0.3-2.4-0.7c-0.7-0.5-1.3-1.1-1.6-1.9   c-0.3-0.8-0.4-1.6-0.2-2.5c0.2-0.8,0.6-1.6,1.2-2.2c0.6-0.6,1.4-1,2.2-1.2c0.8-0.2,1.7-0.1,2.5,0.2c0.8,0.3,1.5,0.9,1.9,1.6   c0.5,0.7,0.7,1.5,0.7,2.4c0,1.1-0.5,2.2-1.3,3C24.5,421.9,23.4,422.3,22.2,422.3L22.2,422.3z M41.4,433.2c-0.8,0-1.7-0.3-2.4-0.7   c-0.7-0.5-1.3-1.1-1.6-1.9c-0.3-0.8-0.4-1.6-0.2-2.5c0.2-0.8,0.6-1.6,1.2-2.2c0.6-0.6,1.4-1,2.2-1.2c0.8-0.2,1.7-0.1,2.5,0.2   c0.8,0.3,1.5,0.9,1.9,1.6c0.5,0.7,0.7,1.5,0.7,2.4c0,1.1-0.5,2.2-1.3,3C43.6,432.7,42.5,433.2,41.4,433.2z"></path>		<path class="st33" d="M933.9,542.8l12.8-12.8c0.8-0.8,2-1.3,3.2-1.3c1.2,0,2.3,0.5,3.2,1.3l10,10c0.8,0.8,2,1.3,3.2,1.3   c1.2,0,2.3-0.5,3.2-1.3l16.4-16.4"></path>		<path class="st33" d="M978.3,520.7h9.1c0.4,0,0.8,0.2,1.1,0.5c0.3,0.3,0.4,0.7,0.4,1.1v8.3"></path>		<path class="st34" d="M776.3,365.4c2.3-5.2,0.9-10.9-3.1-12.7c-4-1.8-9.1,1.1-11.4,6.3c-2.3,5.2-0.9,10.9,3.1,12.7   C768.9,373.5,774,370.6,776.3,365.4z"></path>		<path class="st34" d="M753.4,355.6c2.3-5.2,0.9-10.9-3.1-12.7c-4-1.8-9.1,1.1-11.4,6.3s-0.9,10.9,3.1,12.7   C746,363.7,751.1,360.9,753.4,355.6z"></path>		<path class="st34" d="M753.4,355.6c0,0,5.5-0.1,8.4,3.4"></path>		<path class="st34" d="M775.6,366.7h23.8"></path>		<path class="st35" d="M285.4,205.8c0,0,1.6,21.9,0,39.3"></path>		<path class="st36" d="M771.3,431.3c22.2-13.9,25.9-22.5,25.9-22.5l9.3,18.1l-25.9,19.5c-1-2.7-2.3-5.4-3.8-7.9l-7.3,5.8   L771.3,431.3z M744.5,426.8l9.6-7.2c0,0-0.8,6.6,9.2,11.1l0.8,12.3l-4.8-4.7l-6.4,8.4L744.5,426.8z"></path>		<path class="st7" d="M769.5,444.3l1.8-13l5.5,7.2L769.5,444.3z"></path>		<path class="st7" d="M763.2,430.7l-4,7.7l4.8,4.7L763.2,430.7z"></path>		<path class="st7" d="M764.1,443.1l3,37.3c0,0.5,0.3,1,0.6,1.4c0.4,0.4,0.8,0.6,1.4,0.7c0.3,0,0.7,0,1-0.1c0.3-0.1,0.6-0.3,0.9-0.5   c0.3-0.2,0.5-0.5,0.6-0.8c0.1-0.3,0.2-0.7,0.2-1l-2.1-35.8l-2.3,2.1L764.1,443.1z"></path>		<path class="st7" d="M777.3,459.3c1.6,0,2.9-1.3,2.9-2.9c0-1.6-1.3-2.9-2.9-2.9c-1.6,0-2.9,1.3-2.9,2.9   C774.5,458,775.7,459.3,777.3,459.3z"></path>		<path class="st7" d="M778.3,476.3c1.6,0,2.9-1.3,2.9-2.9c0-1.6-1.3-2.9-2.9-2.9c-1.6,0-2.9,1.3-2.9,2.9   C775.4,475,776.7,476.3,778.3,476.3z"></path>	</g></g></svg>