<svg xmlns="http://www.w3.org/2000/svg" xmlns:xlink="http://www.w3.org/1999/xlink" id="Layer_1" data-name="Layer 1" viewBox="0 0 1071.81 782.7"><defs><style>.cls-1,.cls-17,.cls-18,.cls-19,.cls-26,.cls-38,.cls-39,.cls-5,.cls-7,.cls-8,.cls-9{fill:none;}.cls-2{clip-path:url(#clip-path);}.cls-3{fill:url(#linear-gradient);}.cls-4{fill:#5ca4e6;}.cls-39,.cls-5,.cls-7,.cls-8{stroke:#5661ae;}.cls-17,.cls-18,.cls-19,.cls-39,.cls-5,.cls-7,.cls-8,.cls-9{stroke-miterlimit:10;}.cls-5{stroke-dasharray:11.93 11.93;}.cls-30,.cls-6{fill:#fff;}.cls-17,.cls-18,.cls-26,.cls-38,.cls-7,.cls-8,.cls-9{stroke-linecap:round;}.cls-7{stroke-width:10px;}.cls-8,.cls-9{stroke-width:16px;}.cls-9{stroke:#d4dcf4;}.cls-10{fill:#1c85e8;}.cls-11{fill:#f5f8ff;}.cls-12{fill:url(#linear-gradient-2);}.cls-13,.cls-28{fill:#5661ae;}.cls-14{fill:#bc775c;}.cls-15{fill:#93523e;}.cls-16{fill:#febb94;}.cls-17,.cls-18{stroke:#fff;}.cls-17,.cls-18,.cls-19{stroke-width:16.52px;}.cls-18{isolation:isolate;opacity:0.7;}.cls-19{stroke:#ef6a77;}.cls-20{fill:#465393;}.cls-21{fill:url(#linear-gradient-3);}.cls-22{fill:url(#linear-gradient-4);}.cls-23{fill:#96bafd;}.cls-24{fill:url(#linear-gradient-5);}.cls-25{fill:#080b09;}.cls-26{stroke:#93523e;stroke-linejoin:round;stroke-width:1.21px;}.cls-27,.cls-31{fill:#fcba9f;}.cls-28,.cls-29,.cls-30,.cls-31{fill-rule:evenodd;}.cls-29,.cls-32{fill:#ffccb3;}.cls-33{fill:#ff967c;}.cls-34{fill:#1f2d49;}.cls-35{fill:#0d1b33;}.cls-36{fill:#d4dcf4;}.cls-37{fill:#e56441;}.cls-38{stroke:#e56441;stroke-width:0.95px;}</style><clipPath id="clip-path" transform="translate(-184 -121)"><rect class="cls-1" x="184" y="121" width="1071.81" height="782.7"></rect></clipPath><linearGradient id="linear-gradient" x1="702" y1="816.53" x2="780.21" y2="-250.53" gradientTransform="matrix(1, 0, 0, -1, 0, 1024)" gradientUnits="userSpaceOnUse"><stop offset="0" stop-color="#fff"></stop><stop offset="1" stop-color="#94b9ff"></stop></linearGradient><linearGradient id="linear-gradient-2" x1="860.26" y1="397.5" x2="964.59" y2="-146.69" xlink:href="#linear-gradient"></linearGradient><linearGradient id="linear-gradient-3" x1="459.93" y1="548.59" x2="461.34" y2="513.26" xlink:href="#linear-gradient"></linearGradient><linearGradient id="linear-gradient-4" x1="427.13" y1="539.74" x2="480.02" y2="200.7" xlink:href="#linear-gradient"></linearGradient><linearGradient id="linear-gradient-5" x1="491.09" y1="532.02" x2="506.57" y2="382.01" xlink:href="#linear-gradient"></linearGradient></defs><g class="cls-2"><path class="cls-3" d="M1047,208.66H393.84A43.29,43.29,0,0,0,350.55,252V665.48a43.29,43.29,0,0,0,43.29,43.29H1047a43.29,43.29,0,0,0,43.29-43.29V252A43.29,43.29,0,0,0,1047,208.66Z" transform="translate(-184 -121)"></path><path class="cls-4" d="M400.06,208.66h641.77a49,49,0,0,1,49,49H351.08a49,49,0,0,1,49-49Z" transform="translate(-184 -121)"></path><path class="cls-5" d="M740.49,288.72h302.13a19.55,19.55,0,0,1,19.55,19.54V457.61a19.55,19.55,0,0,1-19.55,19.54H740.49A19.53,19.53,0,0,1,721,457.61V308.26A19.51,19.51,0,0,1,733,290.21a19.39,19.39,0,0,1,7.48-1.49Z" transform="translate(-184 -121)"></path><path class="cls-6" d="M961.52,504.78H659.39a19.54,19.54,0,0,0-19.54,19.54V673.67a19.54,19.54,0,0,0,19.54,19.55H961.52a19.55,19.55,0,0,0,19.55-19.55V524.32A19.54,19.54,0,0,0,961.52,504.78Z" transform="translate(-184 -121)"></path><path class="cls-6" d="M603.24,504.78H392.12a16.54,16.54,0,0,0-16.54,16.53V676.68a16.55,16.55,0,0,0,16.54,16.54H603.24a16.54,16.54,0,0,0,16.53-16.54V521.31A16.53,16.53,0,0,0,603.24,504.78Z" transform="translate(-184 -121)"></path><path class="cls-7" d="M667.65,641.82s22.65-2.39,36.26,7.8c18.26,13.67,33,24.22,52.38-9.37,21.27-36.81,24.61-49.67,40.13-49.82,19.91-.19,27.68,52.89,64.4,56.64s61.69-2.25,61.69-2.25" transform="translate(-184 -121)"></path><path class="cls-8" d="M667.65,535.88h52.76" transform="translate(-184 -121)"></path><path class="cls-9" d="M667.65,560.5h109" transform="translate(-184 -121)"></path><path class="cls-6" d="M395.83,244.22a8.37,8.37,0,1,0-8.36-8.37A8.36,8.36,0,0,0,395.83,244.22Z" transform="translate(-184 -121)"></path><path class="cls-6" d="M424.2,244.22a8.37,8.37,0,1,0-8.37-8.37A8.36,8.36,0,0,0,424.2,244.22Z" transform="translate(-184 -121)"></path><path class="cls-6" d="M451.75,244.22a8.37,8.37,0,1,0-8.37-8.37A8.36,8.36,0,0,0,451.75,244.22Z" transform="translate(-184 -121)"></path><path class="cls-10" d="M892,416.8a33.86,33.86,0,1,0-33.86-33.86A33.86,33.86,0,0,0,892,416.8Z" transform="translate(-184 -121)"></path><path class="cls-6" d="M894.71,366.94a2.68,2.68,0,0,0-5.35,0v34.14a2.68,2.68,0,1,0,5.35,0Z" transform="translate(-184 -121)"></path><path class="cls-6" d="M909.11,386.68a2.67,2.67,0,0,0,0-5.34H875a2.67,2.67,0,1,0,0,5.34Z" transform="translate(-184 -121)"></path><path class="cls-11" d="M716.1,903.7c293.88,0,532.11-6.09,532.11-13.59S1010,876.51,716.1,876.51,184,882.6,184,890.11,422.23,903.7,716.1,903.7Z" transform="translate(-184 -121)"></path><path class="cls-4" d="M1182.77,623.12H810.46v263h372.31Z" transform="translate(-184 -121)"></path><path class="cls-12" d="M959.19,623.12H810.46v263H959.19Z" transform="translate(-184 -121)"></path><path class="cls-13" d="M275.17,787.28,259.89,885.4l-5.82-.91a7.48,7.48,0,0,1-6.24-8.55l13-83.32a7.48,7.48,0,0,1,8.55-6.24Z" transform="translate(-184 -121)"></path><path class="cls-14" d="M322.92,803.79,299,796.65l-7.59,33.28,26.14,8.21Z" transform="translate(-184 -121)"></path><path class="cls-15" d="M306.48,834.65l-4.41-1.38,10.85-32.47,4,1.21Z" transform="translate(-184 -121)"></path><path class="cls-10" d="M302.06,797.12s-9.36,16.26-4.2,34.83L265.7,884.52c-2.79,2-7,.83-9.4-.43a2.85,2.85,0,0,1-1.19-1.24,2.81,2.81,0,0,1-.26-1.69l13.87-89.07a5.75,5.75,0,0,1,6.45-4.81c6,.81,15,2.12,18.61,3C299.3,791.73,302.21,793.74,302.06,797.12Z" transform="translate(-184 -121)"></path><path class="cls-6" d="M291.45,843.11l-4.72-7.53a2.07,2.07,0,0,0-.69-.66,2,2,0,0,0-.93-.26,1.88,1.88,0,0,0-.93.2,1.93,1.93,0,0,0-.74.62,2,2,0,0,0-.05,2.23l5.89,9.15Z" transform="translate(-184 -121)"></path><path class="cls-6" d="M286.1,851.18l-4.68-7.51a1.93,1.93,0,0,0-.69-.67,2,2,0,0,0-.92-.26,2,2,0,0,0-.94.2,2,2,0,0,0-.73.62,2,2,0,0,0-.06,2.23l5.77,9.06Z" transform="translate(-184 -121)"></path><path class="cls-6" d="M280.55,860.25,276,852.79a1.93,1.93,0,0,0-.69-.67,2,2,0,0,0-.92-.26,2,2,0,0,0-.94.2,2.09,2.09,0,0,0-.73.62,2,2,0,0,0-.38,1.11,1.93,1.93,0,0,0,.32,1.12l5.74,8.92Z" transform="translate(-184 -121)"></path><path class="cls-13" d="M537.81,872.76h99.3v5.89a7.41,7.41,0,0,1-.57,2.86,7.51,7.51,0,0,1-4,4.06,7.65,7.65,0,0,1-2.87.57H545.3a7.49,7.49,0,0,1-7.49-7.49Z" transform="translate(-184 -121)"></path><path class="cls-14" d="M546.78,823l-3.39,24.71,34.06,2.38L581.53,823Z" transform="translate(-184 -121)"></path><path class="cls-15" d="M581.18,825.37l-.87,5.78-35,2.4,1.12-8.18Z" transform="translate(-184 -121)"></path><path class="cls-10" d="M543.39,844.67s17.51,6.75,35.06-1.2l56.89,23.68c2.45,2.45,1.91,6.83,1,9.36a2.85,2.85,0,0,1-2.68,1.88H543.55a5.74,5.74,0,0,1-5.74-5.63c-.12-6-.22-15.19.13-18.86C538.49,848.23,540,845.05,543.39,844.67Z" transform="translate(-184 -121)"></path><path class="cls-6" d="M590.47,848.08l-6.71,5.83a1.86,1.86,0,0,0-.55.78,1.93,1.93,0,0,0-.12.95,2.06,2.06,0,0,0,.34.9,2.11,2.11,0,0,0,.73.63,2,2,0,0,0,2.21-.29l8.14-7.23Z" transform="translate(-184 -121)"></path><path class="cls-6" d="M599.27,852.13l-6.71,5.78a2.05,2.05,0,0,0-.55.78,1.93,1.93,0,0,0-.12.95,2,2,0,0,0,.35.9,2,2,0,0,0,.72.63,1.92,1.92,0,0,0,1.15.19,1.88,1.88,0,0,0,1.06-.48l8.07-7.09Z" transform="translate(-184 -121)"></path><path class="cls-6" d="M609.08,856.22l-6.67,5.68a2.05,2.05,0,0,0-.55.78,2.09,2.09,0,0,0-.11,1,2,2,0,0,0,1.07,1.52,2,2,0,0,0,2.21-.29l7.92-7Z" transform="translate(-184 -121)"></path><path class="cls-14" d="M488.29,499.26l20.58-40.52s-12.53,1.63-14.71-6.14,59.21-14.74,59.21-14.74-4.91,17.19-12.28,19.24l-20.26,59.35Z" transform="translate(-184 -121)"></path><path class="cls-15" d="M491.36,493.22l32.14,15.4-2.67,7.83L489.59,496.7Z" transform="translate(-184 -121)"></path><path class="cls-16" d="M687.36,282.41,391.44,330.85a9.32,9.32,0,0,0-7.69,10.7l19.32,118a9.31,9.31,0,0,0,10.7,7.68l295.92-48.44a9.32,9.32,0,0,0,7.69-10.7l-19.33-118A9.31,9.31,0,0,0,687.36,282.41Z" transform="translate(-184 -121)"></path><path class="cls-17" d="M536.14,356.42,656.4,336.73" transform="translate(-184 -121)"></path><path class="cls-18" d="M544.68,392.93l78.46-12.84" transform="translate(-184 -121)"></path><path class="cls-19" d="M464.25,437a42.54,42.54,0,1,0-42.53-42.54A42.54,42.54,0,0,0,464.25,437Z" transform="translate(-184 -121)"></path><path class="cls-17" d="M506.23,387.55a42.54,42.54,0,1,1-48.85-35.1" transform="translate(-184 -121)"></path><path class="cls-13" d="M478.11,712.93l12.28,138.93c0,29.78-30.39,33.17-40.12,29.66-13.72-4.95-146.62-38.78-146.62-38.78l14.09-43.14,102,14.18S417,784.83,389.6,696.45Z" transform="translate(-184 -121)"></path><path class="cls-20" d="M398.71,727.06l82.7,23.22-4.65-55.79-87.16,2Z" transform="translate(-184 -121)"></path><path class="cls-14" d="M476.91,408.53s16.38,18.59,21.25,26.12,5,22.28-5.14,26-18.51,4.4-33.37,1.62c-11.57-2.16-26.56-21.24-22.13-31S462.52,403.88,476.91,408.53Z" transform="translate(-184 -121)"></path><path class="cls-14" d="M480,460.54,477.58,492l-35.64-7.75,15.94-29.65Z" transform="translate(-184 -121)"></path><path class="cls-15" d="M480,463.81h-9.69l8.29,14.8" transform="translate(-184 -121)"></path><path class="cls-21" d="M438,482.23l5.31-5.15a5.75,5.75,0,0,1,2.47-1.4,5.54,5.54,0,0,1,2.83-.05l29.14,6.9a4.13,4.13,0,0,1,3,2.8l2.11,6.64Z" transform="translate(-184 -121)"></path><path class="cls-13" d="M391.81,641.13l-5.22,25.27c-5.87,38.55,21.77,64.05,64,57.1C488.32,717.29,600.06,674,600.06,674l-4.45-68.57-93.94,15.5S417.23,605.26,391.81,641.13Z" transform="translate(-184 -121)"></path><path class="cls-13" d="M602.6,665.36A30.39,30.39,0,1,0,572.22,635,30.38,30.38,0,0,0,602.6,665.36Z" transform="translate(-184 -121)"></path><path class="cls-13" d="M602.6,665.36A30.39,30.39,0,1,0,572.22,635,30.38,30.38,0,0,0,602.6,665.36Z" transform="translate(-184 -121)"></path><path class="cls-13" d="M460,883.12a30.39,30.39,0,1,0-30.39-30.39A30.39,30.39,0,0,0,460,883.12Z" transform="translate(-184 -121)"></path><path class="cls-13" d="M631.51,643.76,588.79,825.37H537.7L572.22,635Z" transform="translate(-184 -121)"></path><path class="cls-20" d="M501.67,620.9l-112.51,35,2.65-14.79Z" transform="translate(-184 -121)"></path><path class="cls-14" d="M526.92,518.31l11.18,8.13,37.32-61.27s-5-20.07-5.31-23.49L582.26,440s9.84-18.54,12.64-22.21,6-3,7.77,0c0,0,5.39.86,6.25,8.2,0,0,4.75,1.08,6.69,10.57,0,0,4.1,4.31,3.24,9.06s-11.65,23.35-13.38,25.26a49,49,0,0,0-3.67,4.94l-35.95,86.15s-8.78,18.85-29.37,11.7L511,561.79C499.24,554.2,526.92,518.31,526.92,518.31Z" transform="translate(-184 -121)"></path><path class="cls-14" d="M545.73,575.85a21.49,21.49,0,1,0-21.49-21.49A21.49,21.49,0,0,0,545.73,575.85Z" transform="translate(-184 -121)"></path><path class="cls-20" d="M455.66,424s21-7.08,25.23-21.91-4.64-22.57-16.15-15.05c0,0-8.19-13.05-22.13-4s-11.29,30.54-10.85,34.75c0,0-15.71,11.06-8.19,28.55s28.18,21.69,28.18,21.69a31.38,31.38,0,0,0,4.8-10.85s-11.38-8.63-4.8-17,14.1,5.09,14.1,5.09S471.6,426.24,455.66,424Z" transform="translate(-184 -121)"></path><path class="cls-22" d="M438,482.23s-14.6,7.26-17.9,15.08c-3.06,7.22-24.31,102.08-30.82,140.26a5.53,5.53,0,0,0,.2,2.71,5.58,5.58,0,0,0,3.81,3.64A5.57,5.57,0,0,0,396,644l105.7-23.1s-5.17-55.55-3.36-71.86S482.83,492,482.83,492Z" transform="translate(-184 -121)"></path><path class="cls-23" d="M497.94,556.73l-26.65-15.84L499,586.51Z" transform="translate(-184 -121)"></path><path class="cls-15" d="M538.1,526.44l7.76,5.41,7.51-30.48Z" transform="translate(-184 -121)"></path><path class="cls-24" d="M482.83,492s42.41,23.19,47.57,27a3.53,3.53,0,0,1,1.32,2,3.45,3.45,0,0,1-.31,2.4l-19.48,37.4a3.43,3.43,0,0,1-2.13,1.74,3.32,3.32,0,0,1-1.4.1,3.5,3.5,0,0,1-1.33-.45l-49.44-29.38S455,493.67,482.83,492Z" transform="translate(-184 -121)"></path><path class="cls-25" d="M477.42,436.42c1-.76.9-2.63-.26-4.18s-2.92-2.2-3.94-1.44-.9,2.63.26,4.18S476.4,437.18,477.42,436.42Z" transform="translate(-184 -121)"></path><path class="cls-25" d="M491.36,425.87c1-.76.9-2.63-.26-4.18s-2.92-2.19-3.94-1.43-.9,2.63.26,4.18S490.34,426.63,491.36,425.87Z" transform="translate(-184 -121)"></path><path class="cls-26" d="M485.71,428.76s-.24,4.59,2.57,3.38c2.65-1.24,4.91-.39,3.25,3.1" transform="translate(-184 -121)"></path><path class="cls-6" d="M492.46,438.51c-1.6.87-4.79,2.6-6.89,3.8a.75.75,0,0,0-.31.3.84.84,0,0,0-.11.41.83.83,0,0,0,.13.41.89.89,0,0,0,.32.29c2.95,1.27,9.28,3.13,7.95-4.61a.65.65,0,0,0-.1-.36.68.68,0,0,0-.27-.26.74.74,0,0,0-.36-.09A.66.66,0,0,0,492.46,438.51Z" transform="translate(-184 -121)"></path><path class="cls-25" d="M465.43,431.83l.3.25a2.11,2.11,0,0,0,3,0l6.57-7a1.87,1.87,0,0,0,.13-2.51,1.88,1.88,0,0,0-.64-.55,2.12,2.12,0,0,0-.81-.25,2,2,0,0,0-.84.12,1.84,1.84,0,0,0-.72.44l-6.87,6.78a2.13,2.13,0,0,0-.46.62,2,2,0,0,0-.18.75,1.79,1.79,0,0,0,.13.76A1.76,1.76,0,0,0,465.43,431.83Z" transform="translate(-184 -121)"></path><path class="cls-25" d="M489.31,411.9l-9,3.4a2,2,0,0,0-1.16,1.18,2,2,0,0,0-.12.84,2,2,0,0,0,.24.81,1.87,1.87,0,0,0,2.33.94l9.13-3a2.12,2.12,0,0,0,1.28-2.7l-.09-.37a2.13,2.13,0,0,0-.42-.65,2,2,0,0,0-.64-.43,2,2,0,0,0-.76-.15A1.93,1.93,0,0,0,489.31,411.9Z" transform="translate(-184 -121)"></path><path class="cls-16" d="M1182.77,257.63l-78.1,60.74h151.14Z" transform="translate(-184 -121)"></path><path class="cls-27" d="M935.49,569.57s-28.64-25-51.92-3.76S764.07,733,764.07,733l29.1,20.12L902.3,630.34l19,30.58Z" transform="translate(-184 -121)"></path><path class="cls-28" d="M916,848.72c12-8.76,24.36-17.8,37.38-20.72a2.14,2.14,0,0,1,1.7.36,2.13,2.13,0,0,1,.83,1.54l1.43,24.15a2.07,2.07,0,0,1-1.66,2.15l-89.2,17.63c-6.58,1.3-10.79-1.56-12.82-6.64a1,1,0,0,1,0-.55,1,1,0,0,1,.75-.75,1,1,0,0,1,.55,0,47.71,47.71,0,0,0,36-1.26C899.2,861,907.51,854.93,916,848.72Z" transform="translate(-184 -121)"></path><path class="cls-29" d="M943.38,769.58s1.69,38.13,2.58,42a45.14,45.14,0,0,0,2.29,6.2c1.53,3.65,3.24,7.71,3.39,10.66-12.38,3.3-24.17,11.91-35.63,20.29-8.5,6.2-16.81,12.28-25,15.94a47.78,47.78,0,0,1-34.39,1.84c-1.55-6.59,2.95-13.89,14.3-17.17,20.36-5.89,31.48-9.63,38.58-26.66,5-12.09-3.4-54.21-3.4-54.21Z" transform="translate(-184 -121)"></path><path class="cls-30" d="M910.35,816.25c4-.25,19.91-1.29,35.14-3.29,3-.38,5.6,5.18,4.33,8.71a51,51,0,0,0-1.85,7.91,77,77,0,0,0-14.22,6.93c.92-6.29-2.92-9.08-8.63-8.8-4.51.23-14.69,3.09-19.94,4.65a1.68,1.68,0,0,1-.89,0,1.52,1.52,0,0,1-.74-.47,1.64,1.64,0,0,1-.38-.81,1.62,1.62,0,0,1,.12-.87l5.72-13a1.51,1.51,0,0,1,.54-.66A1.54,1.54,0,0,1,910.35,816.25Z" transform="translate(-184 -121)"></path><path class="cls-30" d="M868.24,868.76c10.36.81,16.63-1.88,16.63-1.88l-4.17-21.1-16.22,4Z" transform="translate(-184 -121)"></path><path class="cls-28" d="M738.3,772.56c14.82,1.11,30.09,2.25,41.89,8.47a2.11,2.11,0,0,1,.69.57,2.16,2.16,0,0,1,.38.81,2.09,2.09,0,0,1-.37,1.7l-14.57,19.32a2.08,2.08,0,0,1-2.66.55l-79.33-44.41c-5.85-3.27-7.21-8.19-5.46-13.36a1.06,1.06,0,0,1,.33-.45,1.07,1.07,0,0,1,.51-.2,1,1,0,0,1,.54.12.89.89,0,0,1,.39.38,47.74,47.74,0,0,0,28.26,22.41C717.54,771,727.8,771.78,738.3,772.56Z" transform="translate(-184 -121)"></path><path class="cls-31" d="M810.46,730.06l-25.28,33.65a46.53,46.53,0,0,0-2.27,6.21c-1.2,3.76-2.53,8-4.33,10.31-11.56-5.52-26.13-6.61-40.28-7.66-10.5-.79-20.76-1.55-29.4-4.1a47.76,47.76,0,0,1-27.38-20.9c3.09-6,11.25-8.66,22-3.8,19.32,8.72,30.21,13.09,46.65,4.73a28.15,28.15,0,0,0,7-5.88L782.77,705Z" transform="translate(-184 -121)"></path><path class="cls-30" d="M755.05,744.17c3.21,2.41,16,11.93,28.88,20.28,2.5,1.63.91,7.57-2.34,9.44a49.7,49.7,0,0,0-6.54,4.83,77.16,77.16,0,0,0-15.32-4c4.78-4.19,3.67-8.81-.87-12.29-3.58-2.75-13.19-7.18-18.19-9.4a1.57,1.57,0,0,1-.68-.57,1.66,1.66,0,0,1-.26-.84,1.62,1.62,0,0,1,.24-.86,1.55,1.55,0,0,1,.65-.59l12.8-6.2a1.52,1.52,0,0,1,.84-.15A1.5,1.5,0,0,1,755.05,744.17Z" transform="translate(-184 -121)"></path><path class="cls-30" d="M688.94,756.84c7.36,7.34,13.88,9.35,13.88,9.35l10.51-18.76L698.4,740Z" transform="translate(-184 -121)"></path><path class="cls-32" d="M974.77,551.42l-75.52,13.42,14.86,59.78h48.38S985.48,575.2,974.77,551.42Z" transform="translate(-184 -121)"></path><path class="cls-32" d="M908.93,624a30.39,30.39,0,1,0-30.39-30.38A30.39,30.39,0,0,0,908.93,624Z" transform="translate(-184 -121)"></path><path class="cls-32" d="M878.92,598.43l30.41,190.4,35.07,1.46-4.1-188.2Z" transform="translate(-184 -121)"></path><path class="cls-33" d="M926.55,556.66s11.64,3.59,16.44,22.57-.43,45.39-.43,45.39H950s26.68-31.34,7.05-71.28Z" transform="translate(-184 -121)"></path><path class="cls-13" d="M1000,393.85l-9.51,4.56a27.44,27.44,0,0,0-14.77,18.13L954.22,503l-48.44,23.17,11,17.54,91.59-3.25Z" transform="translate(-184 -121)"></path><path class="cls-20" d="M986.29,425s-16.68,23.43-8.61,45.75,4.78,26.46,2.76,46.23S985,532.12,985,532.12l23.4-11S1018.17,427.56,986.29,425Z" transform="translate(-184 -121)"></path><path class="cls-34" d="M1084.42,532.59s9.25,45.25-2.87,64.17c-15.34,23.94-34.1,27.6-48,27.86h-91s-.17-56.79-45-66.49C897.55,558.13,1045.13,517,1084.42,532.59Z" transform="translate(-184 -121)"></path><path class="cls-35" d="M1086.46,545.77,990,548.94l1-6.73,18.8-2.18h76.5Z" transform="translate(-184 -121)"></path><path class="cls-32" d="M961.7,524.56s-11.8,3.43-17.11,5-15.78,5.3-15.78,5.3l7.68,10.92,34.78-2.07Z" transform="translate(-184 -121)"></path><path class="cls-13" d="M1018.88,385.78s-19.8,7.83-22.83,10.25-5.9,22.17-11,31.55-12.66,26.68-1.67,42.57,9.81,28.52,9.81,28.52l-2.33,39.87,91.64,2.79a5.79,5.79,0,0,0,2.43-.44,5.89,5.89,0,0,0,2-1.41,5.78,5.78,0,0,0,1.28-2.11,6,6,0,0,0,.3-2.46c-1-11.63-2.82-29-3.2-47.51-.51-25.08-.89-108.91-.89-108.91l-41.25-1.3C1034.87,378.63,1018.88,385.78,1018.88,385.78Z" transform="translate(-184 -121)"></path><path class="cls-13" d="M1084.42,423a22.25,22.25,0,1,0-22.25-22.25A22.25,22.25,0,0,0,1084.42,423Z" transform="translate(-184 -121)"></path><path class="cls-20" d="M1087.42,525.72s-1.9,6.95-22.25,15.08c0,0-47.71-1-71.41-.53s2.54-5.76,15.77-12.36S1085.92,503,1085.92,503Z" transform="translate(-184 -121)"></path><path class="cls-20" d="M1068.19,412.76s-13.8,12.58-14.61,21.91-2.69,35.36-20.42,38c-21.74,3.18-27.43,6.28-17.35,8.71s32.94-1.51,32.94,8.93c0,7.43,8.88,13,13.35,8.93S1102.12,433.45,1068.19,412.76Z" transform="translate(-184 -121)"></path><path class="cls-13" d="M1106.43,404c-1.87,8.93-19.67,103-19.67,103s-2.34,14.07-16.09,17.55l-95.9,24.38-16.88-25.31,87-29.75,17.3-93.14S1108.93,392.08,1106.43,404Z" transform="translate(-184 -121)"></path><path class="cls-32" d="M1016.65,368.45l.91,30.87s-.24,5.33,6.22,4.61,19.48-5.55,23.07-11.78,1.32-8.36,1.32-8.36l-19.73-38.46Z" transform="translate(-184 -121)"></path><path class="cls-33" d="M1016.65,372l8.08-9.58-7.39,29.47Z" transform="translate(-184 -121)"></path><path class="cls-25" d="M1023.85,292.35a32,32,0,0,1,3.71-17c4.6-8.31,14.14-19.8,28.64-14.85s25.1,16.09,19.62,31.82-20.7,20.77-28.46,19.09S1023.85,292.35,1023.85,292.35Z" transform="translate(-184 -121)"></path><path class="cls-16" d="M1019.18,294.54a7.92,7.92,0,0,1,3.58-3.19,7.79,7.79,0,0,1,4.76-.55c5.74,1.05,11.77,5.58,16.91,11s5,9.38,2.63,11.79S1019.18,294.54,1019.18,294.54Z" transform="translate(-184 -121)"></path><path class="cls-6" d="M892,452.05l36.77,101.88h73.94A11.73,11.73,0,0,0,991,542.21H937.53l-31.75-90.16Z" transform="translate(-184 -121)"></path><path class="cls-36" d="M892,452.05h-99.2L831.2,553.93h97.61Z" transform="translate(-184 -121)"></path><path class="cls-6" d="M860.82,515a8.95,8.95,0,1,0-8.94-8.94A8.94,8.94,0,0,0,860.82,515Z" transform="translate(-184 -121)"></path><path class="cls-32" d="M976.5,330.49s3,29.55,17.43,43c9.38,8.78,18,6.53,30.8-11,11.75-16.1,12.78-23.93,12.78-23.93l-12.42-27.95S975,303.45,976.5,330.49Z" transform="translate(-184 -121)"></path><path class="cls-25" d="M981.58,324.7s7.08,11.26,20,11.44a20.39,20.39,0,0,0,19.71,3.47s-5.16-7.84,0-10.58c8.78-4.67,11.8,10.89,7.12,16.3-3.18,3.68.18,8,2.55,11.8s10,13.32,10,13.32-.73-5.47,2.74-9.49,14.71-45.11-6.18-60.23-42.88-3-47,0c0,0-22,3.83-22,26.66,0,19.52,13.86,24.16,13.86,24.16L978.3,335.8S980.87,336.07,981.58,324.7Z" transform="translate(-184 -121)"></path><path class="cls-37" d="M1004.93,361.1a6.08,6.08,0,0,1-3.88,7.42c-3.72,1.22-6.31-2.42-6.31-2.42Z" transform="translate(-184 -121)"></path><path class="cls-25" d="M985.67,353.67c1.14-.28,1.73-1.87,1.32-3.56s-1.68-2.82-2.83-2.54-1.73,1.88-1.32,3.56S984.53,354,985.67,353.67Z" transform="translate(-184 -121)"></path><path class="cls-25" d="M1002.63,349.74c1.14-.28,1.73-1.88,1.32-3.56s-1.68-2.82-2.83-2.54-1.73,1.88-1.32,3.56S1001.49,350,1002.63,349.74Z" transform="translate(-184 -121)"></path><path class="cls-25" d="M979.09,344.58l8.63-2a.62.62,0,0,0,.35-.27.71.71,0,0,0,.08-.43,2,2,0,0,0-1.1-1.14,2,2,0,0,0-.79-.16,2.14,2.14,0,0,0-.79.16l-6.76,2.87C978.14,343.77,978.39,344.76,979.09,344.58Z" transform="translate(-184 -121)"></path><path class="cls-25" d="M1008.07,336.86l-11.24,3.52a2.37,2.37,0,0,1,0-1.06,2.47,2.47,0,0,1,.43-1,2.68,2.68,0,0,1,.78-.72,2.61,2.61,0,0,1,1-.33l9-1.17C1008.32,336.05,1008.49,336.75,1008.07,336.86Z" transform="translate(-184 -121)"></path><path class="cls-38" d="M991.72,348l-1.22,9.1,3.22,1.55" transform="translate(-184 -121)"></path><path class="cls-39" d="M1182.77,257.63V121" transform="translate(-184 -121)"></path></g></svg>